<svg width="235" height="97" viewBox="0 0 235 97" fill="none" xmlns="http://www.w3.org/2000/svg">
<path d="M19.9677 0C20.1971 0.23815 20.4264 0.119118 20.6558 0.119118C22.3761 0.595418 23.9818 1.54803 25.358 2.73878C27.7665 5.0012 29.6014 7.73991 30.9777 10.8359C32.698 14.4081 33.8449 18.0994 34.7624 22.0288C35.2212 23.815 35.5652 25.6011 35.7946 27.3872C36.0239 28.578 36.1386 29.7687 36.2533 31.0786C36.4827 32.2693 36.4827 33.5791 36.5974 34.7699C36.7121 35.8415 36.712 36.9132 36.712 37.9849C36.712 39.5329 36.712 40.9618 36.712 42.5097C34.6477 42.6288 32.698 42.2716 30.6336 42.3907C30.5189 42.1525 30.519 42.0335 30.519 41.7953C30.519 39.771 30.4043 37.8658 30.1749 35.8416C29.7162 31.6739 29.028 27.7444 27.537 23.815C26.7342 21.6716 25.8168 19.6473 24.4405 17.8612C23.523 16.6705 22.6055 15.7179 21.344 15.0035C19.1649 13.8127 16.9858 14.0509 15.0361 15.5988C13.2011 17.0277 11.9395 18.8139 10.9074 20.9572C9.53111 23.815 8.61364 26.7919 7.92551 29.8878C7.58145 31.4358 7.35206 32.9837 7.12268 34.5317C7.008 35.9606 6.77864 37.5086 6.77864 38.9375C6.77864 40.0092 6.66398 41.1999 6.66398 42.2716C6.20523 42.3906 1.50298 42.6288 0.585485 42.5097C0.470797 42.3907 0.470825 42.1525 0.470825 41.9144C0.470825 40.4855 0.470825 39.0566 0.470825 37.7467C0.585513 36.0797 0.700186 34.5317 0.814874 32.8647C0.929561 31.793 1.04423 30.6023 1.15892 29.5306C1.3883 28.1017 1.61771 26.5537 1.84709 25.1248C2.42053 22.0289 3.22334 19.052 4.14084 16.0751C5.28771 12.741 6.66396 9.40691 8.72834 6.54912C9.9899 4.64392 11.5955 2.9769 13.4305 1.66708C14.4627 0.952628 15.6096 0.357239 16.9858 0.238164C17.1005 0.238164 17.1005 0.238193 17.1005 0.119118C18.3621 4.36047e-05 19.1649 0 19.9677 0Z" fill="white"/>
<path d="M234.433 66.0868C234.089 66.444 233.975 66.9204 233.63 67.1585C232.254 68.3493 229.502 68.1111 228.699 66.2059C228.584 65.8487 228.47 65.6105 228.47 65.2533C228.47 64.1816 228.47 63.1099 228.47 62.0382C228.47 61.8001 228.47 61.5619 228.47 61.3237C228.011 61.2047 227.437 61.3238 226.979 61.2047C226.864 60.7284 226.979 60.133 226.864 59.5376C227.552 59.5376 228.126 59.5376 228.699 59.5376C229.272 59.5376 229.846 59.5376 230.419 59.5376C230.534 59.7758 230.534 60.0139 230.534 60.133C230.534 61.681 230.534 63.1099 230.534 64.6579C230.534 64.8961 230.534 65.1342 230.649 65.3724C230.878 66.2059 231.337 66.325 232.14 65.9677C232.598 65.1342 232.369 64.3007 232.484 63.3481C233.172 63.3481 233.86 63.3481 234.548 63.3481C234.433 64.3007 234.433 65.1342 234.433 66.0868Z" fill="white"/>
<path d="M25.5874 29.5305C25.4727 32.2693 24.3258 34.2935 22.032 35.7225C20.7705 36.556 19.2795 36.9133 17.7886 36.6751C15.8389 36.437 14.1186 35.6034 12.857 33.9363C11.5955 32.3883 11.1367 30.4831 11.3661 28.4588C11.5955 26.9108 12.1689 25.4819 13.2011 24.4102C14.2333 23.3385 15.4949 22.505 16.9858 22.2668C18.4768 21.9096 19.9677 22.0287 21.4586 22.7432C23.4083 23.6958 24.7846 25.3629 25.358 27.5062C25.5874 28.2207 25.7021 28.9352 25.5874 29.5305Z" fill="white"/>
<path d="M46.0018 84.7816C42.6759 84.7816 40.038 82.0428 40.038 78.5896C40.038 75.0174 42.7905 72.2787 46.1165 72.3978C49.3277 72.3978 51.9656 75.0174 51.9656 78.5896C51.9656 82.4 48.9837 84.9006 46.0018 84.7816Z" fill="white"/>
<path d="M64.8105 23.3389C64.9252 26.673 62.058 29.65 58.7321 29.5309C55.4061 29.4118 52.7684 26.673 52.8831 23.2198C52.8831 19.7665 55.6356 17.0278 58.8468 17.0278C62.2874 17.0278 64.9252 20.0047 64.8105 23.3389Z" fill="white"/>
<path d="M46.5753 17.147C49.9012 17.147 52.6537 20.0048 52.539 23.458C52.4243 27.0302 50.0159 29.5308 46.5753 29.6499C43.02 29.6499 40.6115 27.0302 40.6115 23.458C40.4968 20.0048 43.1346 17.147 46.5753 17.147Z" fill="white"/>
<path d="M64.3517 65.3721C64.3517 68.8253 61.7139 71.6831 58.388 71.6831C55.2914 71.6831 52.4242 69.0635 52.4242 65.3721C52.4242 61.9189 55.1767 59.1802 58.388 59.1802C61.7139 59.1802 64.3517 62.038 64.3517 65.3721Z" fill="white"/>
<path d="M51.7361 65.6104C51.6215 69.1827 49.0983 71.8024 45.6577 71.8024C42.3317 71.8024 39.6939 69.0636 39.6939 65.6104C39.6939 61.9191 42.5611 59.4185 45.6577 59.4185C48.869 59.4185 51.6215 62.0381 51.7361 65.6104Z" fill="white"/>
<path d="M64.8105 36.1987C64.9251 39.5328 62.1727 42.3906 58.732 42.3906C55.4061 42.3906 52.883 39.5328 52.883 36.0796C52.883 32.6264 55.7502 29.8877 58.8468 29.8877C62.4021 30.0068 64.9251 32.9836 64.8105 36.1987Z" fill="white"/>
<path d="M77.1969 65.7297C77.4263 69.1829 74.4443 72.0408 71.1184 71.9217C68.0218 71.8026 65.2693 69.0639 65.384 65.7297C65.4986 62.0384 68.1365 59.5378 71.3478 59.5378C74.559 59.4187 77.4263 62.2765 77.1969 65.7297Z" fill="white"/>
<path d="M6.20389 58.228C2.87798 58.347 0.240173 55.3701 0.240173 52.036C0.240173 48.821 2.76329 45.8442 6.20389 45.7251C9.64448 45.7251 12.1676 48.702 12.1676 51.917C12.1676 55.6083 9.18574 58.347 6.20389 58.228Z" fill="white"/>
<path d="M24.4405 52.036C24.5552 55.6083 21.4586 58.347 18.362 58.228C15.2655 58.1089 12.3983 55.2511 12.513 51.7979C12.6277 48.5829 15.0361 45.7251 18.4768 45.7251C22.1468 45.8442 24.5552 49.0592 24.4405 52.036Z" fill="white"/>
<path d="M76.8527 78.7088C76.8527 82.2811 73.9855 84.9008 70.889 84.9008C67.5631 84.9008 64.9252 82.162 64.9252 78.7088C64.9252 75.2555 67.6777 72.3977 70.889 72.5168C74.2149 72.5168 76.8527 75.3746 76.8527 78.7088Z" fill="white"/>
<path d="M71.0036 16.4326C67.563 16.4326 65.1545 13.5748 65.0399 10.2407C65.0399 6.66841 67.563 3.92969 71.0036 3.92969C74.4443 3.92969 76.9674 6.43022 76.9674 10.1216C77.0821 13.6938 74.3296 16.5517 71.0036 16.4326Z" fill="white"/>
<path d="M25.1287 52.1548C25.014 48.8207 27.7665 45.9629 31.0924 45.9629C34.6477 45.9629 37.0562 48.9398 37.0562 52.2739C37.0562 55.7271 34.3036 58.4658 31.0924 58.4658C27.6518 58.4658 25.014 55.3699 25.1287 52.1548Z" fill="white"/>
<path d="M46.4605 16.4321C43.4786 16.6703 40.3821 13.6934 40.6114 9.88298C40.7261 7.02517 43.2492 3.92918 46.9192 4.04825C49.7864 4.16733 52.7683 6.90607 52.5389 10.5974C52.3096 13.5743 49.7864 16.6703 46.4605 16.4321Z" fill="white"/>
<path d="M76.9674 52.3932C77.0821 55.8464 73.9855 58.5852 71.0036 58.5852C67.7924 58.5852 65.0399 55.6083 65.0399 52.2741C65.1545 48.8209 68.0217 46.2012 71.1183 46.2012C74.2149 46.2012 77.0821 49.1781 76.9674 52.3932Z" fill="white"/>
<path d="M12.7424 77.8751C12.6277 74.1837 15.7243 71.6831 18.5915 71.6831C21.9174 71.6831 24.6699 74.4219 24.6699 77.8751C24.6699 81.3283 22.0321 84.1862 18.7062 84.1862C15.2656 84.0671 12.6277 81.2093 12.7424 77.8751Z" fill="white"/>
<path d="M58.5027 46.0822C61.7139 45.9631 64.4664 48.94 64.4664 52.3932C64.4664 55.3701 62.1727 58.4661 58.5027 58.5852C54.8327 58.5852 52.539 55.2511 52.539 52.2742C52.539 48.821 55.4061 45.9631 58.5027 46.0822Z" fill="white"/>
<path d="M5.86109 71.0876C2.87923 71.3257 -0.217365 68.3489 0.012009 64.5385C0.241383 61.3235 2.99393 58.5849 6.09047 58.7039C9.18702 58.7039 12.0542 61.5617 11.9395 65.1339C11.8248 68.468 9.07232 71.2067 5.86109 71.0876Z" fill="white"/>
<path d="M18.362 71.088C15.1508 71.2071 12.3983 68.1111 12.3983 64.896C12.3983 61.3237 15.3802 58.7041 18.362 58.7041C21.5733 58.7041 24.4405 61.5619 24.3258 65.1342C24.2111 68.5874 21.2292 71.2071 18.362 71.088Z" fill="white"/>
<path d="M37.4002 78.2323C37.6295 81.6855 34.533 84.5433 31.4364 84.4243C27.9958 84.3052 25.5874 81.6855 25.5874 78.1132C25.5874 74.5409 28.4545 71.8021 31.7805 71.9212C34.7623 72.0403 37.5149 74.8981 37.4002 78.2323Z" fill="white"/>
<path d="M0.240144 77.8753C0.125456 74.422 2.99263 71.5642 6.31856 71.6833C9.41512 71.8024 12.1677 74.422 12.1677 77.9943C12.1677 81.5666 9.52984 84.1863 6.2039 84.1863C2.99266 84.0672 0.125456 81.2094 0.240144 77.8753Z" fill="white"/>
<path d="M31.0924 71.3259C27.8811 71.4449 25.1286 68.4681 25.1286 65.134C25.1286 61.6808 27.9958 58.823 31.2071 58.9421C34.4183 59.0611 37.0562 61.6808 37.0562 65.134C37.1709 68.5871 34.3037 71.564 31.0924 71.3259Z" fill="white"/>
<path d="M45.887 46.0824C49.0983 46.0824 51.8508 48.9402 51.8508 52.2743C51.8508 55.6084 49.3276 58.4662 45.887 58.4662C42.3317 58.4662 39.9233 55.3703 39.9233 52.1552C39.9233 48.702 42.9052 45.9633 45.887 46.0824Z" fill="white"/>
<path d="M77.082 36.5562C77.1967 38.2232 76.5086 39.6521 75.4764 40.8429C74.3296 42.1527 72.8386 42.8671 71.1183 42.748C67.6777 42.6289 65.2693 40.0093 65.1546 36.4371C65.1546 33.1031 68.0218 30.0072 71.5771 30.2453C74.3295 30.3644 77.3114 33.1031 77.082 36.5562Z" fill="white"/>
<path d="M58.6174 16.4328C55.5208 16.5518 52.6536 13.6939 52.7683 10.1216C52.7683 6.43024 55.7502 3.92969 58.8468 3.92969C61.9434 4.04876 64.6959 6.54932 64.6959 10.1216C64.6959 14.0512 61.5993 16.6709 58.6174 16.4328Z" fill="white"/>
<path d="M58.5027 84.7818C55.2914 84.9009 52.539 81.924 52.539 78.5898C52.539 75.0175 55.4061 72.3979 58.5027 72.2788C61.7139 72.2788 64.4664 75.0176 64.5811 78.4708C64.4664 82.0431 61.5992 84.7818 58.5027 84.7818Z" fill="white"/>
<path d="M46.5752 42.6289C43.364 42.867 40.6115 39.652 40.6115 36.437C40.6115 32.9838 43.4786 30.2451 46.5752 30.2451C49.9011 30.2451 52.5389 33.1029 52.5389 36.437C52.5389 39.7711 50.0158 42.748 46.5752 42.6289Z" fill="white"/>
<path d="M77.0821 23.4579C77.3114 26.673 74.3296 29.7689 71.233 29.6499C67.9071 29.6499 65.2693 26.673 65.2693 23.4579C65.2693 20.0048 68.0218 17.266 71.233 17.147C74.1002 17.266 77.3114 20.1238 77.0821 23.4579Z" fill="white"/>
<path d="M91.1886 14.5272C91.0739 13.4555 91.1886 6.66808 91.1886 5.95361C91.418 5.95361 91.7621 5.95361 92.1062 5.95361C93.3677 5.95361 94.5146 5.95366 95.7761 6.07273C96.923 6.19181 97.7259 7.02537 97.8406 8.09707C98.0699 9.28785 97.3818 10.3595 96.4643 10.5977C96.2349 10.7168 96.1202 10.7167 95.7761 10.7167C97.1524 11.6694 97.6112 13.0983 98.5287 14.4082C98.5287 11.5503 98.5287 8.81148 98.5287 5.95361C99.4462 5.95361 100.249 5.95361 101.052 5.95361C101.511 7.73978 101.969 9.52597 102.543 11.5503C103.001 9.64504 103.46 7.85886 103.919 5.95361C104.722 5.95361 105.525 5.95361 106.442 5.95361C106.442 8.81148 106.442 11.5503 106.442 14.5272C106.098 14.5272 105.869 14.5272 105.525 14.5272C105.295 14.5272 105.066 14.5273 104.836 14.4082C104.836 12.622 104.836 10.7167 104.836 8.93056H104.722C104.263 10.8358 103.804 12.622 103.346 14.5272C102.772 14.5272 102.313 14.5272 101.625 14.5272C101.166 12.622 100.708 10.7168 100.249 8.81151C100.249 8.81151 100.249 8.81151 100.134 8.81151C100.134 10.7168 100.134 12.622 100.134 14.5272C98.8727 14.5272 97.7258 14.5272 96.3496 14.5272C96.2349 14.5272 96.1202 14.2891 96.0055 14.17C95.4321 13.4556 94.9733 12.622 94.5146 11.9075C94.0558 11.193 93.4824 11.074 92.6796 11.1931C92.6796 12.3839 92.6796 13.4556 92.6796 14.6464C92.3355 14.5273 91.762 14.5272 91.1886 14.5272ZM92.9089 9.64507C93.7117 9.64507 94.3999 9.64507 95.088 9.64507C95.2027 9.64507 95.3174 9.52595 95.4321 9.52595C95.7761 9.40687 96.0055 9.16878 96.0055 8.69246C96.0055 8.09707 95.6615 7.62073 95.088 7.62073C94.3999 7.62073 93.5971 7.62073 92.9089 7.62073C92.9089 8.3352 92.9089 8.93061 92.9089 9.64507Z" fill="white"/>
<path d="M164.703 62.2765C164.703 62.0384 164.818 61.9193 164.703 61.6812C164.015 60.9667 163.327 61.0858 163.098 61.9193C162.524 61.9193 161.836 61.9193 161.263 61.9193C161.148 60.8476 161.721 60.2523 162.524 59.776C163.442 59.2997 164.589 59.2997 165.506 59.776C166.08 60.0141 166.538 60.4905 166.768 61.0858C167.112 61.5621 166.997 62.1574 166.768 62.7528C166.538 62.9909 166.309 63.2291 166.08 63.5863C166.194 63.7054 166.309 63.7054 166.424 63.8245C167.571 64.4198 167.8 65.8487 166.997 66.9203C166.538 67.5157 165.965 67.8729 165.277 68.1111C164.474 68.3492 163.671 68.3492 162.868 68.1111C161.607 67.7538 160.804 67.0394 160.46 65.7296C160.46 65.6105 160.46 65.4915 160.46 65.3724C161.148 65.3724 161.721 65.3724 162.524 65.3724C162.524 65.8487 162.754 66.2059 163.212 66.325C163.901 66.444 164.474 66.5631 165.047 66.2059C165.506 65.9678 165.506 65.4915 165.162 64.777C164.703 64.5389 164.245 64.4198 163.786 64.4198C162.868 64.4198 162.065 64.3008 161.148 64.4198C160.804 64.4198 160.46 64.4198 160.23 64.4198C160.116 64.658 160.116 65.0152 160.116 65.2534C160.231 66.4441 159.428 67.5157 158.166 67.992C156.446 68.5874 154.84 66.9204 154.725 65.6106C154.725 65.1343 154.726 64.658 154.955 64.0626C155.414 62.991 156.102 62.5146 157.134 62.5146C157.363 62.5146 157.593 62.5146 157.937 62.5146C157.478 61.0858 156.102 60.8477 154.496 61.6812C154.381 61.8003 154.381 61.9193 154.267 62.0384C154.152 62.1575 154.152 62.2765 154.037 62.3956C154.037 64.0626 154.037 65.8487 154.037 67.7539C153.349 67.7539 152.661 67.7539 152.088 67.7539C151.973 67.6348 151.973 67.5157 151.973 67.3967C151.973 65.8487 151.973 64.3008 151.973 62.6337C151.973 61.443 152.432 60.6095 153.464 60.1332C155.299 59.0615 157.134 59.0616 158.969 60.2523C159.542 60.6095 160.001 61.2048 160.116 61.9193C160.116 62.0383 160.23 62.1574 160.23 62.3956C160.575 62.5147 161.033 62.3956 161.377 62.3956C162.295 62.3956 163.098 62.3956 164.015 62.3956C164.245 62.5147 164.474 62.5147 164.703 62.2765ZM157.363 66.0868C158.051 65.7296 158.166 65.3724 157.937 64.3007C157.249 64.3007 157.019 64.4198 156.905 64.777C156.79 65.3724 156.905 65.8487 157.363 66.0868Z" fill="white"/>
<path d="M112.406 68.8254C112.406 68.5872 112.406 68.349 112.406 68.1109C112.176 68.1109 112.062 68.4681 111.832 68.4681C111.488 68.2299 111.029 67.8728 110.685 67.6346C109.883 67.9919 109.08 68.1109 108.162 67.8727C107.015 67.5155 105.983 66.4439 105.983 65.015C105.983 63.2289 105.983 61.4427 105.983 59.6566C106.671 59.6566 107.36 59.6566 107.933 59.6566C108.162 59.8948 108.048 60.0138 108.048 60.252C108.048 61.6809 108.048 63.1098 108.048 64.6578C108.048 64.8959 108.048 65.1341 108.048 65.2531C108.162 65.8485 108.392 66.2057 108.965 66.3248C109.539 66.3248 109.768 65.9675 109.883 65.4912C109.997 65.2531 109.997 64.8959 109.997 64.6578C109.997 63.2289 109.997 61.9191 109.997 60.4902C109.997 60.252 109.997 60.0138 109.997 59.7757C110.685 59.6566 111.374 59.7757 112.062 59.6566C112.176 60.4901 112.176 65.1341 112.062 65.8485C112.062 65.9676 112.176 66.0866 112.406 66.0866C112.635 65.9675 112.406 65.7294 112.635 65.4912C113.323 65.4912 113.897 65.4912 114.585 65.4912C114.699 65.7294 114.585 65.9676 114.814 66.2057C115.502 66.3248 116.076 65.8485 116.534 65.3722C115.961 65.3722 115.388 65.2531 114.814 65.015C113.667 64.5387 113.209 63.467 113.323 62.1572C113.553 60.371 114.699 59.4185 116.42 59.4185C118.14 59.4185 119.402 60.4901 119.631 61.5618C119.975 62.9907 119.746 64.3005 118.714 65.3722C118.484 65.6103 118.255 65.9676 118.025 66.2057C118.714 66.0866 119.402 66.3248 119.86 67.0393C120.204 67.5156 120.319 68.1109 120.204 68.8254C119.516 68.8254 118.828 68.8254 118.14 68.8254C118.025 68.5872 118.14 68.349 118.025 68.1109C117.911 67.8727 117.567 67.7537 117.223 67.7537C116.42 67.7537 115.502 67.7537 114.699 67.7537C114.585 68.1109 114.699 68.4682 114.585 68.8254C113.782 68.9444 113.094 68.8254 112.406 68.8254ZM115.846 63.8242C116.993 64.0624 117.452 63.586 117.452 62.5144C117.452 61.5618 116.993 61.2046 115.846 61.2046C115.044 61.919 115.044 63.1098 115.846 63.8242Z" fill="white"/>
<path d="M140.734 62.2764C140.504 62.6336 140.275 62.8718 139.931 63.229C140.16 63.4672 140.39 63.5862 140.619 63.8244C141.422 64.5389 141.422 65.9678 140.619 66.8013C139.702 67.873 138.44 68.1112 137.064 67.9921C136.261 67.873 135.458 67.6348 134.885 66.9204C134.655 66.6822 134.426 66.325 134.311 65.9678C134.082 66.5632 133.852 67.0395 133.394 67.3967C132.017 68.5875 129.724 68.2302 128.691 66.8013C128.347 66.325 128.233 65.8487 128.233 65.2533C128.233 64.1816 128.233 63.229 128.233 62.1573C128.233 61.9191 128.233 61.681 128.118 61.4429C127.659 61.4429 127.2 61.4429 126.742 61.4429C126.627 60.8475 126.742 60.3711 126.742 59.7758C127.315 59.6567 128.003 59.7758 128.577 59.7758C129.15 59.7758 129.724 59.7758 130.297 59.7758C130.412 60.0139 130.412 60.2521 130.412 60.3711C130.412 61.8001 130.412 63.3481 130.412 64.777C130.412 65.2533 130.526 65.7296 130.756 66.0868C131.215 66.444 131.559 66.444 132.017 66.0868C132.476 65.3724 132.247 64.4198 132.361 63.4672C133.05 63.4672 133.738 63.4672 134.311 63.4672C134.541 63.11 134.311 62.8718 134.541 62.6336C134.885 62.6336 135.114 62.6336 135.573 62.6336C135.229 62.1573 134.999 61.681 135.229 61.0857C135.458 60.4903 135.917 60.0139 136.49 59.7758C137.293 59.4185 138.096 59.4186 138.899 59.6567C139.587 59.8949 140.046 60.3712 140.504 60.8475C140.848 61.3238 140.734 61.8001 140.734 62.2764ZM134.426 65.1342C135.114 65.1342 135.687 65.1342 136.261 65.1342C136.376 65.3724 136.261 65.6105 136.605 65.9678C137.178 66.325 137.981 66.4441 138.784 65.9678C139.128 65.8487 139.243 65.4914 139.243 65.1342C139.128 64.8961 139.128 64.6579 139.013 64.4198C137.522 63.9435 135.917 64.1816 134.426 64.1816C134.311 64.5388 134.426 64.777 134.426 65.1342ZM136.949 61.8001C137.178 62.5145 137.293 62.5145 138.325 62.3955C138.784 61.9192 138.784 61.681 138.211 61.0857C137.866 61.0857 137.522 60.9665 137.178 61.2047C137.064 61.4429 136.949 61.681 136.949 61.8001Z" fill="white"/>
<path d="M110.341 19.6472C110.341 20.2426 110.341 20.838 110.341 21.4333C111.718 21.4333 112.979 21.4333 114.356 21.4333C114.356 22.0287 114.356 22.5051 114.356 22.9814C112.979 22.9814 111.718 22.9814 110.341 22.9814C110.341 23.6959 110.341 24.4103 110.341 25.1248C111.832 25.1248 113.323 25.1248 114.7 25.1248C114.814 25.482 114.7 25.8392 114.814 26.1964C115.732 24.7675 116.535 23.4577 117.337 22.1478C116.535 20.838 115.732 19.5281 114.814 18.0992C115.502 17.9801 116.076 18.0992 116.764 17.9802C117.337 18.8137 117.796 19.7663 118.37 20.5999C118.943 19.7663 119.402 18.9328 119.861 17.9802C120.549 17.8611 121.122 17.9802 121.81 17.9802C121.007 19.4091 120.09 20.7189 119.287 22.1478C120.205 23.5768 121.122 25.0057 122.04 26.4346C121.351 26.4346 120.663 26.4346 119.975 26.4346C119.402 25.482 118.828 24.6485 118.255 23.5768C117.681 24.5294 117.108 25.482 116.42 26.4346C113.667 26.4346 111.03 26.4346 108.277 26.4346C108.277 23.5767 108.277 20.838 108.277 18.0992C108.277 18.0992 108.277 17.9802 108.392 17.9802C108.392 17.9802 108.392 17.9802 108.506 17.9802C110.456 17.9802 112.406 17.9802 114.356 17.9802C114.585 18.4565 114.356 18.9328 114.47 19.4091C113.209 19.6473 111.832 19.6472 110.341 19.6472Z" fill="white"/>
<path d="M200.715 61.3236C200.256 61.3236 199.798 61.3236 199.339 61.3236C199.339 61.7999 199.339 62.1571 199.339 62.6334C197.963 62.6334 196.586 62.6334 195.21 62.6334C194.981 63.5861 195.095 65.1341 195.325 65.8485C195.784 66.2058 196.242 66.2058 196.701 65.8485C197.16 65.2532 196.816 64.5387 197.045 63.8242C197.733 63.8242 198.421 63.8242 199.224 63.8242C199.224 65.015 199.224 66.2058 198.307 67.0393C196.93 68.3492 194.178 67.9919 193.375 66.0866C193.26 65.8485 193.146 65.4913 193.146 65.2532C193.146 63.3479 193.146 61.5618 193.146 59.6565C193.146 59.6565 193.146 59.5374 193.26 59.5374C193.949 59.5374 194.522 59.5374 195.325 59.5374C195.325 60.0137 195.325 60.371 195.325 60.8473C196.701 60.8473 198.077 60.8473 199.454 60.8473C199.454 60.371 199.454 60.0137 199.454 59.5374C200.027 59.4183 202.206 59.2992 203.124 59.5374C203.124 60.6091 203.124 61.6808 203.124 62.7525C203.124 63.8242 203.009 64.7768 203.353 65.8485C203.468 65.9676 203.582 66.0866 203.697 66.0866C204.156 66.3248 204.615 66.2057 204.729 65.7294C204.844 65.3722 204.959 65.134 204.959 64.7768C204.959 64.5387 204.959 64.3005 204.959 64.1814C204.959 63.9433 204.959 63.7052 204.959 63.467C205.647 63.3479 206.335 63.467 207.023 63.467C207.023 64.3005 207.138 65.015 207.023 65.8485C206.794 67.1584 205.761 67.9919 204.385 68.111C203.238 68.23 202.321 67.8728 201.518 66.9202C201.059 66.3248 200.945 65.7294 200.945 65.015C200.715 63.7051 200.715 62.6334 200.715 61.3236Z" fill="white"/>
<path d="M129.724 54.8936C129.265 54.8936 128.806 54.8936 128.347 54.8936C128.347 55.3699 128.347 55.7271 128.347 56.2034C127.659 56.2034 126.971 56.2034 126.283 56.2034C126.168 56.0843 126.168 55.8462 126.168 55.7272C126.168 54.2983 126.168 52.8694 126.168 51.5596C126.168 51.2024 126.168 50.8451 126.054 50.3688C125.939 49.8925 125.71 49.6543 125.365 49.6543C124.907 49.6543 124.563 49.8925 124.448 50.2497C124.333 50.4879 124.333 50.8451 124.333 51.0832C124.333 51.7977 124.333 52.3931 124.333 53.1075C123.645 53.1075 122.957 53.1075 122.269 53.1075C122.154 53.4647 122.154 53.8219 122.154 54.1791C121.81 55.7271 120.778 56.2035 119.746 56.3225C118.943 56.4416 118.14 56.3225 117.337 55.8462C116.535 55.2508 116.076 54.5364 116.076 53.5838C116.076 52.5121 116.076 51.3214 116.076 50.2497C116.076 50.1306 116.076 50.0116 116.076 49.7735C115.617 49.7735 115.044 49.7735 114.585 49.7735C114.585 49.1781 114.585 48.5827 114.585 47.9874C115.732 47.9874 116.879 47.9874 118.14 47.9874C118.255 48.1064 118.255 48.3446 118.255 48.5827C118.255 50.0116 118.255 51.4405 118.255 52.8694C118.255 53.1075 118.255 53.3457 118.37 53.7029C118.599 54.5364 118.714 54.6555 119.631 54.6555C120.549 53.941 120.09 52.8693 120.319 51.7977C121.007 51.7977 121.695 51.7977 122.384 51.7977C122.384 51.4404 122.384 51.0833 122.384 50.726C122.384 49.4162 123.301 48.4637 124.333 47.9874C124.907 47.7492 125.595 47.7492 126.283 47.8682C127.43 48.1064 128.577 49.1781 128.577 50.726C128.577 51.4405 128.577 52.1549 128.577 52.9884C129.035 52.9884 129.494 52.9884 129.953 52.9884C129.724 53.8219 129.724 54.2983 129.724 54.8936Z" fill="white"/>
<path d="M171.011 14.5271C170.323 14.6462 169.635 14.5271 168.947 14.5271C168.717 13.9317 168.488 13.2173 168.259 12.6219C167.226 12.6219 166.194 12.6219 165.162 12.6219C164.818 13.2173 164.703 13.9317 164.359 14.5271C163.212 14.5271 162.066 14.5271 160.919 14.5271C160.689 14.0508 160.804 7.14444 160.919 6.07275C161.492 6.07275 161.951 6.07275 162.639 6.07275C162.639 6.90629 162.639 7.85888 162.639 8.81149C162.639 9.7641 162.639 10.5976 162.639 11.5502C162.639 12.5028 162.639 13.3363 162.639 14.289C162.639 14.289 162.639 14.289 162.754 14.289C163.786 11.5502 164.818 8.81147 165.85 6.1918C166.424 6.1918 166.997 6.07272 167.685 6.1918C168.717 8.93055 169.864 11.7884 170.897 14.6462C171.011 14.4081 171.011 14.1699 171.011 14.0509C171.011 11.6693 171.011 9.40687 171.011 7.02535C171.011 6.7872 170.897 6.54907 171.126 6.31092C171.011 8.93059 171.011 11.7884 171.011 14.5271ZM166.768 8.33515C166.424 9.28776 165.965 10.1214 165.736 11.074C166.424 11.074 167.112 11.193 167.685 11.074C167.341 10.1214 166.997 9.28776 166.768 8.33515Z" fill="white"/>
<path d="M131.215 14.527C130.641 14.6461 130.068 14.527 129.494 14.6461C129.265 14.0507 129.035 13.3362 128.806 12.7408C127.774 12.7408 126.742 12.7408 125.71 12.7408C125.365 13.3362 125.251 14.0507 124.907 14.6461C123.76 14.6461 122.613 14.6461 121.466 14.6461C121.466 11.7883 121.466 9.04945 121.466 6.1916C122.04 6.1916 122.498 6.1916 123.186 6.1916C123.186 8.93037 123.186 11.6691 123.186 14.2888H123.301C124.333 11.5501 125.365 8.93037 126.398 6.1916C126.971 6.07252 127.545 6.1916 128.233 6.1916C128.691 7.26329 129.035 8.335 129.494 9.40669C130.068 11.0738 130.756 12.6217 131.329 14.2888C131.1 14.1698 131.215 14.2888 131.215 14.527C131.215 14.4079 131.215 14.527 131.215 14.527ZM128.118 11.1929C127.774 10.2402 127.43 9.28759 127.086 8.33497C126.742 9.40666 126.398 10.2402 126.168 11.1929C126.856 11.1929 127.43 11.1929 128.118 11.1929Z" fill="white"/>
<path d="M126.398 59.6569C126.512 60.3714 126.512 64.8961 126.283 65.9678C126.627 66.2059 126.971 66.4441 127.43 66.8013C127.086 67.3967 126.742 67.992 126.283 68.4683C125.824 68.2301 125.48 67.873 124.907 67.6348C124.104 67.992 123.301 68.111 122.384 67.8729C121.351 67.6348 120.434 66.6822 120.319 65.3724C120.205 63.5863 120.319 61.6812 120.319 59.8951C120.319 59.8951 120.319 59.776 120.434 59.6569C121.122 59.5379 121.81 59.6569 122.498 59.6569C122.613 59.8951 122.613 60.1332 122.613 60.3713C122.613 61.9193 122.613 63.4673 122.613 65.0152C122.613 65.7296 122.842 65.9678 123.53 66.2059C124.219 65.9678 124.448 65.7296 124.448 65.0152C124.448 63.4673 124.448 61.9193 124.448 60.4904C124.448 60.2523 124.448 60.0141 124.448 59.776C125.021 59.6569 125.709 59.6569 126.398 59.6569Z" fill="white"/>
<path d="M151.17 6.07275C151.744 6.07275 152.317 6.07275 152.776 6.07275C152.776 8.93063 152.776 11.6694 152.776 14.5273C152.202 14.5273 151.629 14.5273 151.056 14.5273C150.023 12.8602 148.991 11.1931 148.074 9.52598C147.959 10.0023 147.959 10.3595 147.959 10.7168C147.959 11.074 147.959 11.5503 147.959 11.9075C147.959 12.3839 147.959 12.7411 147.959 13.2175C147.959 13.5747 147.959 14.051 147.959 14.5273C147.385 14.5273 146.927 14.5273 146.353 14.5273C146.353 11.7885 146.353 8.93063 146.353 6.07275C146.812 6.07275 147.385 6.07275 147.959 6.07275C148.991 7.85893 150.023 9.52599 151.17 11.5503C151.17 9.64507 151.17 7.85893 151.17 6.07275Z" fill="white"/>
<path d="M115.732 6.07275C116.764 7.85888 117.796 9.64501 118.943 11.4311H119.058C119.058 9.64501 119.058 7.97793 119.058 6.1918C119.631 6.07272 120.09 6.1918 120.663 6.1918C120.778 6.6681 120.893 13.3364 120.778 14.6462C120.205 14.6462 119.631 14.6462 119.058 14.6462C118.026 12.9791 116.993 11.312 116.076 9.52589H115.961C115.961 11.1929 115.961 12.86 115.961 14.5271C115.617 14.6461 115.388 14.6462 115.158 14.6462C114.929 14.6462 114.7 14.6462 114.356 14.6462C114.356 11.7884 114.356 9.0496 114.356 6.1918C114.7 5.95365 115.158 6.07275 115.732 6.07275Z" fill="white"/>
<path d="M197.963 9.28782C197.963 11.1931 197.963 12.8601 197.963 14.5272C197.389 14.5272 196.93 14.5272 196.357 14.5272C196.242 14.0509 196.128 7.73981 196.242 6.07273C196.816 5.95366 197.274 6.07273 197.848 6.07273C198.88 7.85889 199.912 9.645 200.944 11.3121H201.059C201.059 9.52592 201.059 7.85889 201.059 6.07273C201.633 5.83458 202.091 6.07269 202.665 5.95361C202.779 6.549 202.894 12.9792 202.78 14.4081C202.206 14.4081 201.633 14.4081 201.059 14.4081C200.142 12.8601 199.11 11.1931 197.963 9.28782Z" fill="white"/>
<path d="M160.804 23.3387C160.804 21.6716 160.804 19.8854 160.804 18.0993C161.377 17.9802 161.836 18.0993 162.295 18.0993C162.41 18.5756 162.524 25.4821 162.295 26.5537C161.721 26.5537 161.148 26.5537 160.575 26.5537C160.116 25.7202 159.542 24.8866 159.084 24.0531C158.625 23.2196 158.051 22.3861 157.478 21.5525C157.478 23.2196 157.478 24.8867 157.478 26.5537C157.134 26.6728 156.905 26.6728 156.675 26.6728C156.446 26.6728 156.216 26.6728 155.872 26.6728C155.872 23.815 155.872 21.0763 155.872 18.2184C156.446 18.2184 157.019 18.2184 157.593 18.2184C158.625 19.8855 159.657 21.6716 160.689 23.4577C160.804 23.3386 160.804 23.3387 160.804 23.3387Z" fill="white"/>
<path d="M185.118 21.5527C185.118 23.2197 185.118 24.8868 185.118 26.5538C184.544 26.5538 184.085 26.5538 183.512 26.5538C183.397 26.0775 183.397 18.9331 183.512 18.0996C184.085 18.0996 184.544 18.0996 185.118 18.0996C186.15 19.8857 187.182 21.5527 188.214 23.3388H188.329C188.329 21.6718 188.329 19.8857 188.329 18.0996C188.902 18.0996 189.361 18.0996 189.935 18.0996C190.049 18.695 190.049 25.8393 189.935 26.5538C189.361 26.5538 188.788 26.5538 188.214 26.5538C187.756 25.7203 187.182 24.8867 186.723 24.0532C186.265 23.2197 185.691 22.3862 185.232 21.5527C185.232 21.5527 185.232 21.5527 185.118 21.5527Z" fill="white"/>
<path d="M150.597 48.2255C151.285 48.2255 151.973 48.2255 152.661 48.2255C152.776 48.4636 152.776 48.7018 152.776 48.94C152.776 50.4879 152.776 52.0358 152.776 53.4647C152.776 53.8219 152.776 54.0601 153.005 54.2982C153.464 54.8936 154.152 54.7745 154.381 54.1791C154.496 53.941 154.611 53.5838 154.611 53.2265C154.611 51.7977 154.611 50.3688 154.611 48.8208C154.611 48.5827 154.611 48.3446 154.611 48.1064C155.299 48.1064 155.987 48.1064 156.675 48.1064C156.79 48.5827 156.79 53.4647 156.675 54.2982C157.019 54.5364 157.363 54.7745 157.707 55.1317C157.363 55.7271 157.019 56.2033 156.56 56.7987C155.987 56.5606 155.643 56.2033 155.184 55.9652C154.496 56.3224 153.693 56.4415 152.891 56.3225C151.4 55.9652 150.597 55.0126 150.482 53.4647C150.367 51.7977 150.482 50.0116 150.482 48.3446C150.482 48.3446 150.597 48.3446 150.597 48.2255Z" fill="white"/>
<path d="M143.716 55.2506C143.371 55.846 143.027 56.4414 142.683 56.9177C142.225 56.6796 141.881 56.3223 141.422 56.0842C140.848 56.3223 140.275 56.4414 139.587 56.4414C138.096 56.3223 136.834 55.2506 136.834 53.5836C136.834 51.7974 136.834 50.0114 136.834 48.3443C136.834 48.3443 136.834 48.2252 136.949 48.2252C137.637 48.2252 138.211 48.2252 138.899 48.2252C139.013 48.4633 139.013 48.7015 139.013 48.9397C139.013 50.3686 139.013 51.9166 139.013 53.3455C139.013 53.9408 139.128 54.4171 139.701 54.6553C140.046 54.7743 140.39 54.6553 140.619 54.4171C140.848 54.0599 140.963 53.7027 140.963 53.2264C140.963 51.7975 140.963 50.3685 140.963 48.8206C140.963 48.5824 140.963 48.3443 140.963 48.1061C141.651 47.9871 142.339 48.1061 143.142 48.1061C143.142 50.2495 143.257 52.2738 143.027 54.4171C143.027 54.7743 143.371 55.0125 143.716 55.2506Z" fill="white"/>
<path d="M167.8 59.6567C168.603 59.6567 169.176 59.6567 169.864 59.6567C169.979 59.8949 169.979 60.014 169.979 60.2521C169.979 61.4429 169.979 62.7527 169.979 63.9434C169.979 64.5388 169.979 65.1342 170.094 65.6105C170.323 65.8486 170.438 66.0868 170.896 66.2059C171.355 66.2059 171.699 65.8486 171.814 65.3723C171.814 65.1342 171.929 64.896 171.929 64.5388C171.929 63.1099 171.929 61.681 171.929 60.3712C171.929 60.133 171.929 59.8949 171.929 59.6567C172.617 59.6567 173.305 59.6567 173.993 59.6567C174.108 60.6093 174.108 65.2533 173.878 65.8487C174.222 66.2059 174.566 66.444 175.025 66.6821C174.681 67.2775 174.337 67.8729 173.878 68.4683C173.42 68.111 172.961 67.8729 172.617 67.6348C171.814 67.992 171.011 68.111 170.208 67.8729C169.061 67.6347 168.029 66.6822 168.029 65.2533C167.8 63.3481 167.8 61.5619 167.8 59.6567Z" fill="white"/>
<path d="M131.215 14.5271C131.215 14.5271 131.215 14.408 131.215 14.5271C131.559 14.289 131.329 14.0508 131.329 13.8127C131.329 11.5503 131.329 9.16874 131.329 6.9063C131.329 6.66815 131.329 6.42995 131.444 6.1918C132.017 6.07272 132.476 6.19183 133.05 6.07275C134.082 7.85889 135.229 9.64505 136.375 11.6693C136.375 9.76412 136.375 7.97794 136.375 6.1918C136.949 6.07272 137.408 6.07275 137.981 6.07275C137.981 8.93058 137.981 11.6693 137.981 14.5271C137.522 14.6462 136.949 14.5272 136.375 14.6462C135.343 12.9792 134.311 11.193 133.164 9.28782C133.164 11.193 133.164 12.8601 133.164 14.6462C132.361 14.5272 131.788 14.6462 131.215 14.5271Z" fill="white"/>
<path d="M221.703 10.8356C222.965 12.0264 222.85 12.0263 224.341 14.527C223.653 14.527 223.079 14.527 222.391 14.527C222.276 14.4079 222.162 14.2889 222.047 14.0507C221.474 13.3362 221.015 12.5027 220.556 11.7882C220.097 11.0737 219.524 10.9547 218.721 11.0738C218.721 12.1455 218.721 13.3362 218.721 14.527C218.148 14.527 217.574 14.527 217.001 14.527C217.001 11.6691 217.001 8.93033 217.001 6.07245C217.23 5.95338 217.574 6.07245 217.804 6.07245C219.065 6.07245 220.212 6.07243 221.474 6.1915C222.735 6.31058 223.538 7.26322 223.653 8.21585C223.767 9.40663 223.194 10.3593 222.047 10.8356C222.047 10.8356 221.932 10.8356 221.703 10.8356ZM218.721 9.6448C219.524 9.6448 220.212 9.6448 220.9 9.6448C221.015 9.6448 221.13 9.52568 221.244 9.52568C221.588 9.4066 221.818 9.1685 221.818 8.69219C221.818 8.0968 221.474 7.62046 220.9 7.62046C220.212 7.62046 219.409 7.62046 218.721 7.62046C218.721 8.33493 218.721 8.93033 218.721 9.6448Z" fill="white"/>
<path d="M96.1202 54.5364C96.4643 54.7745 96.8083 55.0126 97.1523 55.2508C96.923 55.8461 96.4643 56.4415 96.1202 57.0369C95.6615 56.7987 95.3174 56.5606 94.8586 56.2033C94.5145 56.2033 94.1705 56.4415 93.8265 56.4415C92.5649 56.6796 91.1887 56.3224 90.3859 55.0126C90.1565 54.6554 90.0417 54.4173 90.0417 54.0601C90.0417 52.1549 90.0417 50.2497 90.0417 48.2255C90.7299 48.2255 91.418 48.2255 92.1062 48.2255C92.2209 48.4636 92.2208 48.7018 92.2208 48.94C92.2208 50.3688 92.2208 51.7977 92.2208 53.1075C92.2208 53.3456 92.2208 53.5838 92.3355 53.941C92.5649 54.7745 93.0236 54.8936 93.7117 54.5364C93.9411 54.1792 94.0558 53.8219 94.0558 53.4647C94.1705 52.0358 94.0558 50.726 94.0558 49.2972C94.0558 48.94 94.0558 48.5827 94.0558 48.1064C94.7439 48.1064 95.4321 48.1064 96.1202 48.1064C96.2349 49.059 96.2349 52.8694 96.1202 54.5364Z" fill="white"/>
<path d="M96.6937 53.7029C97.3818 53.7029 97.9552 53.7029 98.6433 53.7029C98.6433 54.2983 98.8727 54.6555 99.4461 54.7746C100.02 54.8936 100.708 54.8937 101.281 54.5365C101.625 54.2983 101.74 53.822 101.396 53.2266C101.166 52.9884 100.822 52.8694 100.478 52.8694C99.4461 52.8694 98.5286 52.8694 97.4964 52.8694C97.267 52.8694 97.0377 52.8694 96.8083 52.8694C96.8083 52.274 96.8083 51.7977 96.8083 51.0833C98.0699 50.8451 99.3315 51.0833 100.708 50.9642C101.052 50.607 101.052 50.6069 100.937 50.0116C100.364 49.5353 100.364 49.5353 99.4461 49.7735C99.3314 49.8926 99.3314 50.1307 99.2167 50.2497C98.6433 50.2497 97.9552 50.2497 97.3818 50.2497C97.3818 49.2971 97.8405 48.7018 98.5286 48.2255C99.5608 47.6301 101.166 47.511 102.313 48.4636C103.116 49.059 103.46 49.8926 103.116 50.9642C102.887 51.3214 102.657 51.5595 102.199 51.7977C102.428 51.9168 102.657 52.0359 102.887 52.155C103.575 52.6313 103.804 53.3457 103.575 54.0601C103.346 54.8937 102.887 55.6081 102.084 55.8463C100.478 56.5607 98.8727 56.4416 97.4964 55.2509C96.923 55.1318 96.6937 54.4174 96.6937 53.7029Z" fill="white"/>
<path d="M99.4461 26.6725C98.8727 26.6725 98.2993 26.6725 97.7258 26.6725C97.7258 23.8147 97.7258 21.076 97.7258 18.3373C97.9552 18.2182 98.0699 18.2183 98.2993 18.2183C99.5608 18.2183 100.937 18.2183 102.199 18.2183C103.116 18.2183 103.804 18.6945 104.263 19.6471C104.607 20.4806 104.607 21.4332 103.919 22.1477C103.804 22.2668 103.804 22.2668 103.804 22.3858C103.46 22.624 103.001 22.8621 102.543 22.9812C103.804 23.9338 104.378 25.3627 105.181 26.6725C104.492 26.7916 103.919 26.6725 103.231 26.6725C103.001 26.4343 102.772 26.1962 102.657 25.9581C102.199 25.3627 101.74 24.7673 101.396 24.0528C100.937 23.3384 100.364 22.9812 99.4461 23.2193C99.4461 24.291 99.4461 25.4817 99.4461 26.6725ZM99.4461 21.6714C100.249 21.6714 100.937 21.6714 101.625 21.6714C102.199 21.6714 102.543 21.1951 102.657 20.7188C102.657 20.1234 102.428 19.7662 101.855 19.6471C101.052 19.528 100.249 19.6471 99.4461 19.6471C99.4461 20.3615 99.4461 20.9569 99.4461 21.6714Z" fill="white"/>
<path d="M171.011 14.5273C171.011 11.7885 171.011 8.9306 171.011 6.1918C171.47 5.95365 172.043 6.19183 172.502 6.07275C173.534 7.85893 174.681 9.76419 175.828 11.6694C175.828 9.76419 175.828 7.97797 175.828 6.1918C176.402 6.07272 176.86 6.07272 177.434 6.1918C177.434 9.04968 177.434 11.7885 177.434 14.6464C176.975 14.7655 176.402 14.6464 175.828 14.7654C174.681 13.0983 173.764 11.3122 172.617 9.40693C172.617 11.1931 172.617 12.9793 172.617 14.7654C172.043 14.5273 171.585 14.6463 171.011 14.5273Z" fill="white"/>
<path d="M90.8446 66.3248C90.8446 66.8011 90.8446 67.2774 90.8446 67.6346C90.1565 67.6346 89.4684 67.6346 88.6656 67.6346C88.6656 67.1583 88.6656 66.8011 88.6656 66.3248C88.0921 66.2057 87.5187 66.2057 87.0599 66.2057C85.7983 66.0867 84.9955 65.2531 84.6515 64.1815C84.1927 62.7526 84.3074 61.4428 85.3396 60.3711C86.2571 59.4185 87.6333 59.1804 88.8949 59.7758C90.1565 60.3711 90.8446 61.3237 90.8446 62.7526C90.8446 63.348 90.8446 63.9434 90.8446 64.6578C91.3034 64.6578 91.7621 64.6578 92.2209 64.6578C92.2209 65.2532 92.2209 65.8485 92.2209 66.4439C91.8768 66.3248 91.4181 66.3248 90.8446 66.3248ZM86.9452 64.3005C87.5187 64.7768 88.0921 64.6578 88.6656 64.5387C88.6656 63.7052 88.6656 62.8717 88.6656 62.0382C88.6656 61.3237 88.3215 61.0856 87.6333 61.0856C87.404 61.0856 87.2893 61.2046 87.0599 61.3237C86.3718 62.2763 86.4865 63.3479 86.9452 64.3005Z" fill="white"/>
<path d="M153.464 6.07275C154.955 6.07275 156.446 5.95365 157.822 6.1918C158.854 6.42994 159.542 7.26348 159.886 8.21607C160.46 9.52588 160.46 10.9548 160.001 12.3837C159.542 13.6935 158.625 14.4079 157.363 14.527C156.102 14.646 154.726 14.527 153.464 14.527C153.464 11.6692 153.464 8.93053 153.464 6.07275ZM155.184 13.0981C155.872 13.0981 156.561 13.0981 157.249 12.979C157.707 12.86 158.051 12.6218 158.281 12.1455C158.625 11.0738 158.625 10.0021 158.396 8.93048C158.281 8.21604 157.822 7.73977 157.134 7.6207C156.446 7.50162 155.872 7.6207 155.184 7.6207C155.184 9.40681 155.184 11.1929 155.184 13.0981Z" fill="white"/>
<path d="M89.239 22.3862C89.239 20.9573 89.583 19.7666 90.6152 18.814C90.9593 18.4567 91.418 18.2185 91.9915 18.0995C93.1383 17.8613 94.3999 17.8613 95.4321 18.4567C96.579 19.1711 97.1525 20.3619 97.2671 21.6717C97.3818 22.5052 97.2671 23.4579 97.0378 24.2914C96.579 25.6012 95.3174 26.6729 93.9412 26.7919C93.253 26.7919 92.6796 26.911 91.9915 26.6729C90.8446 26.3157 90.0418 25.4821 89.6977 24.4104C89.239 23.696 89.1243 22.9816 89.239 22.3862ZM91.074 22.3862C91.074 22.6244 91.074 22.9815 91.074 23.2197C91.074 23.4578 91.1887 23.696 91.3034 23.8151C91.6474 24.6486 92.4503 25.244 93.2531 25.244C94.1706 25.244 94.8586 24.7677 95.2027 23.8151C95.5468 22.8625 95.5468 21.9099 95.2027 20.9573C94.8586 20.0047 94.1706 19.5284 93.2531 19.5284C92.2209 19.5284 91.5327 20.1237 91.3034 20.8382C91.074 21.3145 90.9593 21.7908 91.074 22.3862Z" fill="white"/>
<path d="M216.313 13.0983C216.313 13.5746 216.313 14.051 216.313 14.5273C214.248 14.5273 212.184 14.5273 210.12 14.5273C210.12 11.6694 210.12 8.93063 210.12 6.07275C212.184 6.07275 214.134 6.07275 216.198 6.07275C216.198 6.54907 216.198 7.02537 216.198 7.62076C214.822 7.62076 213.331 7.62076 211.955 7.62076C211.955 8.21615 211.955 8.81154 211.955 9.40693C213.331 9.40693 214.592 9.40693 215.969 9.40693C215.969 10.0023 215.969 10.4786 215.969 10.9549C214.592 10.9549 213.331 10.9549 211.955 10.9549C211.955 11.6694 211.955 12.3839 211.955 13.0983C213.331 13.0983 214.822 13.0983 216.313 13.0983Z" fill="white"/>
<path d="M147.844 67.7537C147.156 67.7537 146.468 67.7537 145.78 67.7537C145.665 67.6346 145.665 67.3964 145.665 67.1583C145.665 65.7294 145.665 64.1814 145.665 62.7525C145.665 62.1572 145.551 61.5618 145.092 61.2046C144.518 61.2046 144.518 61.2045 144.06 61.3236C143.83 61.6808 143.716 62.1572 143.716 62.6335C143.716 64.0624 143.716 65.4912 143.716 66.9201C143.716 67.1583 143.716 67.3965 143.716 67.6346C143.027 67.6346 142.339 67.6346 141.766 67.6346C141.651 67.5155 141.651 67.2774 141.651 67.1583C141.651 65.4912 141.651 63.9433 141.651 62.2763C141.651 60.7283 142.798 59.4185 144.404 59.4185C144.862 59.4185 145.436 59.4184 145.895 59.5375C146.812 59.8947 147.5 60.4901 147.73 61.5618C147.844 61.919 147.844 62.3953 147.844 62.7525C147.844 64.4196 147.844 66.0866 147.844 67.7537Z" fill="white"/>
<path d="M226.749 67.7537C226.061 67.7537 225.373 67.7537 224.799 67.7537C224.685 67.5155 224.685 67.3964 224.685 67.1583C224.685 65.6103 224.685 64.1814 224.685 62.6335C224.685 61.919 224.57 61.6809 224.111 61.2046C223.882 61.2046 223.653 61.2046 223.538 61.2046C223.194 61.3236 222.964 61.4427 222.964 61.7999C222.964 62.1572 222.85 62.5144 222.85 62.7525C222.85 64.1814 222.85 65.4912 222.85 66.9201C222.85 67.1583 222.85 67.3965 222.85 67.6346C222.162 67.6346 221.474 67.6346 220.785 67.6346C220.785 67.5155 220.785 67.5155 220.785 67.3965C220.785 65.6103 220.785 63.8242 220.785 62.1572C220.785 60.4901 221.932 59.5375 223.423 59.4185C223.882 59.4185 224.341 59.4184 224.914 59.5375C225.946 59.8947 226.864 60.8474 226.864 62.2763C226.635 64.0624 226.749 65.8485 226.749 67.7537Z" fill="white"/>
<path d="M173.764 50.6068C173.075 50.7259 172.502 50.7259 171.814 50.6068C171.699 50.2496 171.585 49.7733 171.126 49.6543C170.782 49.5352 170.552 49.6542 170.323 50.0115C170.323 50.2496 170.208 50.6069 170.323 50.845C170.438 51.0831 170.667 51.2022 170.896 51.2022C171.355 51.3213 171.699 51.4404 172.158 51.4404C173.076 51.6785 173.649 52.2739 173.878 53.2265C174.108 54.1791 173.993 54.8935 173.305 55.608C172.846 56.0842 172.273 56.2034 171.699 56.3224C171.011 56.4415 170.208 56.4415 169.52 56.2033C168.603 55.8461 167.8 55.0126 167.8 53.5837C168.488 53.4646 169.176 53.5837 169.864 53.5837C170.094 53.9409 169.864 54.2982 170.208 54.5363C170.552 54.7745 170.896 54.6554 171.241 54.6554C171.355 54.5363 171.585 54.4172 171.699 54.2982C171.814 54.06 171.814 53.8219 171.699 53.4646C171.47 53.1074 171.011 52.9883 170.667 52.8693C170.323 52.7502 169.979 52.7502 169.635 52.6311C168.603 52.2739 168.029 51.4404 167.914 50.3688C167.914 49.178 168.717 48.2254 169.635 47.9873C170.438 47.7491 171.355 47.7491 172.158 48.1063C173.305 48.5826 173.878 49.5352 173.764 50.6068Z" fill="white"/>
<path d="M179.957 53.703C180.645 53.5839 181.333 53.703 182.021 53.703C182.25 53.9411 182.021 54.1793 182.25 54.4174C182.25 54.5365 182.48 54.6555 182.709 54.7746C183.168 54.8937 183.512 54.8937 183.971 54.4174C184.2 54.0602 184.2 53.8221 183.856 53.3458C183.397 52.9886 182.824 52.9885 182.136 52.8695C181.218 52.6313 180.53 52.0359 180.301 51.0834C180.071 50.0117 180.53 48.7018 181.562 48.2256C182.595 47.7493 183.741 47.8684 184.774 48.3447C185.576 48.7019 186.035 49.5354 185.921 50.607C185.232 50.607 184.544 50.607 183.971 50.607C183.741 50.3689 183.971 50.1307 183.741 50.0117C183.168 49.5354 182.939 49.6545 182.48 50.1308C182.365 50.3689 182.48 50.7262 182.48 50.9643C182.595 51.3215 182.824 51.3215 183.053 51.4406C183.627 51.5596 184.085 51.6787 184.659 51.7978C185.576 52.0359 186.15 52.8694 186.265 53.822C186.379 54.7746 186.035 55.6082 185.003 56.0845C183.971 56.6798 182.824 56.6798 181.677 56.3226C180.76 55.9654 180.186 55.37 180.071 54.2984C179.957 54.0602 179.842 53.9411 179.957 53.703Z" fill="white"/>
<path d="M195.784 13.0983C195.784 13.5746 195.784 14.051 195.784 14.5273C193.719 14.5273 191.655 14.5273 189.59 14.5273C189.59 11.6694 189.59 8.93063 189.59 6.07275C191.54 6.07275 193.604 6.07275 195.669 6.07275C195.784 6.54907 195.669 7.02537 195.669 7.62076C194.178 7.62076 192.802 7.62076 191.311 7.62076C191.311 8.21615 191.311 8.81154 191.311 9.40693C192.687 9.40693 193.949 9.40693 195.325 9.40693C195.325 10.0023 195.325 10.4786 195.325 10.9549C193.949 10.9549 192.687 10.9549 191.311 10.9549C191.311 11.6694 191.311 12.3839 191.311 13.0983C192.687 13.0983 194.178 13.0983 195.784 13.0983Z" fill="white"/>
<path d="M176.746 21.4337C176.746 21.91 176.746 22.2672 176.746 22.6244C176.746 22.7435 176.745 22.8626 176.631 22.9817C175.369 22.9817 173.993 22.9817 172.732 22.9817C172.732 23.6962 172.732 24.4106 172.732 25.125C174.222 25.125 175.713 25.125 177.204 25.125C177.204 25.6013 177.204 26.0776 177.204 26.5539C176.745 26.673 172.158 26.673 171.011 26.5539C171.011 23.8152 171.011 20.9574 171.011 18.0996C173.076 18.0996 175.025 18.0996 177.09 18.0996C177.204 18.5759 177.09 19.0522 177.204 19.5285C175.713 19.5285 174.337 19.5285 172.846 19.5285C172.846 20.1239 172.846 20.7193 172.846 21.3146C174.108 21.4337 175.369 21.4337 176.746 21.4337Z" fill="white"/>
<path d="M207.138 65.1339C207.826 65.1339 208.514 65.1339 209.202 65.1339C209.317 65.372 209.202 65.8483 209.546 66.0865C210.005 66.3246 210.464 66.3246 210.922 65.9674C211.266 65.253 211.152 64.7766 210.349 64.5385C209.89 64.4194 209.317 64.3004 208.858 64.1813C207.941 63.9431 207.138 62.7524 207.252 61.5616C207.482 60.2518 208.514 59.2992 209.776 59.4183C210.234 59.4183 210.693 59.4182 211.037 59.5373C212.184 59.6564 212.987 60.9663 212.872 62.0379C212.528 62.157 212.184 62.0379 211.84 62.0379C211.496 62.0379 211.152 62.0379 210.808 62.0379C210.693 61.6807 210.693 61.3235 210.234 61.2044C210.12 61.2044 209.89 61.2044 209.661 61.2044C209.202 61.6807 209.202 61.9189 209.546 62.6333C210.12 62.8715 210.693 62.9905 211.266 63.1096C212.643 63.3477 213.56 65.0148 212.872 66.5628C212.643 67.0391 212.299 67.3963 211.84 67.6345C210.808 68.1108 209.776 68.2298 208.629 67.8726C207.711 67.3963 206.908 66.3246 207.138 65.1339Z" fill="white"/>
<path d="M107.245 14.5273C107.245 11.6694 107.245 8.93063 107.245 6.07275C109.195 6.07275 111.259 6.07275 113.209 6.07275C113.209 6.54907 113.209 7.02539 113.209 7.50171C111.832 7.50171 110.341 7.50171 108.965 7.50171C108.85 8.0971 108.965 8.69249 108.851 9.28788C110.227 9.28788 111.488 9.28788 112.865 9.28788C112.865 9.76419 112.865 10.2405 112.865 10.8359C111.488 10.8359 110.227 10.8359 108.851 10.8359C108.736 11.5504 108.851 12.2648 108.851 12.9793C110.341 12.9793 111.832 12.9793 113.323 12.9793C113.438 13.4556 113.323 13.9319 113.438 14.4082C111.374 14.5273 109.309 14.5273 107.245 14.5273Z" fill="white"/>
<path d="M136.032 25.1247C136.032 25.601 136.032 26.0773 136.032 26.5536C135.458 26.6727 131.1 26.6727 129.838 26.6727C129.838 23.9339 129.838 21.0761 129.838 18.2183C131.903 18.2183 133.852 18.2183 135.917 18.2183C135.917 18.6946 135.917 19.1708 135.917 19.6471C134.426 19.6471 133.05 19.6471 131.559 19.6471C131.444 20.2425 131.559 20.8379 131.444 21.4333C132.82 21.4333 134.196 21.4333 135.458 21.4333C135.573 21.5523 135.573 21.6715 135.573 21.9096C135.573 22.2668 135.573 22.6241 135.458 23.1004C134.77 23.1004 134.082 23.1004 133.508 23.1004C132.82 23.1004 132.132 23.1004 131.444 23.1004C131.444 23.8148 131.444 24.5293 131.444 25.2437C131.903 25.3628 132.476 25.2438 132.935 25.3629C133.394 25.3629 133.967 25.3629 134.426 25.3629C134.999 25.1247 135.458 25.1247 136.032 25.1247Z" fill="white"/>
<path d="M98.8727 62.7527C97.3817 62.7527 96.0055 62.7527 94.5145 62.7527C94.5145 63.8244 94.3998 64.777 94.6292 65.7296C94.7439 65.9678 94.8586 66.0868 95.088 66.0868C95.5467 66.325 96.2349 66.0868 96.2349 65.4914C96.3496 65.2533 96.3495 64.8961 96.3495 64.658C96.3495 64.4198 96.3495 64.1816 96.3495 63.8244C97.0377 63.8244 97.7258 63.8244 98.414 63.8244C98.414 64.4198 98.5287 65.0151 98.414 65.4914C97.9552 67.1585 96.579 67.9921 94.9733 67.7539C94.1705 67.6348 93.4824 67.2776 93.0236 66.6822C92.5649 66.2059 92.3354 65.6106 92.3354 65.0152C92.3354 63.229 92.3354 61.4429 92.3354 59.6567C92.3354 59.6567 92.3355 59.5376 92.4502 59.5376C93.1383 59.5376 93.7117 59.5376 94.5145 59.5376C94.5145 60.0139 94.5145 60.3711 94.5145 60.9665C95.2027 60.9665 95.8908 60.9665 96.5789 60.9665C97.267 60.9665 97.9552 60.9665 98.758 60.9665C98.9874 61.5619 98.8727 62.1573 98.8727 62.7527Z" fill="white"/>
<path d="M150.826 22.9814C150.826 23.8149 150.826 24.4103 150.826 25.1248C152.317 25.1248 153.808 25.1248 155.299 25.1248C155.414 25.6011 155.299 26.0774 155.299 26.5537C154.726 26.6728 150.367 26.7919 149.106 26.6728C149.106 23.934 149.106 21.0761 149.106 18.2183C151.17 18.2183 153.12 18.2183 155.184 18.2183C155.184 18.6946 155.184 19.1708 155.184 19.6471C153.693 19.6471 152.317 19.6471 150.826 19.6471C150.711 20.2425 150.826 20.8379 150.711 21.4333C152.088 21.4333 153.349 21.4333 154.726 21.4333C154.726 22.0287 154.726 22.5051 154.726 22.9814C153.464 22.9814 152.202 22.9814 150.826 22.9814Z" fill="white"/>
<path d="M86.0276 6.07275C86.6011 6.07275 87.1746 6.07275 87.8627 6.07275C88.8949 8.81147 90.0418 11.6692 91.074 14.527C90.5005 14.6461 89.8124 14.527 89.239 14.527C88.8949 13.9317 88.7802 13.2172 88.4362 12.6219C87.404 12.6219 86.3717 12.6219 85.3395 12.6219C84.9955 13.2172 84.8808 13.9317 84.5367 14.527C83.9633 14.527 83.3899 14.527 82.7017 14.527C83.8486 11.6692 84.8808 8.93055 86.0276 6.07275ZM86.8305 8.21609C86.4864 9.28776 86.1424 10.2404 85.7983 11.193C86.4865 11.193 87.0599 11.193 87.8627 11.193C87.5186 10.2404 87.2892 9.28776 86.8305 8.21609Z" fill="white"/>
<path d="M179.727 63.3481C180.416 63.3481 181.104 63.3481 181.792 63.3481C181.792 64.1816 181.906 64.8961 181.792 65.7296C181.677 66.6822 181.104 67.2776 180.301 67.6348C179.269 68.1111 178.236 68.1111 177.204 67.6348C176.401 67.1585 175.943 66.444 175.713 65.4914C175.599 64.777 175.599 63.9435 175.599 63.2291C175.599 62.6337 175.599 62.1574 175.599 61.562C175.14 61.3238 174.681 61.562 174.222 61.443C174.108 60.8476 174.222 60.3713 174.222 59.7759C174.796 59.7759 175.484 59.7759 176.057 59.7759C176.631 59.7759 177.204 59.7759 177.778 59.7759C177.892 60.014 177.892 60.3713 177.892 60.4904C177.892 61.9193 177.892 63.3481 177.892 64.777C177.892 65.0152 177.892 65.1342 177.892 65.3724C178.007 66.325 178.695 66.5631 179.498 66.0868C179.842 65.1342 179.613 64.3007 179.727 63.3481Z" fill="white"/>
<path d="M158.281 49.8927C157.822 49.8927 157.363 49.8927 156.905 49.8927C156.905 49.2973 156.905 48.7019 156.905 48.2256C157.019 48.2256 157.134 48.2256 157.249 48.2256C158.281 48.2256 159.313 48.2256 160.345 48.2256C160.46 48.4637 160.46 48.5828 160.46 48.821C160.46 50.369 160.46 51.7979 160.46 53.3459C160.46 54.0604 160.575 54.2985 161.033 54.7748C161.836 54.8938 162.18 54.6557 162.18 53.8222C162.18 53.2268 162.18 52.6314 162.295 52.036C162.639 51.9169 162.983 52.036 163.327 52.036C163.671 52.036 164.015 52.036 164.359 52.036C164.359 52.8696 164.474 53.584 164.359 54.2985C164.13 55.8465 163.212 56.4419 161.951 56.68C160.919 56.7991 159.886 56.68 159.084 55.8465C158.625 55.3702 158.281 54.6557 158.281 53.9413C158.281 52.8696 158.281 51.6788 158.281 50.6071C158.395 50.369 158.51 50.1308 158.281 49.8927Z" fill="white"/>
<path d="M127.659 23.4578C128.118 23.6959 128.691 23.815 129.15 24.0531C129.036 25.4821 127.545 26.7919 126.054 26.7919C123.76 26.911 122.04 25.0058 122.04 22.7433C122.04 22.0289 122.04 21.1953 122.269 20.4809C122.728 19.171 124.104 17.9803 125.48 17.9803H125.595C127.315 17.8612 128.347 18.3375 129.15 20.4809C128.691 20.8381 128.118 20.719 127.659 20.9572C127.43 20.8381 127.43 20.7191 127.315 20.6C126.971 19.8855 126.398 19.5282 125.71 19.6473C125.021 19.6473 124.333 20.0046 124.104 20.719C123.645 21.9098 123.645 23.1006 124.104 24.2913C124.333 25.0058 125.021 25.363 125.71 25.363C126.398 25.363 126.971 25.0058 127.201 24.2913C127.43 23.9341 127.545 23.6959 127.659 23.4578Z" fill="white"/>
<path d="M187.297 11.431C187.87 11.55 188.329 11.6691 188.902 11.9072C188.673 13.3361 187.526 14.5269 186.15 14.646C185.462 14.7651 184.659 14.7651 183.971 14.4078C182.709 13.8125 182.021 12.7407 181.792 11.3118C181.677 10.3592 181.677 9.40668 182.021 8.45407C182.595 6.78701 184.086 5.71529 186.035 5.95344C187.641 6.07252 188.329 7.02517 188.902 8.45407C188.444 8.8113 187.756 8.69218 187.412 8.93033C187.182 8.81125 187.182 8.69219 187.067 8.57312C186.723 7.85866 186.15 7.50145 185.462 7.62053C184.774 7.62053 184.2 7.97778 183.856 8.69224C183.742 9.04946 183.627 9.40665 183.627 9.76387C183.627 10.4783 183.512 11.1928 183.741 11.9072C184.086 12.8598 184.659 13.3361 185.577 13.3361C186.265 13.3361 186.723 12.9789 186.953 12.3835C187.067 11.9072 187.182 11.6691 187.297 11.431Z" fill="white"/>
<path d="M203.468 24.0534C203.238 24.7678 203.009 25.3632 202.55 25.8395C202.091 26.3158 201.518 26.673 200.944 26.7921C198.192 27.2684 196.472 25.3632 196.357 22.9817C196.357 22.1482 196.357 21.4338 196.586 20.6002C196.93 19.2904 198.307 18.0996 199.683 18.0996C200.142 18.0996 200.715 18.0996 201.174 18.0996C201.977 18.2187 202.55 18.8141 203.009 19.5285C203.238 19.7667 203.353 20.1239 203.468 20.4811C203.009 20.8383 202.435 20.7193 201.977 20.9574C201.747 20.8384 201.747 20.7193 201.633 20.4811C201.289 19.7667 200.83 19.5285 200.142 19.5285C199.454 19.5285 198.765 19.7667 198.536 20.4811C198.077 21.6719 198.077 22.8626 198.536 24.1725C198.88 25.2441 200.371 25.6013 201.174 24.8869C201.289 24.7678 201.403 24.6487 201.518 24.4106C201.633 24.0533 201.862 23.8152 201.977 23.458C202.435 23.6961 203.009 23.6961 203.468 24.0534Z" fill="white"/>
<path d="M168.717 23.4577C169.291 23.5767 169.749 23.8149 170.323 23.934C170.093 25.3629 168.717 26.6727 167.112 26.7917C164.933 26.7917 163.327 25.0057 163.327 22.9814C163.327 22.0288 163.327 20.9571 163.671 20.1236C164.244 18.8137 165.277 18.0993 166.653 17.9802C168.373 17.8612 169.405 18.0993 170.323 20.3617C169.864 20.719 169.176 20.5998 168.717 20.838C168.488 20.7189 168.488 20.5999 168.488 20.4808C168.144 19.7663 167.57 19.4092 166.882 19.4092C166.194 19.4092 165.621 19.7664 165.277 20.3617C165.162 20.719 165.047 21.0761 165.047 21.4334C165.047 22.2669 164.933 22.9813 165.162 23.8149C165.506 24.7675 166.079 25.1247 166.882 25.1247C167.685 25.1247 168.144 24.6484 168.488 23.934C168.603 23.8149 168.603 23.5767 168.717 23.4577Z" fill="white"/>
<path d="M220.097 64.6579C219.409 64.6579 218.721 64.6579 217.918 64.6579C217.918 63.9435 217.918 63.229 217.918 62.6336C217.918 62.3955 217.918 62.0382 217.804 61.8001C217.574 61.3238 217.345 61.2047 216.886 61.2047C216.427 61.3238 216.198 61.5619 216.083 62.0382C216.083 62.7527 216.083 63.4671 216.083 64.1816C216.083 65.3723 216.083 66.444 216.083 67.7538C215.395 67.8729 214.707 67.7538 214.019 67.7538C213.79 67.6348 213.904 67.3966 213.904 67.2775C213.904 65.8486 213.904 64.4198 213.904 62.8718C213.904 62.3955 213.904 61.9191 214.019 61.5619C214.363 60.4902 215.051 59.7758 216.083 59.5376C217.345 59.2995 218.492 59.4186 219.409 60.4903C219.753 60.8475 219.868 61.2047 219.983 61.681C220.097 62.7527 220.097 63.5862 220.097 64.6579Z" fill="white"/>
<path d="M105.41 64.6581C104.722 64.6581 104.034 64.6581 103.346 64.6581C103.346 64.0627 103.346 63.3482 103.346 62.7528C103.346 62.5146 103.346 62.3956 103.346 62.1574C103.231 61.6811 103.116 61.3239 102.657 61.2048C102.313 61.0857 101.969 61.2048 101.51 61.8002C101.51 63.7054 101.51 65.7297 101.51 67.754C100.708 67.754 100.02 67.754 99.3315 67.754C99.2168 67.635 99.2167 67.3968 99.2167 67.1586C99.2167 65.7297 99.2167 64.3008 99.2167 62.7528C99.2167 62.5146 99.2168 62.1574 99.3315 61.9192C99.5608 60.6094 100.249 59.7759 101.51 59.5377C102.657 59.2995 103.804 59.4186 104.722 60.3713C105.181 60.8476 105.41 61.443 105.41 62.0384C105.525 62.8719 105.41 63.7054 105.41 64.6581Z" fill="white"/>
<path d="M192.228 61.8002C192.228 63.8245 192.228 65.7297 192.228 67.6348C191.54 67.7539 190.852 67.6348 190.049 67.6348C190.049 66.9204 190.049 66.2059 190.049 65.3724C189.017 65.9678 188.1 65.7296 187.182 65.1342C186.609 64.777 186.15 64.1817 186.15 63.4673C186.035 62.1575 186.15 60.8476 186.035 59.5378C186.723 59.4187 187.411 59.5378 188.1 59.5378C188.214 60.9667 187.985 62.3955 188.329 63.7053C188.902 64.1816 189.361 64.1817 189.82 63.8245C190.164 63.2291 190.049 62.5146 190.049 61.8002C190.852 61.8002 191.425 61.8002 192.228 61.8002Z" fill="white"/>
<path d="M135.917 50.369C135.917 52.3933 135.917 54.2986 135.917 56.3229C135.229 56.3229 134.54 56.3229 133.738 56.3229C133.738 55.6084 133.738 54.8939 133.738 54.0604C132.591 54.5367 131.673 54.2986 130.756 53.7032C130.182 53.2269 129.838 52.7505 129.838 52.0361C129.724 50.8453 129.838 49.5354 129.838 48.2256C130.526 48.2256 131.215 48.2256 131.903 48.2256C132.132 49.5354 131.788 50.9644 132.132 52.2742C132.476 52.7505 132.935 52.6314 133.279 52.6314C134.082 52.1551 133.738 51.2025 133.852 50.4881C134.426 50.369 135.114 50.369 135.917 50.369Z" fill="white"/>
<path d="M147.156 52.6314C147.844 52.0361 147.615 51.2025 147.73 50.4881C148.418 50.4881 149.106 50.4881 149.794 50.4881C149.794 52.3933 149.794 54.4176 149.794 56.3229C149.106 56.3229 148.418 56.3229 147.73 56.3229C147.73 55.6084 147.73 54.8939 147.73 54.0604C146.583 54.6558 145.665 54.4176 144.748 53.7032C144.174 53.3459 143.945 52.7506 143.83 52.1552C143.716 51.5598 143.716 51.0835 143.716 50.4881C143.716 49.7736 143.716 49.0591 143.716 48.2256C144.518 48.2256 145.207 48.2256 145.895 48.2256C146.009 49.6545 145.78 51.0835 146.124 52.2742C146.353 52.6315 146.812 52.6314 147.156 52.6314Z" fill="white"/>
<path d="M85.3396 19.6476C85.3396 20.362 85.3396 20.9574 85.3396 21.5528C85.913 21.6719 86.4865 21.5528 86.9453 21.5528C87.5187 21.5528 87.9774 21.5528 88.5508 21.5528C88.5508 22.0291 88.5508 22.5054 88.5508 23.1008C87.5187 23.1008 86.3718 23.1008 85.225 23.1008C85.225 24.2915 85.225 25.3632 85.225 26.5539C84.6515 26.673 84.0781 26.673 83.5046 26.5539C83.5046 23.6962 83.5046 20.9574 83.5046 18.0996C85.3396 18.0996 87.2893 18.0996 89.1243 18.0996C89.239 18.5759 89.1243 19.0522 89.239 19.5285C87.9775 19.6476 86.6012 19.6476 85.3396 19.6476Z" fill="white"/>
<path d="M87.2893 56.3223C87.2893 55.3697 87.2893 54.5362 87.2893 53.7027C86.4865 52.631 85.4542 53.2263 84.5368 52.9882C84.5368 52.3928 84.5368 51.9166 84.5368 51.3212C85.1102 51.3212 85.5689 51.3211 86.0277 51.2021C86.6011 51.083 86.8305 50.8449 86.8305 50.4876C86.8305 50.1304 86.6011 49.8923 86.1424 49.7732C85.6836 49.7732 85.3395 49.7732 84.8808 49.7732C84.7661 49.7732 84.6514 49.7732 84.5368 49.7732C84.4221 49.1778 84.5368 48.7015 84.5368 48.1061C85.3396 48.1061 86.2571 47.9871 87.0599 48.1061C88.2067 48.2252 89.1242 49.2969 89.0096 50.6067C89.0096 51.2021 88.6655 51.6784 88.2067 51.9166C88.2067 52.1547 88.4361 52.1547 88.5508 52.2738C89.0095 52.631 89.4683 53.2264 89.4683 53.9408C89.4683 54.7744 89.4683 55.6078 89.4683 56.5604C88.6655 56.3223 88.0921 56.3223 87.2893 56.3223Z" fill="white"/>
<path d="M174.452 52.8694C174.452 52.5121 174.452 52.0359 174.452 51.5596C174.452 51.4405 174.452 51.3214 174.567 51.2023C175.14 51.0832 175.828 51.3214 176.516 50.9642C176.631 50.9642 176.746 50.8451 176.746 50.726C176.86 50.4879 176.86 50.2497 176.746 50.0115C176.172 49.2971 175.255 49.6543 174.452 49.5353C174.452 48.9399 174.452 48.4635 174.452 47.8682C175.369 47.9872 176.402 47.7491 177.319 47.9873C178.237 48.2254 178.81 48.9398 179.039 50.0115C179.154 50.4878 178.925 50.9642 178.695 51.3214C178.581 51.4405 178.466 51.6786 178.237 51.7977C178.237 52.0358 178.466 52.0359 178.581 52.1549C179.269 52.6313 179.498 53.3457 179.498 54.1792C179.498 54.8936 179.498 55.489 179.498 56.2035C178.81 56.2035 178.122 56.2035 177.434 56.2035C177.319 55.9653 177.319 55.7272 177.319 55.4891C177.319 55.0128 177.319 54.6555 177.319 54.1792C177.319 53.2266 176.975 52.9885 176.172 52.8694C175.828 52.8694 175.484 52.8694 175.025 52.8694C174.796 52.9885 174.567 52.9885 174.452 52.8694Z" fill="white"/>
<path d="M111.832 50.0115C111.144 49.5352 110.341 49.7734 109.653 49.6543C109.653 49.0589 109.653 48.5827 109.653 48.1064C109.997 47.9873 111.718 47.9873 112.062 47.9873C112.52 48.1064 112.865 48.2254 113.209 48.4636C114.241 49.2971 114.47 50.8451 113.323 51.7977C113.323 51.9167 113.553 51.9168 113.667 52.0358C114.241 52.5121 114.585 53.1075 114.585 53.822C114.585 54.5364 114.585 55.37 114.585 56.2035C113.897 56.2035 113.209 56.2035 112.521 56.2035C112.406 55.8463 112.521 55.37 112.521 54.8937C112.521 54.4174 112.521 54.0601 112.521 53.5838C112.291 52.9884 111.947 52.8694 111.488 52.8694C110.915 52.8694 110.341 52.8694 109.768 52.8694C109.653 52.274 109.768 51.6786 109.653 51.2023C109.997 51.0832 110.227 51.2023 110.571 51.0832C110.8 51.0832 111.03 51.0833 111.259 50.9642C111.947 51.0833 112.062 50.726 111.832 50.0115Z" fill="white"/>
<path d="M205.647 7.62074C204.844 7.62074 204.156 7.62074 203.353 7.62074C203.353 7.14443 203.353 6.66812 203.353 6.19181C203.812 6.07274 208.17 5.95369 209.775 6.07277C209.89 6.31092 209.775 6.54904 209.89 6.78719C209.89 7.02534 209.89 7.26354 209.89 7.50169C209.087 7.50169 208.285 7.50169 207.482 7.50169C207.482 9.88321 207.482 12.1456 207.482 14.4081C206.908 14.5272 206.335 14.4081 205.876 14.4081C205.761 13.8127 205.876 13.2173 205.761 12.741C205.761 12.1456 205.761 11.5502 205.761 10.9548C205.761 10.3595 205.761 9.76409 205.761 9.16871C205.647 8.69241 205.761 8.21612 205.647 7.62074Z" fill="white"/>
<path d="M210.005 18.2187C210.005 18.695 210.005 19.1712 210.005 19.6475C209.202 19.6475 208.514 19.6475 207.711 19.6475C207.711 22.029 207.711 24.2914 207.711 26.5538C207.138 26.5538 206.564 26.5538 205.991 26.5538C205.991 25.4821 205.991 24.2914 205.991 23.1007C205.991 21.9099 205.991 20.8383 205.991 19.5285C205.188 19.5285 204.385 19.5285 203.582 19.5285C203.582 19.0522 203.582 18.5759 203.582 18.0996C205.761 18.2187 207.826 18.2187 210.005 18.2187Z" fill="white"/>
<path d="M142.798 18.2183C143.371 18.2183 143.945 18.2183 144.518 18.2183C144.518 20.4807 144.518 22.7432 144.518 25.1247C145.895 25.1247 147.271 25.1247 148.532 25.1247C148.532 25.601 148.532 26.0773 148.532 26.5536C146.583 26.5536 144.748 26.5536 142.798 26.5536C142.798 23.8149 142.798 21.0761 142.798 18.2183Z" fill="white"/>
<path d="M54.2593 94.9032C53.3418 94.9032 52.4243 94.9032 51.5068 94.9032C51.1627 95.3794 51.1627 96.0939 50.7039 96.5702C50.3599 96.6893 50.0158 96.6893 49.7865 96.213C49.6718 95.4986 50.0159 94.9032 50.2452 94.3078C50.704 92.8789 51.2774 91.4501 51.8508 90.0212C52.1949 89.1877 52.7683 88.9496 53.5711 89.4259C54.3739 91.331 55.1768 93.3552 55.9796 95.3795C56.0943 95.6176 56.0943 95.8557 55.9796 96.0939C55.7502 96.4511 55.5208 96.5702 55.062 96.4511C54.6033 96.0939 54.718 95.3794 54.2593 94.9032ZM52.883 90.7356C52.539 91.8073 52.1949 92.7599 51.8508 93.7124C52.5389 93.7124 53.227 93.7124 53.9152 93.7124C53.5711 92.7599 53.2271 91.8073 52.883 90.7356Z" fill="white"/>
<path d="M71.8064 91.8068C71.577 91.9259 71.3476 91.9259 71.1183 91.9259C70.8889 91.8068 70.7742 91.5686 70.5448 91.3305C69.9714 90.3779 69.2833 90.2588 68.3658 90.497C67.563 90.7351 67.3336 91.4496 67.2189 92.164C67.1043 92.5213 67.2189 92.8785 67.2189 93.2357C67.2189 94.1883 67.563 94.9028 68.3658 95.3791C68.5952 95.3791 68.8245 95.3791 69.0539 95.3791C69.8567 95.4981 70.4302 94.9028 70.6596 94.1883C70.7742 93.9502 70.8889 93.712 71.0036 93.5929C71.233 93.5929 71.4623 93.4738 71.6917 93.712C71.9211 94.0692 71.9211 94.5455 71.6917 94.9027C71.2329 95.8553 70.5448 96.4507 69.398 96.4507C68.8245 96.4507 68.3658 96.4507 67.7924 96.3316C66.6455 95.9744 65.728 94.7836 65.728 93.4738C65.728 92.7594 65.6133 92.0449 65.8427 91.3305C66.3014 90.1397 67.1042 89.4253 68.2511 89.1872C69.5126 88.949 70.5448 89.3063 71.3476 90.2589C71.9211 90.8542 72.0358 91.3305 71.8064 91.8068Z" fill="white"/>
<path d="M147.959 59.6567C148.647 59.6567 149.221 59.6567 149.909 59.6567C150.023 60.3712 149.909 61.0856 150.023 61.8001C150.597 61.8001 151.17 61.8001 151.858 61.8001C151.858 62.3955 151.858 62.9909 151.858 63.4672C151.285 63.5862 150.711 63.4671 150.023 63.5862C150.023 65.0151 150.023 66.3249 150.023 67.7538C149.335 67.8729 148.647 67.7538 147.959 67.7538C147.959 65.3723 147.959 62.8718 147.959 60.4903C147.959 60.1331 147.959 59.8949 147.959 59.6567Z" fill="white"/>
<path d="M136.605 18.2183C137.178 18.2183 137.637 18.2183 138.21 18.2183C138.21 20.4807 138.21 22.7431 138.21 25.1247C139.587 25.1247 140.963 25.1247 142.225 25.1247C142.225 25.601 142.225 26.0773 142.225 26.5536C141.766 26.6727 137.522 26.6727 136.605 26.5536C136.605 25.9582 136.605 19.2899 136.605 18.2183Z" fill="white"/>
<path d="M64.9252 90.4974C64.3518 90.4974 63.7783 90.4974 63.2049 90.4974C63.0902 90.7356 63.0901 90.8546 63.0901 91.0928C63.0901 92.6408 63.0901 94.0698 63.0901 95.6178C63.0901 95.975 63.0902 96.3322 62.7461 96.5704C62.5167 96.6894 62.2874 96.6894 62.058 96.5704C61.7139 96.3322 61.7139 95.975 61.7139 95.6178C61.7139 94.1888 61.7139 92.7599 61.7139 91.2119C61.7139 90.9738 61.7139 90.7356 61.7139 90.4974C61.0258 90.4974 60.4523 90.4974 59.8789 90.4974C59.3054 89.902 59.3054 89.902 59.8789 89.3066C61.5992 89.3066 63.2049 89.3066 64.9252 89.3066C65.2693 89.4257 65.3839 89.6639 65.2692 90.0211C65.3839 90.2593 65.1546 90.3783 64.9252 90.4974Z" fill="white"/>
<path d="M143.945 6.07275C144.518 6.07275 144.977 6.07275 145.551 6.07275C145.551 8.93063 145.551 11.6694 145.551 14.5273C144.977 14.5273 144.518 14.5273 143.945 14.5273C143.945 11.6694 143.945 8.93063 143.945 6.07275Z" fill="white"/>
<path d="M194.178 18.2183C194.751 18.2183 195.21 18.2183 195.783 18.2183C195.783 21.076 195.783 23.8147 195.783 26.6725C195.21 26.7916 194.751 26.6725 194.178 26.6725C194.178 23.8147 194.178 20.957 194.178 18.2183Z" fill="white"/>
<path d="M182.709 26.6727C182.136 26.6727 181.677 26.6727 181.104 26.6727C181.104 23.8148 181.104 21.0761 181.104 18.2183C181.677 18.2183 182.136 18.2183 182.709 18.2183C182.824 18.6946 182.824 25.4819 182.709 26.6727Z" fill="white"/>
<path d="M57.6999 89.1875C58.0439 89.1875 58.2733 89.3066 58.5026 89.5447C58.5026 91.688 58.5026 93.9504 58.5026 96.2128C58.2733 96.57 58.0439 96.689 57.5852 96.57C57.2411 96.3318 57.1265 95.8555 57.1265 95.4983C57.1265 93.8313 57.1265 92.1643 57.1265 90.4973C57.2411 90.021 57.2411 89.4256 57.6999 89.1875Z" fill="white"/>
<path d="M142.454 12.3837C141.422 12.3837 140.39 12.3837 139.357 12.3837C139.243 11.7884 139.357 11.3121 139.357 10.7168C140.39 10.7168 141.422 10.7168 142.569 10.7168C142.454 11.1931 142.454 11.7884 142.454 12.3837Z" fill="white"/>
<path d="M104.951 54.1793C104.951 53.5839 104.951 53.1077 104.951 52.6313C105.983 52.6313 106.901 52.6313 107.933 52.6313C107.933 53.1077 107.933 53.703 107.933 54.1793C106.901 54.1793 105.983 54.1793 104.951 54.1793Z" fill="white"/>
<path d="M147.958 59.6567C147.958 59.8949 147.958 60.1331 147.958 60.4903C147.958 62.8718 147.958 65.3723 147.958 67.7538H147.844C147.844 66.0867 147.844 64.5388 147.844 62.8718C147.844 62.5145 147.844 62.0382 147.73 61.681C147.958 61.5619 147.844 61.3238 147.844 61.2047C147.844 60.7284 147.844 60.3712 147.844 59.8949C147.844 59.6568 147.844 59.6567 147.958 59.6567Z" fill="white"/>
</svg>
