<svg width="204" height="150" viewBox="0 0 204 150" fill="none" xmlns="http://www.w3.org/2000/svg">
<path d="M106.753 39.1301C106.753 39.1301 122.849 26.6638 133.69 23.4152C144.531 20.1661 171.802 19.6355 171.802 19.6355V100.605C171.802 100.605 147.016 101.533 136.174 104.782C125.333 108.031 106.753 120.1 106.753 120.1V39.1301Z" fill="#D1C4E9"/>
<path d="M185.463 25.6008C185.463 25.6008 181.262 25.6885 175.529 25.982V103.789C175.529 103.789 150.74 104.714 139.899 107.963C134.256 109.654 120.948 115.322 114.823 118.846L111.719 126.065C111.719 126.065 132.782 117.578 143.624 114.329C154.465 111.079 185.462 106.571 185.462 106.571L185.463 25.6008Z" fill="#B39DDB"/>
<path d="M197.88 32.364C197.88 32.364 194.84 32.4292 190.43 32.6261V109.756C190.43 109.756 165.641 110.681 154.8 113.93C148.36 115.86 133.625 119.701 127.242 123.477L122.275 128.053C122.275 128.053 151.409 120.763 162.25 117.513C173.092 114.264 197.881 113.334 197.881 113.334L197.88 32.364Z" fill="#7359A6"/>
<path d="M97.3065 39.1301C97.3065 39.1301 81.211 26.6638 70.3701 23.4152C59.5286 20.1661 32.2576 19.6355 32.2576 19.6355V100.605C32.2576 100.605 57.0444 101.533 67.8858 104.782C78.7273 108.031 97.3065 120.1 97.3065 120.1V39.1301Z" fill="#D1C4E9"/>
<path d="M18.5955 25.6008C18.5955 25.6008 22.7964 25.6885 28.5291 25.982V103.789C28.5291 103.789 53.3179 104.714 64.1594 107.963C69.8019 109.654 83.1105 115.322 89.2351 118.846L92.3393 126.065C92.3393 126.065 71.2759 117.578 60.4344 114.329C49.5929 111.08 18.5965 106.572 18.5965 106.572L18.5955 25.6008Z" fill="#B39DDB"/>
<path d="M6.1792 32.364C6.1792 32.364 9.21948 32.4292 13.6294 32.6261V109.756C13.6294 109.756 38.4182 110.681 49.2597 113.93C55.6994 115.86 70.4346 119.701 76.8176 123.477L81.7841 128.053C81.7841 128.053 52.6504 120.763 41.8089 117.513C30.9694 114.266 6.18059 113.335 6.18059 113.335L6.1792 32.364Z" fill="#7359A6"/>
</svg>
