<svg width="653" height="534" viewBox="0 0 653 534" fill="none" xmlns="http://www.w3.org/2000/svg">
<g filter="url(#filter0_d)">
<g clip-path="url(#clip0)">
<g opacity="0.4">
<path opacity="0.4" d="M314.356 64.312V66.7256L326.734 72.5681V70.1544L314.356 64.312Z" fill="white"/>
<path opacity="0.4" d="M314.356 68.7107V71.147L326.734 76.9894V74.5757L314.356 68.7107Z" fill="white"/>
<path opacity="0.4" d="M314.356 73.132V75.5457L326.734 81.4107V78.9745L314.356 73.132Z" fill="white"/>
<path opacity="0.4" d="M407.713 124.112V121.699L331.382 85.5839V87.9975L407.713 124.112Z" fill="white"/>
<path opacity="0.4" d="M314.356 77.5533V79.967L326.734 85.8094V83.3957L314.356 77.5533Z" fill="white"/>
<path opacity="0.4" d="M314.356 81.9521V84.3657L326.734 90.2307V87.7945L314.356 81.9521Z" fill="white"/>
<path opacity="0.4" d="M407.713 128.534V126.12L331.382 90.0052V92.4189L407.713 128.534Z" fill="white"/>
<path opacity="0.4" d="M314.356 95.1934V97.6071L326.734 103.45V101.036L314.356 95.1934Z" fill="white"/>
<path opacity="0.4" d="M314.356 99.5922V102.006L326.734 107.871V105.457L314.356 99.5922Z" fill="white"/>
<path opacity="0.4" d="M314.356 117.255V119.669L326.734 125.511V123.097L314.356 117.255Z" fill="white"/>
<path opacity="0.4" d="M314.356 121.654V124.067L326.734 129.91V127.496L314.356 121.654Z" fill="white"/>
<path opacity="0.4" d="M379.519 152.49L331.382 129.707V132.12L379.519 154.904V152.49Z" fill="white"/>
<path opacity="0.4" d="M382.077 153.685V156.099L407.713 168.235V165.822L382.077 153.685Z" fill="white"/>
<path opacity="0.4" d="M355.561 136.745L331.382 125.285V127.699L355.561 139.158V136.745Z" fill="white"/>
<path opacity="0.4" d="M358.119 137.94V140.354L407.713 163.814V161.4L358.119 137.94Z" fill="white"/>
<path opacity="0.4" d="M401.194 145.091V147.505L407.713 150.572V148.159L401.194 145.091Z" fill="white"/>
<path opacity="0.4" d="M365.683 123.864L331.382 107.645V110.059L365.683 126.278V123.864Z" fill="white"/>
<path opacity="0.4" d="M351.627 81.9295L331.382 72.3651V74.7787L351.627 84.3432V81.9295Z" fill="white"/>
<path opacity="0.4" d="M384.8 97.6296L354.158 83.1251V85.5387L384.8 100.043V97.6296Z" fill="white"/>
<path opacity="0.4" d="M366.948 93.5918L345.356 83.3958V85.8094L366.948 96.0055V93.5918Z" fill="white"/>
<path opacity="0.4" d="M389.586 104.307L369.479 94.7874V97.2011L389.586 106.72V104.307Z" fill="white"/>
<path opacity="0.4" d="M392.117 105.502V107.916L407.713 115.292V112.879L392.117 105.502Z" fill="white"/>
<path opacity="0.4" d="M335.371 83.0574V85.4711L351.627 93.1632V90.7496L335.371 83.0574Z" fill="white"/>
<path opacity="0.4" d="M401.359 114.277L354.158 91.9677V94.3814L401.359 116.691V114.277Z" fill="white"/>
<path opacity="0.4" d="M374.32 114.728L343.486 100.156V102.57L374.32 117.142V114.728Z" fill="white"/>
<path opacity="0.4" d="M401.359 127.519L376.878 115.947V118.36L401.359 129.932V127.519Z" fill="white"/>
<path opacity="0.4" d="M398.636 139.474L368.214 125.082V127.496L398.636 141.888V139.474Z" fill="white"/>
<path opacity="0.4" d="M382.077 136.045V138.459L398.636 146.287V143.873L382.077 136.045Z" fill="white"/>
<path opacity="0.4" d="M337.351 114.886L331.382 112.067V114.48L337.351 117.3V114.886Z" fill="white"/>
<path opacity="0.4" d="M348.519 120.165V122.578L379.519 137.241V134.827L348.519 120.165Z" fill="white"/>
<path opacity="0.4" d="M345.988 118.969L339.882 116.082V118.496L345.988 121.383V118.969Z" fill="white"/>
<path opacity="0.4" d="M373.798 136.542L339.882 120.503V122.917L373.798 138.955V136.542Z" fill="white"/>
</g>
<g opacity="0.4">
<path opacity="0.4" d="M380.316 24.3623L329.017 0V2.14298L380.316 26.5053V24.3623Z" fill="white"/>
<path opacity="0.4" d="M329.017 6.33869L407.713 43.6716V41.5287L329.017 4.19571V6.33869Z" fill="white"/>
<path opacity="0.4" d="M383.754 25.9413V28.0843L407.713 39.4759V37.333L383.754 25.9413Z" fill="white"/>
<path opacity="0.4" d="M380.316 32.5507L329.017 8.18844V10.3314L380.316 34.6937V32.5507Z" fill="white"/>
<path opacity="0.4" d="M329.017 14.5497L407.713 51.8601V49.7171L329.017 12.4067V14.5497Z" fill="white"/>
<path opacity="0.4" d="M383.754 36.2728L407.713 47.6644V45.5214L383.754 34.1523V36.2728Z" fill="white"/>
<path opacity="0.4" d="M380.316 46.0853L329.017 21.7231V23.866L380.316 48.2283V46.0853Z" fill="white"/>
<path opacity="0.4" d="M329.017 28.0843L407.713 65.3947V63.2517L329.017 25.9413V28.0843Z" fill="white"/>
<path opacity="0.4" d="M383.754 49.8074L407.713 61.199V59.056L383.754 47.687V49.8074Z" fill="white"/>
<path opacity="0.4" d="M380.316 54.2963L329.017 29.934V32.077L380.316 56.4393V54.2963Z" fill="white"/>
<path opacity="0.4" d="M329.017 36.2728L407.713 73.6057V71.4627L329.017 34.1298V36.2728Z" fill="white"/>
<path opacity="0.4" d="M383.754 58.0184L407.713 69.3874V67.267L383.754 55.8754V58.0184Z" fill="white"/>
<path opacity="0.4" d="M380.316 67.8309L329.017 43.4686V45.6116L380.316 69.9739V67.8309Z" fill="white"/>
<path opacity="0.4" d="M329.017 49.8074L407.713 87.1403V84.9973L329.017 47.6644V49.8074Z" fill="white"/>
<path opacity="0.4" d="M383.754 71.5529L407.713 82.922V80.779L383.754 69.41V71.5529Z" fill="white"/>
<path opacity="0.4" d="M380.316 76.0194L329.017 51.6571V53.8001L380.316 78.1624V76.0194Z" fill="white"/>
<path opacity="0.4" d="M329.017 57.9958L407.713 95.3288V93.1858L329.017 55.8528V57.9958Z" fill="white"/>
<path opacity="0.4" d="M383.754 79.7414L407.713 91.133V88.99L383.754 77.5984V79.7414Z" fill="white"/>
</g>
<path opacity="0.2" d="M241.931 55.0633L203.615 37.0172C203.192 36.8002 202.705 36.6815 202.207 36.6739C201.708 36.6663 201.216 36.77 200.784 36.9739C200.352 37.1778 199.995 37.4743 199.752 37.8315C199.51 38.1888 199.39 38.5935 199.406 39.0022V76.6059C199.385 77.5198 199.665 78.4213 200.217 79.2154C200.769 80.0095 201.572 80.6667 202.542 81.1174L240.858 99.2989C241.288 99.5392 241.792 99.6748 242.311 99.6898C242.831 99.7048 243.345 99.5988 243.795 99.3839C244.244 99.169 244.609 98.8542 244.849 98.4758C245.089 98.0975 245.193 97.6711 245.149 97.2462V59.5748C245.134 58.6589 244.83 57.7619 244.266 56.9712C243.702 56.1805 242.897 55.5232 241.931 55.0633Z" fill="white"/>
<path d="M224.932 86.7794L174.705 63.0262C173.934 62.6584 173.052 62.478 172.16 62.5059C171.269 62.5339 170.406 62.7691 169.672 63.1841L158.669 68.3949L163.785 74.102L165.711 75.9066V116.713C165.705 117.906 166.083 119.078 166.808 120.112C167.532 121.146 168.577 122.005 169.837 122.601L207.438 140.444L207.823 142.159L215.497 150.979L227.298 145.271C227.853 144.998 228.312 144.611 228.63 144.149C228.949 143.686 229.115 143.163 229.113 142.632V93.0053C229.147 91.7575 228.778 90.5245 228.044 89.4312C227.309 88.3379 226.236 87.423 224.932 86.7794Z" fill="#621AA0"/>
<path d="M213.187 92.4414L162.41 68.3949C161.848 68.1413 161.214 68.0118 160.572 68.0188C159.93 68.0259 159.301 68.1694 158.747 68.4353C158.193 68.7012 157.732 69.0804 157.41 69.5359C157.088 69.9914 156.915 70.5076 156.909 71.0341V120.932C156.906 122.126 157.289 123.3 158.018 124.335C158.748 125.369 159.798 126.226 161.062 126.819L211.894 150.933C212.475 151.205 213.132 151.348 213.8 151.347C214.468 151.346 215.124 151.201 215.703 150.927C216.282 150.654 216.763 150.26 217.099 149.786C217.434 149.312 217.613 148.775 217.616 148.227V98.5996C217.61 97.3433 217.197 96.1108 216.418 95.0287C215.64 93.9465 214.525 93.0535 213.187 92.4414Z" fill="#975ACB"/>
<path d="M217.423 148.227V98.5996C217.399 97.7814 217.203 96.9726 216.845 96.2085L228.618 90.6368C228.96 91.3567 229.146 92.1201 229.168 92.8926V142.519C229.17 143.051 229.004 143.573 228.685 144.036C228.367 144.498 227.908 144.885 227.353 145.159L215.662 150.798C216.196 150.525 216.636 150.147 216.944 149.697C217.252 149.248 217.416 148.742 217.423 148.227Z" fill="#582386"/>
<path d="M168.874 92.2835L162.685 89.351V107.6L166.783 109.54V103.043L168.544 103.878C169.311 104.373 170.2 104.727 171.15 104.914C172.099 105.101 173.087 105.117 174.045 104.961C175.338 104.532 175.998 103.337 175.998 101.374C176.05 99.5548 175.416 97.7666 174.183 96.2536C172.822 94.6033 171.003 93.2424 168.874 92.2835ZM170.937 101.149C169.954 101.242 168.966 101.015 168.186 100.517L166.838 99.8854V94.4716L168.709 95.3513C169.687 95.7963 170.525 96.4219 171.157 97.1785C171.696 97.8883 171.973 98.7109 171.954 99.547C171.899 100.449 171.569 100.991 170.937 101.149Z" fill="white"/>
<path d="M190.356 109.608L182.71 105.976L182.737 98.8252L178.611 96.8853L178.556 115.134L182.655 117.074L182.682 109.202L190.356 112.834L190.329 120.706L194.427 122.646L194.482 104.397L190.384 102.457L190.356 109.608Z" fill="white"/>
<path d="M209.803 113.104C208.435 111.451 206.606 110.09 204.467 109.134L198.278 106.202V124.451L202.377 126.391V119.917L204.137 120.751C204.908 121.24 205.798 121.588 206.747 121.771C207.696 121.953 208.682 121.967 209.638 121.811C210.931 121.383 211.591 120.21 211.591 118.225C211.648 116.408 211.024 114.621 209.803 113.104ZM206.42 118.022C205.434 118.104 204.448 117.87 203.669 117.368L202.322 116.736V111.322L204.192 112.202C205.175 112.641 206.015 113.267 206.64 114.029C207.183 114.746 207.46 115.577 207.438 116.42C207.493 117.3 207.163 117.841 206.42 118.022Z" fill="white"/>
<g opacity="0.4">
<path opacity="0.4" d="M106.297 88.6291V91.0428L118.675 96.9078V94.4941L106.297 88.6291Z" fill="white"/>
<path opacity="0.4" d="M106.297 93.0504V95.4641L118.675 101.307V98.8929L106.297 93.0504Z" fill="white"/>
<path opacity="0.4" d="M106.297 97.4492V99.8629L118.675 105.728V103.314L106.297 97.4492Z" fill="white"/>
<path opacity="0.4" d="M199.654 148.43V146.016L123.323 109.924V112.337L199.654 148.43Z" fill="white"/>
<path opacity="0.4" d="M106.297 101.87V104.284L118.675 110.127V107.713L106.297 101.87Z" fill="white"/>
<path opacity="0.4" d="M106.297 106.269V108.705L118.675 114.548V112.134L106.297 106.269Z" fill="white"/>
<path opacity="0.4" d="M199.654 152.851V150.437L123.323 114.322V116.736L199.654 152.851Z" fill="white"/>
<path opacity="0.4" d="M106.297 119.511V121.924L118.675 127.789V125.376L106.297 119.511Z" fill="white"/>
<path opacity="0.4" d="M106.297 123.932V126.346L118.675 132.188V129.774L106.297 123.932Z" fill="white"/>
<path opacity="0.4" d="M106.297 141.572V143.986L118.675 149.828V147.414L106.297 141.572Z" fill="white"/>
<path opacity="0.4" d="M106.297 145.971V148.384L118.675 154.249V151.836L106.297 145.971Z" fill="white"/>
<path opacity="0.4" d="M171.459 176.807L123.323 154.024V156.438L171.459 179.221V176.807Z" fill="white"/>
<path opacity="0.4" d="M174.018 178.003V180.416L199.654 192.552V190.139L174.018 178.003Z" fill="white"/>
<path opacity="0.4" d="M147.501 161.062L123.323 149.625V152.039L147.501 163.476V161.062Z" fill="white"/>
<path opacity="0.4" d="M150.032 162.257V164.671L199.653 188.131V185.717L150.032 162.257Z" fill="white"/>
<path opacity="0.4" d="M193.135 169.408V171.822L199.654 174.912V172.499L193.135 169.408Z" fill="white"/>
<path opacity="0.4" d="M157.596 148.204L123.323 131.962V134.376L157.596 150.618V148.204Z" fill="white"/>
<path opacity="0.4" d="M143.568 106.247L123.323 96.6823V99.0959L143.568 108.66V106.247Z" fill="white"/>
<path opacity="0.4" d="M176.741 121.947L146.098 107.465V109.878L176.741 124.361V121.947Z" fill="white"/>
<path opacity="0.4" d="M158.889 117.909L137.296 107.713V110.127L158.889 120.323V117.909Z" fill="white"/>
<path opacity="0.4" d="M181.527 128.624L161.42 119.127V121.541L181.527 131.038V128.624Z" fill="white"/>
<path opacity="0.4" d="M184.058 129.819V132.233L199.654 139.609V137.196L184.058 129.819Z" fill="white"/>
<path opacity="0.4" d="M127.312 107.397V109.811L143.568 117.503V115.089L127.312 107.397Z" fill="white"/>
<path opacity="0.4" d="M193.3 138.594L146.098 116.285V118.699L193.3 141.031V138.594Z" fill="white"/>
<path opacity="0.4" d="M166.261 139.068L135.426 124.473V126.887L166.261 141.482V139.068Z" fill="white"/>
<path opacity="0.4" d="M193.3 151.836L168.819 140.264V142.677L193.3 154.249V151.836Z" fill="white"/>
<path opacity="0.4" d="M190.577 163.791L160.155 149.4V151.813L190.577 166.205V163.791Z" fill="white"/>
<path opacity="0.4" d="M174.018 160.363V162.776L190.577 170.626V168.213L174.018 160.363Z" fill="white"/>
<path opacity="0.4" d="M129.292 139.203L123.323 136.384V138.797L129.292 141.617V139.203Z" fill="white"/>
<path opacity="0.4" d="M140.459 144.505V146.918L171.459 161.581V159.167L140.459 144.505Z" fill="white"/>
<path opacity="0.4" d="M137.929 143.286L131.823 140.399V142.813L137.929 145.7V143.286Z" fill="white"/>
<path opacity="0.4" d="M165.738 160.859L131.823 144.82V147.234L165.738 163.272V160.859Z" fill="white"/>
</g>
<path opacity="0.2" d="M475.159 120.029L436.842 101.983C436.418 101.765 435.928 101.646 435.427 101.639C434.926 101.633 434.432 101.738 433.999 101.945C433.566 102.152 433.21 102.451 432.969 102.812C432.728 103.173 432.613 103.58 432.634 103.991V141.595C432.616 142.505 432.894 143.404 433.441 144.197C433.987 144.99 434.782 145.649 435.742 146.106L474.059 164.265C474.486 164.51 474.99 164.651 475.512 164.67C476.033 164.689 476.551 164.587 477.004 164.374C477.456 164.161 477.826 163.847 478.069 163.468C478.312 163.089 478.419 162.662 478.377 162.235V124.609C478.373 123.682 478.074 122.772 477.51 121.968C476.945 121.165 476.135 120.497 475.159 120.029Z" fill="white"/>
<path opacity="0.2" d="M527.476 47.3486L489.16 29.3025C488.737 29.0855 488.25 28.9668 487.751 28.9592C487.253 28.9516 486.761 29.0553 486.329 29.2592C485.897 29.4631 485.54 29.7596 485.297 30.1168C485.055 30.4741 484.935 30.8788 484.951 31.2875V68.8235C484.927 69.7378 485.206 70.6404 485.758 71.4349C486.31 72.2295 487.115 72.8862 488.087 73.3351L526.403 91.5165C526.833 91.7568 527.337 91.8924 527.857 91.9074C528.376 91.9225 528.89 91.8164 529.339 91.6015C529.789 91.3867 530.154 91.0718 530.394 90.6935C530.634 90.3151 530.738 89.8887 530.694 89.4638V52.018C530.722 51.074 530.437 50.1416 529.87 49.3195C529.304 48.4974 528.476 47.8164 527.476 47.3486Z" fill="white"/>
<path opacity="0.2" d="M645.781 244.006L607.465 225.96C607.042 225.743 606.556 225.625 606.057 225.617C605.558 225.609 605.067 225.713 604.634 225.917C604.202 226.121 603.845 226.417 603.603 226.775C603.36 227.132 603.24 227.537 603.257 227.945V265.572C603.232 266.486 603.511 267.389 604.064 268.183C604.616 268.978 605.421 269.634 606.392 270.083L644.681 288.265C645.111 288.512 645.618 288.653 646.142 288.671C646.666 288.69 647.186 288.585 647.64 288.369C648.094 288.154 648.463 287.836 648.704 287.454C648.945 287.071 649.048 286.64 649 286.212V248.766C649.047 247.807 648.772 246.856 648.204 246.016C647.637 245.177 646.799 244.481 645.781 244.006Z" fill="white"/>
<path opacity="0.2" d="M312.266 151.452L273.949 133.406C273.525 133.194 273.038 133.08 272.541 133.076C272.045 133.073 271.556 133.179 271.127 133.385C270.698 133.591 270.345 133.889 270.106 134.246C269.867 134.603 269.75 135.006 269.768 135.414V173.017C269.753 173.928 270.032 174.825 270.579 175.618C271.125 176.41 271.918 177.07 272.876 177.529L311.193 195.688C311.62 195.933 312.124 196.074 312.646 196.093C313.167 196.112 313.685 196.009 314.138 195.797C314.59 195.584 314.96 195.27 315.203 194.891C315.447 194.512 315.553 194.084 315.511 193.658V156.031C315.507 155.102 315.205 154.189 314.636 153.386C314.066 152.582 313.249 151.915 312.266 151.452Z" fill="white"/>
<path d="M168.049 460.56C157.871 460.56 161.2 454.289 161.2 454.289C146.126 450.522 138.699 452.62 138.699 452.62C136.437 459.171 135.627 466.001 136.306 472.786C136.306 474.072 137.407 474.862 138.892 475.335C147.006 477.794 154.406 479.441 169.507 478.245C180.647 477.343 192.42 468.907 189.752 460.199C188.074 454.831 178.364 460.47 168.049 460.56Z" fill="#373736"/>
<path d="M163.675 382.15C160.705 378.969 155.588 376.262 147.171 378.089L56.2349 392.481L59.6457 411.633C64.2099 416.102 70.2756 419.372 77.0882 421.036C83.9008 422.701 91.1598 422.686 97.9623 420.994C112.247 417.729 125.817 412.644 138.177 405.925L135.041 458.846C144.117 460.85 153.787 459.896 162.025 456.184C164.143 455.124 166.123 404.143 166.784 391.06C167.013 389.48 166.856 387.878 166.323 386.348C165.789 384.818 164.889 383.391 163.675 382.15Z" fill="#5F7D90"/>
<path d="M211.702 475.854C201.139 475.854 204.605 469.335 204.605 469.335C188.926 465.433 181.224 467.598 181.224 467.598C178.891 474.4 178.043 481.487 178.721 488.532C178.754 489.163 179.042 489.767 179.54 490.25C180.038 490.732 180.718 491.064 181.472 491.194C189.916 493.765 197.591 495.457 213.269 494.216C224.822 493.291 237.063 484.516 234.284 475.493C232.497 469.899 222.402 475.764 211.702 475.854Z" fill="#373736"/>
<path d="M108.332 454.808L30.2688 417.791V426.814L108.36 463.718L108.332 454.808Z" fill="#BBCEE1"/>
<path d="M101.236 384.36L30.2688 417.791L108.332 454.808L179.382 421.332L101.236 384.36Z" fill="white"/>
<path d="M179.381 421.332L108.332 454.808L108.36 463.718L179.381 430.017V421.332Z" fill="#A7BCCE"/>
<path d="M207.163 394.421C204.082 391.128 198.911 388.308 189.972 390.203L95.5417 405.136L99.1451 425.009C103.882 429.65 110.178 433.046 117.25 434.774C124.322 436.503 131.858 436.488 138.919 434.732C153.754 431.344 167.845 426.061 180.674 419.077L177.484 473.96C186.9 476.054 196.939 475.067 205.485 471.208C207.713 470.102 209.776 417.182 210.436 403.534C210.86 400.261 209.683 396.984 207.163 394.421Z" fill="#5F7D91"/>
<path d="M38.4379 282.4L199.681 205.703C203.026 204.12 206.821 203.286 210.684 203.286C214.546 203.286 218.341 204.12 221.686 205.703L475.681 326.207C477.161 326.905 478.39 327.91 479.245 329.122C480.1 330.334 480.55 331.709 480.55 333.109C480.55 334.509 480.1 335.885 479.245 337.096C478.39 338.308 477.161 339.314 475.681 340.012L318.042 415.061C314.05 416.957 309.519 417.955 304.907 417.955C300.295 417.955 295.764 416.957 291.773 415.061L38.3554 294.829C37.0142 294.203 35.9003 293.296 35.1281 292.2C34.356 291.104 33.9534 289.86 33.9618 288.594C33.9702 287.329 34.3893 286.088 35.176 284.999C35.9626 283.911 37.0884 283.013 38.4379 282.4Z" fill="#E8EBF5"/>
<path d="M38.4658 294.761L291.883 414.994C295.875 416.889 300.405 417.887 305.018 417.887C309.63 417.887 314.16 416.889 318.152 414.994L475.792 339.944C477.246 339.258 478.457 338.274 479.306 337.087C480.155 335.9 480.612 334.553 480.633 333.177V343.238C480.623 344.613 480.174 345.961 479.329 347.149C478.484 348.337 477.274 349.322 475.819 350.005L318.152 425.009C314.16 426.904 309.63 427.902 305.018 427.902C300.405 427.902 295.875 426.904 291.883 425.009L38.4658 304.777C37.1238 304.15 36.0107 303.24 35.2417 302.141C34.4728 301.042 34.0759 299.795 34.0923 298.528V288.648C34.0967 289.893 34.5038 291.115 35.2722 292.189C36.0405 293.263 37.1426 294.151 38.4658 294.761Z" fill="#A7BCCE"/>
<path d="M38.4658 294.761L291.883 414.994C295.542 416.718 299.659 417.686 303.876 417.813V427.784C299.661 427.646 295.548 426.679 291.883 424.964L38.4658 304.732C37.1238 304.104 36.0107 303.194 35.2417 302.096C34.4728 300.997 34.0759 299.75 34.0923 298.483V288.603C34.0869 289.856 34.4895 291.087 35.2583 292.17C36.0272 293.252 37.1344 294.147 38.4658 294.761Z" fill="#BBCEE1"/>
<path d="M157.569 310.146L184.938 297.175C185.569 296.876 186.285 296.719 187.014 296.719C187.744 296.719 188.46 296.876 189.091 297.175L273.619 337.26C273.892 337.394 274.119 337.584 274.276 337.811C274.433 338.039 274.516 338.296 274.516 338.557C274.516 338.818 274.433 339.075 274.276 339.303C274.119 339.53 273.892 339.72 273.619 339.854L246.91 352.509C246.161 352.863 245.312 353.05 244.448 353.05C243.584 353.05 242.735 352.863 241.986 352.509L157.569 312.492C157.324 312.369 157.122 312.196 156.982 311.991C156.842 311.785 156.768 311.554 156.768 311.319C156.768 311.083 156.842 310.852 156.982 310.646C157.122 310.441 157.324 310.269 157.569 310.146Z" fill="#0F4463"/>
<path d="M157.569 312.492L241.986 352.509C242.735 352.863 243.584 353.05 244.448 353.05C245.312 353.05 246.161 352.863 246.91 352.509L273.619 339.854C273.898 339.722 274.129 339.531 274.289 339.301C274.449 339.071 274.53 338.81 274.526 338.546V341.208C274.515 341.466 274.427 341.719 274.268 341.943C274.11 342.168 273.887 342.357 273.619 342.493L246.91 355.08C246.161 355.435 245.312 355.621 244.448 355.621C243.584 355.621 242.735 355.435 241.986 355.08L157.569 315.153C157.317 315.037 157.109 314.866 156.968 314.659C156.827 314.452 156.759 314.217 156.771 313.98V311.319C156.771 311.554 156.844 311.785 156.984 311.99C157.123 312.196 157.325 312.368 157.569 312.492Z" fill="#0B3B56"/>
<path d="M184.635 300.807L188.046 299.183L191.952 301.01L188.541 302.634L184.635 300.807Z" fill="#1F5E77"/>
<path d="M189.476 303.108L192.915 301.461L196.793 303.311L193.382 304.935L189.476 303.108Z" fill="#1F5E77"/>
<path d="M194.345 305.386L197.756 303.762L201.662 305.611L198.251 307.236L194.345 305.386Z" fill="#1F5E77"/>
<path d="M199.186 307.687L202.624 306.063L206.53 307.89L203.092 309.514L199.186 307.687Z" fill="#1F5E77"/>
<path d="M204.055 309.988L207.493 308.341L211.371 310.191L207.961 311.815L204.055 309.988Z" fill="#1F5E77"/>
<path d="M208.923 312.266L212.334 310.642L216.24 312.492L212.829 314.116L208.923 312.266Z" fill="#1F5E77"/>
<path d="M213.765 314.567L217.203 312.943L221.081 314.77L217.671 316.394L213.765 314.567Z" fill="#1F5E77"/>
<path d="M218.633 316.868L222.044 315.221L225.95 317.071L222.539 318.695L218.633 316.868Z" fill="#1F5E77"/>
<path d="M223.474 319.146L226.913 317.522L230.791 319.372L227.38 320.996L223.474 319.146Z" fill="#1F5E77"/>
<path d="M228.343 321.447L231.782 319.823L235.66 321.65L232.249 323.274L228.343 321.447Z" fill="#1F5E77"/>
<path d="M233.212 323.725L236.623 322.101L240.529 323.951L237.118 325.575L233.212 323.725Z" fill="#1F5E77"/>
<path d="M238.053 326.026L241.491 324.402L245.37 326.252L241.959 327.853L238.053 326.026Z" fill="#1F5E77"/>
<path d="M246.332 326.68L250.238 328.53L246.828 330.154L242.922 328.327L246.332 326.68Z" fill="#1F5E77"/>
<path d="M184.085 304.754L180.207 302.905L183.618 301.28L187.524 303.13L184.085 304.754Z" fill="#1F5E77"/>
<path d="M192.365 305.408L188.954 307.033L185.048 305.205L188.486 303.581L192.365 305.408Z" fill="#1F5E77"/>
<path d="M197.233 307.709L193.822 309.333L189.917 307.506L193.327 305.86L197.233 307.709Z" fill="#1F5E77"/>
<path d="M202.075 310.01L198.664 311.634L194.758 309.785L198.196 308.161L202.075 310.01Z" fill="#1F5E77"/>
<path d="M206.943 312.289L203.532 313.913L199.626 312.086L203.037 310.461L206.943 312.289Z" fill="#1F5E77"/>
<path d="M211.811 314.589L208.373 316.214L204.467 314.386L207.905 312.74L211.811 314.589Z" fill="#1F5E77"/>
<path d="M216.653 316.89L213.242 318.514L209.336 316.665L212.774 315.041L216.653 316.89Z" fill="#1F5E77"/>
<path d="M221.521 319.169L218.111 320.793L214.205 318.966L217.615 317.341L221.521 319.169Z" fill="#1F5E77"/>
<path d="M226.362 321.469L222.952 323.094L219.046 321.266L222.484 319.62L226.362 321.469Z" fill="#1F5E77"/>
<path d="M231.231 323.77L227.82 325.395L223.914 323.545L227.325 321.921L231.231 323.77Z" fill="#1F5E77"/>
<path d="M236.1 326.049L232.662 327.673L228.756 325.846L232.194 324.221L236.1 326.049Z" fill="#1F5E77"/>
<path d="M240.941 328.35L237.53 329.974L233.624 328.147L237.035 326.5L240.941 328.35Z" fill="#1F5E77"/>
<path d="M241.904 328.801L245.81 330.628L242.399 332.275L238.493 330.425L241.904 328.801Z" fill="#1F5E77"/>
<path d="M179.656 306.852L175.75 305.025L179.189 303.401L183.067 305.228L179.656 306.852Z" fill="#1F5E77"/>
<path d="M187.936 307.529L184.525 309.153L180.619 307.303L184.03 305.679L187.936 307.529Z" fill="#1F5E77"/>
<path d="M185.46 309.604L188.899 307.98L192.805 309.807L189.366 311.431L185.46 309.604Z" fill="#1F5E77"/>
<path d="M197.646 312.108L194.235 313.732L190.329 311.905L193.767 310.258L197.646 312.108Z" fill="#1F5E77"/>
<path d="M202.514 314.409L199.104 316.033L195.198 314.183L198.609 312.559L202.514 314.409Z" fill="#1F5E77"/>
<path d="M207.356 316.687L203.945 318.311L200.039 316.484L203.477 314.86L207.356 316.687Z" fill="#1F5E77"/>
<path d="M212.224 318.988L208.813 320.612L204.907 318.785L208.318 317.138L212.224 318.988Z" fill="#1F5E77"/>
<path d="M217.093 321.289L213.655 322.913L209.749 321.063L213.187 319.439L217.093 321.289Z" fill="#1F5E77"/>
<path d="M221.934 323.567L218.523 325.192L214.617 323.364L218.056 321.74L221.934 323.567Z" fill="#1F5E77"/>
<path d="M226.803 325.868L223.392 327.492L219.486 325.665L222.897 324.019L226.803 325.868Z" fill="#1F5E77"/>
<path d="M231.644 328.169L228.233 329.793L224.327 327.944L227.766 326.319L231.644 328.169Z" fill="#1F5E77"/>
<path d="M229.196 330.244L232.607 328.62L236.513 330.448L233.102 332.072L229.196 330.244Z" fill="#1F5E77"/>
<path d="M237.475 330.899L241.381 332.748L237.943 334.372L234.037 332.523L237.475 330.899Z" fill="#1F5E77"/>
<path d="M175.228 308.973L171.322 307.123L174.761 305.499L178.639 307.348L175.228 308.973Z" fill="#1F5E77"/>
<path d="M176.191 309.424L179.602 307.777L183.508 309.627L180.097 311.251L176.191 309.424Z" fill="#1F5E77"/>
<path d="M181.032 311.702L184.47 310.078L188.349 311.928L184.938 313.552L181.032 311.702Z" fill="#1F5E77"/>
<path d="M185.9 314.003L189.339 312.379L193.217 314.206L189.806 315.83L185.9 314.003Z" fill="#1F5E77"/>
<path d="M190.741 316.304L194.18 314.657L198.086 316.507L194.647 318.131L190.741 316.304Z" fill="#1F5E77"/>
<path d="M195.61 318.582L199.048 316.958L202.927 318.808L199.516 320.432L195.61 318.582Z" fill="#1F5E77"/>
<path d="M200.479 320.883L203.89 319.259L207.795 321.086L204.385 322.71L200.479 320.883Z" fill="#1F5E77"/>
<path d="M205.32 323.184L208.758 321.537L212.637 323.387L209.226 325.011L205.32 323.184Z" fill="#1F5E77"/>
<path d="M210.189 325.462L213.6 323.838L217.505 325.688L214.095 327.312L210.189 325.462Z" fill="#1F5E77"/>
<path d="M215.03 327.763L218.468 326.139L222.374 327.966L218.936 329.59L215.03 327.763Z" fill="#1F5E77"/>
<path d="M219.898 330.064L223.337 328.417L227.215 330.267L223.804 331.891L219.898 330.064Z" fill="#1F5E77"/>
<path d="M224.767 332.342L228.178 330.718L232.084 332.568L228.673 334.192L224.767 332.342Z" fill="#1F5E77"/>
<path d="M233.047 333.019L236.925 334.846L233.514 336.47L229.608 334.643L233.047 333.019Z" fill="#1F5E77"/>
<path d="M170.799 311.07L166.893 309.243L170.332 307.597L174.21 309.446L170.799 311.07Z" fill="#1F5E77"/>
<path d="M171.735 311.522L175.173 309.897L179.079 311.725L175.668 313.349L171.735 311.522Z" fill="#1F5E77"/>
<path d="M176.603 313.822L180.042 312.198L183.92 314.025L180.509 315.65L176.603 313.822Z" fill="#1F5E77"/>
<path d="M181.472 316.101L184.883 314.477L188.789 316.326L185.378 317.95L181.472 316.101Z" fill="#1F5E77"/>
<path d="M186.313 318.402L189.752 316.778L193.63 318.627L190.219 320.251L186.313 318.402Z" fill="#1F5E77"/>
<path d="M191.182 320.703L194.62 319.056L198.499 320.906L195.088 322.53L191.182 320.703Z" fill="#1F5E77"/>
<path d="M196.023 322.981L199.461 321.357L203.367 323.206L199.929 324.831L196.023 322.981Z" fill="#1F5E77"/>
<path d="M200.892 325.282L204.33 323.658L208.208 325.485L204.798 327.109L200.892 325.282Z" fill="#1F5E77"/>
<path d="M205.76 327.583L209.171 325.936L213.077 327.786L209.666 329.41L205.76 327.583Z" fill="#1F5E77"/>
<path d="M210.602 329.861L214.04 328.237L217.918 330.087L214.507 331.711L210.602 329.861Z" fill="#1F5E77"/>
<path d="M215.47 332.162L218.881 330.538L222.786 332.365L219.376 333.989L215.47 332.162Z" fill="#1F5E77"/>
<path d="M220.311 334.463L223.749 332.816L227.655 334.666L224.217 336.29L220.311 334.463Z" fill="#1F5E77"/>
<path d="M228.618 335.117L232.496 336.967L229.086 338.591L225.18 336.741L228.618 335.117Z" fill="#1F5E77"/>
<path d="M165.876 309.717L169.782 311.544L166.371 313.168L162.465 311.341L165.876 309.717Z" fill="#1F5E77"/>
<path d="M174.623 313.845L171.212 315.469L167.306 313.619L170.745 311.995L174.623 313.845Z" fill="#1F5E77"/>
<path d="M179.491 316.146L176.08 317.77L172.175 315.92L175.585 314.296L179.491 316.146Z" fill="#1F5E77"/>
<path d="M184.36 318.424L180.949 320.048L177.043 318.221L180.454 316.574L184.36 318.424Z" fill="#1F5E77"/>
<path d="M189.201 320.725L185.79 322.349L181.885 320.5L185.323 318.875L189.201 320.725Z" fill="#1F5E77"/>
<path d="M194.07 323.003L190.659 324.628L186.753 322.8L190.164 321.176L194.07 323.003Z" fill="#1F5E77"/>
<path d="M195.033 323.477L199.874 325.755H199.901L200.836 326.207L204.742 328.056L206.723 328.981L209.611 330.335L212.664 331.801L218.358 334.485L214.947 336.109L209.006 333.29L206.173 331.981L203.229 330.583L201.304 329.68H201.332L197.481 327.876L196.463 327.38L191.594 325.101L195.033 323.477Z" fill="#1F5E77"/>
<path d="M223.2 336.764L219.789 338.388L215.883 336.561L219.321 334.936L223.2 336.764Z" fill="#1F5E77"/>
<path d="M228.068 339.064L224.657 340.689L220.751 338.861L224.162 337.215L228.068 339.064Z" fill="#1F5E77"/>
<path d="M252.631 332.906L256.042 331.282L259.948 333.109L256.537 334.733L252.631 332.906Z" fill="#1F5E77"/>
<path d="M257.5 335.207L260.911 333.56L264.816 335.41L261.378 337.034L257.5 335.207Z" fill="#1F5E77"/>
<path d="M262.341 337.486L265.779 335.861L269.658 337.711L266.247 339.335L262.341 337.486Z" fill="#1F5E77"/>
<path d="M255.52 335.23L252.109 336.854L248.203 335.004L251.614 333.38L255.52 335.23Z" fill="#1F5E77"/>
<path d="M260.361 337.508L256.95 339.132L253.044 337.305L256.482 335.681L260.361 337.508Z" fill="#1F5E77"/>
<path d="M265.229 339.809L261.819 341.433L257.913 339.606L261.323 337.959L265.229 339.809Z" fill="#1F5E77"/>
<path d="M251.091 337.328L247.652 338.952L243.774 337.125L247.185 335.478L251.091 337.328Z" fill="#1F5E77"/>
<path d="M255.932 339.628L252.521 341.253L248.615 339.403L252.054 337.779L255.932 339.628Z" fill="#1F5E77"/>
<path d="M260.801 341.907L257.39 343.531L253.484 341.704L256.895 340.08L260.801 341.907Z" fill="#1F5E77"/>
<path d="M239.318 339.222L242.756 337.598L246.662 339.425L243.224 341.05L239.318 339.222Z" fill="#1F5E77"/>
<path d="M244.187 341.523L247.598 339.877L251.504 341.726L248.093 343.35L244.187 341.523Z" fill="#1F5E77"/>
<path d="M249.028 343.802L252.466 342.177L256.372 344.027L252.934 345.651L249.028 343.802Z" fill="#1F5E77"/>
<path d="M234.889 341.32L238.328 339.696L242.206 341.546L238.795 343.17L234.889 341.32Z" fill="#1F5E77"/>
<path d="M239.758 343.621L243.169 341.997L247.075 343.824L243.664 345.448L239.758 343.621Z" fill="#1F5E77"/>
<path d="M244.599 345.922L248.038 344.275L251.944 346.125L248.505 347.749L244.599 345.922Z" fill="#1F5E77"/>
<path d="M237.778 343.644L234.367 345.268L230.461 343.441L233.899 341.817L237.778 343.644Z" fill="#1F5E77"/>
<path d="M242.647 345.945L239.236 347.569L235.33 345.719L238.741 344.095L242.647 345.945Z" fill="#1F5E77"/>
<path d="M218.276 288.626L245.204 275.813C245.762 275.541 246.399 275.397 247.047 275.397C247.696 275.397 248.333 275.541 248.89 275.813L312.76 306.063C312.993 306.182 313.186 306.349 313.319 306.546C313.452 306.743 313.522 306.965 313.522 307.19C313.522 307.416 313.452 307.638 313.319 307.835C313.186 308.032 312.993 308.199 312.76 308.318L286.437 320.838C285.775 321.159 285.019 321.329 284.25 321.329C283.48 321.329 282.725 321.159 282.063 320.838L218.276 290.656C218.065 290.548 217.892 290.399 217.771 290.221C217.651 290.044 217.588 289.844 217.588 289.641C217.588 289.437 217.651 289.238 217.771 289.06C217.892 288.882 218.065 288.733 218.276 288.626Z" fill="#1F5E77"/>
<path d="M218.276 290.678L282.063 320.86C282.725 321.182 283.48 321.352 284.25 321.352C285.019 321.352 285.775 321.182 286.437 320.86L312.76 308.341C313.002 308.221 313.203 308.053 313.342 307.851C313.482 307.65 313.556 307.422 313.558 307.19V309.965C313.557 310.194 313.483 310.418 313.343 310.616C313.203 310.814 313.002 310.979 312.76 311.093L286.437 323.5C285.772 323.814 285.018 323.98 284.25 323.98C283.482 323.98 282.728 323.814 282.063 323.5L218.276 293.295C218.056 293.188 217.875 293.036 217.749 292.854C217.624 292.672 217.558 292.466 217.56 292.257V289.663C217.563 289.868 217.631 290.07 217.756 290.248C217.881 290.425 218.06 290.574 218.276 290.678Z" fill="#07304B"/>
<path d="M218.276 290.678L282.063 320.86C282.666 321.15 283.346 321.312 284.044 321.334V324.018C283.348 324.005 282.668 323.85 282.063 323.567L218.276 293.363C218.056 293.256 217.875 293.104 217.749 292.922C217.624 292.74 217.558 292.534 217.56 292.325V289.663C217.563 289.868 217.631 290.07 217.756 290.248C217.881 290.425 218.06 290.574 218.276 290.678Z" fill="#0B3B56"/>
<path d="M288.115 290.633L238.493 267.06V287.227L288.115 310.777V290.633Z" fill="#0F4463"/>
<path d="M245.397 263.812L238.493 267.06L288.115 290.633L295.046 287.362L245.397 263.812Z" fill="#07304B"/>
<path d="M295.046 287.362L288.115 290.633V310.777L295.046 307.484V287.362Z" fill="#07304B"/>
<path d="M188.293 164.423L339.194 236.202V327.244L188.293 255.195V164.423Z" fill="url(#paint0_linear)"/>
<path d="M339.194 236.201L344.201 233.698V324.763L339.194 327.244V236.201Z" fill="#07304B"/>
<path d="M188.293 164.423L193.437 161.987L344.2 233.698L339.194 236.201L188.293 164.423Z" fill="#1F5E77"/>
<path d="M188.293 164.446V255.218L339.194 327.267V236.202L188.293 164.446ZM335.701 322.169L191.869 253.571V169.521L335.701 237.893V322.169Z" fill="#0B3B56"/>
<path d="M132.428 276.85C130.86 289.866 119.17 299.566 106.297 298.528C93.4235 297.491 84.2914 286.099 85.8592 273.083C87.4271 260.067 99.1173 250.39 111.963 251.428C124.808 252.466 133.996 263.857 132.428 276.85Z" fill="#FED4BD"/>
<path d="M151.655 307.168C151.655 307.168 157.156 308.273 159.191 308.431C161.227 308.589 168.489 309.852 171.487 309.108C174.485 308.363 168.736 306.717 167.443 305.882C166.151 305.048 166.123 302.905 169.149 302.16C172.175 301.416 179.051 301.754 182.682 301.326C186.313 300.897 179.079 291.896 173.165 291.062C167.67 290.157 161.965 290.793 156.963 292.866C151.93 294.897 149.179 298.348 146.841 299.002L151.655 307.168Z" fill="#F4C5A2"/>
<path d="M152.315 294.897L114.054 302.769L112.128 322.688L157.294 309.965C158.229 302.95 152.315 294.897 152.315 294.897Z" fill="#A2C12F"/>
<path d="M57.8854 303.333C57.8854 303.333 47.2954 314.251 57.8854 329.32C57.8854 329.32 65.2847 337.711 85.5845 329.477L57.8854 303.333Z" fill="#A2C12F"/>
<path d="M89.3253 290.565C89.3253 290.565 105.829 289.641 118.73 297.04C119.453 298.515 120.687 299.785 122.278 300.694C124.864 302.115 137.709 306.333 137.709 306.333C137.709 306.333 132.043 368.074 138.535 398.143C138.535 398.143 110.67 415.986 67.0176 398.143C67.0176 398.143 60.6636 322.327 57.8579 303.401C57.8854 303.333 65.2297 295.979 89.3253 290.565Z" fill="#B0D135"/>
<path d="M82.0635 392.481L4 355.464L30.2687 417.881L108.36 454.808L82.0635 392.481Z" fill="#BBCEE1"/>
<path d="M12.6095 351.358L4 355.464L82.0634 392.481L90.783 388.33L12.6095 351.358Z" fill="white"/>
<path d="M90.7828 388.331L82.0632 392.481L108.359 454.808L117.162 450.657L90.7828 388.331Z" fill="#A7BCCE"/>
<path d="M203.092 334.53C203.092 334.53 207.355 331.011 208.978 330.019C210.601 329.026 216.322 324.583 219.541 323.996C222.759 323.41 217.285 327.989 216.597 329.41C215.91 330.831 219.898 328.259 222.896 327.335C226.241 326.433 229.869 326.537 233.129 327.628C240.528 329.884 240.171 341.907 234.119 340.486C224.189 338.23 219.733 344.591 213.792 345.945C211.036 346.529 208.232 346.951 205.402 347.208L203.092 334.53Z" fill="#F4C5A2"/>
<path d="M137.654 306.333L169.919 341.411L203.477 333.29C203.477 333.29 210.684 340.734 208.346 348.606L163.565 362.908L127.174 330.087C127.174 330.087 115.044 309.243 137.654 306.333Z" fill="#A2C12F"/>
<path d="M119.72 240.307C119.72 240.307 122.196 245.202 110.313 246.533C98.43 247.864 83.769 252.691 79.8906 262.977C77.415 269.542 80.2756 276.512 84.3191 282.332C85.6725 284.326 87.2471 286.214 89.0228 287.971C95.034 288.89 101.248 288.018 106.544 285.513C110.592 283.058 113.834 279.818 115.979 276.083C115.979 276.083 123.048 278.497 125.249 273.67C126.872 270.106 131.988 269.158 134.766 267.286C134.904 267.286 150.802 245.789 119.72 240.307Z" fill="#9D4D36"/>
<path d="M562.795 427.107L511.055 402.497V418.377L562.795 442.92V427.107Z" fill="#BBCEE1"/>
<path d="M564.528 377.3L511.055 402.497L562.795 427.107L616.323 401.888L564.528 377.3Z" fill="white"/>
<path d="M616.322 401.888L562.794 427.107V442.92L616.322 417.52V401.888Z" fill="#A7BCCE"/>
<path d="M562.795 401.166L511.055 376.533V392.413L562.795 416.956V401.166Z" fill="#BBCEE1"/>
<path d="M564.528 351.336L511.055 376.533L562.795 401.166L616.323 375.924L564.528 351.336Z" fill="white"/>
<path d="M616.322 375.924L562.794 401.166V416.956L616.322 391.556V375.924Z" fill="#A7BCCE"/>
<path d="M475.296 468.658L423.584 444.025V459.906L475.324 484.449L475.296 468.658Z" fill="#BBCEE1"/>
<path d="M477.057 418.828L423.584 444.025L475.296 468.658L528.852 443.416L477.057 418.828Z" fill="white"/>
<path d="M528.852 443.416L475.297 468.658L475.324 484.449L528.852 459.049V443.416Z" fill="#A7BCCE"/>
<path d="M475.296 442.695L423.584 418.084V433.942L475.324 458.507L475.296 442.695Z" fill="#BBCEE1"/>
<path d="M477.057 392.887L423.584 418.084L475.296 442.695L528.852 417.475L477.057 392.887Z" fill="white"/>
<path d="M528.852 417.475L475.297 442.695L475.324 458.507L528.852 433.107V417.475Z" fill="#A7BCCE"/>
<path d="M387.826 510.187L336.114 485.577V501.435L387.826 526V510.187Z" fill="#BBCEE1"/>
<path d="M389.586 460.38L336.114 485.577L387.826 510.187L441.381 484.968L389.586 460.38Z" fill="white"/>
<path d="M441.381 484.968L387.826 510.187V526L441.381 500.6V484.968Z" fill="#A7BCCE"/>
<path d="M387.826 484.223L336.114 459.613V475.493L387.826 500.036V484.223Z" fill="#BBCEE1"/>
<path d="M389.586 434.416L336.114 459.613L387.826 484.223L441.381 459.004L389.586 434.416Z" fill="white"/>
<path d="M441.381 459.004L387.826 484.223V500.036L441.381 474.636V459.004Z" fill="#A7BCCE"/>
<path d="M403.972 468.704L400.726 467.147C398.28 467.927 395.718 468.436 393.107 468.658V470.914H385.213V468.658C382.603 468.43 380.042 467.922 377.593 467.147L374.375 468.704L368.874 466.042L372.12 464.508C370.683 463.56 369.581 462.313 368.929 460.899H364.363V457.131H368.709C369.342 455.72 370.425 454.474 371.845 453.522L368.709 452.079L374.21 449.417L377.456 450.951C379.899 450.191 382.45 449.691 385.048 449.462V447.206H392.942V449.462C395.558 449.691 398.127 450.191 400.589 450.951L403.807 449.417L409.308 452.079L406.063 453.612C407.506 454.556 408.608 455.804 409.253 457.222H413.819V460.966H409.418C408.785 462.378 407.702 463.624 406.283 464.575L409.528 466.109L403.972 468.704ZM381.802 462.5C384.074 463.445 386.585 463.938 389.132 463.938C391.68 463.938 394.191 463.445 396.463 462.5C400.479 460.56 400.451 457.447 396.463 455.53C394.196 454.585 391.689 454.092 389.146 454.092C386.603 454.092 384.096 454.585 381.829 455.53C377.786 457.447 377.813 460.56 381.829 462.5" fill="#1C75BC"/>
<path d="M480.99 406.58L486.024 415.377L491.058 424.197L472.491 421.829L453.924 419.483L467.457 413.031L480.99 406.58Z" fill="#B0D135"/>
<path d="M544.283 374.051C541.532 372.721 542.742 370.803 548.079 368.254C550.264 367.198 552.641 366.437 555.12 365.998C556.815 365.615 558.62 365.744 560.209 366.359C560.754 366.6 561.218 366.949 561.557 367.374C561.824 367.735 562.036 368.122 562.189 368.525L567.086 367.532C566.805 366.887 566.365 366.295 565.793 365.795C565.19 365.267 564.483 364.825 563.702 364.487C560.927 363.237 557.734 362.754 554.598 363.111C550.704 363.517 546.956 364.585 543.595 366.247C540.757 367.301 538.439 369.114 537.021 371.39C536.361 373.036 537.324 374.458 539.772 375.698C541.461 376.504 543.333 377.018 545.273 377.21L549.069 375.405C547.389 375.187 545.769 374.729 544.283 374.051Z" fill="#91A6B7"/>
<path d="M567.526 378.901C567.992 377.954 567.992 376.894 567.526 375.946C567.175 375.303 567.042 374.594 567.141 373.894C567.236 373.611 567.406 373.349 567.639 373.127C567.872 372.904 568.162 372.727 568.488 372.608C569.224 372.245 570.053 372.029 570.909 371.976C571.704 371.943 572.494 372.091 573.192 372.405C573.751 372.665 574.246 373.01 574.65 373.42C574.946 373.781 575.213 374.158 575.447 374.548L580.289 373.6C579.529 372.258 578.254 371.156 576.658 370.465C574.788 369.58 572.654 369.142 570.496 369.202C568.269 369.214 566.085 369.712 564.17 370.645C563.304 371.033 562.523 371.536 561.859 372.134C561.416 372.589 561.105 373.122 560.952 373.691C560.866 374.37 560.969 375.056 561.254 375.698C561.616 376.411 561.731 377.192 561.584 377.954C561.5 378.249 561.335 378.524 561.102 378.759C560.868 378.993 560.572 379.181 560.236 379.307C559.495 379.668 558.65 379.862 557.788 379.871C556.891 379.89 556.005 379.703 555.23 379.33C553.801 378.631 552.712 377.547 552.149 376.262L547.941 378.27C548.876 379.565 550.253 380.608 551.902 381.27C553.843 382.227 556.073 382.72 558.338 382.691C560.651 382.643 562.909 382.099 564.885 381.112C566.017 380.61 566.937 379.84 567.526 378.901Z" fill="#91A6B7"/>
<path d="M589.944 376.804C588.073 375.919 585.941 375.474 583.782 375.518C581.555 375.554 579.377 376.059 577.456 376.984C576.593 377.365 575.82 377.869 575.173 378.473C574.708 378.917 574.395 379.454 574.265 380.029C574.164 380.701 574.268 381.383 574.568 382.014C574.911 382.731 575.024 383.507 574.898 384.27C574.794 384.558 574.621 384.826 574.39 385.058C574.159 385.291 573.873 385.483 573.55 385.624C572.795 385.978 571.944 386.171 571.074 386.188C570.185 386.207 569.308 386.019 568.544 385.646C567.108 384.953 566.017 383.867 565.463 382.578L561.254 384.586C562.17 385.886 563.541 386.931 565.188 387.586C567.136 388.53 569.361 389.022 571.624 389.007C573.946 388.959 576.212 388.415 578.198 387.428C579.352 386.962 580.31 386.223 580.949 385.308C581.429 384.354 581.429 383.284 580.949 382.33C580.613 381.691 580.481 380.993 580.564 380.3C580.669 380.015 580.845 379.751 581.082 379.526C581.319 379.3 581.611 379.118 581.939 378.992C582.678 378.637 583.506 378.428 584.36 378.383C585.156 378.339 585.95 378.488 586.643 378.811C587.2 379.065 587.687 379.411 588.073 379.826C588.38 380.182 588.647 380.559 588.871 380.954L593.712 379.984C592.927 378.607 591.6 377.487 589.944 376.804Z" fill="#91A6B7"/>
<path d="M561.639 235.119L511.385 211.365C510.619 210.997 509.741 210.816 508.854 210.844C507.966 210.872 507.108 211.108 506.379 211.523L495.376 216.734L500.52 222.441L502.418 224.246V265.053C502.415 266.247 502.797 267.422 503.527 268.456C504.256 269.49 505.307 270.347 506.571 270.94L544.172 288.783L544.558 290.498L552.232 299.318L564.032 293.611C564.581 293.333 565.033 292.944 565.346 292.482C565.659 292.02 565.822 291.5 565.82 290.971V241.345C565.854 240.097 565.485 238.864 564.751 237.77C564.017 236.677 562.943 235.762 561.639 235.119Z" fill="#9EBD2A"/>
<path d="M549.894 240.781L499.062 216.734C498.499 216.481 497.866 216.351 497.224 216.358C496.582 216.365 495.953 216.509 495.399 216.775C494.845 217.041 494.384 217.42 494.062 217.875C493.74 218.331 493.567 218.847 493.561 219.373V269.361C493.553 270.56 493.933 271.738 494.663 272.777C495.393 273.815 496.446 274.676 497.714 275.271L548.519 299.363C549.101 299.633 549.759 299.775 550.428 299.773C551.097 299.772 551.754 299.627 552.335 299.354C552.915 299.081 553.398 298.688 553.737 298.215C554.076 297.742 554.259 297.205 554.268 296.656V246.804C554.239 245.575 553.82 244.373 553.053 243.317C552.286 242.261 551.198 241.387 549.894 240.781Z" fill="#B0D135"/>
<path d="M554.185 296.566V246.804C554.162 245.983 553.957 245.173 553.58 244.413L565.38 238.841C565.71 239.564 565.896 240.325 565.93 241.097V290.723C565.932 291.252 565.769 291.772 565.456 292.234C565.143 292.696 564.691 293.085 564.142 293.363L552.452 299.002C552.957 298.739 553.378 298.381 553.68 297.957C553.982 297.533 554.155 297.056 554.185 296.566Z" fill="#9EBD2A"/>
<path d="M619.018 135.887L568.763 112.112C567.99 111.749 567.109 111.572 566.219 111.6C565.329 111.628 564.467 111.86 563.73 112.27L552.727 117.503L557.871 123.188L559.769 124.992V165.799C559.761 166.997 560.141 168.176 560.871 169.215C561.601 170.253 562.654 171.114 563.922 171.709L601.524 189.53L601.909 191.244L609.583 200.064L621.383 194.38C621.935 194.105 622.391 193.717 622.704 193.254C623.018 192.792 623.179 192.27 623.171 191.74V142.113C623.219 140.866 622.86 139.631 622.129 138.536C621.399 137.441 620.325 136.527 619.018 135.887Z" fill="#9263C1"/>
<path d="M607.382 141.549L556.55 117.48C555.984 117.233 555.351 117.109 554.709 117.12C554.068 117.131 553.441 117.278 552.889 117.545C552.336 117.812 551.877 118.191 551.555 118.646C551.233 119.101 551.058 119.616 551.049 120.142V170.107C551.046 171.302 551.429 172.476 552.158 173.51C552.888 174.544 553.938 175.402 555.203 175.995L606.007 200.087C606.587 200.359 607.244 200.501 607.912 200.5C608.581 200.499 609.237 200.354 609.816 200.081C610.395 199.807 610.876 199.413 611.211 198.939C611.547 198.465 611.725 197.928 611.728 197.38V147.55C611.708 146.325 611.296 145.126 610.534 144.073C609.771 143.02 608.684 142.15 607.382 141.549Z" fill="#8444B2"/>
<path d="M611.646 197.312V147.55C611.635 146.73 611.44 145.92 611.069 145.159L622.869 139.587C623.187 140.311 623.364 141.073 623.392 141.843V191.47C623.399 191.999 623.238 192.521 622.924 192.984C622.611 193.447 622.156 193.834 621.604 194.109L609.886 199.748C610.395 199.487 610.82 199.129 611.126 198.705C611.432 198.281 611.611 197.804 611.646 197.312Z" fill="#7231A3"/>
<path d="M451.228 136.609L400.891 112.834C400.118 112.471 399.237 112.294 398.347 112.321C397.457 112.349 396.595 112.581 395.858 112.991L384.855 118.202L389.999 123.909L391.897 125.714V166.521C391.889 167.719 392.269 168.898 392.999 169.936C393.729 170.975 394.782 171.836 396.05 172.431L433.652 190.251L434.037 191.966L441.711 200.786L453.511 195.101C454.06 194.824 454.512 194.435 454.825 193.973C455.138 193.511 455.301 192.991 455.299 192.462V142.835C455.356 141.595 455.008 140.364 454.293 139.27C453.577 138.175 452.52 137.257 451.228 136.609Z" fill="#9D739E"/>
<path d="M439.401 142.271L388.569 118.225C388.004 117.97 387.368 117.841 386.724 117.849C386.079 117.857 385.449 118.003 384.894 118.271C384.339 118.54 383.878 118.922 383.558 119.381C383.238 119.839 383.069 120.358 383.067 120.887V170.762C383.059 171.96 383.44 173.139 384.17 174.177C384.899 175.216 385.952 176.077 387.221 176.672L438.025 200.763C438.605 201.035 439.262 201.178 439.931 201.177C440.599 201.176 441.255 201.031 441.834 200.757C442.413 200.484 442.894 200.09 443.23 199.616C443.565 199.142 443.743 198.605 443.747 198.057V148.43C443.761 147.178 443.365 145.946 442.6 144.863C441.836 143.78 440.731 142.885 439.401 142.271Z" fill="#F2BFF4"/>
<path d="M443.664 198.034V148.407C443.653 147.588 443.457 146.777 443.086 146.016L454.886 140.444C455.205 141.169 455.381 141.93 455.409 142.7V192.327C455.411 192.855 455.248 193.376 454.935 193.838C454.622 194.3 454.169 194.688 453.621 194.966L441.903 200.605C442.435 200.331 442.874 199.952 443.182 199.503C443.489 199.054 443.655 198.549 443.664 198.034Z" fill="#9D739E"/>
<path d="M341.202 40.3783L290.893 16.7152C290.12 16.3527 289.238 16.1753 288.348 16.2032C287.458 16.2311 286.596 16.4632 285.859 16.8732L274.856 22.1065L279.973 27.7911L281.898 29.5957V70.4025C281.887 71.5988 282.264 72.776 282.989 73.8142C283.713 74.8524 284.761 75.7145 286.024 76.3126L323.625 94.1332L324.011 95.8476L331.685 104.668L343.485 98.9831C344.044 98.7131 344.507 98.3269 344.825 97.8635C345.144 97.4001 345.308 96.8759 345.301 96.3439V46.717C345.376 45.4557 345.036 44.2011 344.314 43.0854C343.593 41.9698 342.518 41.0345 341.202 40.3783Z" fill="#8CA823"/>
<path d="M329.375 46.0402L278.543 21.9712C277.977 21.7236 277.343 21.5995 276.701 21.6108C276.06 21.6221 275.433 21.7684 274.881 22.0357C274.328 22.303 273.869 22.6822 273.547 23.1371C273.225 23.5919 273.051 24.107 273.041 24.633V74.5306C273.038 75.7253 273.421 76.8993 274.151 77.9334C274.88 78.9675 275.93 79.8248 277.195 80.4181L328.027 104.51C328.607 104.782 329.264 104.924 329.932 104.923C330.6 104.922 331.257 104.778 331.835 104.504C332.414 104.23 332.895 103.836 333.231 103.362C333.567 102.889 333.745 102.351 333.748 101.803V52.1759C333.757 50.9255 333.356 49.6961 332.586 48.6166C331.817 47.5371 330.708 46.6472 329.375 46.0402Z" fill="#B0D135"/>
<path d="M333.665 101.803V52.1759C333.641 51.3576 333.446 50.5489 333.088 49.7848L344.861 44.2131C345.2 44.9337 345.386 45.6967 345.411 46.4688V96.0957C345.418 96.6278 345.254 97.152 344.935 97.6154C344.617 98.0788 344.154 98.465 343.595 98.735L331.905 104.374C332.433 104.097 332.87 103.717 333.177 103.269C333.484 102.82 333.652 102.317 333.665 101.803Z" fill="#7F9A1C"/>
<path d="M429.361 152.061C426.707 148.107 422.862 144.775 418.193 142.384C416.587 141.433 414.704 140.847 412.733 140.685C410.763 140.523 408.775 140.79 406.97 141.459C401.469 144.031 400.836 151.768 405.1 159.505L391.347 165.957L395.363 171.664L409.116 165.212C411.497 168.001 414.56 170.352 418.11 172.115C419.709 173.06 421.583 173.642 423.543 173.805C425.504 173.967 427.481 173.703 429.278 173.04C435.495 170.243 435.522 160.814 429.361 152.061ZM425.262 167.423C424.112 167.847 422.846 168.016 421.591 167.913C420.336 167.81 419.136 167.439 418.11 166.837C415.116 165.317 412.653 163.188 410.959 160.656C407.025 155.062 407.025 149.016 410.959 147.121C412.109 146.697 413.375 146.528 414.63 146.631C415.885 146.734 417.085 147.105 418.11 147.708C421.093 149.249 423.552 151.383 425.262 153.911C429.223 159.528 429.223 165.596 425.262 167.423Z" fill="white"/>
<path d="M288.94 50.3262C289.788 50.726 290.566 51.2194 291.25 51.7924C292.021 52.4241 292.791 53.0782 293.561 53.8001L294.991 51.1157C293.277 49.4502 291.242 48.0254 288.967 46.8974C287.443 46.0726 285.649 45.6477 283.824 45.6793C283.11 45.7326 282.424 45.9347 281.832 46.2663C281.24 46.5979 280.761 47.0481 280.44 47.5741C279.575 49.0568 279.169 50.6916 279.258 52.3338C279.176 55.2854 279.989 58.2075 281.623 60.8381C283.182 63.2819 285.57 65.3033 288.5 66.6579C290.219 67.5489 292.151 68.1259 294.166 68.3498V64.8984C292.324 64.6652 290.546 64.1689 288.912 63.4322C285.474 61.8081 283.741 58.9207 283.769 54.4091C283.557 52.9142 284.038 51.4085 285.116 50.1908C286.189 49.5141 287.345 49.5366 288.94 50.3262Z" fill="#8444B2"/>
<path d="M305.802 58.3342L302.721 56.8679L302.693 62.0562L297.247 59.462V62.372L302.693 64.9661L302.666 70.0867L305.747 71.5304L305.774 66.4324L311.22 69.0039L311.248 66.094L305.774 63.4999L305.802 58.3342Z" fill="#8444B2"/>
<path d="M322.25 71.3049L322.278 66.1391L319.197 64.6729L319.17 69.8386L313.723 67.267V70.177L319.17 72.7711L319.142 77.8691L322.223 79.3354L322.25 74.2148L327.697 76.8089V73.899L322.25 71.3049Z" fill="#8444B2"/>
<path d="M567.608 138.391C566.94 139.181 566.647 140.144 566.783 141.098V147.234C566.783 148.362 566.343 148.971 565.463 149.039C564.101 149.002 562.782 148.642 561.667 148.001V152.061C563.11 152.706 564.389 153.571 565.435 154.61C566.317 155.537 566.783 156.684 566.755 157.859V163.746C566.715 164.952 566.987 166.152 567.553 167.265C568.223 168.364 569.159 169.339 570.304 170.13C571.814 171.221 573.465 172.174 575.228 172.972V169.047C574.143 168.55 573.204 167.865 572.477 167.04C572.009 166.35 571.762 165.573 571.762 164.784V158.829C571.67 157.574 571.209 156.357 570.419 155.281C569.628 154.204 568.532 153.301 567.223 152.648V152.422C570.221 153.437 571.734 152.738 571.789 150.347V144.708C571.789 143.805 572.037 143.241 572.532 143.061C573.027 142.88 573.935 143.061 575.282 143.647V139.722C573.759 138.94 572.111 138.333 570.386 137.918C569.914 137.782 569.406 137.755 568.917 137.838C568.427 137.921 567.975 138.113 567.608 138.391Z" fill="white"/>
<path d="M596.023 163.543C595.181 162.67 594.725 161.588 594.73 160.475V154.317C594.794 152.539 594.136 150.793 592.859 149.354C591.072 147.601 588.874 146.159 586.395 145.114V149.039C587.482 149.523 588.422 150.201 589.146 151.024C589.621 151.711 589.868 152.489 589.861 153.279V158.919C589.952 160.212 590.416 161.469 591.214 162.587C592.013 163.704 593.123 164.651 594.455 165.348V165.573C593.41 165.109 592.183 165.003 591.044 165.28C590.246 165.596 589.834 166.318 589.834 167.536V173.356C589.834 174.258 589.586 174.822 589.118 175.025C588.651 175.228 587.688 175.025 586.368 174.416V178.341C588.26 179.494 590.531 180.154 592.887 180.236C594.125 180.033 594.757 178.973 594.757 177.033V171.145C594.757 169.927 595.197 169.25 596.05 169.138C597.413 169.164 598.736 169.526 599.846 170.175V166.025C598.396 165.397 597.1 164.556 596.023 163.543Z" fill="white"/>
<path d="M499.942 248.879L515.676 262.91L515.704 259.323L504.839 249.962L515.731 250.368V246.781L499.942 246.736V248.879Z" fill="#1F5E77"/>
<path d="M517.299 266.722L521.7 268.797L530.447 250.999L526.019 248.924L517.299 266.722Z" fill="#1F5E77"/>
<path d="M531.96 254.473V258.06L542.825 267.94L531.932 267.015L531.905 270.602L547.721 271.504V269.361L531.96 254.473Z" fill="#1F5E77"/>
<path d="M207.081 183.349V185.763L219.458 191.605V189.191L207.081 183.349Z" fill="#F5D012"/>
<path d="M207.081 187.748V190.161L219.458 196.026V193.613L207.081 187.748Z" fill="#EDF0F8"/>
<path d="M207.081 192.169V194.583L219.458 200.425V198.011L207.081 192.169Z" fill="#EDF0F8"/>
<path d="M300.438 243.149V240.736L224.08 204.621V207.034L300.438 243.149Z" fill="#EDF0F8"/>
<path d="M207.081 196.568V198.981L219.458 204.846V202.433L207.081 196.568Z" fill="#EDF0F8"/>
<path d="M207.081 200.989V203.403L219.458 209.245V206.831L207.081 200.989Z" fill="#EDF0F8"/>
<path d="M300.438 247.548V245.134L224.08 209.042V211.433L300.438 247.548Z" fill="#50E85E"/>
<path d="M207.081 214.208V216.621L219.458 222.486V220.073L207.081 214.208Z" fill="#EDF0F8"/>
<path d="M207.081 218.629V221.043L219.458 226.885V224.471L207.081 218.629Z" fill="#F5D012"/>
<path d="M207.081 236.269V238.683L219.458 244.548V242.112L207.081 236.269Z" fill="#EDF0F8"/>
<path d="M207.081 240.69V243.104L219.458 248.947V246.533L207.081 240.69Z" fill="#EDF0F8"/>
<path d="M272.243 271.504L224.08 248.721V251.135L272.243 273.918V271.504Z" fill="#50E85E"/>
<path d="M274.774 272.7V275.136L300.438 287.25V284.836L274.774 272.7Z" fill="#EDF0F8"/>
<path d="M248.285 255.759L224.08 244.322V246.736L248.285 258.173V255.759Z" fill="#EDF0F8"/>
<path d="M250.816 256.977V259.368L300.438 282.851V280.437L250.816 256.977Z" fill="#EDF0F8"/>
<path d="M293.891 264.105V266.519L300.437 269.609V267.196L293.891 264.105Z" fill="#EDF0F8"/>
<path d="M258.38 242.901L224.08 226.682V229.096L258.38 245.315V242.901Z" fill="#ED5561"/>
<path d="M244.324 200.966L224.08 191.379V193.793L244.324 203.38V200.966Z" fill="#EDF0F8"/>
<path d="M277.525 216.667L246.883 202.162V204.576L277.525 219.08V216.667Z" fill="#EDF0F8"/>
<path d="M259.646 212.629L238.081 202.41V204.824L259.646 215.042V212.629Z" fill="#EDF0F8"/>
<path d="M282.311 223.321L262.204 213.824V216.238L282.311 225.757V223.321Z" fill="#ED5561"/>
<path d="M284.842 224.539V226.953L300.438 234.329V231.916L284.842 224.539Z" fill="#EDF0F8"/>
<path d="M228.068 202.094V204.508L244.324 212.2V209.786L228.068 202.094Z" fill="#ED5561"/>
<path d="M294.056 233.314L246.883 210.982V213.396L294.056 235.728V233.314Z" fill="#EDF0F8"/>
<path d="M267.045 233.765L236.21 219.17V221.584L267.045 236.179V233.765Z" fill="#EDF0F8"/>
<path d="M294.056 246.533L269.575 234.961V237.374L294.056 248.947V246.533Z" fill="#EDF0F8"/>
<path d="M291.36 258.488L260.938 244.097V246.51L291.36 260.902V258.488Z" fill="#EDF0F8"/>
<path d="M274.774 255.06V257.473L291.36 265.323V262.91L274.774 255.06Z" fill="#50E85E"/>
<path d="M230.049 233.901L224.08 231.081V233.495L230.049 236.314V233.901Z" fill="#EDF0F8"/>
<path d="M241.244 239.202V241.615L272.243 256.278V253.864L241.244 239.202Z" fill="#EDF0F8"/>
<path d="M238.713 238.006L232.607 235.119V237.532L238.713 240.42V238.006Z" fill="#EDF0F8"/>
<path d="M266.522 255.556L232.607 239.517V241.931L266.522 257.97V255.556Z" fill="#EDF0F8"/>
<path d="M305.801 230.066V230.72L309.212 232.344V231.667L305.801 230.066Z" fill="#EDF0F8"/>
<path d="M305.801 231.284V231.938L309.212 233.562V232.885L305.801 231.284Z" fill="#EDF0F8"/>
<path d="M305.801 232.502V233.156L309.212 234.78V234.104L305.801 232.502Z" fill="#EDF0F8"/>
<path d="M331.52 246.533V245.879L310.477 235.931V236.585L331.52 246.533Z" fill="#EDF0F8"/>
<path d="M305.801 233.72V234.374L309.212 235.976V235.322L305.801 233.72Z" fill="#EDF0F8"/>
<path d="M305.801 234.916V235.592L309.212 237.194V236.54L305.801 234.916Z" fill="#EDF0F8"/>
<path d="M331.52 247.751V247.097L310.477 237.149V237.803L331.52 247.751Z" fill="#EDF0F8"/>
<path d="M305.801 238.57V239.247L309.212 240.848V240.194L305.801 238.57Z" fill="#EDF0F8"/>
<path d="M305.801 239.788V240.442L309.212 242.066V241.39L305.801 239.788Z" fill="#EDF0F8"/>
<path d="M305.801 244.638V245.315L309.212 246.939V246.262L305.801 244.638Z" fill="#EDF0F8"/>
<path d="M305.801 245.856V246.533L309.212 248.134V247.48L305.801 245.856Z" fill="#EDF0F8"/>
<path d="M323.763 254.36L310.477 248.089V248.744L323.763 255.015V254.36Z" fill="#EDF0F8"/>
<path d="M324.451 254.699V255.353L331.52 258.691V258.037L324.451 254.699Z" fill="#EDF0F8"/>
<path d="M317.161 250.029L310.477 246.871V247.525L317.161 250.684V250.029Z" fill="#EDF0F8"/>
<path d="M317.849 250.345V251.022L331.52 257.473V256.819L317.849 250.345Z" fill="#EDF0F8"/>
<path d="M329.732 252.33V252.984L331.52 253.842V253.165L329.732 252.33Z" fill="#EDF0F8"/>
<path d="M319.94 246.465L310.477 241.999V242.676L319.94 247.142V246.465Z" fill="#EDF0F8"/>
<path d="M316.061 234.916L310.477 232.276V232.953L316.061 235.592V234.916Z" fill="#EDF0F8"/>
<path d="M325.221 239.247L316.749 235.254V235.908L325.221 239.901V239.247Z" fill="#EDF0F8"/>
<path d="M320.27 238.141L314.329 235.322V235.976L320.27 238.796V238.141Z" fill="#EDF0F8"/>
<path d="M326.514 241.074L320.985 238.457V239.134L326.514 241.751V241.074Z" fill="#EDF0F8"/>
<path d="M327.229 241.412V242.089L331.52 244.119V243.442L327.229 241.412Z" fill="#EDF0F8"/>
<path d="M311.578 235.232V235.908L316.061 238.006V237.352L311.578 235.232Z" fill="#EDF0F8"/>
<path d="M329.759 243.826L316.749 237.69V238.344L329.759 244.503V243.826Z" fill="#EDF0F8"/>
<path d="M322.305 243.961L313.833 239.946V240.6L322.305 244.616V243.961Z" fill="#EDF0F8"/>
<path d="M329.76 247.48L323.021 244.3V244.954L329.76 248.134V247.48Z" fill="#EDF0F8"/>
<path d="M329.017 250.774L320.627 246.804V247.48L329.017 251.45V250.774Z" fill="#EDF0F8"/>
<path d="M324.451 249.826V250.503L329.017 252.646V251.992L324.451 249.826Z" fill="#EDF0F8"/>
<path d="M312.128 244.006L310.477 243.217V243.894L312.128 244.661V244.006Z" fill="#EDF0F8"/>
<path d="M315.208 245.45V246.127L323.763 250.165V249.488L315.208 245.45Z" fill="#EDF0F8"/>
<path d="M314.521 245.134L312.815 244.322V244.999L314.521 245.788V245.134Z" fill="#EDF0F8"/>
<path d="M322.168 249.962L312.815 245.54V246.217L322.168 250.638V249.962Z" fill="#EDF0F8"/>
<path d="M305.801 250.638V251.293L309.212 252.917V252.24L305.801 250.638Z" fill="#EDF0F8"/>
<path d="M305.801 251.834V252.511L309.212 254.135V253.458L305.801 251.834Z" fill="#EDF0F8"/>
<path d="M305.801 253.052V253.729L309.212 255.33V254.676L305.801 253.052Z" fill="#EDF0F8"/>
<path d="M331.52 267.105V266.451L310.477 256.503V257.158L331.52 267.105Z" fill="#EDF0F8"/>
<path d="M305.801 254.27V254.947L309.212 256.549V255.894L305.801 254.27Z" fill="#EDF0F8"/>
<path d="M305.801 255.488V256.165L309.212 257.767V257.112L305.801 255.488Z" fill="#EDF0F8"/>
<path d="M331.52 268.324V267.669L310.477 257.699V258.376L331.52 268.324Z" fill="#EDF0F8"/>
<path d="M305.801 259.143V259.797L309.212 261.421V260.744L305.801 259.143Z" fill="#EDF0F8"/>
<path d="M305.801 260.361V261.015L309.212 262.639V261.962L305.801 260.361Z" fill="#EDF0F8"/>
<path d="M305.801 265.211V265.887L309.212 267.489V266.835L305.801 265.211Z" fill="#EDF0F8"/>
<path d="M305.801 266.429V267.105L309.212 268.707V268.053L305.801 266.429Z" fill="#EDF0F8"/>
<path d="M323.763 274.933L310.477 268.639V269.316L323.763 275.587V274.933Z" fill="#EDF0F8"/>
<path d="M324.451 275.249V275.926L331.52 279.264V278.587L324.451 275.249Z" fill="#EDF0F8"/>
<path d="M317.161 270.579L310.477 267.444V268.098L317.161 271.256V270.579Z" fill="#EDF0F8"/>
<path d="M317.849 270.918V271.572L331.52 278.046V277.392L317.849 270.918Z" fill="#EDF0F8"/>
<path d="M329.732 272.88V273.557L331.52 274.392V273.737L329.732 272.88Z" fill="#EDF0F8"/>
<path d="M319.94 267.038L310.477 262.571V263.226L319.94 267.715V267.038Z" fill="#EDF0F8"/>
<path d="M316.061 255.488L310.477 252.849V253.503L316.061 256.142V255.488Z" fill="#EDF0F8"/>
<path d="M325.221 259.819L316.749 255.827V256.481L325.221 260.474V259.819Z" fill="#EDF0F8"/>
<path d="M320.27 258.691L314.329 255.894V256.548L320.27 259.368V258.691Z" fill="#EDF0F8"/>
<path d="M326.514 261.647L320.985 259.03V259.707L326.514 262.323V261.647Z" fill="#EDF0F8"/>
<path d="M327.229 261.985V262.639L331.52 264.669V264.015L327.229 261.985Z" fill="#EDF0F8"/>
<path d="M311.578 255.804V256.458L316.061 258.579V257.924L311.578 255.804Z" fill="#EDF0F8"/>
<path d="M329.759 264.399L316.749 258.24V258.917L329.759 265.053V264.399Z" fill="#EDF0F8"/>
<path d="M322.305 264.534L313.833 260.496V261.173L322.305 265.188V264.534Z" fill="#EDF0F8"/>
<path d="M329.76 268.053L323.021 264.85V265.526L329.76 268.707V268.053Z" fill="#EDF0F8"/>
<path d="M329.017 271.346L320.627 267.376V268.03L329.017 272V271.346Z" fill="#EDF0F8"/>
<path d="M324.451 270.399V271.053L329.017 273.219V272.564L324.451 270.399Z" fill="#EDF0F8"/>
<path d="M312.128 264.556L310.477 263.79V264.444L312.128 265.233V264.556Z" fill="#EDF0F8"/>
<path d="M315.208 266.023V266.677L323.763 270.737V270.061L315.208 266.023Z" fill="#EDF0F8"/>
<path d="M314.521 265.684L312.815 264.895V265.549L314.521 266.361V265.684Z" fill="#EDF0F8"/>
<path d="M322.168 270.534L312.815 266.113V266.767L322.168 271.188V270.534Z" fill="#EDF0F8"/>
<path d="M305.801 271.188V271.865L309.212 273.467V272.813L305.801 271.188Z" fill="#EDF0F8"/>
<path d="M305.801 272.407V273.083L309.212 274.685V274.031L305.801 272.407Z" fill="#EDF0F8"/>
<path d="M305.801 273.625V274.301L309.212 275.903V275.249L305.801 273.625Z" fill="#EDF0F8"/>
<path d="M331.52 287.678V287.001L310.477 277.053V277.73L331.52 287.678Z" fill="#EDF0F8"/>
<path d="M305.801 274.843V275.52L309.212 277.121V276.467L305.801 274.843Z" fill="#EDF0F8"/>
<path d="M305.801 276.061V276.715L309.212 278.339V277.662L305.801 276.061Z" fill="#EDF0F8"/>
<path d="M331.52 288.896V288.219L310.477 278.272V278.948L331.52 288.896Z" fill="#EDF0F8"/>
<path d="M305.801 279.715V280.369L309.212 281.971V281.317L305.801 279.715Z" fill="#EDF0F8"/>
<path d="M305.801 280.911V281.588L309.212 283.189V282.535L305.801 280.911Z" fill="#EDF0F8"/>
<path d="M305.801 285.783V286.437L309.212 288.062V287.385L305.801 285.783Z" fill="#EDF0F8"/>
<path d="M305.801 287.001V287.656L309.212 289.28V288.603L305.801 287.001Z" fill="#EDF0F8"/>
<path d="M323.763 295.483L310.477 289.212V289.889L323.763 296.16V295.483Z" fill="#EDF0F8"/>
<path d="M324.451 295.821V296.498L331.52 299.837V299.16L324.451 295.821Z" fill="#EDF0F8"/>
<path d="M317.161 291.152L310.477 287.994V288.671L317.161 291.829V291.152Z" fill="#EDF0F8"/>
<path d="M317.849 291.49V292.145L331.52 298.619V297.942L317.849 291.49Z" fill="#EDF0F8"/>
<path d="M329.732 293.453V294.107L331.52 294.964V294.31L329.732 293.453Z" fill="#EDF0F8"/>
<path d="M319.94 287.61L310.477 283.144V283.798L319.94 288.265V287.61Z" fill="#EDF0F8"/>
<path d="M316.061 276.061L310.477 273.422V274.076L316.061 276.715V276.061Z" fill="#EDF0F8"/>
<path d="M325.221 280.369L316.749 276.377V277.053L325.221 281.046V280.369Z" fill="#EDF0F8"/>
<path d="M320.27 279.264L314.329 276.444V277.121L320.27 279.918V279.264Z" fill="#EDF0F8"/>
<path d="M326.514 282.219L320.985 279.602V280.257L326.514 282.873V282.219Z" fill="#EDF0F8"/>
<path d="M327.229 282.535V283.212L331.52 285.242V284.588L327.229 282.535Z" fill="#EDF0F8"/>
<path d="M311.578 276.354V277.031L316.061 279.151V278.475L311.578 276.354Z" fill="#EDF0F8"/>
<path d="M329.759 284.971L316.749 278.813V279.467L329.759 285.625V284.971Z" fill="#EDF0F8"/>
<path d="M322.305 285.084L313.833 281.069V281.723L322.305 285.761V285.084Z" fill="#EDF0F8"/>
<path d="M329.76 288.603L323.021 285.422V286.076L329.76 289.28V288.603Z" fill="#EDF0F8"/>
<path d="M329.017 291.896L320.627 287.926V288.603L329.017 292.573V291.896Z" fill="#EDF0F8"/>
<path d="M324.451 290.971V291.626L329.017 293.791V293.115L324.451 290.971Z" fill="#EDF0F8"/>
<path d="M312.128 285.129L310.477 284.362V285.016L312.128 285.783V285.129Z" fill="#EDF0F8"/>
<path d="M315.208 286.595V287.249L323.763 291.287V290.633L315.208 286.595Z" fill="#EDF0F8"/>
<path d="M314.521 286.257L312.815 285.467V286.122L314.521 286.911V286.257Z" fill="#EDF0F8"/>
<path d="M322.168 291.107L312.815 286.686V287.34L322.168 291.761V291.107Z" fill="#EDF0F8"/>
<path d="M305.801 291.761V292.438L309.212 294.039V293.385L305.801 291.761Z" fill="#EDF0F8"/>
<path d="M305.801 292.979V293.633L309.212 295.257V294.581L305.801 292.979Z" fill="#EDF0F8"/>
<path d="M305.801 294.197V294.851L309.212 296.476V295.799L305.801 294.197Z" fill="#EDF0F8"/>
<path d="M331.52 308.251V307.574L310.477 297.626V298.303L331.52 308.251Z" fill="#EDF0F8"/>
<path d="M305.801 295.415V296.07L309.212 297.694V297.017L305.801 295.415Z" fill="#EDF0F8"/>
<path d="M305.801 296.634V297.288L309.212 298.889V298.235L305.801 296.634Z" fill="#EDF0F8"/>
<path d="M331.52 309.446V308.792L310.477 298.844V299.498L331.52 309.446Z" fill="#EDF0F8"/>
<path d="M305.801 300.265V300.942L309.212 302.544V301.889L305.801 300.265Z" fill="#EDF0F8"/>
<path d="M305.801 301.483V302.16L309.212 303.762V303.108L305.801 301.483Z" fill="#EDF0F8"/>
<path d="M329.732 314.026V314.68L331.52 315.537V314.86L329.732 314.026Z" fill="#EDF0F8"/>
<path d="M319.94 308.183L310.477 303.694V304.371L319.94 308.837V308.183Z" fill="#EDF0F8"/>
<path d="M316.061 296.611L310.477 293.972V294.648L316.061 297.288V296.611Z" fill="#EDF0F8"/>
<path d="M325.221 300.942L316.749 296.949V297.626L325.221 301.619V300.942Z" fill="#EDF0F8"/>
<path d="M320.27 299.837L314.329 297.017V297.694L320.27 300.491V299.837Z" fill="#EDF0F8"/>
<path d="M326.514 302.792L320.985 300.153V300.829L326.514 303.446V302.792Z" fill="#EDF0F8"/>
<path d="M327.229 303.108V303.784L331.52 305.815V305.138L327.229 303.108Z" fill="#EDF0F8"/>
<path d="M311.578 296.927V297.603L316.061 299.724V299.047L311.578 296.927Z" fill="#EDF0F8"/>
<path d="M329.759 305.521L316.749 299.386V300.04L329.759 306.198V305.521Z" fill="#EDF0F8"/>
<path d="M322.305 305.657L313.833 301.641V302.295L322.305 306.311V305.657Z" fill="#EDF0F8"/>
<path d="M329.76 309.176L323.021 305.995V306.649L329.76 309.852V309.176Z" fill="#EDF0F8"/>
<path d="M329.017 312.469L320.627 308.499V309.176L329.017 313.146V312.469Z" fill="#EDF0F8"/>
<path d="M324.451 311.522V312.198L329.017 314.341V313.687L324.451 311.522Z" fill="#EDF0F8"/>
<path d="M312.128 305.702L310.477 304.912V305.589L312.128 306.356V305.702Z" fill="#EDF0F8"/>
<path d="M315.208 307.145V307.822L323.763 311.86V311.206L315.208 307.145Z" fill="#EDF0F8"/>
<path d="M314.521 306.83L312.815 306.018V306.694L314.521 307.484V306.83Z" fill="#EDF0F8"/>
<path d="M322.168 311.657L312.815 307.236V307.912L322.168 312.334V311.657Z" fill="#EDF0F8"/>
<path d="M199.159 179.604L195.088 177.664C195.041 177.639 194.986 177.625 194.929 177.624C194.873 177.623 194.817 177.635 194.769 177.658C194.72 177.681 194.68 177.716 194.654 177.757C194.628 177.798 194.616 177.844 194.62 177.89V181.883C194.619 181.981 194.652 182.078 194.715 182.162C194.778 182.246 194.869 182.313 194.978 182.356L199.049 184.296C199.095 184.316 199.147 184.325 199.199 184.323C199.252 184.321 199.302 184.308 199.347 184.286C199.391 184.263 199.427 184.231 199.452 184.194C199.477 184.156 199.49 184.114 199.489 184.071V180.078C199.496 179.981 199.469 179.885 199.41 179.801C199.352 179.716 199.264 179.648 199.159 179.604Z" fill="#50E85E"/>
<path d="M199.159 185.582L195.088 183.665C195.043 183.641 194.99 183.627 194.936 183.625C194.882 183.623 194.829 183.633 194.781 183.653C194.733 183.674 194.693 183.705 194.665 183.743C194.637 183.78 194.621 183.823 194.62 183.868V187.86C194.619 187.959 194.652 188.056 194.715 188.14C194.778 188.224 194.869 188.291 194.978 188.334L199.049 190.274C199.095 190.294 199.147 190.303 199.199 190.301C199.252 190.299 199.302 190.286 199.347 190.263C199.391 190.241 199.427 190.209 199.452 190.171C199.477 190.134 199.49 190.091 199.489 190.048V186.078C199.492 185.979 199.463 185.881 199.405 185.794C199.347 185.707 199.262 185.634 199.159 185.582Z" fill="#50E85E"/>
<path d="M199.159 191.56L195.088 189.642C195.043 189.618 194.99 189.604 194.936 189.602C194.882 189.6 194.829 189.61 194.781 189.631C194.733 189.652 194.693 189.683 194.665 189.72C194.637 189.758 194.621 189.801 194.62 189.845V193.861C194.627 193.958 194.664 194.052 194.726 194.135C194.788 194.217 194.875 194.286 194.978 194.334L199.049 196.252C199.091 196.278 199.143 196.294 199.196 196.297C199.25 196.3 199.303 196.29 199.35 196.269C199.397 196.247 199.435 196.215 199.46 196.176C199.484 196.137 199.494 196.093 199.489 196.049V192.056C199.492 191.957 199.463 191.859 199.405 191.772C199.347 191.684 199.262 191.611 199.159 191.56Z" fill="#50E85E"/>
<path d="M199.159 197.56L195.088 195.62C195.041 195.595 194.986 195.581 194.929 195.58C194.873 195.579 194.817 195.59 194.769 195.614C194.72 195.637 194.68 195.672 194.654 195.713C194.628 195.753 194.616 195.8 194.62 195.846V199.839C194.619 199.937 194.652 200.034 194.715 200.118C194.778 200.202 194.869 200.269 194.978 200.312L199.049 202.252C199.095 202.272 199.147 202.281 199.199 202.279C199.252 202.277 199.302 202.264 199.347 202.242C199.391 202.219 199.427 202.187 199.452 202.149C199.477 202.112 199.49 202.069 199.489 202.027V198.034C199.496 197.937 199.469 197.841 199.41 197.757C199.352 197.672 199.264 197.604 199.159 197.56Z" fill="#50E85E"/>
<path d="M199.159 203.538L195.088 201.621C195.043 201.596 194.99 201.583 194.936 201.581C194.882 201.579 194.829 201.588 194.781 201.609C194.733 201.63 194.693 201.661 194.665 201.698C194.637 201.736 194.621 201.779 194.62 201.824V205.816C194.619 205.915 194.652 206.012 194.715 206.096C194.778 206.18 194.869 206.247 194.978 206.29L199.049 208.23C199.095 208.249 199.147 208.259 199.199 208.257C199.252 208.255 199.302 208.242 199.347 208.219C199.391 208.197 199.427 208.165 199.452 208.127C199.477 208.09 199.49 208.047 199.489 208.004V203.944C199.476 203.86 199.44 203.779 199.383 203.709C199.325 203.638 199.249 203.58 199.159 203.538Z" fill="#50E85E"/>
<path d="M199.159 209.516L195.088 207.598C195.043 207.574 194.99 207.56 194.936 207.558C194.882 207.556 194.829 207.566 194.781 207.587C194.733 207.608 194.693 207.639 194.665 207.676C194.637 207.714 194.621 207.757 194.62 207.801V211.817C194.627 211.914 194.664 212.008 194.726 212.091C194.788 212.173 194.875 212.242 194.978 212.29L199.049 214.208C199.093 214.227 199.143 214.236 199.193 214.235C199.243 214.234 199.292 214.223 199.335 214.203C199.379 214.183 199.416 214.155 199.443 214.12C199.469 214.085 199.485 214.046 199.489 214.005V210.012C199.492 209.913 199.463 209.815 199.405 209.728C199.347 209.64 199.262 209.567 199.159 209.516Z" fill="#50E85E"/>
<path d="M199.159 215.516L195.088 213.576C195.041 213.551 194.986 213.537 194.929 213.536C194.873 213.535 194.817 213.546 194.769 213.57C194.72 213.593 194.68 213.627 194.654 213.668C194.628 213.709 194.616 213.756 194.62 213.802V217.794C194.619 217.893 194.652 217.99 194.715 218.074C194.778 218.158 194.869 218.225 194.978 218.268L199.049 220.208C199.095 220.228 199.147 220.237 199.199 220.235C199.252 220.233 199.302 220.22 199.347 220.198C199.391 220.175 199.427 220.143 199.452 220.105C199.477 220.068 199.49 220.025 199.489 219.983V215.99C199.496 215.893 199.469 215.797 199.41 215.712C199.352 215.628 199.264 215.56 199.159 215.516Z" fill="#50E85E"/>
<path d="M199.159 221.494L195.088 219.554C195.039 219.536 194.986 219.527 194.933 219.529C194.88 219.531 194.828 219.544 194.782 219.566C194.736 219.588 194.697 219.619 194.669 219.657C194.641 219.694 194.624 219.736 194.62 219.779V223.772C194.619 223.871 194.652 223.968 194.715 224.052C194.778 224.136 194.869 224.203 194.978 224.246L199.049 226.186C199.095 226.205 199.147 226.215 199.199 226.213C199.252 226.211 199.302 226.198 199.347 226.175C199.391 226.153 199.427 226.121 199.452 226.083C199.477 226.045 199.49 226.003 199.489 225.96V221.99C199.495 221.89 199.467 221.791 199.409 221.704C199.351 221.616 199.264 221.544 199.159 221.494Z" fill="#50E85E"/>
<path d="M199.159 227.472L195.088 225.554C195.043 225.53 194.99 225.516 194.936 225.514C194.882 225.512 194.829 225.522 194.781 225.543C194.733 225.564 194.693 225.594 194.665 225.632C194.637 225.67 194.621 225.713 194.62 225.757V229.773C194.624 229.867 194.659 229.96 194.722 230.039C194.785 230.119 194.874 230.182 194.978 230.224L199.049 232.164C199.093 232.182 199.143 232.192 199.193 232.191C199.243 232.19 199.292 232.179 199.335 232.159C199.379 232.139 199.416 232.11 199.443 232.076C199.469 232.041 199.485 232.002 199.489 231.961V227.968C199.492 227.869 199.463 227.771 199.405 227.683C199.347 227.596 199.262 227.523 199.159 227.472Z" fill="#50E85E"/>
<path d="M199.159 233.472L195.088 231.532C195.041 231.507 194.986 231.493 194.929 231.492C194.873 231.49 194.817 231.502 194.769 231.526C194.72 231.549 194.68 231.583 194.654 231.624C194.628 231.665 194.616 231.712 194.62 231.758V235.75C194.622 235.849 194.656 235.944 194.719 236.028C194.782 236.111 194.871 236.179 194.978 236.224L199.049 238.141C199.092 238.168 199.143 238.184 199.196 238.187C199.25 238.19 199.303 238.18 199.35 238.159C199.397 238.137 199.435 238.105 199.46 238.066C199.484 238.026 199.494 237.982 199.489 237.938V233.946C199.496 233.849 199.469 233.753 199.41 233.668C199.352 233.584 199.264 233.516 199.159 233.472Z" fill="#50E85E"/>
<path d="M199.159 239.45L195.088 237.51C195.041 237.485 194.986 237.47 194.929 237.469C194.873 237.468 194.817 237.48 194.769 237.504C194.72 237.527 194.68 237.561 194.654 237.602C194.628 237.643 194.616 237.689 194.62 237.735V241.728C194.619 241.827 194.652 241.924 194.715 242.008C194.778 242.092 194.869 242.159 194.978 242.202L199.049 244.142C199.095 244.161 199.147 244.171 199.199 244.169C199.252 244.167 199.302 244.154 199.347 244.131C199.391 244.108 199.427 244.077 199.452 244.039C199.477 244.001 199.49 243.959 199.489 243.916V240.036C199.518 239.922 199.502 239.804 199.442 239.698C199.383 239.593 199.283 239.506 199.159 239.45Z" fill="#50E85E"/>
<path d="M199.159 245.428L195.088 243.51C195.043 243.486 194.99 243.472 194.936 243.47C194.882 243.468 194.829 243.478 194.781 243.499C194.733 243.52 194.693 243.55 194.665 243.588C194.637 243.626 194.621 243.669 194.62 243.713V247.728C194.624 247.823 194.659 247.916 194.722 247.995C194.785 248.075 194.874 248.138 194.978 248.18L199.049 250.12C199.095 250.139 199.147 250.148 199.199 250.147C199.252 250.145 199.302 250.132 199.347 250.109C199.391 250.086 199.427 250.055 199.452 250.017C199.477 249.979 199.49 249.937 199.489 249.894V245.924C199.492 245.825 199.463 245.727 199.405 245.639C199.347 245.552 199.262 245.479 199.159 245.428Z" fill="#50E85E"/>
<g opacity="0.4">
<path opacity="0.4" d="M390.576 200.808V203.222L402.954 209.065V206.651L390.576 200.808Z" fill="white"/>
<path opacity="0.4" d="M390.576 205.207V207.621L402.954 213.486V211.05L390.576 205.207Z" fill="white"/>
<path opacity="0.4" d="M390.576 209.629V212.042L402.954 217.885V215.471L390.576 209.629Z" fill="white"/>
<path opacity="0.4" d="M483.933 260.609V258.195L407.603 222.08V224.494L483.933 260.609Z" fill="white"/>
<path opacity="0.4" d="M390.576 214.027V216.441L402.954 222.306V219.892L390.576 214.027Z" fill="white"/>
<path opacity="0.4" d="M390.576 218.449V220.862L402.954 226.705V224.291L390.576 218.449Z" fill="white"/>
<path opacity="0.4" d="M483.933 265.008V262.594L407.603 226.502V228.893L483.933 265.008Z" fill="white"/>
<path opacity="0.4" d="M390.576 231.667V234.104L402.954 239.946V237.532L390.576 231.667Z" fill="white"/>
<path opacity="0.4" d="M390.576 236.089V238.502L402.954 244.345V241.931L390.576 236.089Z" fill="white"/>
<path opacity="0.4" d="M390.576 253.729V256.142L402.954 262.007V259.594L390.576 253.729Z" fill="white"/>
<path opacity="0.4" d="M390.576 258.15V260.564L402.954 266.406V263.993L390.576 258.15Z" fill="white"/>
<path opacity="0.4" d="M455.767 288.964L407.603 266.181V268.617L455.767 291.378V288.964Z" fill="white"/>
<path opacity="0.4" d="M458.298 290.159V292.596L483.934 304.709V302.295L458.298 290.159Z" fill="white"/>
<path opacity="0.4" d="M431.809 273.219L407.603 261.782V264.196L431.809 275.632V273.219Z" fill="white"/>
<path opacity="0.4" d="M434.339 274.437V276.828L483.933 300.31V297.897L434.339 274.437Z" fill="white"/>
<path opacity="0.4" d="M477.415 281.565V283.979L483.934 287.069V284.655L477.415 281.565Z" fill="white"/>
<path opacity="0.4" d="M441.903 260.361L407.603 244.142V246.555L441.903 262.774V260.361Z" fill="white"/>
<path opacity="0.4" d="M427.848 218.426L407.603 208.839V211.253L427.848 220.84V218.426Z" fill="white"/>
<path opacity="0.4" d="M461.048 234.126L430.378 219.622V222.035L461.048 236.54V234.126Z" fill="white"/>
<path opacity="0.4" d="M443.169 230.088L421.604 219.87V222.283L443.169 232.502V230.088Z" fill="white"/>
<path opacity="0.4" d="M465.807 240.803L445.699 231.284V233.698L465.807 243.194V240.803Z" fill="white"/>
<path opacity="0.4" d="M468.337 241.999V244.412L483.934 251.789V249.375L468.337 241.999Z" fill="white"/>
<path opacity="0.4" d="M411.591 219.554V221.968L427.847 229.66V227.246L411.591 219.554Z" fill="white"/>
<path opacity="0.4" d="M477.579 250.774L430.378 228.442V230.855L477.579 253.187V250.774Z" fill="white"/>
<path opacity="0.4" d="M450.568 251.225L419.706 236.63V239.044L450.568 253.639V251.225Z" fill="white"/>
<path opacity="0.4" d="M477.579 263.993L453.099 252.42V254.834L477.579 266.429V263.993Z" fill="white"/>
<path opacity="0.4" d="M474.884 275.948L444.434 261.556V263.97L474.884 278.362V275.948Z" fill="white"/>
<path opacity="0.4" d="M458.298 272.519V274.933L474.884 282.783V280.369L458.298 272.519Z" fill="white"/>
<path opacity="0.4" d="M413.572 251.36L407.603 248.541V250.954L413.572 253.774V251.36Z" fill="white"/>
<path opacity="0.4" d="M424.739 256.661V259.075L455.767 273.737V271.324L424.739 256.661Z" fill="white"/>
<path opacity="0.4" d="M422.209 255.466L416.103 252.578V254.992L422.209 257.879V255.466Z" fill="white"/>
<path opacity="0.4" d="M450.018 273.016L416.103 256.977V259.391L450.018 275.429V273.016Z" fill="white"/>
</g>
<g opacity="0.4">
<path opacity="0.4" d="M504.288 49.6269V52.0406L516.666 57.883V55.4693L504.288 49.6269Z" fill="white"/>
<path opacity="0.4" d="M504.288 54.0257V56.4393L516.666 62.3043V59.8907L504.288 54.0257Z" fill="white"/>
<path opacity="0.4" d="M504.288 58.447V60.8606L516.666 66.7031V64.2894L504.288 58.447Z" fill="white"/>
<path opacity="0.4" d="M597.645 109.427V107.014L521.314 70.8988V73.3125L597.645 109.427Z" fill="white"/>
<path opacity="0.4" d="M504.288 62.8682V65.2819L516.666 71.1244V68.7107L504.288 62.8682Z" fill="white"/>
<path opacity="0.4" d="M504.288 67.267V69.6807L516.666 75.5457V73.1095L504.288 67.267Z" fill="white"/>
<path opacity="0.4" d="M597.645 113.849V111.435L521.314 75.3201V77.7338L597.645 113.849Z" fill="white"/>
<path opacity="0.4" d="M504.288 80.5084V82.922L516.666 88.7645V86.3508L504.288 80.5084Z" fill="white"/>
<path opacity="0.4" d="M504.288 84.9071V87.3208L516.666 93.1858V90.7721L504.288 84.9071Z" fill="white"/>
<path opacity="0.4" d="M504.288 102.57V104.983L516.666 110.826V108.412L504.288 102.57Z" fill="white"/>
<path opacity="0.4" d="M504.288 106.969V109.382L516.666 115.247V112.811L504.288 106.969Z" fill="white"/>
<path opacity="0.4" d="M569.451 137.805L521.314 115.022V117.435L569.451 140.219V137.805Z" fill="white"/>
<path opacity="0.4" d="M572.009 139V141.414L597.645 153.55V151.136L572.009 139Z" fill="white"/>
<path opacity="0.4" d="M545.493 122.06L521.314 110.6V113.014L545.493 124.473V122.06Z" fill="white"/>
<path opacity="0.4" d="M548.023 123.255V125.669L597.645 149.129V146.715L548.023 123.255Z" fill="white"/>
<path opacity="0.4" d="M591.126 130.383V132.82L597.645 135.887V133.474L591.126 130.383Z" fill="white"/>
<path opacity="0.4" d="M555.615 109.179L521.314 92.9602V95.3739L555.615 111.593V109.179Z" fill="white"/>
<path opacity="0.4" d="M541.559 67.2444L521.314 57.68V60.0937L541.559 69.6581V67.2444Z" fill="white"/>
<path opacity="0.4" d="M574.732 82.9446L544.09 68.44V70.8537L574.732 85.3583V82.9446Z" fill="white"/>
<path opacity="0.4" d="M556.88 78.9068L535.288 68.7107V71.1244L556.88 81.3204V78.9068Z" fill="white"/>
<path opacity="0.4" d="M579.518 89.6217L559.411 80.1023V82.516L579.518 92.0353V89.6217Z" fill="white"/>
<path opacity="0.4" d="M582.049 90.8172V93.2309L597.645 100.607V98.1936L582.049 90.8172Z" fill="white"/>
<path opacity="0.4" d="M525.275 68.3723V70.786L541.559 78.4782V76.0645L525.275 68.3723Z" fill="white"/>
<path opacity="0.4" d="M591.291 99.5922L544.09 77.2826V79.6963L591.291 102.006V99.5922Z" fill="white"/>
<path opacity="0.4" d="M564.252 100.043L533.417 85.4485V87.8622L564.252 102.457V100.043Z" fill="white"/>
<path opacity="0.4" d="M591.291 112.834L566.81 101.239V103.653L591.291 115.247V112.834Z" fill="white"/>
<path opacity="0.4" d="M588.568 124.789L558.146 110.397V112.811L588.568 127.203V124.789Z" fill="white"/>
<path opacity="0.4" d="M572.009 121.36V123.774L588.568 131.601V129.188L572.009 121.36Z" fill="white"/>
<path opacity="0.4" d="M527.283 100.201L521.314 97.3815V99.7952L527.283 102.615V100.201Z" fill="white"/>
<path opacity="0.4" d="M538.451 105.48V107.893L569.451 122.578V120.142L538.451 105.48Z" fill="white"/>
<path opacity="0.4" d="M535.921 104.284L529.814 101.397V103.81L535.921 106.698V104.284Z" fill="white"/>
<path opacity="0.4" d="M563.73 121.857L529.814 105.818V108.232L563.73 124.27V121.857Z" fill="white"/>
</g>
<path d="M280.688 359.592C278.163 358.879 275.465 358.678 272.825 359.009C270.185 359.339 267.683 360.189 265.532 361.487C257.28 365.998 251.779 372.157 255.134 374.458C258.49 376.758 264.954 379.217 269.163 377.977C273.371 376.736 294.166 366.72 280.688 359.592Z" fill="#0F4463"/>
<path d="M453.731 333.267L388.926 363.382L347.611 343.779L412.416 313.687L453.731 333.267Z" fill="#683594"/>
<path d="M401.606 362.66V363.833L466.412 333.402V332.545L401.606 362.66Z" fill="#F0CEC9"/>
<path d="M466.412 332.545L401.607 362.66L360.319 343.057L425.097 312.965L466.412 332.545Z" fill="#FFFBF0"/>
<path d="M401.607 362.66V363.833L360.319 344.23V343.057L401.607 362.66Z" fill="#F5DDD8"/>
<path d="M424.657 316.168L449.605 327.966L448.533 328.485L423.557 316.687L424.657 316.168Z" fill="#DFBAB8"/>
<path d="M422.071 317.387L447.02 329.184L445.92 329.681L420.971 317.883L422.071 317.387Z" fill="#DFBAB8"/>
<path d="M416.047 320.184L450.403 336.448L449.302 336.944L414.947 320.68L416.047 320.184Z" fill="#DFBAB8"/>
<path d="M413.654 321.289L448.01 337.553L446.937 338.049L412.554 321.785L413.654 321.289Z" fill="#DFBAB8"/>
<path d="M411.289 322.394L445.644 338.658L444.544 339.155L410.188 322.891L411.289 322.394Z" fill="#DFBAB8"/>
<path d="M408.896 323.5L443.251 339.764L442.179 340.26L407.823 323.996L408.896 323.5Z" fill="#DFBAB8"/>
<path d="M406.53 324.605L440.886 340.869L439.785 341.388L405.43 325.124L406.53 324.605Z" fill="#DFBAB8"/>
<path d="M404.137 325.71L438.52 341.974L437.42 342.493L403.064 326.229L404.137 325.71Z" fill="#DFBAB8"/>
<path d="M401.771 326.816L436.127 343.08L435.027 343.599L400.671 327.334L401.771 326.816Z" fill="#DFBAB8"/>
<path d="M399.379 327.921L433.762 344.185L432.661 344.704L398.306 328.44L399.379 327.921Z" fill="#DFBAB8"/>
<path d="M397.013 329.026L431.368 345.29L430.268 345.809L395.913 329.545L397.013 329.026Z" fill="#DFBAB8"/>
<path d="M394.62 330.132L429.003 346.396L427.903 346.915L393.547 330.651L394.62 330.132Z" fill="#DFBAB8"/>
<path d="M392.254 331.237L426.61 347.524L425.51 348.02L391.154 331.756L392.254 331.237Z" fill="#DFBAB8"/>
<path d="M389.889 332.365L424.244 348.606L423.144 349.125L388.788 332.861L389.889 332.365Z" fill="#DFBAB8"/>
<path d="M387.496 333.47L421.851 349.734L420.751 350.231L386.396 333.967L387.496 333.47Z" fill="#DFBAB8"/>
<path d="M385.13 334.576L419.486 350.84L418.385 351.336L384.03 335.072L385.13 334.576Z" fill="#DFBAB8"/>
<path d="M382.737 335.681L417.093 351.945L416.02 352.441L381.637 336.177L382.737 335.681Z" fill="#DFBAB8"/>
<path d="M354.735 350.795H348.684V356.163H354.735C355.822 356.163 356.865 356.517 357.633 357.148C358.402 357.778 358.834 358.633 358.834 359.524V368.232C358.827 369.119 358.392 369.968 357.624 370.594C356.856 371.219 355.818 371.57 354.735 371.57H345.851V376.939H354.735C357.554 376.939 360.257 376.022 362.253 374.39C364.248 372.758 365.373 370.543 365.38 368.232V359.592C365.388 358.441 365.118 357.3 364.586 356.234C364.055 355.168 363.272 354.199 362.284 353.382C361.295 352.565 360.119 351.915 358.824 351.472C357.529 351.028 356.139 350.797 354.735 350.795Z" fill="#A7BCCE"/>
<path d="M352.453 347.839V378.022C352.453 382.714 343.953 386.503 333.473 386.503C322.993 386.503 314.466 382.714 314.466 378.022V347.839H352.453Z" fill="#BBCEE1"/>
<path d="M314.466 347.839C314.466 352.509 322.966 356.321 333.473 356.321C343.981 356.321 352.453 352.509 352.453 347.839C352.453 343.17 343.953 339.29 333.473 339.29C322.993 339.29 314.466 343.17 314.466 347.839Z" fill="white"/>
<path d="M318.262 347.727C318.262 351.404 325.056 354.359 333.473 354.359C341.89 354.359 348.684 351.404 348.684 347.727C348.684 344.05 341.862 341.117 333.473 341.117C325.083 341.117 318.262 344.072 318.262 347.727Z" fill="#A7BCCE"/>
<path d="M333.473 345.448C326.817 345.448 321.178 347.321 319.087 349.96C321.178 352.554 326.817 354.471 333.473 354.471C340.13 354.471 345.768 352.599 347.831 349.96C345.768 347.321 340.13 345.448 333.473 345.448Z" fill="#9D4D36"/>
<path d="M340.652 355.69V385.872C343.925 385.362 346.995 384.2 349.591 382.488V352.306C346.995 354.017 343.925 355.179 340.652 355.69Z" fill="#A7BCCE"/>
</g>
</g>
<defs>
<filter id="filter0_d" x="0" y="0" width="653" height="534" filterUnits="userSpaceOnUse" color-interpolation-filters="sRGB">
<feFlood flood-opacity="0" result="BackgroundImageFix"/>
<feColorMatrix in="SourceAlpha" type="matrix" values="0 0 0 0 0 0 0 0 0 0 0 0 0 0 0 0 0 0 127 0"/>
<feOffset dy="4"/>
<feGaussianBlur stdDeviation="2"/>
<feColorMatrix type="matrix" values="0 0 0 0 0 0 0 0 0 0 0 0 0 0 0 0 0 0 0.25 0"/>
<feBlend mode="normal" in2="BackgroundImageFix" result="effect1_dropShadow"/>
<feBlend mode="normal" in="SourceGraphic" in2="effect1_dropShadow" result="shape"/>
</filter>
<linearGradient id="paint0_linear" x1="244.132" y1="298.754" x2="276.99" y2="166.975" gradientUnits="userSpaceOnUse">
<stop stop-color="#1C75BC"/>
<stop offset="0.28" stop-color="#2077BC"/>
<stop offset="0.54" stop-color="#2B7EBC"/>
<stop offset="0.8" stop-color="#3E88BC"/>
<stop offset="1" stop-color="#5394BC"/>
</linearGradient>
<clipPath id="clip0">
<rect x="4" width="645" height="526" fill="white"/>
</clipPath>
</defs>
</svg>
