<svg width="242" height="79" viewBox="0 0 242 79" fill="none" xmlns="http://www.w3.org/2000/svg">
<path d="M81.7185 11.5488H80.5716V10.7153C80.5716 10.0008 80.801 9.40545 81.3744 8.92915C81.9478 8.33377 82.6359 7.97656 83.5534 7.97656C84.1269 7.97656 84.7003 8.09562 85.1591 8.33377C85.6178 8.57193 86.0766 9.04823 86.306 9.52453C86.5354 10.0008 86.65 10.4771 86.65 10.9535V11.6679C86.65 12.2633 86.5354 12.9777 86.306 13.5731C86.0766 14.1684 85.7325 14.6448 85.2738 15.1211C84.9297 15.3592 84.7003 15.5974 84.5857 15.7165L84.7003 15.8355L84.815 15.9546L84.9297 16.0737L85.1591 16.3119L85.5031 16.7881L84.7003 17.1453L84.3563 16.7881C84.2416 16.669 84.0122 16.4309 83.7828 16.1927C83.6681 16.1927 83.4388 16.3118 83.0947 16.5499L82.6359 16.6691H82.4066H82.1772H82.0625C81.7184 16.6691 81.4891 16.55 81.145 16.4309C80.801 16.1927 80.6863 15.9546 80.5716 15.7165L80.4568 15.4783V15.2401C80.4568 14.7638 80.5716 14.4066 80.801 14.0494C81.0303 13.8112 81.3744 13.5731 81.8331 13.5731C82.0625 13.5731 82.2919 13.5731 82.5213 13.6922H82.6359H82.7506C82.98 13.8113 83.3241 13.9303 83.5534 14.1684L83.6682 14.2876L83.7828 14.4066C83.7828 14.4066 83.8975 14.5257 83.8975 14.6448C84.3562 14.4066 84.815 13.8112 85.2738 12.9777C85.5031 12.3823 85.6178 11.7869 85.6178 11.1915V10.7153C85.6178 9.88176 85.3885 9.28638 84.815 8.92915C84.3563 8.691 84.0122 8.45282 83.6682 8.45282C83.5535 8.45282 83.4388 8.45282 83.4388 8.45282H83.2094C82.7506 8.5719 82.2919 8.81006 82.0625 9.28636C81.9478 9.52452 81.8331 9.88173 81.8331 10.239L81.7185 11.5488ZM81.3744 15.5974C81.3744 15.8355 81.4891 15.9546 81.8331 16.0737H82.0625C82.4066 16.0737 82.6359 15.9546 82.98 15.5974C82.8653 15.3592 82.7507 15.2402 82.5213 15.1211C82.2919 15.002 82.0625 14.8829 81.8331 14.8829C81.7184 14.8829 81.4891 14.8829 81.4891 15.002C81.3744 15.2401 81.3744 15.3592 81.3744 15.5974Z" fill="white"/>
<path d="M95.0222 12.9776C95.0222 13.8112 94.9075 14.5256 94.7928 15.0019C94.334 16.1927 93.4166 16.788 91.8109 16.788C90.2053 16.788 89.2879 16.1927 88.8291 15.121C88.5997 14.6447 88.485 13.8112 88.485 12.9776V7.97656H89.6319V9.88172H95.0222V10.9534H89.6319V12.9776C89.6319 13.573 89.6319 14.0493 89.7466 14.4065C89.976 15.3591 90.6641 15.8354 91.6963 15.8354C92.6138 15.8354 93.1872 15.5973 93.5313 15.121C93.7606 14.7638 93.99 14.0493 93.99 13.0967V12.1442H95.1369L95.0222 12.9776Z" fill="white"/>
<path d="M103.394 13.8112H104.312V14.7637H103.394V16.788H102.362V11.7869C102.362 10.8343 102.247 10.1199 101.903 9.76268C101.559 9.28638 100.986 9.04819 100.068 9.04819C99.0363 9.04819 98.4628 9.40544 98.1188 10.1199C98.0041 10.4771 97.8894 11.0724 97.8894 11.7869V16.788H96.7425V11.7869C96.7425 10.9534 96.8572 10.358 96.9719 9.88172C97.4306 8.57191 98.4628 7.97656 100.068 7.97656C101.789 7.97656 102.821 8.69099 103.165 10.1199C103.28 10.5962 103.28 11.1915 103.28 11.7869L103.394 13.8112Z" fill="white"/>
<path d="M104.771 7.97656H107.638V12.9777C107.638 13.5731 107.638 14.0494 107.753 14.4066C107.982 15.3593 108.67 15.8356 109.702 15.8356C110.62 15.8356 111.193 15.5974 111.537 15.1211C111.767 14.7639 111.996 14.0494 111.996 13.0968V11.4297H113.143V13.0968C113.143 13.9304 113.028 14.6448 112.914 15.1211C112.455 16.3119 111.537 16.9073 109.932 16.9073C108.326 16.9073 107.408 16.3119 106.95 15.2402C106.72 14.7639 106.606 13.9304 106.606 13.0968V9.16733H104.771V7.97656Z" fill="white"/>
<path d="M120.483 16.0735C120.253 16.3116 119.909 16.5498 119.336 16.6689C118.877 16.7879 118.418 16.907 117.96 16.907C116.354 16.907 115.437 16.3116 114.978 15.2399C114.748 14.7636 114.634 13.9301 114.634 13.0965V8.09521H115.781V13.0965C115.781 13.6919 115.781 14.1682 115.895 14.5255C116.125 15.4781 116.813 15.9543 117.845 15.9543C118.763 15.9543 119.336 15.7162 119.68 15.2399C119.909 14.8827 120.139 14.1682 120.139 13.2156V8.21426H121.286V15.4781L122.318 16.5497L121.63 17.3833L120.483 16.0735Z" fill="white"/>
<path d="M129.543 13.3346H128.396V11.9057C128.396 10.9531 128.282 10.2386 127.938 9.88135C127.593 9.40505 127.02 9.16693 126.103 9.16693C125.07 9.16693 124.497 9.52411 124.153 10.2386C124.038 10.5958 123.923 11.1912 123.923 11.9057V16.9069H122.777V11.9057C122.777 11.0721 122.891 10.4767 123.006 10.0004C123.465 8.69057 124.497 8.09521 126.103 8.09521C127.823 8.09521 128.855 8.80966 129.199 10.2386C129.314 10.7149 129.314 11.3103 129.314 11.9057L129.543 13.3346Z" fill="white"/>
<path d="M137.801 16.788H136.654V14.1684C136.539 14.5256 135.966 14.7638 134.933 14.8829C134.819 14.8829 134.704 14.8829 134.589 14.8829C132.984 14.8829 131.952 14.2875 131.608 13.2158C131.378 12.7395 131.263 12.0251 131.263 11.0725V7.97656H132.41V11.0725C132.41 11.6678 132.41 12.1442 132.525 12.5014C132.754 13.454 133.443 13.9303 134.475 13.9303C135.278 13.9303 135.966 13.6921 136.31 13.3349C136.539 13.0968 136.654 12.3823 136.654 11.1915V10.2389H137.801V16.788Z" fill="white"/>
<path d="M146.058 16.788H144.911V11.7869C144.911 10.8343 144.797 10.1199 144.453 9.76268C144.108 9.28638 143.535 9.04819 142.618 9.04819C141.585 9.04819 141.012 9.40544 140.668 10.1199C140.553 10.4771 140.438 11.0724 140.438 11.7869V16.788H139.292V11.7869C139.292 10.9534 139.406 10.358 139.521 9.88172C139.98 8.57191 141.012 7.97656 142.618 7.97656C144.338 7.97656 145.37 8.69099 145.714 10.1199C145.829 10.5962 145.829 11.1915 145.829 11.7869L146.058 16.788Z" fill="white"/>
<path d="M148.008 8.09521H149.155V11.0721H151.219V12.0247H149.155V16.7877H148.008V8.09521Z" fill="white"/>
<path d="M160.509 12.382V14.4063C160.509 14.8826 160.394 15.3589 160.165 15.7162C159.935 16.0734 159.591 16.4306 159.132 16.6688C158.674 16.9069 158.215 17.026 157.642 17.026H157.297C157.183 17.026 156.953 17.026 156.839 17.026C156.609 17.026 156.495 17.026 156.265 16.907C155.577 16.6688 155.118 16.3116 154.889 15.7162C154.774 15.3589 154.774 15.0017 154.774 14.4063C154.774 12.9774 155.118 12.1439 155.807 11.9057C156.151 11.7866 156.609 11.6675 157.297 11.6675H159.362V10.834C159.362 10.2386 159.247 9.76231 158.903 9.52416C158.674 9.286 158.215 9.16694 157.642 9.16694H155.577C155.462 9.16694 155.462 9.16694 155.462 9.16694H155.348C154.43 9.16694 153.857 9.76228 153.857 10.834V17.026H152.71V10.4768C152.71 10.0004 152.825 9.64322 152.939 9.28599C153.398 8.45245 154.201 8.09521 155.462 8.09521H157.642C158.788 8.09521 159.706 8.57149 160.05 9.40503C160.279 9.76227 160.394 10.2386 160.394 10.5958V11.5485H160.967V12.5011L160.509 12.382ZM157.297 12.382C156.609 12.382 156.151 12.6202 156.036 13.0965V13.2155V13.5727C156.036 13.6918 156.036 13.93 156.036 14.2872C156.036 14.8826 156.151 15.3589 156.265 15.5971C156.38 15.7161 156.495 15.8352 156.724 15.9543L157.068 16.0734H157.527C158.674 16.0734 159.362 15.5971 159.362 14.4063V12.5011H157.297V12.382Z" fill="white"/>
<path d="M163.147 10.1199H162C162 9.28639 162.344 8.69101 163.032 8.33378C163.376 8.09562 163.949 7.97656 164.523 7.97656C165.326 7.97656 165.899 8.0956 166.358 8.45282C166.931 8.81005 167.161 9.40543 167.161 10.239C167.161 11.1916 166.817 11.9061 166.128 12.1442C166.472 12.1442 166.817 12.5014 167.046 12.9777C167.275 13.3349 167.39 13.8113 167.39 14.2876C167.39 15.3593 166.931 16.0737 166.014 16.55C165.555 16.7882 164.982 16.9073 164.408 16.9073C163.949 16.9073 163.491 16.7882 163.147 16.6691C162.458 16.431 162 15.9546 161.656 15.3592C161.541 15.1211 161.426 14.7639 161.426 14.4066H162.573C162.573 14.8829 162.803 15.2402 163.147 15.5974C163.491 15.8356 163.835 15.9547 164.408 16.0737C164.982 16.0737 165.44 15.9546 165.784 15.5974C166.128 15.2402 166.358 14.883 166.358 14.2876C166.358 13.6922 166.243 13.3349 165.899 12.9777C165.555 12.7396 165.211 12.5014 164.637 12.5014H161.885V11.6679H164.637C165.67 11.6679 166.243 11.1916 166.243 10.239C166.243 9.76266 166.128 9.40548 165.784 9.16733C165.44 8.92917 165.096 8.92916 164.637 8.92916C164.523 8.92916 164.523 8.92916 164.408 8.92916H164.293H164.064C163.491 9.16731 163.147 9.52454 163.147 10.1199Z" fill="white"/>
<path d="M175.762 16.788H174.615V11.7869C174.615 10.8343 174.501 10.1199 174.157 9.76268C173.812 9.28638 173.239 9.04819 172.322 9.04819C171.289 9.04819 170.716 9.40544 170.372 10.1199C170.257 10.4771 170.142 11.0724 170.142 11.7869V16.788H168.996V11.7869C168.996 10.9534 169.11 10.358 169.225 9.88172C169.684 8.57191 170.716 7.97656 172.322 7.97656C174.042 7.97656 175.074 8.69099 175.418 10.1199C175.533 10.5962 175.533 11.1915 175.533 11.7869L175.762 16.788Z" fill="white"/>
<path d="M177.712 8.09521H178.859V11.0721H180.923V12.0247H178.859V16.7877H177.712V8.09521Z" fill="white"/>
<path d="M181.841 7.97656H184.708V12.9777C184.708 13.5731 184.708 14.0494 184.822 14.4066C185.052 15.3593 185.74 15.8356 186.772 15.8356C187.69 15.8356 188.263 15.5974 188.607 15.1211C188.837 14.7639 189.066 14.0494 189.066 13.0968V11.4297H190.213V13.0968C190.213 13.9304 190.098 14.6448 189.983 15.1211C189.525 16.3119 188.607 16.9073 187.002 16.9073C185.396 16.9073 184.478 16.3119 184.02 15.2402C183.79 14.7639 183.676 13.9304 183.676 13.0968V9.16733H181.841V7.97656Z" fill="white"/>
<path d="M190.786 7.97656H193.653V12.9777C193.653 13.5731 193.653 14.0494 193.768 14.4066C193.998 15.3593 194.686 15.8356 195.718 15.8356C196.635 15.8356 197.209 15.5974 197.553 15.1211C197.782 14.7639 198.012 14.0494 198.012 13.0968V11.4297H199.158V13.0968C199.158 13.9304 199.044 14.6448 198.929 15.1211C198.47 16.3119 197.553 16.9073 195.947 16.9073C194.342 16.9073 193.424 16.3119 192.965 15.2402C192.736 14.7639 192.621 13.9304 192.621 13.0968V9.16733H190.786V7.97656Z" fill="white"/>
<path d="M207.301 12.9776C207.301 13.8112 207.187 14.5256 207.072 15.0019C206.613 16.1927 205.696 16.788 204.09 16.788C202.484 16.788 201.567 16.1927 201.108 15.121C200.879 14.6447 200.764 13.8112 200.764 12.9776V7.97656H201.911V9.88172H207.301V10.9534H201.911V12.9776C201.911 13.573 201.911 14.0493 202.026 14.4065C202.255 15.3591 202.943 15.8354 203.975 15.8354C204.893 15.8354 205.466 15.5973 205.81 15.121C206.04 14.7638 206.269 14.0493 206.269 13.0967V12.1442H207.416L207.301 12.9776Z" fill="white"/>
<path d="M215.673 13.3346H214.527V11.9057C214.527 10.9531 214.412 10.2386 214.068 9.88135C213.724 9.40505 213.15 9.16693 212.233 9.16693C211.201 9.16693 210.627 9.52411 210.283 10.2386C210.168 10.5958 210.054 11.1912 210.054 11.9057V16.9069H208.907V11.9057C208.907 11.0721 209.022 10.4767 209.136 10.0004C209.595 8.69057 210.627 8.09521 212.233 8.09521C213.953 8.09521 214.985 8.80966 215.329 10.2386C215.444 10.7149 215.444 11.3103 215.444 11.9057L215.673 13.3346Z" fill="white"/>
<path d="M223.702 14.6448H222.555V13.8113C222.555 13.0968 222.44 12.5015 222.325 12.1442C222.096 11.4298 221.408 11.0725 220.376 11.0725C219.573 11.0725 218.885 11.3107 218.541 11.6679C218.311 11.9061 218.197 12.1442 218.197 12.5014C218.197 12.7396 218.197 12.9777 218.197 13.454V16.9073H217.05V7.97656H218.197V10.5962C218.311 10.358 218.541 10.239 219.114 10.1199C219.573 10.0008 219.917 10.0008 220.261 10.0008C221.867 10.0008 222.784 10.5962 223.243 11.6679C223.357 11.9061 223.472 12.2633 223.472 12.6205C223.472 12.9777 223.587 13.454 223.587 13.8113L223.702 14.6448Z" fill="white"/>
<path d="M90.32 29.1723H89.1731V28.3387C89.1731 27.6243 89.0584 27.0288 88.9437 26.6716C88.7144 25.9571 88.0262 25.6 86.994 25.6C86.1912 25.6 85.5031 25.8381 85.1591 26.1953C84.9297 26.4335 84.815 26.6717 84.815 27.0289C84.815 27.2671 84.815 27.5052 84.815 27.9815V31.4347H83.6682V22.5039H84.815V25.1236C84.9297 24.8855 85.1591 24.7664 85.7325 24.6474C86.1913 24.5283 86.5353 24.5282 86.8794 24.5282C88.485 24.5282 89.4025 25.1236 89.8612 26.1953C89.9759 26.4335 90.0906 26.7907 90.0906 27.1479C90.0906 27.5052 90.2053 27.9815 90.2053 28.3387L90.32 29.1723Z" fill="white"/>
<path d="M91.2375 22.5039H94.1047V27.5052C94.1047 28.1005 94.1047 28.5769 94.2193 28.9341C94.4487 29.8867 95.1369 30.363 96.169 30.363C97.0865 30.363 97.66 30.1248 98.0041 29.6485C98.2335 29.2913 98.4628 28.5769 98.4628 27.6243V25.9572H99.6097V27.6243C99.6097 28.4578 99.495 29.1722 99.3803 29.6485C98.9215 30.8393 98.0041 31.4347 96.3984 31.4347C94.7928 31.4347 93.8753 30.8393 93.4166 29.7677C93.1872 29.2913 93.0725 28.4578 93.0725 27.6243V23.6947H91.2375V22.5039Z" fill="white"/>
<path d="M107.638 31.4346H106.491V28.815C106.376 29.1722 105.803 29.4103 104.771 29.5294C104.656 29.5294 104.541 29.5294 104.427 29.5294C102.821 29.5294 101.789 28.934 101.445 27.8623C101.215 27.386 101.101 26.6716 101.101 25.719V22.623H102.247V25.719C102.247 26.3143 102.248 26.7907 102.362 27.1479C102.592 28.1005 103.28 28.5768 104.312 28.5768C105.115 28.5768 105.803 28.3387 106.147 27.9814C106.376 27.7433 106.491 27.0288 106.491 25.8381V24.8854H107.638V31.4346Z" fill="white"/>
<path d="M115.895 31.4346H114.748V26.4335C114.748 25.4809 114.634 24.7664 114.29 24.4092C113.946 23.9329 113.372 23.6947 112.455 23.6947C111.423 23.6947 110.849 24.0519 110.505 24.7664C110.39 25.1236 110.276 25.719 110.276 26.4335V31.4346H109.129V26.4335C109.129 25.5999 109.243 25.0045 109.358 24.5282C109.817 23.2184 110.849 22.623 112.455 22.623C114.175 22.623 115.207 23.3375 115.551 24.7664C115.666 25.2427 115.666 25.8381 115.666 26.4335L115.895 31.4346Z" fill="white"/>
<path d="M117.845 22.623H118.992V25.5999H121.056V26.5525H118.992V31.3154H117.845V22.623Z" fill="white"/>
<path d="M129.314 27.3861H128.167V26.4335C128.167 25.4809 128.052 24.7664 127.708 24.4092C127.364 23.9329 126.791 23.6947 125.873 23.6947C124.841 23.6947 124.268 24.0519 123.923 24.7664C123.809 25.1236 123.694 25.719 123.694 26.4335V28.4577H129.084V29.5294H123.694V31.4346H122.547V26.4335C122.547 25.5999 122.662 25.0045 122.777 24.5282C123.235 23.2184 124.268 22.623 125.873 22.623C127.593 22.623 128.626 23.3375 128.97 24.7664C129.084 25.2427 129.084 25.8381 129.084 26.4335V27.3861H129.314Z" fill="white"/>
<path d="M136.768 30.7202C136.539 30.9584 136.195 31.1965 135.622 31.3156C135.163 31.4347 134.704 31.5538 134.245 31.5538C132.64 31.5538 131.722 30.9584 131.263 29.8867C131.034 29.4104 130.919 28.5769 130.919 27.7434V22.7422H132.066V27.7434C132.066 28.3387 132.066 28.815 132.181 29.1723C132.41 30.1249 133.098 30.6012 134.131 30.6012C135.048 30.6012 135.622 30.363 135.966 29.8867C136.195 29.5295 136.424 28.815 136.424 27.8624V22.8613H137.571V30.1249L138.603 31.1966L137.915 32.03L136.768 30.7202Z" fill="white"/>
<path d="M139.062 28.5767L140.094 28.4576C140.209 29.2911 140.553 29.8865 141.241 30.2437L141.471 30.3628L141.815 30.4819H142.159H142.503C142.847 30.4819 143.191 30.4818 143.65 30.2437C144.338 30.0055 144.682 29.5293 144.682 28.9339C144.682 28.3385 144.338 27.9813 143.65 27.7431C143.535 27.7431 143.076 27.505 142.159 27.3859C141.356 27.1478 140.782 27.0287 140.553 26.7906C139.75 26.3143 139.406 25.7188 139.406 24.8853C139.406 23.9327 139.865 23.2183 140.783 22.742C141.241 22.5038 141.7 22.3848 142.273 22.3848C143.994 22.3848 144.911 23.0992 145.37 24.4091C145.37 24.5281 145.485 24.6472 145.485 24.8853V25.0044L144.453 25.1235C144.338 24.0518 143.65 23.4565 142.388 23.4565C141.929 23.4565 141.471 23.5755 141.127 23.6946C140.668 23.9327 140.438 24.29 140.438 24.7663C140.438 25.2426 140.668 25.5998 141.127 25.838C141.356 25.957 141.7 26.0761 142.388 26.1952C143.306 26.4333 143.879 26.5524 144.223 26.7906C144.911 27.1478 145.37 27.6241 145.599 28.2195C145.714 28.4576 145.714 28.6958 145.714 28.8149C145.714 29.8865 145.255 30.6009 144.223 31.0772C143.764 31.3154 143.191 31.4344 142.617 31.4344C141.127 31.4344 140.094 30.9582 139.521 30.0056C139.177 29.6484 139.062 29.1721 139.062 28.5767Z" fill="white"/>
<path d="M153.742 31.4346H152.595V26.4335C152.595 25.4809 152.481 24.7664 152.137 24.4092C151.792 23.9329 151.219 23.6947 150.302 23.6947C149.269 23.6947 148.696 24.0519 148.352 24.7664C148.237 25.1236 148.122 25.719 148.122 26.4335V31.4346H146.976V26.4335C146.976 25.5999 147.09 25.0045 147.205 24.5282C147.664 23.2184 148.696 22.623 150.302 22.623C152.022 22.623 153.054 23.3375 153.398 24.7664C153.513 25.2427 153.513 25.8381 153.513 26.4335V31.4346H153.742Z" fill="white"/>
<path d="M162.114 27.8623H160.968V26.4335C160.968 25.4809 160.853 24.7664 160.509 24.4092C160.165 23.9329 159.591 23.6947 158.674 23.6947C157.642 23.6947 157.068 24.0519 156.724 24.7664C156.609 25.1236 156.495 25.719 156.495 26.4335V31.4346H155.348V26.4335C155.348 25.5999 155.462 25.0045 155.577 24.5282C156.036 23.2184 157.068 22.623 158.674 22.623C160.394 22.623 161.426 23.3375 161.77 24.7664C161.885 25.2427 161.885 25.8381 161.885 26.4335L162.114 27.8623Z" fill="white"/>
<path d="M172.78 24.0519L172.666 23.8138C172.551 23.6947 172.322 23.5756 172.207 23.5756C172.092 23.5756 172.092 23.5756 171.978 23.5756C171.863 23.5756 171.748 23.6947 171.519 23.8138C171.404 23.9328 171.404 23.9328 171.289 24.0519L168.078 27.9813L172.551 30.1247V32.1489H172.207V31.9108C172.092 31.3154 171.633 30.9582 170.831 30.601L166.472 28.5767L170.831 23.2184C171.175 22.7421 171.633 22.5039 172.092 22.5039C172.207 22.5039 172.436 22.5039 172.666 22.623C172.78 22.623 172.78 22.623 172.895 22.7421L172.78 24.0519Z" fill="white"/>
<path d="M180.35 29.1723H179.203V28.3387C179.203 27.6243 179.088 27.0288 178.973 26.6716C178.744 25.9571 178.056 25.6 177.024 25.6C176.221 25.6 175.533 25.8381 175.189 26.1953C174.959 26.4335 174.845 26.6717 174.845 27.0289C174.845 27.2671 174.845 27.5052 174.845 27.9815V31.4347H173.698V22.5039H174.845V25.1236C174.959 24.8855 175.189 24.7664 175.762 24.6474C176.221 24.5283 176.565 24.5282 176.909 24.5282C178.515 24.5282 179.432 25.1236 179.891 26.1953C180.006 26.4335 180.12 26.7907 180.12 27.1479C180.12 27.5052 180.235 27.9815 180.235 28.3387L180.35 29.1723Z" fill="white"/>
<path d="M189.525 23.6948H188.263V27.6243C188.263 28.4579 188.148 29.0532 188.034 29.5295C187.575 30.8393 186.658 31.4347 184.937 31.4347C184.249 31.4347 183.676 31.3156 183.102 31.0775C182.529 30.7203 182.07 30.3631 181.955 29.7677L181.841 29.4105L181.726 28.9341C181.726 28.696 181.611 28.3388 181.611 27.7434V22.7422H182.758V27.7434C182.758 28.696 182.873 29.4105 183.217 29.7677C183.561 30.244 184.134 30.4821 185.052 30.4821C186.084 30.4821 186.658 30.1249 187.002 29.4105C187.116 29.0532 187.231 28.4578 187.231 27.7434V22.7422H189.525V23.6948Z" fill="white"/>
<path d="M190.098 22.5039H192.965V27.5052C192.965 28.1005 192.965 28.5769 193.08 28.9341C193.309 29.8867 193.998 30.363 195.03 30.363C195.947 30.363 196.521 30.1248 196.865 29.6485C197.094 29.2913 197.323 28.5769 197.323 27.6243V25.9572H198.47V27.6243C198.47 28.4578 198.356 29.1722 198.241 29.6485C197.782 30.8393 196.865 31.4347 195.259 31.4347C193.653 31.4347 192.736 30.8393 192.277 29.7677C192.048 29.2913 191.933 28.4578 191.933 27.6243V23.6947H190.098V22.5039Z" fill="white"/>
<path d="M205.81 30.7202C205.581 30.9584 205.237 31.1965 204.663 31.3156C204.205 31.4347 203.746 31.5538 203.287 31.5538C201.682 31.5538 200.764 30.9584 200.305 29.8867C200.076 29.4104 199.961 28.5769 199.961 27.7434V22.7422H201.108V27.7434C201.108 28.3387 201.108 28.815 201.223 29.1723C201.452 30.1249 202.14 30.6012 203.172 30.6012C204.09 30.6012 204.663 30.363 205.008 29.8867C205.237 29.5295 205.466 28.815 205.466 27.8624V22.8613H206.613V30.1249L207.645 31.1966L206.957 32.03L205.81 30.7202Z" fill="white"/>
<path d="M213.953 26.4334C213.953 25.719 213.838 25.1236 213.724 24.7664C213.494 24.0519 212.806 23.6947 211.774 23.6947C210.857 23.6947 210.283 23.9329 209.939 24.4092C209.71 24.7664 209.48 25.4808 209.48 26.4334V27.386H208.333V26.4334C208.333 25.5999 208.448 25.0045 208.563 24.5282C209.022 23.2184 209.939 22.623 211.659 22.623C213.265 22.623 214.182 23.2184 214.641 24.29C214.756 24.5282 214.871 24.8855 214.871 25.2427C214.871 25.719 214.985 26.0762 214.985 26.4334V28.5767H215.903V29.7675H214.985V31.5536H213.838L213.953 26.4334Z" fill="white"/>
<path d="M223.702 27.8623H222.555V26.4335C222.555 25.4809 222.44 24.7664 222.096 24.4092C221.752 23.9329 221.178 23.6947 220.261 23.6947C219.229 23.6947 218.655 24.0519 218.311 24.7664C218.197 25.1236 218.082 25.719 218.082 26.4335V31.4346H216.935V26.4335C216.935 25.5999 217.05 25.0045 217.164 24.5282C217.623 23.2184 218.655 22.623 220.261 22.623C221.981 22.623 223.013 23.3375 223.357 24.7664C223.472 25.2427 223.472 25.8381 223.472 26.4335L223.702 27.8623Z" fill="white"/>
<path d="M231.156 30.7202C230.927 30.9583 230.583 31.1964 230.009 31.3155C229.551 31.4346 229.092 31.5537 228.633 31.5537C227.028 31.5537 226.11 30.9583 225.651 29.8866C225.422 29.4103 225.307 28.5768 225.307 27.7433V22.7422H226.454V27.7433C226.454 28.3387 226.454 28.815 226.569 29.1722C226.798 30.1248 227.486 30.6011 228.518 30.6011C229.436 30.6011 230.009 30.3629 230.353 29.8866C230.583 29.5294 230.812 28.8149 230.812 27.8623V22.8613H231.959V30.1248L232.991 31.1965L232.303 31.9109L231.156 30.7202Z" fill="white"/>
<path d="M241.249 23.6948H239.987V27.6243C239.987 28.4579 239.872 29.0532 239.758 29.5295C239.299 30.8393 238.382 31.4347 236.661 31.4347C235.973 31.4347 235.4 31.3156 234.826 31.0775C234.253 30.7203 233.794 30.3631 233.679 29.7677L233.565 29.4105L233.45 28.9341C233.45 28.696 233.335 28.3388 233.335 27.7434V22.7422H234.482V27.7434C234.482 28.696 234.597 29.4105 234.941 29.7677C235.285 30.244 235.858 30.4821 236.776 30.4821C237.808 30.4821 238.382 30.1249 238.726 29.4105C238.84 29.0532 238.955 28.4578 238.955 27.7434V22.7422H241.249V23.6948Z" fill="white"/>
<path d="M83.8975 52.7488V44.0562H89.976V45.1278H85.0443V47.7475H89.6319V48.8192H85.0443V51.7961H90.2053V52.8678L83.8975 52.7488Z" fill="white"/>
<path d="M91.6964 52.7488V44.0562H92.8432L97.2013 50.8436V44.0562H98.2334V52.7488H97.0865L92.7285 45.9614V52.7488H91.6964Z" fill="white"/>
<path d="M102.247 52.7488V45.1278H99.495V44.0562H106.147V45.1278H103.394V52.7488H102.247Z" fill="white"/>
<path d="M107.294 52.7488V44.0562H113.372V45.1278H108.441V47.7475H113.028V48.8192H108.441V51.7961H113.602V52.8678L107.294 52.7488Z" fill="white"/>
<path d="M115.093 52.7488V44.0562H118.763C119.451 44.0562 119.909 44.0561 120.253 44.1752C120.712 44.2943 121.056 44.6515 121.4 45.0088C121.63 45.366 121.744 45.8423 121.744 46.4377C121.744 47.7475 120.942 48.5811 119.336 48.8192C119.68 48.9383 119.909 49.1764 120.024 49.2955C120.368 49.6527 120.712 50.01 120.942 50.4863L122.432 52.8678H121.056L119.909 51.0816C119.68 50.7244 119.451 50.3672 119.336 50.129C118.877 49.5337 118.533 49.1765 118.074 49.0574C117.96 49.0574 117.73 49.0574 117.501 49.0574H116.239V52.8678L115.093 52.7488ZM116.239 47.8666H118.648C119.565 47.8666 120.253 47.6284 120.483 47.1521C120.597 46.914 120.712 46.6758 120.712 46.3186C120.712 45.366 120.139 44.8897 118.877 44.8897H116.239V47.8666Z" fill="white"/>
<path d="M123.579 52.7488V44.0562H126.791C127.364 44.0562 127.708 44.0561 128.052 44.1752C128.855 44.2943 129.428 44.7706 129.773 45.366C129.887 45.7232 130.002 46.0804 130.002 46.5567C130.002 48.3429 128.97 49.1765 126.905 49.1765H124.726V52.7488H123.579ZM124.612 48.2239H126.791C128.052 48.2239 128.74 47.7476 128.74 46.6759C128.74 46.3186 128.626 46.0804 128.511 45.7232C128.282 45.485 128.052 45.2469 127.823 45.1278C127.593 45.1278 127.249 45.0088 126.791 45.0088H124.612V48.2239Z" fill="white"/>
<path d="M131.378 52.7488V44.0562H135.048C135.736 44.0562 136.195 44.0561 136.539 44.1752C136.998 44.2943 137.342 44.6515 137.686 45.0088C137.915 45.366 138.03 45.8423 138.03 46.4377C138.03 47.7475 137.227 48.5811 135.622 48.8192C135.966 48.9383 136.195 49.1764 136.31 49.2955C136.654 49.6527 136.998 50.01 137.227 50.4863L138.718 52.8678H137.342L136.195 51.0816C135.966 50.7244 135.736 50.3672 135.622 50.129C135.163 49.5337 134.819 49.1765 134.36 49.0574C134.245 49.0574 134.016 49.0574 133.787 49.0574H132.525V52.8678L131.378 52.7488ZM132.41 47.8666H134.819C135.736 47.8666 136.424 47.6284 136.654 47.1521C136.768 46.914 136.883 46.6758 136.883 46.3186C136.883 45.366 136.31 44.8897 135.048 44.8897H132.41V47.8666Z" fill="white"/>
<path d="M139.98 52.7488V44.0562H141.127V52.7488H139.98Z" fill="white"/>
<path d="M142.617 50.01L143.65 49.8909C143.764 50.7244 144.108 51.3198 144.797 51.677C145.141 51.7961 145.599 51.9152 146.058 51.9152C146.976 51.9152 147.549 51.6771 147.893 51.2008C148.008 50.9626 148.122 50.7244 148.122 50.4863C148.122 49.8909 147.778 49.5336 147.09 49.2955C146.861 49.1764 146.287 49.0574 145.485 48.8192C144.797 48.7001 144.338 48.462 143.994 48.3429C143.191 47.8666 142.847 47.2712 142.847 46.4377C142.847 45.9614 142.962 45.485 143.191 45.1278C143.42 44.7706 143.764 44.5325 144.223 44.2943C144.682 44.0562 145.141 44.0562 145.714 44.0562C146.976 44.0562 147.893 44.4134 148.467 45.2469C148.696 45.6042 148.811 46.0804 148.925 46.5567L147.893 46.6759C147.778 45.6042 147.09 45.0088 145.829 45.0088C145.37 45.0088 144.911 45.1278 144.567 45.2469C144.108 45.4851 143.879 45.8423 143.879 46.3186C143.879 46.7949 144.108 47.1521 144.567 47.3903C144.797 47.5094 145.141 47.6284 145.829 47.7475C146.746 47.9857 147.32 48.1047 147.664 48.3429C148.581 48.8192 149.04 49.5336 149.04 50.4863C149.04 50.9626 148.925 51.4389 148.581 51.7961C148.352 52.1534 148.008 52.5106 147.549 52.7487C147.09 52.9869 146.517 53.106 145.943 53.106C144.453 53.106 143.42 52.6296 142.847 51.677C142.847 51.0816 142.617 50.6054 142.617 50.01Z" fill="white"/>
<path d="M150.76 52.7488V44.0562H156.839V45.1278H151.907V47.7475H156.495V48.8192H151.907V51.7961H157.068V52.8678L150.76 52.7488Z" fill="white"/>
<path d="M162 52.7488V44.0562H163.147V52.7488H162Z" fill="white"/>
<path d="M165.096 52.7488V44.0562H166.243L170.601 50.8436V44.0562H171.633V52.7488H170.487L166.128 45.9614V52.7488H165.096Z" fill="white"/>
<path d="M179.432 49.7722L180.579 50.0103C180.35 50.9629 180.006 51.6774 179.318 52.1536C178.744 52.6299 177.941 52.9872 177.024 52.9872C175.303 52.9872 174.157 52.2727 173.583 50.7247C173.239 50.0103 173.124 49.1768 173.124 48.3433C173.124 46.4381 173.813 45.1283 175.074 44.4138C175.648 44.0566 176.336 43.9375 177.138 43.9375C177.941 43.9375 178.629 44.1756 179.203 44.5329C179.776 45.0092 180.235 45.6046 180.35 46.4381L179.203 46.6763C178.859 45.4855 178.056 44.8902 177.024 44.8902C176.45 44.8902 175.877 45.0092 175.418 45.3664C174.959 45.7236 174.615 46.0809 174.501 46.6763C174.271 47.2716 174.271 47.7479 174.271 48.3433C174.271 49.8912 174.73 50.9629 175.533 51.5583C175.992 51.7964 176.45 51.9155 176.909 51.9155C178.4 51.9155 179.203 51.2011 179.432 49.7722Z" fill="white"/>
<path d="M187.46 44.0562H188.607V49.0574C188.607 49.8909 188.493 50.4863 188.378 50.9626C187.919 52.2724 187.002 52.8678 185.281 52.8678C183.676 52.8678 182.758 52.2725 182.299 51.2008C182.07 50.7245 181.955 49.8909 181.955 49.0574V44.0562H183.102V49.0574C183.102 49.6528 183.102 50.129 183.217 50.4863C183.446 51.4389 184.134 51.9152 185.167 51.9152C186.084 51.9152 186.658 51.6771 187.002 51.2008C187.231 50.8435 187.46 50.1291 187.46 49.1764V44.0562Z" fill="white"/>
<path d="M190.328 52.7488V44.0562H193.424C194.686 44.0562 195.488 44.4133 195.833 45.1278C196.062 45.485 196.177 45.8423 196.177 46.3186C196.177 47.1521 195.833 47.7475 195.03 48.1047C195.488 48.2238 195.947 48.462 196.177 48.8192C196.406 49.1765 196.635 49.6528 196.635 50.1291C196.635 50.9626 196.291 51.6771 195.718 52.0343C195.259 52.3916 194.456 52.6297 193.424 52.6297L190.328 52.7488ZM191.474 47.7475H193.309C193.768 47.7475 194.112 47.7475 194.342 47.6285C194.915 47.5094 195.144 47.0331 195.144 46.4377C195.144 45.8423 194.915 45.366 194.342 45.2469C194.112 45.1278 193.653 45.1278 193.08 45.1278H191.36L191.474 47.7475ZM191.474 51.7962H193.539C193.883 51.7962 194.112 51.7962 194.342 51.7962C195.144 51.6771 195.603 51.2008 195.603 50.3672C195.603 49.6528 195.259 49.1765 194.686 49.0574C194.456 48.9383 193.998 48.9383 193.424 48.9383H191.474V51.7962Z" fill="white"/>
<path d="M197.209 52.7488L200.42 44.0562H201.567L205.008 52.7488H203.746L202.714 50.1291H199.273L198.356 52.7488H197.209ZM199.732 49.1765H202.599L201.682 46.7949C201.452 46.0805 201.223 45.4851 201.108 45.0088C200.993 45.6041 200.879 46.1996 200.649 46.6759L199.732 49.1765Z" fill="white"/>
<path d="M207.187 52.7488V45.1278H204.434V44.0562H211.086V45.1278H208.333V52.7488H207.187Z" fill="white"/>
<path d="M211.659 48.5815C211.659 47.2716 212.003 46.0809 212.692 45.2474C213.38 44.4138 214.412 43.9375 215.673 43.9375C216.476 43.9375 217.164 44.1757 217.738 44.5329C218.311 44.8901 218.885 45.4855 219.229 46.2C219.573 46.9144 219.688 47.6289 219.688 48.5815C219.688 49.415 219.573 50.1295 219.229 50.8439C218.885 51.5584 218.426 52.1537 217.738 52.5109C217.164 52.8682 216.476 53.1063 215.673 53.1063C214.871 53.1063 214.183 52.8682 213.609 52.5109C212.921 52.1537 212.462 51.5584 212.118 50.8439C211.889 50.0104 211.659 49.2959 211.659 48.5815ZM212.806 48.5815C212.806 49.5341 213.036 50.3676 213.494 50.963C214.068 51.6774 214.756 51.9156 215.673 51.9156C216.591 51.9156 217.394 51.5584 217.853 50.8439C218.311 50.2486 218.541 49.415 218.541 48.3433C218.541 46.9144 218.082 45.8428 217.164 45.2474C216.706 45.0092 216.247 44.771 215.673 44.771C214.641 44.771 213.953 45.1283 213.494 45.8428C213.036 46.6763 212.806 47.5098 212.806 48.5815Z" fill="white"/>
<path d="M221.178 52.7488V44.0562H224.848C225.537 44.0562 225.995 44.0561 226.339 44.1752C226.798 44.2943 227.142 44.6515 227.486 45.0088C227.716 45.366 227.83 45.8423 227.83 46.4377C227.83 47.7475 227.028 48.5811 225.422 48.8192C225.766 48.9383 225.995 49.1764 226.11 49.2955C226.454 49.6527 226.798 50.01 227.028 50.4863L228.518 52.8678H227.142L225.995 51.0816C225.766 50.7244 225.537 50.3672 225.422 50.129C224.963 49.5337 224.619 49.1765 224.16 49.0574C224.046 49.0574 223.816 49.0574 223.587 49.0574H222.325V52.8678L221.178 52.7488ZM222.211 47.8666H224.619C225.537 47.8666 226.225 47.6284 226.454 47.1521C226.569 46.914 226.683 46.6758 226.683 46.3186C226.683 45.366 226.11 44.8897 224.848 44.8897H222.211V47.8666Z" fill="white"/>
<path d="M87.2234 67.2766V58.584H92.8432V59.6556H88.2557V62.3944H92.155V63.4661H88.2557V67.3956H87.2234V67.2766Z" fill="white"/>
<path d="M93.9901 63.1089C93.9901 61.799 94.3341 60.6083 95.0222 59.7747C95.7103 58.9412 96.7426 58.4648 98.0041 58.4648C98.8069 58.4648 99.495 58.703 100.068 59.0602C100.642 59.4175 101.215 60.0129 101.559 60.7273C101.903 61.4418 102.018 62.1563 102.018 63.1089C102.018 63.9424 101.903 64.6568 101.559 65.3713C101.215 66.0858 100.757 66.6812 100.068 67.0384C99.495 67.3956 98.8069 67.6338 98.0041 67.6338C97.2013 67.6338 96.5131 67.3956 95.9397 67.0384C95.2516 66.6812 94.7928 66.0858 94.4488 65.3713C94.1047 64.5378 93.9901 63.8233 93.9901 63.1089ZM95.1369 63.1089C95.1369 64.0615 95.3663 64.895 95.825 65.4904C96.3985 66.2049 97.0866 66.443 98.0041 66.443C98.9216 66.443 99.7244 66.0858 100.183 65.3713C100.642 64.7759 100.871 63.9424 100.871 62.8707C100.871 61.4418 100.413 60.3701 99.495 59.7747C99.0363 59.5366 98.5776 59.2984 98.0041 59.2984C96.9719 59.2984 96.2838 59.6557 95.825 60.3701C95.3663 61.2037 95.1369 62.0372 95.1369 63.1089Z" fill="white"/>
<path d="M108.899 58.584H110.046V63.5852C110.046 64.4187 109.932 65.0141 109.817 65.4904C109.358 66.8003 108.441 67.3956 106.72 67.3956C105.115 67.3956 104.197 66.8003 103.739 65.7286C103.509 65.2523 103.394 64.4187 103.394 63.5852V58.584H104.541V63.5852C104.541 64.1805 104.541 64.6569 104.656 65.0141C104.885 65.9667 105.574 66.443 106.606 66.443C107.523 66.443 108.097 66.2049 108.441 65.7286C108.67 65.3714 108.899 64.6569 108.899 63.7043V58.584Z" fill="white"/>
<path d="M111.881 67.2765V58.584H113.028L117.386 65.3712V58.584H118.418V67.2765H117.272L112.913 60.4892V67.2765H111.881Z" fill="white"/>
<path d="M120.253 67.2765V58.584H123.121C123.809 58.584 124.267 58.584 124.612 58.703C125.644 58.9412 126.447 59.6556 126.791 60.8464C127.02 61.4418 127.135 62.1562 127.135 62.8707C127.135 63.9424 126.905 64.7759 126.561 65.4904C126.102 66.3239 125.414 66.9192 124.612 67.1574C124.267 67.2764 123.809 67.2765 123.235 67.2765H120.253ZM121.4 66.3239H123.235C124.153 66.3239 124.841 66.0857 125.3 65.7285C125.873 65.1331 126.103 64.1805 126.103 62.9897C126.103 61.3227 125.644 60.3701 124.612 59.8938C124.267 59.7747 123.809 59.7747 123.235 59.7747H121.515L121.4 66.3239Z" fill="white"/>
<path d="M127.823 67.2765L131.034 58.584H132.181L135.622 67.2765H134.36L133.328 64.6568H129.887L128.97 67.2765H127.823ZM130.231 63.7042H133.098L132.181 61.3227C131.952 60.6083 131.722 60.0129 131.608 59.5366C131.493 60.132 131.378 60.7273 131.149 61.2036L130.231 63.7042Z" fill="white"/>
<path d="M137.801 67.2765V59.6556H135.048V58.584H141.7V59.6556H138.947V67.2765H137.801Z" fill="white"/>
<path d="M142.962 67.2765V58.584H144.108V67.2765H142.962Z" fill="white"/>
<path d="M145.714 63.1089C145.714 61.799 146.058 60.6083 146.746 59.7747C147.434 58.9412 148.467 58.4648 149.728 58.4648C150.531 58.4648 151.219 58.703 151.792 59.0602C152.366 59.4175 152.939 60.0129 153.283 60.7273C153.627 61.4418 153.742 62.1563 153.742 63.1089C153.742 63.9424 153.627 64.6568 153.283 65.3713C152.939 66.0858 152.481 66.6812 151.792 67.0384C151.219 67.3956 150.531 67.6338 149.728 67.6338C148.925 67.6338 148.237 67.3956 147.664 67.0384C146.976 66.6812 146.517 66.0858 146.173 65.3713C145.829 64.5378 145.714 63.8233 145.714 63.1089ZM146.861 63.1089C146.861 64.0615 147.09 64.895 147.549 65.4904C148.123 66.2049 148.811 66.443 149.728 66.443C150.646 66.443 151.448 66.0858 151.907 65.3713C152.366 64.7759 152.595 63.9424 152.595 62.8707C152.595 61.4418 152.137 60.3701 151.219 59.7747C150.76 59.5366 150.302 59.2984 149.728 59.2984C148.696 59.2984 148.008 59.6557 147.549 60.3701C147.09 61.2037 146.861 62.0372 146.861 63.1089Z" fill="white"/>
<path d="M155.118 67.2765V58.584H156.265L160.623 65.3712V58.584H161.656V67.2765H160.509L156.151 60.4892V67.2765H155.118Z" fill="white"/>
<path d="M228.06 37.0312H82.1772V37.7466H228.06V37.0312Z" fill="white"/>
<path d="M33.3203 21.1942C33.3203 21.0751 33.3203 21.0751 33.3203 20.9561H32.0588C32.0588 20.9561 32.0588 20.9561 32.0588 21.0752C32.0588 24.4093 32.0588 27.6243 32.0588 30.9584C32.0588 31.5538 31.9441 31.6728 31.3706 31.6728C27.5859 31.6728 23.8013 31.6728 20.0166 31.6728C19.6726 31.6728 19.4431 31.6728 19.0991 31.6728V35.2451C19.3284 35.2451 19.6725 35.2451 19.9019 35.2451C23.2278 35.2451 26.6684 35.2451 29.9944 35.2451C30.6825 35.2451 30.7972 35.4833 30.7972 36.0786C30.7972 39.0555 30.7972 42.0324 30.7972 45.0093C30.7972 45.6047 30.6825 45.8428 29.9944 45.8428C26.6684 45.8428 23.2278 45.8428 19.9019 45.8428C19.6725 45.8428 19.4431 45.8428 19.0991 45.8428C19.0991 47.1527 19.0991 48.4625 19.0991 49.7723C19.0991 49.8914 19.4431 50.1295 19.6725 50.1295C20.8194 50.1295 21.9662 50.1295 23.1131 50.1295C25.8656 50.1295 28.7328 50.1295 31.4853 50.1295C32.0588 50.1295 32.2881 50.3677 32.2881 50.9631C32.2881 54.059 32.2881 57.0359 32.2881 60.1319C32.2881 60.251 32.2881 60.4891 32.2881 60.6082H33.3203C33.3203 60.4891 33.3203 60.251 33.3203 60.1319C33.3203 47.1527 33.3203 34.1734 33.3203 21.1942Z" fill="white"/>
<path d="M75.296 46.6761C71.97 46.6761 68.6441 46.6761 65.3182 46.6761C65.0888 46.6761 64.7447 46.6761 64.5153 46.6761V60.4889H75.9841V46.3188C75.8694 46.6761 75.64 46.6761 75.296 46.6761Z" fill="white"/>
<path d="M49.4912 60.489C49.4912 47.2717 49.4912 34.1734 49.4912 20.9561H48.3444C48.3444 26.4335 48.3444 31.7919 48.3444 37.2694C48.3444 44.7711 48.3444 52.1537 48.3444 59.6555C48.3444 59.8936 48.3444 60.2509 48.3444 60.489H49.4912Z" fill="white"/>
<path d="M64.7447 31.6728C64.63 31.6728 64.63 31.6728 64.5153 31.7919V36.1976C64.7447 36.1976 65.0888 36.1976 65.3182 36.1976C68.6441 36.1976 71.8554 36.1976 75.1813 36.1976C75.296 36.1976 75.4107 36.1976 75.5254 36.1976L74.7226 31.5537C71.3966 31.6728 68.0707 31.6728 64.7447 31.6728Z" fill="white"/>
<path d="M75.8694 38.3408V46.438V60.4889H64.5154H49.4912H48.3444H33.3203H32.2881H10.0388L13.4794 78.7075L80.6863 66.6809L75.8694 38.3408Z" fill="white"/>
<path d="M32.0588 20.956H33.3203H48.3444H49.4912H73.0022L69.4469 0.236816L0.86377 12.0253L4.41906 30.6011V20.956H32.0588Z" fill="white"/>
</svg>
