<svg width="27" height="27" viewBox="0 0 27 27" fill="none" xmlns="http://www.w3.org/2000/svg">
<path d="M3.46707 0H23.5374C25.4416 0 27 1.55864 27 3.46764V23.5369C27 25.4414 25.4416 27 23.5374 27H3.46707C1.56288 27 0 25.4414 0 23.5369V3.46315C0 1.55864 1.56288 0 3.46707 0ZM19.6707 2.99601C19.0015 2.99601 18.4536 3.54401 18.4536 4.21328V7.12394C18.4536 7.79321 18.997 8.34121 19.6707 8.34121H22.7201C23.3892 8.34121 23.9371 7.79321 23.9371 7.12394V4.21328C23.9371 3.54401 23.3892 2.99601 22.7201 2.99601H19.6707ZM23.9506 11.4181H21.5749C21.7994 12.1547 21.9207 12.9318 21.9207 13.7358C21.9207 18.2276 18.1617 21.8659 13.5269 21.8659C8.89221 21.8659 5.13324 18.2231 5.13324 13.7358C5.13324 12.9273 5.2545 12.1547 5.47905 11.4181H3.00001V22.8272C3.00001 23.4156 3.48054 23.8962 4.07336 23.8962H22.8728C23.4656 23.8962 23.9461 23.4156 23.9461 22.8272V11.4181H23.9506ZM13.5269 8.18849C10.5314 8.18849 8.1063 10.5422 8.1063 13.4439C8.1063 16.3455 10.5359 18.6992 13.5269 18.6992C16.5225 18.6992 18.9476 16.3455 18.9476 13.4439C18.9476 10.5377 16.5225 8.18849 13.5269 8.18849Z" fill="white"/>
</svg>
