<svg width="28" height="27" viewBox="0 0 28 27" fill="none" xmlns="http://www.w3.org/2000/svg">
<path d="M13.4117 1.27628C13.6423 1.41343 13.9046 1.61535 14.1948 1.88203C14.473 2.16015 14.7473 2.49922 15.0136 2.90306C15.268 3.28404 15.4946 3.73359 15.6934 4.25172C15.8563 4.76986 15.9358 5.37561 15.9358 6.069C15.916 7.33766 15.6218 8.35106 15.0574 9.11302C14.7831 9.48257 14.4889 9.82164 14.1829 10.134C13.841 10.4426 13.4793 10.7627 13.0937 11.0865C12.8711 11.3037 12.6684 11.5513 12.4815 11.8294C12.2629 12.1189 12.1516 12.4504 12.1516 12.8314C12.1516 13.2009 12.2629 13.5057 12.4895 13.7495C12.6803 13.9819 12.8671 14.1839 13.05 14.3553L14.3061 15.342C15.0852 15.9554 15.7689 16.6259 16.3572 17.365C16.9097 18.1156 17.1999 19.0947 17.2237 20.3062C17.2237 22.0244 16.4327 23.5445 14.8467 24.8741C13.205 26.2457 10.8359 26.9543 7.73935 27C5.14764 26.9771 3.21181 26.4476 1.93583 25.4113C0.647928 24.4436 0 23.2855 0 21.9406C0 21.2853 0.210677 20.5538 0.632029 19.7462C1.03748 18.9423 1.77683 18.2337 2.84214 17.6241C4.03861 16.9688 5.29869 16.5307 6.6184 16.3135C7.92618 16.1307 9.00738 16.0278 9.87394 16.0011C9.60761 15.6659 9.36911 15.3039 9.16241 14.923C8.91993 14.5534 8.79671 14.1038 8.79671 13.5857C8.79671 13.2733 8.84441 13.0104 8.93583 12.8047C9.01533 12.5837 9.09086 12.3818 9.16241 12.1951C8.74106 12.2409 8.34355 12.2637 7.97388 12.2637C6.00227 12.2409 4.50369 11.6465 3.47019 10.4807C2.38898 9.39495 1.84838 8.1339 1.84838 6.6938C1.84838 4.95273 2.61158 3.37166 4.14594 1.95442C5.19534 1.12388 6.28847 0.582893 7.42533 0.327637C8.54628 0.106669 9.59966 0 10.5815 0H17.975L15.6894 1.28008H13.4117V1.27628ZM14.8387 21.6853C14.8387 20.7824 14.5327 20.0014 13.9205 19.3347C13.2726 18.7023 12.2589 17.9213 10.8796 16.9993C10.6451 16.9764 10.3668 16.965 10.0488 16.965C9.86201 16.9421 9.37706 16.965 8.59796 17.0336C7.83078 17.1364 7.0477 17.3041 6.24872 17.5365C6.0619 17.6051 5.79557 17.7117 5.45372 17.8489C5.11187 17.9975 4.76604 18.2146 4.40829 18.4889C4.06644 18.7785 3.77626 19.1328 3.54174 19.5633C3.27144 20.0128 3.13629 20.5576 3.13629 21.1901C3.13629 22.4359 3.72459 23.4607 4.90119 24.2684C6.02215 25.076 7.55253 25.4913 9.49631 25.5142C11.2413 25.4913 12.573 25.1218 13.4872 24.4055C14.3896 23.6969 14.8387 22.794 14.8387 21.6853ZM9.67916 11.2922C10.653 11.2579 11.4639 10.9227 12.1119 10.2864C12.4259 9.83688 12.6286 9.37589 12.7161 8.89967C12.7677 8.42345 12.7956 8.02723 12.7956 7.7034C12.7956 6.3052 12.4219 4.89558 11.6746 3.47453C11.3248 2.79258 10.8637 2.23635 10.2913 1.80965C9.70698 1.40581 9.03521 1.19246 8.27995 1.1696C7.27825 1.19246 6.4435 1.58106 5.77967 2.33159C5.21919 3.11641 4.95287 3.99647 4.97672 4.96797C4.97672 6.25187 5.36627 7.58148 6.14935 8.97206C6.53095 9.61972 7.0159 10.1683 7.6201 10.6179C8.2243 11.0674 8.90801 11.2922 9.67916 11.2922Z" fill="white"/>
<path d="M28 3.8706H24.1164V0.148438H22.2363V3.8706H18.3527V5.67264H22.2363V9.39099H24.1164V5.67264H28V3.8706Z" fill="white"/>
</svg>
