<svg width="155" height="159" viewBox="0 0 155 159" fill="none" xmlns="http://www.w3.org/2000/svg">
<path d="M5.1455 132.248C8.48771 124.53 13.4175 116.525 20.1522 107.878C24.142 102.755 25.3885 100.846 26.5596 98.061C27.8023 95.1065 29.6631 92.5252 31.1117 91.7458C31.9127 91.3148 32.8523 91.1665 35.6235 91.0336C37.6928 90.9343 39.4767 90.9709 39.9874 91.1232C40.4625 91.2648 41.2514 91.3046 41.7405 91.2116C43.7898 90.822 48.4689 89.1788 51.2993 87.8546C52.9691 87.0734 55.1455 86.1533 56.1357 85.8101C57.884 85.2039 57.9479 85.1447 58.3414 83.7657L58.7468 82.3457L56.9157 80.8753C52.5773 77.3916 50.1377 73.2423 49.253 67.8423C49.1266 67.0711 48.7074 66.1979 48.2228 65.6966C47.7735 65.2316 47.1807 64.429 46.9056 63.9128C46.2525 62.6872 45.129 59.1796 45.1236 58.3495C45.1212 57.9918 44.7883 57.2092 44.3837 56.6102C43.7905 55.7322 43.7118 55.3795 43.9778 54.7897C44.2511 54.1833 44.5046 54.0554 45.459 54.042C46.5676 54.0264 46.6063 53.9926 46.5016 53.1317C46.4417 52.64 46.3786 50.4236 46.3612 48.2064C46.3347 44.818 46.4752 43.5791 47.2422 40.4372C47.7441 38.3814 48.0285 36.6003 47.8742 36.4793C47.3677 36.0822 32.1112 32.6016 30.8774 32.6016C30.4191 32.6016 30.1895 32.7691 30.1895 33.1032C30.3503 33.7562 30.682 35.187 31.1685 37.153L31.6614 40.9241C31.9325 42.9982 32.5237 45.9958 32.9752 47.5853C34.1235 51.6281 35.1704 56.0571 35.1551 56.8065C35.1479 57.1543 35.4251 58.4921 35.771 59.7795C36.1169 61.0669 36.7209 63.5246 37.1132 65.2411C39.0648 73.7799 39.0046 73.4336 38.536 73.4336C38.2418 73.4336 37.7749 71.8975 37.1539 68.8868C36.7142 66.755 36.1022 65.1111 35.7483 65.1111C35.6103 65.1111 35.5004 65.3744 35.5041 65.6963C35.5174 66.8429 36.8186 73.8506 37.303 75.3845C37.8246 77.0359 37.9414 78.6423 37.6104 79.6108C37.3362 80.4129 37.0508 80.3454 36.5109 79.3507L36.0521 78.5054L35.8576 79.5457C35.6967 80.4065 35.523 80.5983 34.8515 80.657C34.4051 80.6961 33.7962 80.9009 33.4984 81.1122C32.6119 81.7411 29.5717 81.6207 28.6189 80.9189C28.1878 80.6013 27.5064 80.338 27.1048 80.3337C26.4139 80.3264 26.3795 80.2278 26.4662 78.5054C26.5166 77.5041 26.7016 75.8656 26.8773 74.8643C27.2459 72.7638 27.0599 62.4283 26.5474 56.5288C26.3548 54.3116 26.1062 47.7888 25.9948 42.0341C25.8546 34.7831 25.6781 31.4987 25.42 31.3372C24.7674 30.9289 21.4802 30.3196 18.9513 30.1384C16.007 29.9274 14.9297 29.6389 14.9297 29.0611C14.9297 28.2456 18.6399 25.3153 22.7129 22.9138C24.9534 21.5928 27.0221 20.1903 27.3099 19.7971C27.5978 19.4038 28.4008 18.8797 29.0943 18.6322C29.7879 18.3848 32.4453 16.8202 34.9996 15.1554C37.5539 13.4905 40.9128 11.4151 42.4637 10.5434C44.0145 9.67176 47.3334 7.8012 49.839 6.3866C52.3445 4.97199 55.6287 3.20386 57.1372 2.45739C58.6457 1.71092 60.2867 0.852654 60.784 0.550058L61.688 0L66.2576 1.11847C85.9448 5.93741 99.9638 9.5173 111.465 12.6642C123.495 15.9552 127.237 17.068 131.679 18.6745C134.154 19.5699 136.96 20.5037 137.915 20.7497C138.869 20.9956 139.984 21.4088 140.392 21.668C141.044 22.0818 141.077 22.1929 140.666 22.581C139.871 23.3322 135.608 24.8794 133.774 25.0822C131.774 25.3034 127.841 27.1 112.833 34.6462L103.752 39.2127L103.959 40.9575C104.073 41.9172 104.476 43.7236 104.854 44.9716C105.544 47.2505 105.6 50.1469 104.989 51.9528C104.749 52.6622 104.782 52.6962 105.528 52.5109C107.552 52.0081 108.298 52.0527 109.103 52.7247C110.165 53.6107 110.475 56.4324 109.676 57.9317C109.38 58.4878 109.049 59.5993 108.941 60.4016C108.491 63.737 104.534 68.2197 101.666 68.6415C101.047 68.7325 100.411 68.941 100.251 69.1048C100.092 69.2687 99.4825 70.6068 98.8967 72.0785L97.8315 74.7542L99.6452 77.6701C100.643 79.2739 101.715 81.318 102.028 82.2126C102.656 84.01 102.601 83.9645 108.313 87.4518C111.651 89.4894 112.565 90.2089 115.611 93.1978C116.524 94.0927 118.24 95.4427 119.426 96.1977C120.612 96.9526 122.852 98.4661 124.403 99.5608C126.782 101.241 127.352 101.525 128.052 101.386C131.102 100.777 131.254 100.814 133.681 102.729C134.924 103.71 136.78 105.081 137.804 105.774C141.422 108.224 143.942 112.778 150.217 128.204C151.676 131.793 153.037 135.597 153.241 136.657C154.792 143.865 154.789 151.049 154.789 158.415L155 159H0C0 147.666 2.30662 138.777 5.14339 132.247L5.1455 132.248ZM35.8835 76.1016C35.7472 74.2825 35.1643 73.6016 35.1709 75.269C35.1758 76.5354 35.456 77.5965 35.7856 77.597C35.9011 77.5972 35.9452 76.9242 35.8835 76.1016ZM39.3404 79.3957C38.8723 78.3191 38.2625 74.8068 38.468 74.3713C38.7984 73.6711 38.96 73.9942 39.6596 76.7534C40.1226 78.5795 40.1771 79.234 39.8853 79.4627C39.5936 79.6914 39.4619 79.6752 39.3404 79.3957Z" fill="#683594"/>
</svg>
