<svg width="307" height="189" viewBox="0 0 307 189" fill="none" xmlns="http://www.w3.org/2000/svg">
<path fill-rule="evenodd" clip-rule="evenodd" d="M140.377 62.5147L142.786 65.0153L152.076 55.3702L149.667 52.8696L140.377 62.5147ZM140.377 41.0812L142.786 38.5806L152.076 48.2257L149.667 50.7262L140.377 41.0812ZM165.724 41.0812L163.315 38.5806L154.025 48.2257L156.434 50.7262L165.724 41.0812ZM165.724 62.5147L163.315 65.0153L154.025 55.3702L156.434 52.8696L165.724 62.5147Z" fill="white"/>
<path fill-rule="evenodd" clip-rule="evenodd" d="M142.786 26.4349L140.377 28.9355L149.667 38.5806L152.076 36.08L142.786 26.4349ZM163.315 26.4349L165.724 28.9355L156.434 38.5806L154.025 36.08L163.315 26.4349ZM179.371 26.9112L176.963 24.4106L167.673 34.0557L170.082 36.5563L179.371 26.9112ZM177.536 41.0812L175.128 38.5806L165.838 48.2257L168.247 50.7263L177.536 41.0812ZM177.536 62.5148L175.128 65.0153L165.838 55.3702L168.247 52.8696L177.536 62.5148ZM179.371 76.6847L176.963 79.1853L167.673 69.5402L170.082 67.0396L179.371 76.6847ZM163.315 77.2801L165.724 74.7795L156.434 65.1344L154.025 67.635L163.315 77.2801ZM142.786 77.2801L140.377 74.7795L149.667 65.1344L152.076 67.635L142.786 77.2801ZM126.73 76.6847L129.138 79.1853L138.428 69.5402L136.019 67.0396L126.73 76.6847ZM128.565 62.5148L130.973 65.0153L140.263 55.3702L137.854 52.8696L128.565 62.5148ZM128.565 41.0812L130.973 38.5806L140.263 48.2257L137.854 50.7263L128.565 41.0812ZM126.73 26.9112L129.138 24.4106L138.428 34.0557L136.019 36.5563L126.73 26.9112Z" fill="white"/>
<path fill-rule="evenodd" clip-rule="evenodd" d="M142.786 14.1699L140.377 16.6705L149.667 26.3156L152.076 23.815L142.786 14.1699ZM163.315 14.1699L165.724 16.6705L156.434 26.3156L154.025 23.815L163.315 14.1699ZM179.371 14.7652L176.963 12.2646L167.673 21.9098L170.082 24.4104L179.371 14.7652ZM191.184 26.9109L181.894 36.5561L179.486 34.0555L188.776 24.4104L191.184 26.9109ZM189.349 41.081L186.941 38.5804L177.651 48.2255L180.059 50.7261L189.349 41.081ZM189.349 62.5146L186.941 65.0151L177.651 55.37L180.059 52.8694L189.349 62.5146ZM191.184 76.6846L188.776 79.1852L179.486 69.54L181.894 67.0394L191.184 76.6846ZM179.371 88.8303L170.082 79.1852L167.673 81.6857L176.963 91.3309L179.371 88.8303ZM163.315 89.4257L165.724 86.9251L156.434 77.28L154.025 79.7806L163.315 89.4257ZM142.786 89.4257L140.377 86.9251L149.667 77.28L152.076 79.7806L142.786 89.4257ZM126.73 88.8303L129.138 91.3309L138.428 81.6857L136.019 79.1852L126.73 88.8303ZM114.917 76.6846L124.207 67.0394L126.615 69.54L117.325 79.1852L114.917 76.6846ZM116.752 62.5146L119.16 65.0151L128.45 55.37L126.042 52.8694L116.752 62.5146ZM116.752 41.081L119.16 38.5804L128.45 48.2255L126.042 50.7261L116.752 41.081ZM114.917 26.9109L117.325 24.4104L126.615 34.0555L124.207 36.5561L114.917 26.9109ZM126.73 14.7652L136.019 24.4104L138.428 21.9098L129.138 12.2646L126.73 14.7652Z" fill="white"/>
<path fill-rule="evenodd" clip-rule="evenodd" d="M126.73 2.50059L129.138 0L138.428 9.64512L136.019 12.1457L126.73 2.50059ZM142.786 1.90521L140.377 4.40579L149.667 14.0509L152.076 11.5503L142.786 1.90521ZM163.315 1.90521L165.724 4.40579L156.434 14.0509L154.025 11.5503L163.315 1.90521ZM179.371 2.50059L176.963 0L167.673 9.64512L170.082 12.1457L179.371 2.50059ZM193.019 12.7411L190.611 10.2405L181.321 19.8856L183.729 22.3862L193.019 12.7411ZM202.997 26.911L200.588 24.4105L191.299 34.0556L193.707 36.5562L202.997 26.911ZM201.047 41.081L198.639 38.5804L189.349 48.2256L191.758 50.7261L201.047 41.081ZM201.047 62.5146L198.639 65.0152L189.349 55.3701L191.758 52.8695L201.047 62.5146ZM202.997 76.6846L200.588 79.1852L191.299 69.5401L193.707 67.0395L202.997 76.6846ZM193.019 90.8546L190.611 93.3551L181.321 83.71L183.729 81.2094L193.019 90.8546ZM179.371 101.095L176.963 103.596L167.673 93.9505L170.082 91.4499L179.371 101.095ZM163.315 101.69L165.724 99.1898L156.434 89.5447L154.025 92.0453L163.315 101.69ZM142.786 101.69L140.377 99.1898L149.667 89.5447L152.076 92.0453L142.786 101.69ZM126.73 101.095L129.138 103.596L138.428 93.9505L136.019 91.4499L126.73 101.095ZM113.082 90.8546L115.49 93.3551L124.78 83.71L122.372 81.2094L113.082 90.8546ZM103.104 76.6846L105.513 79.1852L114.802 69.5401L112.394 67.0395L103.104 76.6846ZM105.054 62.5146L107.462 65.0152L116.752 55.3701L114.343 52.8695L105.054 62.5146ZM105.054 41.081L107.462 38.5804L116.752 48.2256L114.343 50.7261L105.054 41.081ZM103.104 26.911L105.513 24.4105L114.802 34.0556L112.394 36.5562L103.104 26.911ZM113.082 12.7411L115.49 10.2405L124.78 19.8856L122.372 22.3862L113.082 12.7411Z" fill="white"/>
<path fill-rule="evenodd" clip-rule="evenodd" d="M89.3415 177.304C85.2128 177.304 81.4282 175.637 78.561 172.779V188.02H73.744V161.109V145.868H78.561V149.559C81.3135 146.82 85.0981 145.034 89.3415 145.034C97.9431 145.034 104.824 152.179 104.824 161.109C104.824 170.159 97.9431 177.304 89.3415 177.304ZM89.3415 172.422C95.3053 172.422 100.122 167.42 100.122 161.228C100.122 155.037 95.3053 150.035 89.3415 150.035C83.3778 150.035 78.561 155.037 78.561 161.228C78.6757 167.42 83.4924 172.422 89.3415 172.422Z" fill="white"/>
<path fill-rule="evenodd" clip-rule="evenodd" d="M134.758 145.986H139.46V161.347V176.708H134.758V173.017C132.005 175.755 128.221 177.541 123.977 177.541C115.376 177.541 108.495 170.397 108.495 161.466C108.495 152.536 115.376 145.391 123.977 145.391C128.106 145.391 131.891 147.058 134.758 149.916V145.986ZM124.092 150.154C118.128 150.154 113.311 155.155 113.311 161.347C113.311 167.539 118.128 172.54 124.092 172.54C130.056 172.54 134.872 167.539 134.872 161.347C134.758 155.155 130.056 150.154 124.092 150.154Z" fill="white"/>
<path fill-rule="evenodd" clip-rule="evenodd" d="M16.4003 145.986H11.6981V161.347V176.708H16.4003V161.347C16.4003 155.155 21.2172 150.154 27.1809 150.154C33.1447 150.154 37.9616 155.155 37.9616 161.347V176.708H42.7784V161.347C42.7784 155.155 47.5953 150.154 53.559 150.154C59.5228 150.154 64.3397 155.155 64.3397 161.347V176.708H69.1565V161.347C69.1565 152.417 62.2752 145.272 53.6737 145.272C48.1687 145.272 43.3518 148.249 40.5993 152.774C37.8468 148.249 33.03 145.272 27.525 145.272C23.3963 145.272 19.6116 146.939 16.7444 149.797V145.986H16.4003Z" fill="white"/>
<path fill-rule="evenodd" clip-rule="evenodd" d="M170.884 172.898C168.132 175.636 164.347 177.422 160.104 177.422C151.502 177.422 144.621 170.278 144.621 161.347C144.621 152.417 151.502 145.272 160.104 145.272C164.233 145.272 168.017 146.939 170.884 149.797L167.558 153.369C165.609 151.464 162.971 150.273 160.104 150.273C154.14 150.273 149.323 155.274 149.323 161.466C149.323 167.658 154.14 172.659 160.104 172.659C162.971 172.659 165.609 171.469 167.558 169.563L170.884 172.898Z" fill="white"/>
<path fill-rule="evenodd" clip-rule="evenodd" d="M179.371 135.865H184.188V145.987H188.89V150.869H184.188V176.589H179.371V150.869H174.669V145.987H179.371V135.865ZM188.89 145.987H193.707V150.869H188.89V145.987Z" fill="white"/>
<path fill-rule="evenodd" clip-rule="evenodd" d="M216.645 135.865L235.339 176.589H230.063L224.214 163.729H203.112L197.263 176.589H191.987L210.681 135.865H211.484H215.957H216.645ZM221.92 158.728L213.663 140.628L205.405 158.728H221.92Z" fill="white"/>
<path fill-rule="evenodd" clip-rule="evenodd" d="M253.574 145.986H248.757V161.347V176.708H253.574V161.347C253.574 155.155 258.391 150.154 264.355 150.154C270.319 150.154 275.135 155.155 275.135 161.347V176.708H279.838V161.347C279.838 155.155 284.654 150.154 290.618 150.154C296.582 150.154 301.399 155.155 301.399 161.347V176.708H306.216V161.347C306.216 152.417 299.334 145.272 290.733 145.272C285.228 145.272 280.411 148.249 277.659 152.774C274.906 148.249 270.089 145.272 264.584 145.272C260.455 145.272 256.671 146.939 253.803 149.797V145.986H253.574Z" fill="white"/>
<path fill-rule="evenodd" clip-rule="evenodd" d="M239.009 145.987H243.826V176.589H239.009V145.987ZM241.417 134.317C243.252 134.317 244.629 135.865 244.629 137.651C244.629 139.557 243.138 140.986 241.417 140.986C239.582 140.986 238.206 139.438 238.206 137.651C238.206 135.865 239.582 134.317 241.417 134.317Z" fill="white"/>
<path d="M4.81689 135.865H0V176.589H4.81689V135.865Z" fill="white"/>
</svg>
