<svg width="128" height="81" viewBox="0 0 128 81" fill="none" xmlns="http://www.w3.org/2000/svg">
<path d="M74.971 0.689847C74.971 0.927999 74.971 1.04707 74.971 1.28523C74.971 5.09565 74.971 8.78699 74.971 12.5974C74.971 12.8356 74.971 12.9546 74.971 13.1928C78.4116 13.1928 81.7375 13.1928 85.1782 13.1928C85.1782 16.1697 85.1782 19.0276 85.1782 21.8854C81.7375 21.8854 78.4116 21.8854 74.971 21.8854C74.971 22.0045 74.971 22.1235 74.971 22.2426C74.971 29.149 74.971 36.1744 74.971 43.0808C74.971 43.7953 75.2004 44.5097 75.5444 45.2242C76.0032 46.0577 76.806 46.4149 77.7235 46.4149C78.5263 46.4149 79.2144 46.1768 79.7878 45.8196C80.2466 45.5814 80.5907 45.3433 81.1641 45.4623C81.5082 45.4623 81.8522 45.5814 82.0816 45.8196C82.311 46.0577 82.4257 46.2958 82.655 46.534C83.9166 48.5583 85.1782 50.4635 86.4397 52.4878C86.4397 52.4878 86.4398 52.6069 86.5544 52.6069C86.4398 52.726 86.325 52.845 86.2104 52.9641C84.3754 54.2739 82.311 55.2265 80.0172 55.7028C77.7235 56.2982 75.4297 56.5364 73.0213 56.2982C70.3835 56.0601 67.975 55.2266 66.0253 53.4404C64.1903 51.8924 63.1581 49.749 62.6994 47.3675C62.47 46.1768 62.3553 44.986 62.3553 43.6762C62.3553 36.6507 62.3553 29.5062 62.3553 22.4808C62.3553 22.2426 62.3553 22.1235 62.3553 21.7663C62.126 21.7663 62.0113 21.7663 61.8966 21.7663C60.8644 21.7663 59.8322 21.7663 58.8 21.7663C58.4559 21.7663 58.2266 21.7663 57.8825 21.6472C56.965 21.4091 56.3915 20.5755 56.2769 19.6229C56.2769 19.1466 56.2769 18.7894 56.2769 18.3131C56.2769 17.1223 56.2769 16.0506 56.2769 14.8599C56.2769 14.7408 56.2769 14.5027 56.2769 14.2645C58.5706 13.7882 60.7497 13.431 63.0435 12.9547C63.2728 12.1212 63.3875 11.2876 63.6169 10.4541C64.1903 7.8344 64.8784 5.21474 65.4519 2.71415C65.7959 1.52339 66.4841 0.808923 67.631 0.689847C67.631 0.689847 67.7456 0.689876 67.7456 0.570801C70.2688 0.689876 72.6772 0.689847 74.971 0.689847Z" fill="white"/>
<path d="M126.695 49.1528C125.663 50.3436 124.516 51.5343 123.14 52.4869C120.502 54.3921 117.52 55.5829 114.423 56.0592C112.933 56.2973 111.442 56.4164 109.951 56.5355C105.134 56.6546 100.776 55.2257 96.991 52.1297C94.5825 50.1054 92.7476 47.3667 91.6007 44.3898C90.7979 42.3655 90.2245 40.2222 89.9951 37.9597C89.7657 36.2927 89.7657 34.7447 89.8804 33.0776C89.9951 29.8626 90.6832 26.7666 92.0594 23.7897C94.3532 18.7885 98.1378 15.4544 103.299 13.6683C105.019 13.0729 106.739 12.7157 108.574 12.5966C109.951 12.4775 111.327 12.4775 112.703 12.4775C117.979 12.7157 122.566 14.74 126.351 18.4313C126.466 18.5504 126.466 18.5504 126.58 18.6695C126.466 18.7886 126.351 18.9076 126.236 19.0267C125.319 20.2175 124.401 21.5273 123.484 22.718C123.14 23.0752 122.91 23.4325 122.566 23.7897C121.993 24.3851 121.305 24.6232 120.617 24.5041C120.043 24.5041 119.47 24.3851 118.896 24.0279C118.323 23.6707 117.749 23.3134 117.176 22.9562C116.144 22.3608 114.997 21.8845 113.85 21.7654C112.13 21.5273 110.409 21.5273 108.804 22.1226C107.083 22.718 105.822 23.9088 104.904 25.4568C104.216 26.6476 103.758 28.0764 103.528 29.5053C102.955 32.7204 102.955 35.9355 103.643 39.1505C103.987 40.9366 104.675 42.7227 105.937 44.1516C107.198 45.5805 108.689 46.5331 110.639 46.7713C112.015 47.0094 113.391 46.8903 114.768 46.5331C115.8 46.295 116.832 45.6996 117.635 45.1043C118.208 44.747 118.667 44.2707 119.24 43.9135C120.158 43.1991 121.19 43.199 122.337 43.4372C122.796 43.5563 123.14 43.9135 123.484 44.2707C124.631 45.6996 125.892 47.2476 127.039 48.6765C126.58 48.9147 126.695 49.0337 126.695 49.1528C126.695 49.0337 126.695 49.0337 126.695 49.1528Z" fill="white"/>
<path d="M0.997528 31.6487C0.997528 31.5297 1.11222 31.4106 1.11222 31.2915C1.3416 30.3389 1.80033 29.5054 2.48845 28.791C3.29126 27.8384 4.20878 27.1239 5.12628 26.4095C7.42003 24.7424 9.82845 23.4325 12.4663 22.7181C12.925 22.599 13.2691 22.48 13.7278 22.48C13.8425 22.8372 13.8425 55.1066 13.7278 55.702C13.6131 55.702 13.4984 55.702 13.3837 55.702C9.36969 55.702 5.35564 55.702 1.45627 55.702C1.34158 55.702 1.11222 55.7021 0.997528 55.583C0.997528 47.724 0.997528 39.7459 0.997528 31.6487Z" fill="white"/>
<path d="M52.7216 17.9547C52.6069 18.0738 52.6069 18.1929 52.4922 18.312C51.5747 19.6218 50.7719 21.0507 49.8544 22.3605C49.7397 22.4796 49.7397 22.5987 49.625 22.5987C49.0516 23.5513 48.134 23.9085 47.1019 23.7894C46.5284 23.7894 45.955 23.5513 45.4962 23.4322C44.2347 22.9559 43.0878 22.3605 41.8263 22.0033C40.106 21.4079 38.3856 21.2888 36.6653 21.527C35.8625 21.646 35.1744 21.8842 34.4862 22.3605C33.4541 23.075 33.11 24.3848 33.3394 25.5756C33.4541 26.1709 33.7981 26.5281 34.2569 26.8854C34.8303 27.3617 35.5184 27.838 36.3213 28.0761C37.6975 28.5524 39.0738 29.0287 40.45 29.505C42.5144 30.2195 44.5787 30.9339 46.6431 31.8865C48.2487 32.7201 49.7397 33.6727 50.8866 35.2206C52.1481 36.7686 52.8362 38.5547 52.9509 40.579C53.0656 42.8415 52.8362 45.1039 52.0334 47.2473C50.8866 50.1051 48.9369 52.2484 46.2991 53.6773C44.4641 54.749 42.3997 55.3444 40.3353 55.8207C38.615 56.178 37.0094 56.297 35.2891 56.297C30.7016 56.1779 26.3435 55.1062 22.3294 52.7247C21.6413 52.3675 21.0679 51.8912 20.4944 51.4149C20.3797 51.2959 20.265 51.1768 20.0357 51.0577C20.1504 50.9386 20.1503 50.8195 20.265 50.5814C21.0678 49.2716 21.9854 47.8426 22.7882 46.5328C22.9029 46.2946 23.1322 46.0565 23.2469 45.8184C23.935 44.9848 24.8525 44.5086 25.8847 44.5086C26.8022 44.5086 27.605 44.7467 28.2931 45.104C29.2106 45.5803 30.0135 46.0565 30.931 46.5328C32.6513 47.3663 34.3716 47.7236 36.3213 47.6045C37.2388 47.6045 38.0416 47.4854 38.9591 47.1282C40.106 46.6519 40.9088 45.8184 41.0234 44.5086C41.1381 43.556 40.9087 42.6034 40.2206 41.8889C39.6472 41.2935 38.8444 40.9363 38.1563 40.579C36.78 39.9837 35.4038 39.6265 34.0275 39.1502C31.8484 38.4357 29.6694 37.7212 27.605 36.6496C25.0819 35.3397 23.1322 33.3154 22.1 30.4576C21.756 29.505 21.5266 28.4334 21.4119 27.3617C21.1825 24.8611 21.5266 22.3605 22.6735 19.979C23.8203 17.7166 25.426 16.0496 27.605 14.7397C29.5547 13.549 31.7338 12.8345 34.0275 12.4773C35.8625 12.2391 37.6975 12.12 39.5325 12.2391C43.776 12.4772 47.6753 13.668 51.2306 16.2877C51.6894 17.0021 52.1481 17.4784 52.7216 17.9547Z" fill="white"/>
<path d="M1.22574 23.3132C1.45511 22.4796 1.79919 21.6462 2.02856 20.6936C2.71668 18.5503 3.51949 16.4069 4.20761 14.1445C4.55167 13.0728 5.35448 12.4775 6.50135 12.3584C6.73072 12.3584 7.0748 12.3584 7.30417 12.3584C9.25385 12.3584 11.3182 12.3584 13.2679 12.3584C13.3826 12.3584 13.6119 12.3584 13.8413 12.3584C13.8413 13.9064 13.8413 15.4543 13.8413 17.0022C13.2679 17.1213 12.6944 17.2404 12.121 17.3595C8.90977 17.9548 5.81324 19.2647 3.29013 21.408C2.71669 21.8843 2.14326 22.4797 1.56982 22.956C1.45513 23.075 1.34043 23.1941 1.34043 23.3132C1.34043 23.4322 1.22574 23.3132 1.22574 23.3132Z" fill="white"/>
<path d="M50.8866 80.5885C50.5425 80.5885 50.1984 80.5885 49.969 80.5885C49.7397 80.5885 49.625 80.3504 49.5103 80.2313C48.8222 79.1596 48.1341 78.0879 47.4459 77.0162C46.8725 76.0636 46.1844 75.1109 45.6109 74.1583C45.4962 74.0392 45.3816 73.9202 45.2669 73.8011C45.2669 74.2774 45.2669 74.6346 45.2669 75.1109C45.2669 75.5872 45.2669 75.9445 45.2669 76.4208C45.2669 76.8971 45.2669 77.3734 45.2669 77.8497C45.2669 78.326 45.2669 78.6833 45.2669 79.1596C45.2669 79.6359 45.2669 79.9931 45.2669 80.5885C45.0375 80.5885 44.9228 80.5885 44.6934 80.5885C44.5787 80.5885 44.3493 80.5885 44.2347 80.5885C44.12 80.2313 44.12 72.9675 44.12 71.7768C44.4641 71.6577 44.8081 71.6577 45.1522 71.7768C45.2669 71.7768 45.3815 72.0149 45.4962 72.134C46.7578 74.0392 47.9047 75.9445 49.1662 77.8497C49.2809 78.0879 49.5103 78.326 49.625 78.5642C49.7397 78.0879 49.625 77.6115 49.625 77.1352C49.625 76.6589 49.625 76.3017 49.625 75.8254C49.625 75.3491 49.625 74.8728 49.625 74.3965C49.625 73.9202 49.625 73.563 49.625 73.0867C49.625 72.6103 49.625 72.2531 49.625 71.6577C49.8544 71.6577 49.9691 71.6577 50.1984 71.6577C50.3131 71.6577 50.5425 71.6577 50.7719 71.6577C50.8866 74.6346 50.8866 77.6116 50.8866 80.5885Z" fill="white"/>
<path d="M110.868 71.7768C110.868 71.6577 110.868 71.6577 110.868 71.7768C112.015 71.6577 112.015 71.6577 112.474 72.4913C113.621 74.2774 114.882 76.1826 116.029 77.9688C116.144 78.0879 116.258 78.2069 116.373 78.326C116.373 76.0635 116.373 73.9202 116.373 71.6577C116.717 71.6577 117.061 71.6577 117.52 71.6577C117.52 74.6346 117.52 77.4925 117.52 80.4694C117.176 80.4694 116.832 80.4694 116.602 80.4694C116.488 80.4694 116.373 80.3504 116.258 80.2313C116.029 79.8741 115.8 79.5168 115.57 79.2786C114.423 77.6115 113.391 75.8254 112.244 74.1583C112.13 74.0392 112.015 73.9202 111.9 73.8011C111.9 76.0636 111.9 78.207 111.9 80.5885C111.556 80.5885 111.212 80.5885 110.868 80.5885C110.753 80.2313 110.753 72.4912 110.868 71.7768Z" fill="white"/>
<path d="M56.621 80.5885C56.621 77.6116 56.621 74.6346 56.621 71.6577C56.7357 71.6577 56.8503 71.6577 56.965 71.6577C57.9972 71.6577 59.0294 71.6577 60.1763 71.6577C62.0113 71.6577 63.1582 72.6103 63.5022 74.3965C63.8463 75.7063 63.7316 77.0162 63.2728 78.326C62.8141 79.6359 61.8966 80.3503 60.5203 80.4694C59.2588 80.5885 57.9972 80.5885 56.621 80.5885ZM57.7678 79.3977C57.8825 79.3977 57.8825 79.3977 57.9972 79.3977C58.6853 79.3977 59.3735 79.3977 60.0616 79.3977C61.0938 79.3977 61.7819 78.8023 62.126 77.7306C62.47 76.778 62.47 75.7063 62.2407 74.7537C62.2407 74.5155 62.126 74.2774 62.0113 74.0393C61.6672 73.3248 61.2085 72.7294 60.291 72.7294C59.6028 72.7294 59.0294 72.7294 58.3413 72.6103C58.1119 72.6103 57.8825 72.6103 57.6532 72.6103C57.7678 74.9919 57.7678 77.2543 57.7678 79.3977Z" fill="white"/>
<path d="M18.6594 76.0639C18.6594 75.4685 18.774 74.754 19.0034 74.1586C19.6915 72.2534 21.4119 71.1817 23.2469 71.5389C25.4259 71.777 26.5728 73.4442 26.8022 75.5875C26.9169 76.6592 26.8022 77.6119 26.2288 78.5645C25.3113 80.3506 23.1322 80.946 21.9853 80.5888C19.6915 80.1125 18.7741 78.2073 18.6594 76.4211C18.6594 76.302 18.6594 76.183 18.6594 76.0639ZM19.8062 76.0639C19.9209 76.5402 19.9209 77.0165 19.9209 77.3737C20.1503 78.6835 21.1825 79.5171 22.3294 79.6362C23.935 79.7553 24.8525 78.9217 25.1966 77.9691C25.6553 76.6592 25.6553 75.3494 25.0819 74.0396C24.6231 72.9679 23.4763 72.3725 22.3294 72.4916C21.1825 72.6106 20.265 73.325 19.9209 74.5158C19.9209 75.1112 19.8062 75.5876 19.8062 76.0639Z" fill="white"/>
<path d="M97.4497 76.0639C97.4497 75.4685 97.5644 74.8731 97.6791 74.1587C98.2525 72.2535 100.088 71.1819 102.037 71.42C104.102 71.6582 105.363 73.3252 105.592 75.4685C105.707 76.4211 105.592 77.3737 105.134 78.3262C104.331 79.9932 102.496 80.8267 100.776 80.4695C98.3672 80.1123 97.4497 77.9691 97.4497 76.0639ZM98.5966 76.0639C98.7113 76.5402 98.7112 77.0165 98.8259 77.3737C99.0553 78.5644 99.9728 79.517 101.12 79.6361C102.496 79.7551 103.528 79.2788 104.102 78.2072C104.79 76.7783 104.675 75.3495 103.987 74.0397C103.413 72.968 102.496 72.4917 101.234 72.6108C100.088 72.7298 99.2847 73.3252 98.9406 74.5159C98.7113 74.9922 98.7113 75.5876 98.5966 76.0639Z" fill="white"/>
<path d="M73.7094 77.8496C72.4478 77.8496 71.3009 77.8496 70.154 77.8496C69.81 78.6832 69.5806 79.6357 69.2365 80.4692C68.7778 80.4692 68.4337 80.4692 67.975 80.4692C69.0072 77.4924 70.154 74.6346 71.1862 71.6577C71.4156 71.6577 71.645 71.6577 71.8744 71.6577C72.1037 71.6577 72.2184 71.6577 72.4478 71.6577C73.5947 74.6346 74.7415 77.4924 75.8884 80.4692C75.4297 80.4692 75.0856 80.4692 74.6269 80.4692C74.3975 79.6357 74.0534 78.8022 73.7094 77.8496ZM73.2506 76.897C72.7919 75.4681 72.3331 74.1583 71.8744 72.8485C71.4156 74.1583 70.9569 75.5872 70.4981 76.897C71.4156 76.897 72.3331 76.897 73.2506 76.897Z" fill="white"/>
<path d="M37.4681 71.6577C37.8122 71.6577 38.1562 71.6577 38.615 71.6577C38.615 71.7768 38.615 71.8959 38.615 72.0149C38.615 73.682 38.615 75.349 38.615 77.0161C38.615 77.4924 38.5003 78.0877 38.3856 78.564C38.1563 79.3976 37.6975 79.9929 36.8947 80.3502C35.7478 80.8265 34.6009 80.8265 33.454 80.3502C32.7659 79.9929 32.3072 79.5167 32.0778 78.8022C31.9631 78.445 31.8484 78.2069 31.8484 77.8496C31.8484 75.8254 31.8484 73.801 31.8484 71.7768C32.1925 71.7768 32.5365 71.7768 32.8806 71.7768C32.8806 71.8958 32.8806 72.134 32.8806 72.2531C32.8806 73.8011 32.8806 75.2299 32.8806 76.7779C32.8806 77.1351 32.8806 77.6114 32.9953 77.9687C33.11 78.9213 33.5687 79.3976 34.4862 79.6358C34.945 79.7548 35.5184 79.7548 35.9772 79.5166C36.5506 79.3976 37.0094 78.9213 37.1241 78.3259C37.2388 77.8496 37.2387 77.3733 37.3534 76.7779C37.3534 75.2299 37.3534 73.8011 37.3534 72.2531C37.4681 72.134 37.4681 71.8959 37.4681 71.6577Z" fill="white"/>
<path d="M13.7278 71.6577C13.7278 72.0149 13.7278 72.3721 13.7278 72.7294C12.2369 72.7294 10.746 72.7294 9.14034 72.7294C9.14034 73.682 9.14034 74.5156 9.14034 75.4682C10.4019 75.4682 11.6634 75.4682 13.0397 75.4682C13.0397 75.8254 13.0397 76.1826 13.0397 76.5398C11.7781 76.6589 10.5166 76.5398 9.14034 76.5398C9.14034 77.8497 9.14034 79.1596 9.14034 80.5885C8.79628 80.5885 8.45222 80.5885 7.99347 80.5885C7.99347 77.6116 7.99347 74.7537 7.99347 71.7768C9.94315 71.6577 11.7781 71.6577 13.7278 71.6577Z" fill="white"/>
<path d="M85.7515 71.6577C85.7515 72.0149 85.7515 72.253 85.7515 72.7293C84.834 72.7293 83.9166 72.7293 82.9991 72.7293C82.9991 75.349 82.9991 77.9687 82.9991 80.4692C82.655 80.4692 82.3109 80.4692 81.8522 80.4692C81.8522 77.8496 81.8522 75.349 81.8522 72.7293C80.9347 72.7293 80.0172 72.7293 79.0997 72.7293C79.0997 72.3721 79.0997 72.0149 79.0997 71.7768C79.4438 71.6577 84.834 71.6577 85.7515 71.6577Z" fill="white"/>
<path d="M92.0594 71.6577C92.0594 74.6346 92.0594 77.4924 92.0594 80.4692C91.7153 80.4692 91.3713 80.4692 91.0272 80.4692C91.0272 77.4924 91.0272 74.6346 91.0272 71.6577C91.3713 71.6577 91.7153 71.6577 92.0594 71.6577Z" fill="white"/>
</svg>
