<svg width="27" height="27" viewBox="0 0 27 27" fill="none" xmlns="http://www.w3.org/2000/svg">
<path d="M12.1837 0.0722215C3.57358 0.91634 -2.78495 11.0534 2.35445 20.0599C1.58106 22.3822 0.731479 24.6319 0 27C1.26866 26.6944 2.35445 26.2896 3.60025 25.8885C4.73557 25.5218 6.21376 24.7121 7.33765 24.777C8.14152 24.8229 8.99872 25.5295 9.6921 25.7472C18.8661 28.6233 27.019 21.5457 27 13.116C26.9771 5.1293 20.3138 -0.722243 12.1837 0.0722215ZM17.0298 19.7811C13.4486 19.6168 8.52631 15.0792 7.33765 11.7295C6.63284 9.74331 7.44433 5.94287 10.5226 6.87102C11.3036 8.50578 12.5075 10.9197 10.5226 12.0083C11.5322 14.1434 13.1971 15.6216 15.3687 16.5879C16.0925 16.1105 16.565 15.381 17.1669 14.7813C18.4279 15.274 19.6052 15.8546 20.63 16.5879C20.7367 18.979 18.7289 19.8613 17.0298 19.7811Z" fill="white"/>
</svg>
