<svg width="275" height="81" viewBox="0 0 275 81" fill="none" xmlns="http://www.w3.org/2000/svg">
<path d="M129.888 22.7176C129.888 22.8367 129.773 23.0749 129.659 23.194C129.544 23.313 129.429 23.4321 129.2 23.4321C128.971 23.4321 128.741 23.3131 128.627 23.0749L127.136 19.3836H118.878L117.387 23.0749C117.272 23.3131 117.158 23.4321 116.814 23.4321C116.584 23.4321 116.47 23.313 116.355 23.194C116.24 23.0749 116.24 22.9558 116.24 22.7176C116.24 22.5986 116.24 22.4796 116.355 22.4796L122.548 7.35718C122.663 7.11904 122.892 6.88086 123.121 6.88086C123.351 6.88086 123.58 6.99996 123.695 7.35718L129.888 22.4796C129.888 22.4796 129.888 22.5986 129.888 22.7176ZM126.792 18.0738L123.121 8.90513L119.452 18.0738H126.792Z" fill="white"/>
<path d="M138.26 12.3581C138.26 12.4771 138.26 12.4771 138.26 12.4771C138.26 12.5962 138.146 12.7152 138.031 12.8343C137.916 12.9534 137.802 12.9534 137.687 12.9534C137.572 12.9534 137.458 12.9534 137.228 12.9534C136.999 12.9534 136.884 12.9534 136.769 12.9534C136.081 12.9534 135.508 13.0725 134.934 13.4297C134.361 13.6678 134.017 14.1441 133.673 14.6205C133.329 15.0968 133.214 15.6921 133.214 16.4066V22.8367C133.214 23.0749 133.214 23.1939 133.099 23.313C132.985 23.4321 132.87 23.5511 132.641 23.5511C132.411 23.5511 132.297 23.4321 132.182 23.313C132.067 23.1939 131.953 23.0749 131.953 22.8367V12.4771C131.953 12.2389 132.067 12.1198 132.182 12.0008C132.297 11.8817 132.411 11.8817 132.641 11.8817C132.87 11.8817 132.985 11.8817 133.099 12.0008C133.214 12.1198 133.214 12.2389 133.214 12.4771V13.7869C133.558 13.1915 134.132 12.5962 134.705 12.2389C135.279 11.8817 135.967 11.6436 136.655 11.6436C137.802 11.6436 138.26 11.8818 138.26 12.3581Z" fill="white"/>
<path d="M154.775 12.2389C155.463 12.7152 155.922 13.1915 156.266 14.025C156.61 14.7395 156.84 15.6921 156.84 16.6447V22.7174C156.84 22.9555 156.84 23.0746 156.725 23.1937C156.61 23.3128 156.496 23.4319 156.266 23.4319C156.037 23.4319 155.922 23.3128 155.807 23.1937C155.693 23.0746 155.578 22.9555 155.578 22.7174V16.6447C155.578 15.573 155.349 14.6204 154.775 14.025C154.202 13.3106 153.514 12.9534 152.596 12.9534C151.679 12.9534 150.876 13.3106 150.303 13.906C149.729 14.5014 149.385 15.454 149.5 16.5256V16.6447V22.7174C149.5 22.9555 149.5 23.0746 149.385 23.1937C149.27 23.3128 149.156 23.4319 148.926 23.4319C148.697 23.4319 148.582 23.3128 148.468 23.1937C148.353 23.0746 148.238 22.9555 148.238 22.7174V16.6447C148.238 15.573 148.009 14.6204 147.435 14.025C146.862 13.3106 146.174 12.9534 145.256 12.9534C144.339 12.9534 143.536 13.3106 142.963 13.906C142.389 14.5014 142.045 15.3349 142.045 16.2875V22.7174C142.045 22.9555 142.045 23.0746 141.93 23.1937C141.816 23.3128 141.701 23.4319 141.472 23.4319C141.242 23.4319 141.128 23.3128 141.013 23.1937C140.898 23.0746 140.783 22.9555 140.783 22.7174V12.4771C140.783 12.2389 140.898 12.1198 141.013 12.0008C141.128 11.8817 141.242 11.8817 141.472 11.8817C141.701 11.8817 141.816 11.8817 141.93 12.0008C142.045 12.1198 142.045 12.2389 142.045 12.4771V13.3106C142.389 12.8343 142.848 12.358 143.421 12.1199C143.995 11.8817 144.568 11.6436 145.256 11.6436C146.059 11.6436 146.747 11.8817 147.321 12.2389C147.894 12.5961 148.467 13.1915 148.812 13.906C149.156 13.1915 149.729 12.5961 150.303 12.2389C150.991 11.8817 151.679 11.6436 152.482 11.6436C153.514 11.6436 154.202 11.8817 154.775 12.2389Z" fill="white"/>
<path d="M167.62 12.3583C168.423 12.8346 168.997 13.549 169.455 14.3826C169.914 15.2161 170.143 16.1687 170.143 17.3595C170.143 17.5977 170.143 17.7168 170.029 17.8359C169.914 17.9549 169.799 17.9549 169.57 17.9549H161.083C161.083 18.7884 161.312 19.5029 161.657 20.2174C162.001 20.8128 162.574 21.4081 163.147 21.7654C163.836 22.1226 164.524 22.3608 165.327 22.3608C165.9 22.3608 166.359 22.2417 166.932 22.1226C167.506 21.8844 167.85 21.6463 168.194 21.4082C168.308 21.2891 168.423 21.2891 168.653 21.2891C168.767 21.2891 168.882 21.2891 168.997 21.4082C169.111 21.5272 169.226 21.6463 169.226 21.8845C169.226 22.0036 169.111 22.1226 168.997 22.2417C168.538 22.5989 167.964 22.9561 167.276 23.3134C166.588 23.5515 165.9 23.6707 165.327 23.6707C164.294 23.6707 163.262 23.4325 162.459 22.9561C161.656 22.4798 160.968 21.7654 160.51 20.8128C160.051 19.8602 159.821 18.9075 159.821 17.8359C159.821 16.6451 160.051 15.6925 160.51 14.7399C160.968 13.7873 161.542 13.1918 162.345 12.5964C163.147 12.1201 164.065 11.882 165.097 11.882C165.9 11.6438 166.818 11.882 167.62 12.3583ZM162.23 13.9063C161.542 14.6208 161.083 15.5734 160.968 16.7641H168.882C168.767 15.5734 168.423 14.6208 167.62 13.9063C166.932 13.1919 166.015 12.8346 164.868 12.8346C163.836 12.8346 162.918 13.1919 162.23 13.9063Z" fill="white"/>
<path d="M180.465 12.2389C181.268 12.7152 181.842 13.3106 182.3 14.1441C182.759 14.9777 182.988 15.9302 182.988 17.0019V22.7174C182.988 22.9555 182.874 23.0746 182.759 23.1937C182.644 23.3128 182.53 23.4319 182.3 23.4319C182.071 23.4319 181.956 23.3128 181.842 23.1937C181.727 23.0746 181.612 22.9555 181.612 22.7174V17.0019C181.612 15.6921 181.268 14.6204 180.58 13.906C179.892 13.1915 178.86 12.8343 177.713 12.8343C177.025 12.8343 176.336 12.9534 175.763 13.3106C175.19 13.5488 174.731 14.0251 174.387 14.5014C174.043 14.9776 173.928 15.573 173.928 16.1683V22.5984C173.928 22.8365 173.928 22.9556 173.813 23.0747C173.699 23.1938 173.584 23.3128 173.355 23.3128C173.125 23.3128 173.011 23.1938 172.896 23.0747C172.781 22.9556 172.667 22.8365 172.667 22.5984V12.4771C172.667 12.2389 172.781 12.1198 172.896 12.0008C173.011 11.8817 173.125 11.8817 173.355 11.8817C173.584 11.8817 173.699 11.8817 173.813 12.0008C173.928 12.1198 173.928 12.2389 173.928 12.4771V13.5488C174.387 12.9534 174.96 12.4771 175.648 12.1199C176.336 11.7627 177.025 11.6436 177.827 11.6436C178.745 11.6436 179.662 11.8817 180.465 12.2389Z" fill="white"/>
<path d="M188.035 7.59559C188.264 7.71466 188.264 7.95278 188.264 8.31001C188.264 8.54816 188.149 8.78628 188.035 9.02444C187.805 9.26259 187.576 9.2626 187.346 9.2626C187.117 9.2626 186.888 9.14351 186.658 9.02444C186.429 8.78628 186.429 8.54816 186.429 8.31001C186.429 7.95278 186.544 7.71466 186.658 7.59559C186.888 7.47651 187.117 7.35742 187.346 7.35742C187.691 7.35742 187.805 7.47651 188.035 7.59559ZM186.888 12.0013C187.003 11.8822 187.117 11.8823 187.346 11.8823C187.576 11.8823 187.691 11.8822 187.805 12.0013C187.92 12.1204 187.92 12.2395 187.92 12.4777V22.7181C187.92 22.9563 187.92 23.0754 187.805 23.1945C187.691 23.3135 187.576 23.4326 187.346 23.4326C187.117 23.4326 187.003 23.3135 186.888 23.1945C186.773 23.0754 186.658 22.9563 186.658 22.7181V12.4777C186.773 12.2395 186.773 12.1204 186.888 12.0013Z" fill="white"/>
<path d="M200.077 12.4771C200.994 12.9534 201.568 13.6679 202.141 14.6205C202.6 15.5731 202.829 16.5257 202.829 17.5974V22.7176C202.829 22.9558 202.829 23.0749 202.715 23.194C202.6 23.313 202.485 23.4321 202.256 23.4321C202.026 23.4321 201.912 23.313 201.797 23.194C201.682 23.0749 201.568 22.9558 201.568 22.7176V21.0506C201.109 21.7651 200.536 22.3604 199.733 22.8367C198.93 23.3131 198.127 23.4321 197.095 23.4321C196.063 23.4321 195.031 23.1939 194.228 22.7176C193.31 22.2413 192.622 21.5269 192.164 20.5743C191.705 19.6217 191.475 18.6691 191.475 17.5974C191.475 16.5257 191.705 15.454 192.164 14.6205C192.622 13.6679 193.31 12.9534 194.228 12.4771C195.145 12.0008 196.063 11.7627 197.095 11.7627C198.242 11.6436 199.159 11.8817 200.077 12.4771ZM199.389 21.646C200.077 21.2888 200.65 20.6933 200.994 19.9789C201.338 19.2644 201.568 18.4309 201.568 17.5974C201.568 16.7638 201.338 15.9303 200.994 15.2158C200.65 14.5014 200.077 13.9061 199.389 13.5488C198.701 13.1916 197.898 12.9534 197.095 12.9534C196.292 12.9534 195.489 13.1916 194.801 13.5488C194.113 13.9061 193.54 14.5014 193.196 15.2158C192.852 15.9303 192.622 16.7638 192.622 17.5974C192.622 18.4309 192.852 19.2644 193.196 19.9789C193.54 20.6933 194.113 21.2888 194.801 21.646C195.489 22.0032 196.292 22.2414 197.095 22.2414C198.012 22.2414 198.701 22.1223 199.389 21.646Z" fill="white"/>
<path d="M129.544 33.4344C129.659 33.3153 129.773 33.1963 130.003 33.1963C130.117 33.1963 130.347 33.3153 130.462 33.4344C130.576 33.5535 130.691 33.6726 130.691 33.9107V49.1523C130.691 49.3904 130.576 49.5096 130.462 49.6286C130.347 49.7477 130.232 49.8668 130.003 49.8668C129.773 49.8668 129.659 49.7477 129.544 49.6286L119.222 35.6968V49.2714C119.222 49.5096 119.108 49.6286 118.993 49.7477C118.878 49.8668 118.763 49.9858 118.534 49.9858C118.305 49.9858 118.19 49.8668 118.075 49.7477C117.961 49.6286 117.846 49.5096 117.846 49.2714V33.9107C117.846 33.6726 117.961 33.5535 118.075 33.4344C118.19 33.3153 118.305 33.1963 118.534 33.1963C118.763 33.1963 118.878 33.3153 118.993 33.4344L129.315 47.3662V33.9107C129.315 33.6726 129.429 33.5535 129.544 33.4344Z" fill="white"/>
<path d="M142.389 38.793C143.307 39.2693 143.88 39.9838 144.454 40.9364C144.912 41.889 145.142 42.8416 145.142 43.9133V49.0335C145.142 49.2717 145.142 49.3907 145.027 49.5098C144.912 49.6288 144.798 49.7479 144.568 49.7479C144.339 49.7479 144.224 49.6288 144.109 49.5098C143.995 49.3907 143.88 49.2717 143.88 49.0335V47.3664C143.421 48.0809 142.848 48.6763 142.045 49.1526C141.242 49.6288 140.439 49.7479 139.407 49.7479C138.375 49.7479 137.343 49.5098 136.54 49.0335C135.623 48.5572 134.934 47.8428 134.476 46.8902C134.017 45.9376 133.787 44.985 133.787 43.9133C133.787 42.8416 134.017 41.77 134.476 40.9364C134.934 39.9838 135.623 39.3884 136.54 38.793C137.458 38.3167 138.375 38.0786 139.407 38.0786C140.554 38.0786 141.472 38.3167 142.389 38.793ZM141.816 48.0809C142.504 47.7237 143.077 47.1283 143.421 46.4138C143.765 45.6994 143.995 44.8659 143.995 44.0324C143.995 43.1988 143.765 42.3653 143.421 41.6509C143.077 40.9364 142.504 40.341 141.816 39.9838C141.127 39.6266 140.325 39.3884 139.522 39.3884C138.719 39.3884 137.916 39.6266 137.228 39.9838C136.54 40.341 135.967 40.9364 135.622 41.6509C135.278 42.3653 135.049 43.1988 135.049 44.0324C135.049 44.8659 135.278 45.6994 135.622 46.4138C135.967 47.1283 136.54 47.7237 137.228 48.0809C137.916 48.4381 138.719 48.6763 139.522 48.6763C140.325 48.6763 141.127 48.4381 141.816 48.0809Z" fill="white"/>
<path d="M153.743 48.5571C153.858 48.6761 153.972 48.7952 153.972 49.0334C153.972 49.2715 153.858 49.3906 153.743 49.5096C153.628 49.6287 153.514 49.7478 153.284 49.7478H152.826C152.023 49.7478 151.449 49.6288 150.876 49.2715C150.302 48.9143 149.844 48.438 149.5 47.8426C149.156 47.2473 149.041 46.5328 149.041 45.8184V39.8646H147.435C147.321 39.8646 147.091 39.8646 147.091 39.7456C146.977 39.6265 146.977 39.5074 146.977 39.3883C146.977 39.2692 146.977 39.0311 147.091 39.0311C147.206 38.912 147.321 38.912 147.435 38.912H149.041V35.1016C149.041 34.8635 149.156 34.7444 149.27 34.6253C149.385 34.5062 149.5 34.3872 149.729 34.3872C149.958 34.3872 150.073 34.5062 150.188 34.6253C150.303 34.7444 150.417 34.8635 150.417 35.1016V38.5548H153.055C153.17 38.5548 153.399 38.5548 153.399 38.6739C153.514 38.7929 153.514 38.912 153.514 39.0311C153.514 39.1502 153.514 39.3883 153.399 39.3883C153.284 39.5074 153.17 39.5074 153.055 39.5074H150.417V45.4611C150.417 46.2947 150.647 46.8901 151.105 47.4854C151.564 47.9617 152.252 48.1998 152.94 48.1998H153.399C153.399 48.438 153.628 48.438 153.743 48.5571Z" fill="white"/>
<path d="M158.101 34.0301C158.33 34.1492 158.331 34.3874 158.331 34.7446C158.331 34.9827 158.216 35.2209 158.101 35.459C157.872 35.6972 157.642 35.6972 157.413 35.6972C157.184 35.6972 156.954 35.5781 156.725 35.459C156.496 35.2209 156.496 34.9827 156.496 34.7446C156.496 34.3874 156.61 34.1492 156.725 34.0301C156.954 33.911 157.184 33.792 157.413 33.792C157.642 33.792 157.872 33.911 158.101 34.0301ZM156.954 38.3168C157.069 38.1978 157.184 38.1977 157.413 38.1977C157.642 38.1977 157.757 38.1978 157.872 38.3168C157.987 38.4359 157.986 38.5549 157.986 38.7931V49.0336C157.986 49.2718 157.987 49.3908 157.872 49.5099C157.757 49.629 157.642 49.748 157.413 49.748C157.184 49.748 157.069 49.629 156.954 49.5099C156.84 49.3908 156.725 49.2718 156.725 49.0336V38.7931C156.84 38.5549 156.84 38.4359 156.954 38.3168Z" fill="white"/>
<path d="M170.029 38.793C170.946 39.2693 171.52 39.9838 172.093 40.9364C172.552 41.889 172.781 42.8416 172.781 43.9133C172.781 44.985 172.552 46.0567 172.093 46.8902C171.634 47.8428 170.946 48.5572 170.029 49.0335C169.111 49.5098 168.194 49.7479 167.162 49.7479C166.129 49.7479 165.097 49.5098 164.294 49.0335C163.377 48.5572 162.689 47.8428 162.23 46.8902C161.771 45.9376 161.542 44.985 161.542 43.9133C161.542 42.8416 161.771 41.77 162.23 40.9364C162.689 39.9838 163.377 39.3884 164.294 38.793C165.212 38.3167 166.129 38.0786 167.162 38.0786C168.194 38.0786 169.226 38.3167 170.029 38.793ZM164.868 39.8647C164.18 40.222 163.606 40.8174 163.262 41.5318C162.918 42.2463 162.689 43.0798 162.689 43.9133C162.689 44.7468 162.918 45.5804 163.262 46.2948C163.606 47.0092 164.18 47.6046 164.868 47.9618C165.556 48.319 166.359 48.5572 167.162 48.5572C167.964 48.5572 168.767 48.319 169.455 47.9618C170.143 47.6046 170.717 47.0092 171.061 46.2948C171.405 45.5804 171.634 44.7468 171.634 43.9133C171.634 43.0798 171.405 42.2463 171.061 41.5318C170.717 40.8174 170.143 40.222 169.455 39.8647C168.767 39.5075 167.964 39.2694 167.162 39.2694C166.359 39.2694 165.556 39.3884 164.868 39.8647Z" fill="white"/>
<path d="M183.677 38.6739C184.479 39.1502 185.053 39.7456 185.511 40.5791C185.97 41.4126 186.2 42.3653 186.2 43.4369V49.1526C186.2 49.3907 186.085 49.5098 185.97 49.6289C185.856 49.748 185.741 49.8671 185.511 49.8671C185.282 49.8671 185.167 49.748 185.053 49.6289C184.938 49.5098 184.823 49.3907 184.823 49.1526V43.4369C184.823 42.1271 184.479 41.0554 183.791 40.341C183.103 39.6265 182.071 39.2693 180.924 39.2693C180.236 39.2693 179.548 39.3884 178.974 39.7456C178.401 39.9838 177.942 40.4601 177.598 40.9364C177.254 41.4127 177.139 42.008 177.139 42.6034V49.0335C177.139 49.2717 177.139 49.3907 177.025 49.5098C176.91 49.6289 176.795 49.7479 176.566 49.7479C176.337 49.7479 176.222 49.6289 176.107 49.5098C175.992 49.3907 175.878 49.2717 175.878 49.0335V38.7929C175.878 38.5548 175.992 38.4358 176.107 38.3167C176.222 38.1976 176.337 38.1976 176.566 38.1976C176.795 38.1976 176.91 38.1976 177.025 38.3167C177.139 38.4358 177.139 38.5548 177.139 38.7929V39.8647C177.598 39.2693 178.172 38.793 178.86 38.4357C179.548 38.0785 180.236 37.9595 181.039 37.9595C181.956 38.0785 182.874 38.1976 183.677 38.6739Z" fill="white"/>
<path d="M197.554 38.793C198.471 39.2693 199.045 39.9838 199.618 40.9364C200.077 41.889 200.306 42.8416 200.306 43.9133V49.0335C200.306 49.2717 200.306 49.3907 200.192 49.5098C200.077 49.6288 199.962 49.7479 199.733 49.7479C199.503 49.7479 199.389 49.6288 199.274 49.5098C199.159 49.3907 199.045 49.2717 199.045 49.0335V47.3664C198.586 48.0809 198.013 48.6763 197.21 49.1526C196.407 49.6288 195.604 49.7479 194.572 49.7479C193.54 49.7479 192.508 49.5098 191.705 49.0335C190.787 48.5572 190.099 47.8428 189.64 46.8902C189.181 45.9376 188.952 44.985 188.952 43.9133C188.952 42.8416 189.181 41.77 189.64 40.9364C190.099 39.9838 190.787 39.3884 191.705 38.793C192.622 38.3167 193.54 38.0786 194.572 38.0786C195.719 38.0786 196.751 38.3167 197.554 38.793ZM196.98 48.0809C197.668 47.7237 198.242 47.1283 198.586 46.4138C198.93 45.6994 199.159 44.8659 199.159 44.0324C199.159 43.1988 198.93 42.3653 198.586 41.6509C198.242 40.9364 197.668 40.341 196.98 39.9838C196.292 39.6266 195.489 39.3884 194.687 39.3884C193.884 39.3884 193.081 39.6266 192.393 39.9838C191.705 40.341 191.131 40.9364 190.787 41.6509C190.443 42.3653 190.214 43.1988 190.214 44.0324C190.214 44.8659 190.443 45.6994 190.787 46.4138C191.131 47.1283 191.705 47.7237 192.393 48.0809C193.081 48.4381 193.884 48.6763 194.687 48.6763C195.489 48.6763 196.292 48.4381 196.98 48.0809Z" fill="white"/>
<path d="M203.173 33.4345C203.288 33.3154 203.403 33.3154 203.632 33.3154C203.862 33.3154 203.976 33.3154 204.091 33.4345C204.206 33.5536 204.206 33.6727 204.206 33.9108V46.2948C204.206 46.8901 204.32 47.4855 204.55 47.8427C204.779 48.2 205.123 48.4381 205.582 48.4381H206.041C206.155 48.4381 206.27 48.4381 206.385 48.5572C206.499 48.6762 206.499 48.7953 206.499 49.0335C206.499 49.2716 206.499 49.3907 206.385 49.5098C206.27 49.6288 206.155 49.7479 205.926 49.7479H205.467C204.664 49.7479 204.091 49.3907 203.517 48.7953C203.059 48.1999 202.829 47.3664 202.829 46.2948V33.9108C202.944 33.6727 203.059 33.5536 203.173 33.4345Z" fill="white"/>
<path d="M222.326 33.7919C223.129 34.2682 223.817 34.8636 224.161 35.578C224.161 35.6971 224.276 35.8162 224.276 35.9353C224.276 36.0543 224.276 36.1734 224.161 36.2925C224.047 36.4115 224.047 36.4116 223.932 36.5306C223.932 36.5306 223.817 36.5306 223.703 36.5306C223.473 36.5306 223.244 36.4116 223.129 36.1734C222.326 34.9827 221.179 34.3873 219.688 34.3873C218.542 34.3873 217.739 34.6254 217.051 35.2208C216.477 35.6971 216.133 36.5306 216.133 37.4832C216.133 38.3167 216.477 38.9121 217.051 39.5075C217.624 39.9838 218.656 40.4601 219.918 40.6982C221.638 40.9364 222.9 41.5317 223.703 42.3653C224.505 43.1988 224.849 44.1514 224.849 45.4612C224.849 46.4138 224.62 47.2473 224.276 47.9618C223.817 48.6762 223.244 49.2716 222.556 49.6289C221.753 49.9861 220.95 50.2242 219.918 50.2242C218.656 50.2242 217.509 49.9861 216.592 49.3907C215.674 48.7953 214.986 48.0809 214.528 47.1283C214.528 47.0092 214.413 47.0092 214.413 46.8902C214.413 46.7711 214.528 46.5329 214.642 46.4138C214.757 46.2948 214.872 46.2948 215.101 46.2948C215.33 46.2948 215.56 46.4138 215.674 46.652C216.019 47.3664 216.592 47.8427 217.28 48.319C217.968 48.6762 218.886 48.9144 219.918 48.9144C221.065 48.9144 221.982 48.5572 222.67 47.9618C223.358 47.3664 223.703 46.5329 223.703 45.3421C223.703 44.3895 223.358 43.556 222.67 42.9606C221.982 42.3653 221.065 41.889 219.803 41.7699C218.312 41.5317 217.165 41.0554 216.248 40.2219C215.33 39.3884 214.986 38.4358 214.986 37.3642C214.986 36.5306 215.216 35.8161 215.56 35.2208C215.904 34.6254 216.477 34.1491 217.28 33.7919C217.968 33.4347 218.886 33.3156 219.803 33.3156C220.606 33.0774 221.523 33.3156 222.326 33.7919Z" fill="white"/>
<path d="M236.547 34.2681C237.809 34.9826 238.727 35.9352 239.415 37.245C240.103 38.4357 240.447 39.8647 240.447 41.5317C240.447 43.0797 240.103 44.5086 239.415 45.8184C238.727 47.1282 237.809 48.0808 236.547 48.7952C235.286 49.5097 234.024 49.8669 232.419 49.8669H228.749C228.519 49.8669 228.405 49.7479 228.29 49.6288C228.175 49.5097 228.061 49.3906 228.061 49.1525V33.9109C228.061 33.6728 228.175 33.5537 228.29 33.4346C228.405 33.3155 228.519 33.3155 228.749 33.3155H232.419C233.91 33.1965 235.286 33.5537 236.547 34.2681ZM235.859 47.6045C236.892 47.0091 237.694 46.1756 238.268 45.104C238.841 44.0323 239.185 42.8415 239.185 41.4126C239.185 39.9837 238.841 38.793 238.268 37.7213C237.694 36.6496 236.892 35.8161 235.859 35.2207C234.827 34.6253 233.68 34.2681 232.419 34.2681H229.322V48.438H232.419C233.68 48.5571 234.827 48.3189 235.859 47.6045Z" fill="white"/>
<path d="M255.356 41.8887C255.471 42.0078 255.586 42.1268 255.586 42.365V47.7234C255.586 47.8425 255.586 47.9615 255.586 47.9615C255.586 48.0806 255.586 48.0806 255.471 48.1997C254.324 49.3905 252.604 49.9858 250.425 49.9858C249.048 49.9858 247.672 49.6286 246.411 48.7951C245.149 48.0806 244.232 47.009 243.543 45.6992C242.855 44.3893 242.511 42.9604 242.511 41.5315C242.511 39.9836 242.855 38.6737 243.543 37.3639C244.232 36.0541 245.264 34.9824 246.411 34.2679C247.672 33.5534 248.934 33.0771 250.425 33.0771C252.374 33.0771 253.98 33.6726 255.471 34.9824C255.586 35.1015 255.7 35.2205 255.7 35.4587C255.7 35.5777 255.7 35.8159 255.586 35.935C255.471 36.0541 255.356 36.1731 255.127 36.1731C255.012 36.1731 254.783 36.0541 254.668 35.935C253.636 34.9824 252.26 34.5061 250.539 34.5061C249.393 34.5061 248.246 34.8633 247.213 35.4587C246.181 36.1731 245.378 37.0066 244.69 38.0783C244.117 39.15 243.773 40.3407 243.773 41.6506C243.773 42.9604 244.117 44.1512 244.69 45.2228C245.264 46.2945 246.067 47.2471 247.099 47.8425C248.131 48.4379 249.278 48.7951 250.425 48.7951C251.916 48.7951 253.177 48.3188 254.324 47.4853V42.9604H250.883C250.654 42.9604 250.539 42.9604 250.425 42.8413C250.31 42.7223 250.195 42.6031 250.195 42.365C250.195 42.2459 250.31 42.1269 250.425 42.0078C250.539 41.8887 250.654 41.8887 250.883 41.8887H254.897C255.012 41.6506 255.242 41.7697 255.356 41.8887Z" fill="white"/>
<path d="M118.19 59.8694C118.419 59.6313 118.649 59.5122 118.993 59.5122C119.337 59.5122 119.566 59.6313 119.796 59.8694C120.025 60.1076 120.14 60.3457 120.14 60.703V74.9919C120.14 75.3491 120.025 75.5873 119.796 75.8254C119.566 76.0636 119.337 76.1826 118.993 76.1826C118.649 76.1826 118.419 76.0636 118.19 75.8254C117.961 75.5873 117.846 75.3491 117.846 74.9919V60.703C117.961 60.3457 118.075 60.1076 118.19 59.8694Z" fill="white"/>
<path d="M131.953 65.1088C132.641 65.5851 133.329 66.1805 133.673 67.014C134.132 67.8475 134.246 68.8001 134.246 69.9909V75.2302C134.246 75.5875 134.132 75.8256 133.902 75.9447C133.673 76.1828 133.443 76.3019 133.214 76.3019C132.87 76.3019 132.641 76.1828 132.526 75.9447C132.297 75.7065 132.182 75.4684 132.182 75.2302V69.9909C132.182 68.8001 131.838 67.9666 131.264 67.3712C130.691 66.7758 129.888 66.5377 128.971 66.5377C128.397 66.5377 127.939 66.6568 127.365 66.895C126.906 67.1331 126.562 67.4903 126.218 67.8475C125.989 68.2048 125.874 68.6811 125.874 69.2765V75.2302C125.874 75.5875 125.759 75.8256 125.645 75.9447C125.415 76.1828 125.186 76.3019 124.842 76.3019C124.498 76.3019 124.268 76.1828 124.154 75.9447C123.924 75.7065 123.81 75.4684 123.81 75.2302V65.8232C123.81 65.466 123.924 65.2278 124.154 64.9897C124.383 64.7515 124.613 64.7516 124.842 64.7516C125.186 64.7516 125.415 64.8706 125.645 64.9897C125.874 65.2278 125.874 65.466 125.874 65.8232V66.0614C126.333 65.5851 126.792 65.2278 127.365 64.9897C127.939 64.7515 128.627 64.6325 129.315 64.6325C130.347 64.3943 131.264 64.6325 131.953 65.1088Z" fill="white"/>
<path d="M145.83 65.1088C146.518 65.5851 147.206 66.1805 147.55 67.014C148.009 67.8475 148.123 68.8001 148.123 69.9909V75.2302C148.123 75.5875 148.009 75.8256 147.779 75.9447C147.55 76.1828 147.321 76.3019 147.091 76.3019C146.747 76.3019 146.518 76.1828 146.403 75.9447C146.174 75.7065 146.059 75.4684 146.059 75.2302V69.9909C146.059 68.8001 145.715 67.9666 145.142 67.3712C144.568 66.7758 143.765 66.5377 142.848 66.5377C142.274 66.5377 141.816 66.6568 141.242 66.895C140.783 67.1331 140.439 67.4903 140.095 67.8475C139.866 68.2048 139.751 68.6811 139.751 69.2765V75.2302C139.751 75.5875 139.637 75.8256 139.522 75.9447C139.292 76.1828 139.063 76.3019 138.719 76.3019C138.375 76.3019 138.146 76.1828 138.031 75.9447C137.801 75.7065 137.687 75.4684 137.687 75.2302V65.8232C137.687 65.466 137.801 65.2278 138.031 64.9897C138.26 64.7515 138.49 64.7516 138.719 64.7516C139.063 64.7516 139.292 64.8706 139.522 64.9897C139.751 65.2278 139.751 65.466 139.751 65.8232V66.0614C140.21 65.5851 140.669 65.2278 141.242 64.9897C141.816 64.7515 142.504 64.6325 143.192 64.6325C144.224 64.3943 145.027 64.6325 145.83 65.1088Z" fill="white"/>
<path d="M159.592 65.2276C160.395 65.7039 161.083 66.4184 161.542 67.2519C162 68.0854 162.23 69.1571 162.23 70.3478C162.23 71.4195 162 72.4912 161.542 73.3247C161.083 74.1582 160.395 74.8727 159.592 75.349C158.789 75.8253 157.757 76.0635 156.725 76.0635C155.693 76.0635 154.661 75.8253 153.858 75.349C153.055 74.8727 152.367 74.1582 151.908 73.3247C151.449 72.4912 151.22 71.4195 151.22 70.3478C151.22 69.1571 151.449 68.2045 151.908 67.2519C152.367 66.4184 153.055 65.7039 153.858 65.2276C154.661 64.7513 155.693 64.5132 156.725 64.5132C157.757 64.5132 158.675 64.7513 159.592 65.2276ZM154.775 66.8947C154.202 67.2519 153.743 67.7282 153.514 68.3236C153.17 68.919 153.055 69.6334 153.055 70.3478C153.055 71.0623 153.17 71.7767 153.514 72.3721C153.858 72.9675 154.202 73.4438 154.775 73.801C155.349 74.1582 155.922 74.2774 156.61 74.2774C157.298 74.2774 157.872 74.1582 158.445 73.801C159.019 73.4438 159.477 72.9675 159.707 72.3721C160.051 71.7767 160.166 71.0623 160.166 70.3478C160.166 69.6334 160.051 68.919 159.707 68.3236C159.363 67.7282 159.019 67.2519 158.445 66.8947C157.872 66.5375 157.298 66.4184 156.61 66.4184C156.037 66.4184 155.349 66.5375 154.775 66.8947Z" fill="white"/>
<path d="M173.699 65.1086C173.814 65.2277 173.813 65.4658 173.813 65.5849C173.813 65.704 173.814 65.8231 173.699 65.9422L169.341 75.349C169.111 75.8253 168.882 76.0635 168.423 76.0635C168.194 76.0635 167.964 76.0634 167.85 75.9444C167.735 75.8253 167.62 75.7062 167.391 75.349L163.033 65.9422C163.033 65.8231 162.918 65.704 162.918 65.5849C162.918 65.2277 163.147 64.8705 163.492 64.7514C163.606 64.6324 163.721 64.6323 163.95 64.6323C164.065 64.6323 164.294 64.6324 164.409 64.7514C164.524 64.8705 164.638 64.9896 164.753 65.1086L168.308 72.9675L171.749 65.1086C171.864 64.9896 171.978 64.7514 172.093 64.7514C172.208 64.6324 172.437 64.6323 172.552 64.6323C172.781 64.6323 172.896 64.6324 173.011 64.7514C173.469 64.7514 173.584 64.8705 173.699 65.1086Z" fill="white"/>
<path d="M183.332 65.2276C184.135 65.7039 184.823 66.4184 185.397 67.371C185.856 68.3236 186.085 69.2762 186.085 70.3479V75.1109C186.085 75.4681 185.97 75.7063 185.741 75.8254C185.512 76.0636 185.282 76.1826 185.053 76.1826C184.709 76.1826 184.479 76.0636 184.365 75.8254C184.135 75.5873 184.021 75.3491 184.021 75.1109V74.2774C183.562 74.8728 182.988 75.3491 182.3 75.7063C181.612 76.0635 180.924 76.1826 180.121 76.1826C179.089 76.1826 178.286 75.9445 177.483 75.4682C176.681 74.9919 176.107 74.2774 175.648 73.3248C175.19 72.3722 174.96 71.4195 174.96 70.3479C174.96 69.2762 175.19 68.2045 175.648 67.371C176.107 66.4184 176.795 65.823 177.713 65.2276C178.63 64.7513 179.548 64.5132 180.58 64.5132C181.612 64.5132 182.53 64.7513 183.332 65.2276ZM182.415 73.8011C182.988 73.4439 183.447 72.9676 183.677 72.3722C184.021 71.7768 184.135 71.0623 184.135 70.3479C184.135 69.6334 184.021 68.919 183.677 68.3236C183.332 67.7283 182.988 67.2519 182.415 66.8947C181.842 66.5375 181.268 66.4184 180.58 66.4184C179.892 66.4184 179.318 66.5375 178.745 66.8947C178.171 67.2519 177.713 67.7283 177.483 68.3236C177.139 68.919 177.025 69.6334 177.025 70.3479C177.025 71.0623 177.139 71.7768 177.483 72.3722C177.827 72.9676 178.286 73.4439 178.745 73.8011C179.318 74.1583 179.892 74.2774 180.58 74.2774C181.268 74.2774 181.842 74.1583 182.415 73.8011Z" fill="white"/>
<path d="M194.572 74.2778C194.687 74.516 194.801 74.7541 194.801 74.9922C194.801 75.3495 194.687 75.5876 194.457 75.7067C194.228 75.9448 193.998 75.9448 193.54 75.9448H193.196C192.508 75.9448 191.934 75.7067 191.361 75.3494C190.787 74.9922 190.328 74.5159 190.099 73.9205C189.755 73.3251 189.64 72.6107 189.64 71.7772V66.5379H188.723C188.493 66.5379 188.264 66.4188 188.035 66.2997C187.805 66.1806 187.805 65.9425 187.805 65.7043C187.805 65.4662 187.92 65.228 188.035 64.9898C188.264 64.8708 188.493 64.7517 188.723 64.7517H189.64V61.6557C189.64 61.2985 189.755 61.0604 189.87 60.9413C190.099 60.7031 190.328 60.7031 190.558 60.7031C190.902 60.7031 191.131 60.8222 191.246 60.9413C191.475 61.1794 191.475 61.4176 191.475 61.6557V64.7517H193.196C193.425 64.7517 193.654 64.8708 193.884 64.9898C194.113 65.1089 194.113 65.3471 194.113 65.7043C194.113 65.9425 193.998 66.1806 193.884 66.2997C193.769 66.4188 193.425 66.5379 193.196 66.5379H191.475V71.7772C191.475 72.3725 191.59 72.8489 191.934 73.2061C192.278 73.5633 192.622 73.8015 193.081 73.8015H193.769C194.228 74.0396 194.342 74.0397 194.572 74.2778Z" fill="white"/>
<path d="M199.503 60.3457C199.733 60.5839 199.847 60.9411 199.847 61.2983C199.847 61.6555 199.733 62.0127 199.503 62.2509C199.274 62.489 198.93 62.6081 198.586 62.6081C198.242 62.6081 197.898 62.489 197.668 62.2509C197.439 62.0127 197.324 61.6555 197.324 61.2983C197.324 60.9411 197.439 60.5839 197.668 60.3457C197.898 60.1076 198.242 59.9885 198.586 59.9885C198.93 59.8694 199.274 59.9885 199.503 60.3457ZM197.898 64.8705C198.127 64.6324 198.357 64.6324 198.586 64.6324C198.93 64.6324 199.159 64.7515 199.389 64.8705C199.618 65.1087 199.618 65.3468 199.618 65.7041V75.1109C199.618 75.4681 199.503 75.7063 199.389 75.8254C199.159 76.0636 198.93 76.1826 198.586 76.1826C198.242 76.1826 198.012 76.0636 197.898 75.8254C197.668 75.5873 197.554 75.3491 197.554 75.1109V65.7041C197.554 65.3468 197.668 64.9896 197.898 64.8705Z" fill="white"/>
<path d="M211.431 65.2276C212.234 65.7039 212.922 66.4184 213.381 67.2519C213.839 68.0854 214.069 69.1571 214.069 70.3478C214.069 71.4195 213.839 72.4912 213.381 73.3247C212.922 74.1582 212.234 74.8727 211.431 75.349C210.628 75.8253 209.596 76.0635 208.564 76.0635C207.532 76.0635 206.499 75.8253 205.697 75.349C204.894 74.8727 204.206 74.1582 203.747 73.3247C203.288 72.4912 203.059 71.4195 203.059 70.3478C203.059 69.1571 203.288 68.2045 203.747 67.2519C204.206 66.4184 204.894 65.7039 205.697 65.2276C206.499 64.7513 207.532 64.5132 208.564 64.5132C209.596 64.5132 210.513 64.7513 211.431 65.2276ZM206.729 66.8947C206.155 67.2519 205.697 67.7282 205.467 68.3236C205.123 68.919 205.008 69.6334 205.008 70.3478C205.008 71.0623 205.123 71.7767 205.467 72.3721C205.811 72.9675 206.155 73.4438 206.729 73.801C207.302 74.1582 207.876 74.2774 208.564 74.2774C209.252 74.2774 209.825 74.1582 210.399 73.801C210.972 73.4438 211.431 72.9675 211.66 72.3721C212.004 71.7767 212.119 71.0623 212.119 70.3478C212.119 69.6334 212.004 68.919 211.66 68.3236C211.316 67.7282 210.972 67.2519 210.399 66.8947C209.825 66.5375 209.252 66.4184 208.564 66.4184C207.876 66.4184 207.188 66.5375 206.729 66.8947Z" fill="white"/>
<path d="M225.308 65.1088C225.996 65.5851 226.684 66.1805 227.028 67.014C227.487 67.8475 227.602 68.8001 227.602 69.9909V75.2302C227.602 75.5875 227.487 75.8256 227.258 75.9447C227.028 76.1828 226.799 76.3019 226.57 76.3019C226.226 76.3019 225.996 76.1828 225.882 75.9447C225.652 75.7065 225.538 75.4684 225.538 75.2302V69.9909C225.538 68.8001 225.193 67.9666 224.62 67.3712C224.047 66.7758 223.244 66.5377 222.326 66.5377C221.753 66.5377 221.294 66.6568 220.721 66.895C220.262 67.1331 219.918 67.4903 219.574 67.8475C219.344 68.2048 219.23 68.6811 219.23 69.2765V75.2302C219.23 75.5875 219.115 75.8256 219 75.9447C218.771 76.1828 218.542 76.3019 218.197 76.3019C217.853 76.3019 217.624 76.1828 217.509 75.9447C217.28 75.7065 217.165 75.4684 217.165 75.2302V65.8232C217.165 65.466 217.28 65.2278 217.509 64.9897C217.739 64.7515 217.968 64.7516 218.197 64.7516C218.542 64.7516 218.771 64.8706 219 64.9897C219.23 65.2278 219.23 65.466 219.23 65.8232V66.0614C219.688 65.5851 220.147 65.2278 220.721 64.9897C221.294 64.7515 221.982 64.6325 222.67 64.6325C223.703 64.3943 224.505 64.6325 225.308 65.1088Z" fill="white"/>
<path d="M247.443 74.2777C247.672 74.5158 247.787 74.7539 247.787 75.1111C247.787 75.4684 247.672 75.7065 247.443 75.9447C247.213 76.1828 246.984 76.3019 246.64 76.3019H238.268C237.924 76.3019 237.694 76.1828 237.58 75.9447C237.35 75.7065 237.235 75.4684 237.235 75.1111V60.8221C237.235 60.4649 237.35 60.2268 237.58 59.9886C237.809 59.7505 238.038 59.6313 238.268 59.6313C238.612 59.6313 238.841 59.7505 239.071 59.9886C239.3 60.2268 239.415 60.4649 239.415 60.8221V74.0395H246.755C246.984 73.9204 247.213 74.0395 247.443 74.2777Z" fill="white"/>
<path d="M257.994 65.2276C258.797 65.7039 259.485 66.4184 260.058 67.371C260.517 68.3236 260.746 69.2762 260.746 70.3479V75.1109C260.746 75.4681 260.632 75.7063 260.402 75.8254C260.173 76.0636 259.944 76.1826 259.714 76.1826C259.37 76.1826 259.141 76.0636 259.026 75.8254C258.797 75.5873 258.682 75.3491 258.682 75.1109V74.2774C258.223 74.8728 257.65 75.3491 256.962 75.7063C256.274 76.0635 255.586 76.1826 254.783 76.1826C253.751 76.1826 252.948 75.9445 252.145 75.4682C251.342 74.9919 250.769 74.2774 250.31 73.3248C249.851 72.3722 249.622 71.4195 249.622 70.3479C249.622 69.2762 249.851 68.2045 250.31 67.371C250.769 66.4184 251.457 65.823 252.374 65.2276C253.292 64.7513 254.209 64.5132 255.242 64.5132C256.159 64.5132 257.077 64.7513 257.994 65.2276ZM256.962 73.8011C257.535 73.4439 257.994 72.9676 258.223 72.3722C258.567 71.7768 258.682 71.0623 258.682 70.3479C258.682 69.6334 258.567 68.919 258.223 68.3236C257.879 67.7283 257.535 67.2519 256.962 66.8947C256.388 66.5375 255.815 66.4184 255.127 66.4184C254.439 66.4184 253.865 66.5375 253.292 66.8947C252.718 67.2519 252.26 67.7283 252.03 68.3236C251.686 68.919 251.572 69.6334 251.572 70.3479C251.572 71.0623 251.686 71.7768 252.03 72.3722C252.374 72.9676 252.833 73.4439 253.292 73.8011C253.865 74.1583 254.439 74.2774 255.127 74.2774C255.815 74.2774 256.388 74.1583 256.962 73.8011Z" fill="white"/>
<path d="M264.875 59.6313C265.219 59.6313 265.449 59.7504 265.563 59.8695C265.793 60.1077 265.907 60.3458 265.907 60.703V66.4186C266.366 65.8232 266.94 65.3469 267.628 64.9897C268.316 64.6325 269.004 64.5134 269.807 64.5134C270.839 64.5134 271.642 64.7516 272.445 65.2279C273.248 65.7042 273.821 66.4186 274.28 67.3712C274.738 68.3238 274.968 69.2764 274.968 70.3481C274.968 71.4197 274.738 72.4914 274.28 73.3249C273.821 74.2775 273.133 74.8729 272.215 75.4683C271.298 75.9446 270.38 76.1827 269.348 76.1827C268.316 76.1827 267.398 75.9446 266.481 75.4683C265.678 74.992 264.99 74.2775 264.417 73.3249C263.958 72.3723 263.729 71.4197 263.729 70.3481V60.703C263.729 60.3458 263.843 60.1077 263.958 59.8695C264.302 59.7504 264.531 59.6313 264.875 59.6313ZM269.463 74.2776C270.151 74.2776 270.724 74.1585 271.298 73.8012C271.871 73.444 272.33 72.9677 272.559 72.3723C272.903 71.777 273.018 71.0625 273.018 70.3481C273.018 69.6336 272.903 68.9192 272.559 68.3238C272.215 67.7285 271.757 67.2522 271.298 66.8949C270.724 66.5377 270.151 66.4186 269.463 66.4186C268.775 66.4186 268.201 66.5377 267.628 66.8949C267.054 67.2522 266.596 67.7285 266.366 68.3238C266.022 68.9192 265.907 69.6336 265.907 70.3481C265.907 71.0625 266.022 71.777 266.366 72.3723C266.71 72.9677 267.054 73.444 267.628 73.8012C268.087 74.1585 268.775 74.2776 269.463 74.2776Z" fill="white"/>
<path d="M25.0638 0.570219C24.1463 0.80837 23.1141 0.927431 22.0819 0.927431C21.9673 0.927431 21.8526 0.927431 21.8526 0.927431C18.6414 1.52281 15.5448 2.7136 12.7922 4.38066C12.7922 4.38066 12.7922 4.4997 12.9069 4.4997C12.9069 4.4997 12.9069 4.4997 13.0216 4.4997C13.3656 4.26155 13.8245 3.90432 14.3979 3.90432C14.8566 3.90432 16.1182 4.14249 16.1182 6.524C16.1182 8.90552 14.9713 9.14369 14.3979 9.14369C13.8245 9.14369 13.2509 8.90553 13.0216 8.54831H12.9069C12.9069 8.54831 12.7922 8.78642 12.7922 9.02457C12.7922 10.3344 13.0216 11.6443 13.3657 12.716C14.6272 12.2397 16.0035 12.0015 17.3798 12.0015C17.8385 12.0015 18.5267 12.2396 18.8708 12.835C18.9854 13.0732 18.9854 13.3114 18.9854 13.5495C18.9854 13.7877 18.8706 14.0258 18.756 14.1449C18.6413 14.264 18.5266 14.5021 18.5266 14.7403C18.5266 14.8593 18.5266 14.9784 18.5266 15.0975C18.6413 15.3356 19.2147 15.5737 19.9028 15.5737C20.7057 15.5737 21.1645 15.4547 21.2792 15.0975C21.2792 15.0975 21.2792 15.0974 21.2792 14.9784C21.2792 14.7402 21.1644 14.383 21.0497 14.1449C20.8203 13.7877 20.7057 13.4304 20.8204 13.0732C20.8204 12.9541 20.8204 12.9541 20.9351 12.835C21.1644 12.2396 21.8527 12.0015 22.3114 12.0015C23.6877 12.0015 25.0639 12.2397 26.3255 12.716C26.7842 11.5252 26.8989 10.3344 26.8989 8.90552C26.8989 8.66737 26.7841 8.42919 26.7841 8.42919C26.7841 8.42919 26.7842 8.42919 26.6695 8.42919C26.3254 8.66734 25.8667 9.02457 25.2933 9.02457C24.8345 9.02457 24.3758 8.78644 24.0317 8.31014C23.6877 7.83384 23.5729 7.23844 23.5729 6.28584C23.5729 3.90432 24.7198 3.66616 25.2933 3.66616C25.8667 3.66616 26.4401 3.90431 26.6695 4.26154C26.7842 4.26154 26.7841 4.38066 26.7841 4.38066C26.7841 4.38066 26.8989 4.14248 26.8989 3.90432C26.8989 2.71357 26.6695 1.52285 26.3255 0.451172C25.752 0.451172 25.4079 0.451143 25.0638 0.570219Z" fill="white"/>
<path d="M6.14029 10.5723C7.40186 10.5723 8.20478 10.9294 8.54884 11.6439C8.77822 12.0011 8.6635 12.4774 8.6635 12.8347C8.54882 13.1919 8.31941 13.5491 8.20472 13.7873C8.20472 13.7873 8.43413 13.9064 8.6635 13.9064C9.92506 13.9064 11.1866 13.6682 12.3334 13.311C11.8747 12.0012 11.6453 10.5722 11.6453 9.14334C11.6453 8.42888 12.1041 7.59536 12.9069 7.59536C13.1363 7.59536 13.4804 7.71443 13.7098 7.95258C13.8245 8.07165 14.1685 8.19074 14.3979 8.19074C14.8566 8.19074 14.9713 7.35715 14.9713 6.6427C14.9713 5.80917 14.8565 5.45197 14.7419 5.33289C14.7419 5.33289 14.7419 5.33292 14.6272 5.21385C14.6272 5.21385 14.5125 5.2138 14.5125 5.09473H14.3979C14.1685 5.09473 13.8245 5.33289 13.7098 5.33289C13.251 5.69012 12.7922 5.69009 12.3334 5.45194C12.2188 5.33286 12.1042 5.2138 11.9895 5.09473C9.81041 6.64271 7.74595 8.4289 6.02563 10.5723C6.02563 10.5723 6.02561 10.5723 6.14029 10.5723Z" fill="white"/>
<path d="M27.7016 19.2645C27.4722 19.2645 27.1282 19.5027 27.0135 19.5027C26.7841 19.7408 26.5547 19.8599 26.2106 19.8599C25.8665 19.8599 25.5226 19.6217 25.2932 19.2645C25.1785 19.0263 25.0637 18.6691 25.0637 18.3119C25.0637 16.883 25.2932 15.4541 25.752 14.1442C24.6051 13.6679 23.3434 13.5488 22.0819 13.5488C21.8525 13.5488 21.7378 13.6679 21.6231 13.6679C21.8525 14.0251 22.3112 14.7395 22.0819 15.5731C22.0819 15.6921 22.0819 15.8113 21.9672 15.9304C21.6232 16.6448 20.8204 17.002 19.5588 17.002C18.2972 17.002 17.4945 16.6448 17.1504 15.9304C16.921 15.5731 17.0356 15.0968 17.0356 14.7396C17.1503 14.3824 17.3797 14.0251 17.4944 13.7869C17.4944 13.7869 17.265 13.6679 17.0356 13.6679C15.774 13.6679 14.5125 13.906 13.3657 14.2633C13.8244 15.5731 14.0537 17.002 14.0537 18.4309C14.0537 19.1454 13.595 19.9789 12.7922 19.9789C12.5628 19.9789 12.2188 19.8599 11.9895 19.6217C11.8748 19.5026 11.5306 19.3835 11.3012 19.3835C10.8425 19.3835 10.7278 20.2171 10.7278 20.9315C10.7278 21.765 10.8426 22.1223 10.9572 22.2414C11.0719 22.3605 11.1865 22.4796 11.3012 22.4796C11.5306 22.4796 11.8748 22.2414 11.9895 22.2414C12.1041 22.1223 12.2187 22.1223 12.3334 22.0032C12.3334 22.0032 12.3334 22.0032 12.4481 22.0032C12.4481 22.0032 12.4482 22.0032 12.5629 22.0032C12.907 21.8842 13.2509 22.0032 13.595 22.2414C13.939 22.5986 14.0537 23.0749 14.0537 23.5512C14.0537 24.9801 13.8244 26.409 13.3657 27.7189C14.5125 28.1952 15.774 28.3143 17.0356 28.3143C17.265 28.3143 17.4944 28.1952 17.4944 28.1952C17.4944 28.1952 17.4944 28.1952 17.4944 28.0761C17.1503 27.7189 16.6916 26.7663 17.1504 25.9327C17.4945 25.2183 18.2972 24.8611 19.5588 24.8611C20.8204 24.8611 21.6232 25.2183 21.9672 25.9327C22.3113 26.7663 21.8525 27.7189 21.6231 28.0761C21.6231 28.1952 21.5084 28.1952 21.5084 28.1952C21.5084 28.1952 21.7378 28.3143 21.9672 28.3143C23.2288 28.3143 24.4903 28.0761 25.6372 27.7189C25.1784 26.409 24.9491 24.9801 24.9491 23.5512C24.9491 22.8368 25.4078 22.0032 26.2106 22.0032C26.44 22.0032 26.7841 22.1223 27.0135 22.3604C27.1282 22.4795 27.4722 22.5986 27.7016 22.5986C28.1603 22.5986 28.275 21.7651 28.275 21.0506C28.275 20.5743 28.2751 20.098 28.0457 19.8599L27.8162 19.6217C27.8162 19.2645 27.8163 19.2645 27.7016 19.2645Z" fill="white"/>
<path d="M13.251 23.3129C13.251 23.0748 13.1363 22.9558 13.1363 22.8367C13.1363 22.8367 13.1362 22.8367 13.0215 22.8367C12.6774 23.0748 12.2187 23.4321 11.6453 23.4321C11.1865 23.4321 10.7278 23.1939 10.3837 22.7176C10.0397 22.2413 9.92496 21.6459 9.92496 20.6933C9.92496 19.8598 10.0397 19.1453 10.3837 18.669C10.6131 18.3118 11.0719 18.0737 11.5306 18.0737H11.6453C12.2187 18.0737 12.7921 18.3118 13.0215 18.669H13.1363C13.1363 18.669 13.251 18.4309 13.251 18.1927C13.251 16.8829 13.0216 15.5731 12.6775 14.5014C11.4159 14.9777 10.0397 15.2158 8.66341 15.2158C8.20465 15.2158 7.51643 14.9777 7.28706 14.3823C7.17237 14.1441 7.17237 13.906 7.28706 13.5488C7.28706 13.4297 7.40183 13.1916 7.51652 13.0725C7.63121 12.9534 7.74584 12.7152 7.74584 12.4771C7.74584 12.358 7.74584 12.239 7.74584 12.1199C7.63115 11.8817 7.05776 11.6436 6.36963 11.6436C5.5668 11.6436 5.10796 11.7627 4.99327 12.1199C4.99327 12.1199 4.99327 12.1199 4.99327 12.2389C4.99327 12.4771 5.10805 12.8343 5.22274 13.0725C5.45211 13.4297 5.56675 13.787 5.45206 14.1442C5.45206 14.2633 5.45209 14.2632 5.3374 14.3823C5.10802 14.9777 4.41994 15.2158 3.96118 15.2158C3.7318 15.2158 3.38765 15.2158 3.15827 15.2158C2.69952 16.2875 2.24079 17.3592 1.89672 18.4309C2.35548 18.7881 2.69949 19.3835 2.69949 20.8124C2.69949 23.1939 1.5526 23.4321 0.979152 23.4321C0.864463 23.4321 0.864519 23.4321 0.74983 23.4321C0.635141 24.3847 0.520508 25.3373 0.520508 26.4089C0.520508 26.6471 0.520508 26.7662 0.520508 27.0043C1.55271 26.6471 2.6996 26.528 3.96118 26.528C4.41994 26.528 5.10802 26.7662 5.3374 27.3615C5.56677 27.7188 5.45214 28.1951 5.10807 28.5523C4.8787 28.7904 4.76392 29.2667 4.87861 29.5049C4.9933 29.743 5.56683 29.9812 6.25497 29.9812C7.05779 29.9812 7.51649 29.8621 7.63118 29.5049C7.74587 29.2667 7.51655 28.7904 7.40186 28.5523C7.05779 28.1951 7.05771 27.7188 7.1724 27.3615C7.40177 26.7662 8.08999 26.528 8.54875 26.528C9.92502 26.528 11.3013 26.7662 12.5629 27.2425C13.1363 25.9327 13.251 24.6228 13.251 23.3129Z" fill="white"/>
<path d="M4.64941 13.6679L4.07599 13.0725V12.7153C3.73193 13.1916 3.38782 13.787 3.15845 14.3823L3.84653 14.5015L4.64941 13.6679Z" fill="white"/>
<path d="M39.7438 5.21332L40.0879 4.85603C39.7438 4.61788 39.3998 4.37975 38.941 4.1416V4.37977L39.7438 5.21332Z" fill="#0F96D4"/>
<path d="M39.5144 32.1245C39.5144 32.3626 39.6291 32.4817 39.6291 32.6008C39.6291 32.6008 39.629 32.6008 39.7437 32.6008C40.0878 32.3626 40.5465 32.0054 41.1199 32.0054C41.5787 32.0054 42.8403 32.2435 42.8403 34.625C42.8403 37.0065 41.6934 37.2447 41.1199 37.2447C40.5465 37.2447 39.9731 37.0065 39.7437 36.6493H39.6291C39.6291 36.6493 39.5144 36.8875 39.5144 37.1256C39.5144 38.4355 39.7438 39.7453 40.0878 40.817C41.3494 40.3407 42.7257 40.1025 44.1019 40.1025C44.5607 40.1025 45.2487 40.3407 45.5928 40.9361C45.7075 41.1742 45.7075 41.4124 45.7075 41.6505C45.7075 41.8887 45.5928 42.1268 45.4781 42.2459C45.3635 42.365 45.2488 42.6031 45.2488 42.8413C45.2488 42.9603 45.2488 43.0794 45.2488 43.1985C45.3635 43.4366 45.9369 43.6748 46.625 43.6748C46.7397 43.6748 46.8544 43.6748 46.8544 43.6748C47.0837 43.1985 47.4279 42.7222 47.6573 42.2459C47.4279 41.8887 47.4278 41.5314 47.4278 41.2933C47.4278 41.1742 47.4279 41.1742 47.5426 41.0551C47.772 40.5788 48.2307 40.3407 48.6895 40.3407C49.3776 39.0309 49.9511 37.4829 50.4098 35.9349C50.2951 35.5777 50.295 35.2204 50.295 34.7441C50.295 33.1961 50.7538 32.4816 51.3272 32.2435C51.5566 31.1718 51.6713 29.9811 51.786 28.7903C50.8685 29.0285 49.951 29.1476 49.0335 29.1476C48.5747 29.1476 47.8867 28.9094 47.5426 28.314C47.3132 27.9568 47.4279 27.4805 47.7719 27.1233C48.0013 26.8851 48.1159 26.4088 48.0012 26.1707C47.8865 25.9325 47.3132 25.6943 46.625 25.6943C45.8222 25.6943 45.3635 25.8134 45.2488 26.1707C45.1341 26.4088 45.3635 26.8851 45.4781 27.1233C45.8222 27.4805 45.8222 27.9568 45.7075 28.314C45.4781 28.9094 44.79 29.1476 44.3313 29.1476C42.955 29.1476 41.5787 28.9094 40.3172 28.4331C39.7437 29.6239 39.5144 30.8146 39.5144 32.1245Z" fill="white"/>
<path d="M24.9489 36.292C25.1783 36.292 25.5223 36.0539 25.637 36.0539C25.8664 35.8157 26.0959 35.6967 26.4399 35.6967C27.2428 35.6967 27.7015 36.5302 27.7015 37.2446C27.7015 38.6736 27.4721 40.1025 27.0134 41.4123C28.1603 41.8886 29.4218 42.0077 30.6834 42.0077C30.9127 42.0077 31.0275 41.8886 31.1422 41.8886C30.9128 41.5314 30.454 40.8169 30.6834 39.9834C30.6834 39.8643 30.6833 39.7452 30.798 39.6262C31.1421 38.9117 31.945 38.5545 33.2066 38.5545C34.4682 38.5545 35.271 38.9117 35.615 39.6262C35.8444 39.9834 35.7297 40.4597 35.7297 40.8169C35.615 41.1742 35.3856 41.5314 35.2709 41.7695C35.2709 41.7695 35.5003 41.8886 35.7297 41.8886C36.9913 41.8886 38.2528 41.6505 39.3997 41.2933C38.9409 39.9834 38.7116 38.5545 38.7116 37.1256C38.7116 36.4111 39.1703 35.5776 39.9731 35.5776C40.2025 35.5776 40.5467 35.6967 40.776 35.9348C40.8907 36.0539 41.2348 36.173 41.4642 36.173C41.9229 36.173 42.0376 35.3394 42.0376 34.6249C42.0376 33.7914 41.923 33.4342 41.8083 33.3151C41.8083 33.3151 41.8082 33.3152 41.6935 33.1961C41.6935 33.1961 41.5788 33.196 41.5788 33.077H41.4642C41.2348 33.077 40.8907 33.3151 40.776 33.3151C40.3173 33.6724 39.8585 33.6723 39.3997 33.4342C39.285 33.3151 39.1704 33.196 39.0557 33.077C38.941 32.8388 38.8263 32.4816 38.8263 32.1244C38.8263 30.6955 39.0557 29.2665 39.5145 27.9567C38.3676 27.4804 37.1059 27.3613 35.8444 27.3613C35.615 27.3613 35.3856 27.4804 35.3856 27.4804C35.3856 27.4804 35.3856 27.4804 35.3856 27.5995C35.7297 27.9567 36.1885 28.9093 35.7297 29.7429C35.3856 30.4573 34.5828 30.8146 33.3213 30.8146C32.0597 30.8146 31.2569 30.4573 30.9128 29.7429C30.5688 28.9093 31.0274 27.9567 31.2568 27.5995C31.2568 27.4804 31.3715 27.4804 31.3715 27.4804C31.3715 27.4804 31.1422 27.3613 30.9128 27.3613C29.6513 27.3613 28.3896 27.5995 27.2427 27.9567C27.7015 29.2665 27.9308 30.6955 27.9308 32.1244C27.9308 32.8388 27.4721 33.6724 26.6693 33.6724C26.4399 33.6724 26.0959 33.5533 25.8665 33.3151C25.7518 33.1961 25.4078 33.077 25.1784 33.077C24.7196 33.077 24.6049 33.9105 24.6049 34.6249C24.2609 35.4585 24.3755 36.292 24.9489 36.292Z" fill="white"/>
<path d="M40.0879 51.1767C40.0879 50.9386 39.9731 50.8195 39.9731 50.7004C39.9731 50.7004 39.9731 50.7004 39.8584 50.7004C39.5144 50.9385 39.0557 51.2958 38.4822 51.2958C38.0235 51.2958 37.5648 51.0576 37.2207 50.5813C36.8766 50.105 36.7619 49.5096 36.7619 48.557C36.7619 47.7235 36.8766 47.009 37.2207 46.5327C37.4501 46.1755 37.9088 45.9374 38.3676 45.9374H38.4822C39.0557 45.9374 39.6291 46.1755 39.8584 46.5327H39.9731C39.9731 46.5327 40.0879 46.2946 40.0879 46.0565C40.0879 44.7466 39.8585 43.4368 39.5145 42.3651C38.2529 42.8414 36.8766 43.0796 35.5004 43.0796C35.0416 43.0796 34.3534 42.8414 34.124 42.246C34.0094 42.0079 34.0094 41.7697 34.124 41.4125C34.124 41.2934 34.2388 41.0553 34.3535 40.9362C34.4682 40.8172 34.5828 40.579 34.5828 40.3409C34.5828 40.2218 34.5828 40.1027 34.5828 39.9836C34.4681 39.7454 33.8948 39.5073 33.2066 39.5073C32.4038 39.5073 31.945 39.6264 31.8303 39.9836C31.8303 39.9836 31.8303 39.9836 31.8303 40.1027C31.8303 40.3409 31.9451 40.6981 32.0598 40.9362C32.2891 41.2935 32.4038 41.6507 32.2891 42.0079C32.2891 42.127 32.2891 42.127 32.1744 42.246C31.945 42.8414 31.2568 43.0796 30.7981 43.0796C29.4218 43.0796 28.0456 42.8414 26.784 42.3651C26.4399 43.5558 26.2106 44.7466 26.2106 46.1755C26.2106 46.4137 26.3254 46.6519 26.3254 46.6519C26.3254 46.6519 26.3253 46.6519 26.44 46.6519C26.7841 46.4137 27.2428 46.0565 27.8162 46.0565C28.275 46.0565 29.5365 46.2946 29.5365 48.6762C29.5365 51.0577 28.3897 51.2958 27.8162 51.2958C27.2428 51.2958 26.6694 51.0576 26.44 50.7004C26.3253 50.7004 26.3254 50.5813 26.3254 50.5813C26.3254 50.5813 26.2106 50.8195 26.2106 51.0577C26.2106 52.3675 26.4399 53.6773 26.784 54.868C28.0456 54.3917 29.4218 54.1536 30.7981 54.1536C31.2568 54.1536 31.945 54.3918 32.1744 54.9871C32.4038 55.3444 32.289 55.8207 31.945 56.1779C31.7156 56.416 31.6009 56.8923 31.7156 57.1305C31.8303 57.3686 32.4037 57.6068 33.0918 57.6068C33.8946 57.6068 34.3535 57.4877 34.4682 57.1305C34.5829 56.8923 34.3534 56.416 34.2387 56.1779C33.8946 55.8207 33.8947 55.3444 34.0094 54.9871C34.2388 54.3918 34.9268 54.1536 35.3856 54.1536C36.7618 54.1536 38.1381 54.3917 39.3997 54.868C39.8584 53.7963 40.0879 52.4865 40.0879 51.1767Z" fill="white"/>
<path d="M44.9047 46.6518C45.3635 46.0565 45.7075 45.461 46.1663 44.7466C45.1341 44.6275 44.446 44.3894 44.2166 43.675C43.9873 43.3178 44.102 42.8415 44.102 42.4843C44.2167 42.1271 44.4459 41.7699 44.5606 41.5317C44.5606 41.5317 44.3314 41.4126 44.102 41.4126C42.8404 41.4126 41.5788 41.6507 40.4319 42.008C40.8907 43.3178 41.12 44.7466 41.12 46.1755C41.12 46.8899 40.6613 47.7234 39.8585 47.7234C39.6291 47.7234 39.2851 47.6044 39.0557 47.3662C38.941 47.2472 38.597 47.1281 38.3676 47.1281C37.9089 47.1281 37.7942 47.9616 37.7942 48.6761C37.7942 49.5096 37.9088 49.8668 38.0235 49.9858C38.1382 50.1049 38.2529 50.224 38.3676 50.224C38.597 50.224 38.941 49.9858 39.0557 49.9858C39.1704 49.8668 39.285 49.8667 39.3997 49.7477C39.3997 49.7477 39.3998 49.7477 39.5145 49.7477C39.5145 49.7477 39.5145 49.7477 39.6292 49.7477C39.9732 49.6286 40.3173 49.7477 40.6614 49.9858C41.0054 50.3431 41.12 50.8193 41.12 51.2956C41.12 51.7719 41.12 52.1291 41.0053 52.4863C42.2669 50.5812 43.5285 48.6761 44.9047 46.6518Z" fill="white"/>
<path d="M0.176636 27.8381C0.176636 28.3144 0.176608 28.7906 0.291295 29.386C0.405982 30.2195 0.520725 30.934 0.635413 31.7675C1.20885 35.2207 2.24101 38.1976 3.61725 40.6981C3.50256 40.46 3.50256 40.1028 3.61725 39.8646C3.61725 39.7455 3.61722 39.6265 3.73191 39.5074C4.07597 38.7929 4.87876 38.4357 6.14031 38.4357C7.40187 38.4357 8.2048 38.7929 8.54886 39.5074C8.77823 39.8646 8.66352 40.3409 8.66352 40.6981C8.54883 41.0554 8.31943 41.4126 8.20474 41.6507C8.20474 41.6507 8.43414 41.7698 8.66352 41.7698C9.92508 41.7698 11.1866 41.5316 12.3335 41.1744C11.8747 39.8646 11.6454 38.4357 11.6454 37.0068C11.6454 36.2923 12.1041 35.4588 12.9069 35.4588C13.1363 35.4588 13.4804 35.5779 13.7098 35.816C13.8245 35.9351 14.1685 36.0542 14.3979 36.0542C14.8566 36.0542 14.9713 35.2207 14.9713 34.5062C14.9713 33.6727 14.8565 33.3155 14.7419 33.1964C14.7419 33.1964 14.7419 33.1964 14.6272 33.0773C14.6272 33.0773 14.5125 33.0773 14.5125 32.9583H14.3979C14.1685 32.9583 13.8245 33.1964 13.7098 33.1964C13.251 33.5537 12.7922 33.5536 12.3335 33.3155C12.2188 33.1964 12.1042 33.0773 11.9895 32.9583C11.8748 32.7201 11.76 32.3629 11.76 32.0057C11.76 30.5768 11.9894 29.1479 12.4481 27.8381C11.3012 27.3618 10.0397 27.2427 8.77818 27.2427C8.5488 27.2427 8.3194 27.3617 8.3194 27.3617C8.3194 27.3617 8.3194 27.3617 8.3194 27.4808C8.66346 27.838 9.12227 28.7907 8.66352 29.6242C8.31946 30.3386 7.51667 30.6958 6.25511 30.6958C4.99355 30.6958 4.19063 30.3386 3.84657 29.6242C3.50251 28.7907 3.96131 27.838 4.19069 27.4808C4.19069 27.3617 4.30535 27.3617 4.30535 27.3617C4.30535 27.3617 4.07594 27.2427 3.84657 27.2427C2.35564 27.3618 1.32351 27.4808 0.176636 27.8381Z" fill="white"/>
<path d="M12.448 32.1248C12.448 32.3629 12.5628 32.482 12.5628 32.6011C12.5628 32.6011 12.5628 32.6011 12.6775 32.6011C13.0215 32.363 13.4802 32.0057 14.0537 32.0057C14.5124 32.0057 15.774 32.2438 15.774 34.6253C15.774 37.0069 14.6271 37.245 14.0537 37.245C13.4802 37.245 12.9068 37.0069 12.6775 36.6497H12.5628C12.5628 36.6497 12.448 36.8878 12.448 37.126C12.448 38.4358 12.6774 39.7456 13.0214 40.8173C14.283 40.341 15.6593 40.1029 17.0355 40.1029C17.4943 40.1029 18.1825 40.3411 18.5265 40.9364C18.6412 41.1746 18.6412 41.4127 18.6412 41.6509C18.6412 41.889 18.5265 42.1272 18.4119 42.2462C18.2972 42.3653 18.1824 42.6035 18.1824 42.8416C18.1824 42.9607 18.1824 43.0798 18.1824 43.1988C18.2971 43.437 18.8706 43.6752 19.5587 43.6752C20.3616 43.6752 20.8203 43.5561 20.9349 43.1988C20.9349 43.1988 20.9349 43.1989 20.9349 43.0798C20.9349 42.8416 20.8203 42.4844 20.7056 42.2462C20.4762 41.889 20.3615 41.5318 20.4762 41.1745C20.4762 41.0555 20.4763 41.0555 20.591 40.9364C20.8203 40.3411 21.5084 40.1029 21.9672 40.1029C23.3434 40.1029 24.7197 40.341 25.9812 40.8173C26.44 39.6266 26.5547 38.4358 26.5547 37.0069C26.5547 36.7687 26.44 36.5306 26.44 36.5306C26.44 36.5306 26.4401 36.5306 26.3254 36.5306C25.9813 36.7688 25.5225 37.126 24.949 37.126C24.4903 37.126 24.0315 36.8878 23.6875 36.4115C23.3434 35.9352 23.2287 35.3399 23.2287 34.3872C23.2287 32.0057 24.3756 31.7676 24.949 31.7676C25.5225 31.7676 26.096 32.0057 26.3254 32.3629C26.4401 32.3629 26.44 32.482 26.44 32.482C26.44 32.482 26.5547 32.2439 26.5547 32.0057C26.5547 30.6959 26.3253 29.386 25.9812 28.1953C24.7197 28.6716 23.3434 28.9097 21.9672 28.9097C21.5084 28.9097 20.8202 28.6715 20.4762 28.0762C20.2468 27.7189 20.3616 27.2426 20.7056 26.8854C20.935 26.6472 21.0496 26.171 20.9349 25.9328C20.8203 25.6947 20.2469 25.4565 19.5587 25.4565C18.7559 25.4565 18.2971 25.5756 18.1824 25.9328C18.0677 26.171 18.2972 26.6472 18.4119 26.8854C18.7559 27.2426 18.7559 27.7189 18.6412 28.0762C18.4118 28.6715 17.7237 28.9097 17.265 28.9097C15.8887 28.9097 14.5125 28.6716 13.2509 28.1953C12.6775 29.6242 12.448 30.8149 12.448 32.1248Z" fill="white"/>
<path d="M27.5868 47.2474C27.3575 47.2474 27.0134 47.4855 26.8987 47.4855C26.6694 47.7237 26.4399 47.8428 26.0958 47.8428C25.7518 47.8428 25.4078 47.6046 25.1784 47.2474C25.0637 47.0092 24.949 46.652 24.949 46.2948C24.949 44.8659 25.1783 43.437 25.6371 42.1271C24.4902 41.6508 23.2287 41.5317 21.9671 41.5317C21.7378 41.5317 21.623 41.6508 21.5083 41.6508C21.7377 42.008 22.1965 42.7224 21.9671 43.556C21.9671 43.675 21.9672 43.7942 21.8525 43.9133C21.5084 44.6277 20.7056 44.9849 19.4441 44.9849C18.1825 44.9849 17.3796 44.6277 17.0355 43.9133C16.8061 43.556 16.9208 43.0797 16.9208 42.7225C17.0355 42.3653 17.2649 42.008 17.3796 41.7698C17.3796 41.7698 17.1502 41.6508 16.9208 41.6508C15.6593 41.6508 14.3978 41.8889 13.2509 42.2462C13.7097 43.556 13.939 44.9849 13.939 46.4138C13.939 47.1283 13.4803 47.9618 12.6775 47.9618C12.4481 47.9618 12.1039 47.8427 11.8746 47.6046C11.7599 47.4855 11.4158 47.3664 11.1865 47.3664C10.7277 47.3664 10.613 48.1999 10.613 48.9144C10.613 49.7479 10.7278 50.1052 10.8425 50.2243C10.9572 50.3433 11.0718 50.4624 11.1865 50.4624C11.4158 50.4624 11.7599 50.2243 11.8746 50.2243C11.9893 50.1052 12.104 50.1052 12.2187 49.9861C12.2187 49.9861 12.2187 49.9861 12.3333 49.9861C12.3333 49.9861 12.3333 49.9861 12.448 49.9861C12.7921 49.867 13.1362 49.9861 13.4802 50.2243C13.8243 50.5815 13.939 51.0578 13.939 51.5341C13.939 52.963 13.7097 54.3919 13.2509 55.7017C14.3978 56.178 15.6593 56.2971 16.9208 56.2971C17.1502 56.2971 17.3796 56.1781 17.3796 56.1781C17.3796 56.1781 17.3796 56.178 17.3796 56.059C17.0356 55.7017 16.5768 54.7491 17.0355 53.9156C17.3796 53.2011 18.1825 52.844 19.4441 52.844C20.7056 52.844 21.5084 53.2011 21.8525 53.9156C22.1965 54.7491 21.7377 55.7017 21.5083 56.059C21.5083 56.178 21.3937 56.1781 21.3937 56.1781C21.3937 56.1781 21.6231 56.2971 21.8525 56.2971C23.114 56.2971 24.3755 56.059 25.5224 55.7017C25.0637 54.3919 24.8343 52.963 24.8343 51.5341C24.8343 50.8196 25.293 49.9861 26.0958 49.9861C26.3252 49.9861 26.6694 50.1052 26.8987 50.3433C27.0134 50.4624 27.3575 50.5815 27.5868 50.5815C28.0456 50.5815 28.1603 49.748 28.1603 49.0335C28.1603 48.5572 28.1602 48.0809 27.9308 47.8428L27.7015 47.6046C27.7015 47.2474 27.7015 47.2474 27.5868 47.2474Z" fill="white"/>
<path d="M13.0215 51.2958C13.0215 51.0577 12.9068 50.9386 12.9068 50.8196C12.9068 50.8196 12.9069 50.8196 12.7922 50.8196C12.4481 51.0577 11.9894 51.4149 11.416 51.4149C10.9572 51.4149 10.4984 51.1767 10.1543 50.7004C9.81023 50.2241 9.69566 49.6288 9.69566 48.6762C9.69566 47.8427 9.81023 47.1282 10.1543 46.6519C10.3837 46.2947 10.8424 46.0565 11.3012 46.0565H11.416C11.9894 46.0565 12.5628 46.2947 12.7922 46.6519H12.9068C12.9068 46.6519 13.0215 46.4137 13.0215 46.1756C13.0215 44.8658 12.7921 43.556 12.448 42.4843C11.1865 42.9606 9.81023 43.1987 8.43398 43.1987C7.97523 43.1987 7.28716 42.9606 7.05779 42.3652C6.9431 42.127 6.9431 41.8889 7.05779 41.5317C7.05779 41.4126 7.17242 41.1745 7.28711 41.0554C7.4018 40.9363 7.51657 40.6982 7.51657 40.46C7.51657 40.3409 7.51657 40.2219 7.51657 40.1028C7.40188 39.8646 6.82836 39.6265 6.14023 39.6265C5.33742 39.6265 4.87873 39.7456 4.76404 40.1028C4.76404 40.1028 4.76404 40.1028 4.76404 40.2218C4.76404 40.46 4.87867 40.8172 4.99336 41.0554C5.22273 41.4126 5.3375 41.7699 5.22282 42.1271C5.22282 42.2462 5.22284 42.2461 5.10816 42.3652C4.99347 42.4843 4.87873 42.6034 4.76404 42.7225C5.56685 44.0323 6.36964 45.3421 7.17245 46.5328C9.12214 49.3906 11.0719 52.0103 12.2187 54.8681C12.3334 54.8681 12.3334 54.8681 12.448 54.9872C12.7921 53.9155 13.0215 52.7247 13.0215 51.2958Z" fill="white"/>
<path d="M24.9491 8.07156C25.1784 8.07156 25.5225 7.8334 25.6372 7.8334C25.8665 7.59525 26.096 7.47619 26.4401 7.47619C27.2429 7.47619 27.7016 8.3097 27.7016 9.02415C27.7016 10.4531 27.4722 11.882 27.0135 13.1918C28.1604 13.6681 29.4219 13.7872 30.6835 13.7872C30.9128 13.7872 31.0275 13.6681 31.1422 13.6681C30.9129 13.3109 30.4541 12.5965 30.6835 11.7629C30.6835 11.6439 30.6834 11.5247 30.7981 11.4057C31.1422 10.6912 31.9451 10.334 33.2067 10.334C34.4682 10.334 35.271 10.6912 35.6151 11.4057C35.8445 11.7629 35.7298 12.2392 35.7298 12.5964C35.6151 12.9536 35.3857 13.3109 35.271 13.5491C35.271 13.5491 35.5004 13.6681 35.7298 13.6681C36.9913 13.6681 38.2528 13.43 39.3997 13.0727C38.941 11.7629 38.7116 10.334 38.7116 8.90511C38.7116 8.19065 39.1703 7.35714 39.9732 7.35714C40.2025 7.35714 40.5467 7.4762 40.7761 7.71435C40.8907 7.83343 41.2348 7.95252 41.4642 7.95252C41.9229 7.95252 42.0376 7.119 42.0376 6.40455C42.0376 6.1664 42.0376 5.92825 42.0376 5.80917C41.6935 5.57102 41.3494 5.33283 41.0054 5.09468C40.8907 5.09468 40.7761 5.2138 40.7761 5.2138C40.3173 5.57102 39.8585 5.57099 39.3997 5.33284C39.285 5.21377 39.1704 5.09471 39.0557 4.97563C38.941 4.73748 38.8263 4.38027 38.8263 4.02304C38.8263 3.90397 38.8263 3.90395 38.8263 3.78488C37.6794 3.1895 36.5325 2.59409 35.271 2.11779C34.8122 2.35594 34.2388 2.59412 33.436 2.59412C32.1744 2.59412 31.3716 2.23687 31.0276 1.52241C30.9129 1.28426 30.9129 1.16519 30.9129 0.927036C29.766 0.688885 28.7338 0.569824 27.5869 0.569824C27.931 1.6415 28.0457 2.83229 28.0457 4.02304C28.0457 4.73749 27.5869 5.57101 26.784 5.57101C26.5547 5.57101 26.2107 5.45195 25.9813 5.2138C25.8666 5.09472 25.5226 4.97563 25.2932 4.97563C24.8344 4.97563 24.7197 5.80914 24.7197 6.5236C24.261 7.23805 24.3756 8.07156 24.9491 8.07156Z" fill="white"/>
<path d="M41.1199 9.26236C40.5465 9.26236 39.9731 9.02421 39.7437 8.66699H39.6291C39.6291 8.66699 39.5144 8.90516 39.5144 9.14331C39.5144 10.4531 39.7438 11.7629 40.0878 12.8346C41.3494 12.3583 42.7256 12.1202 44.1019 12.1202C44.5606 12.1202 45.2486 12.3584 45.5927 12.9537C45.7074 13.1919 45.7074 13.43 45.7074 13.6682C45.7074 13.9063 45.5927 14.1445 45.4781 14.2635C45.3634 14.3826 45.2487 14.6208 45.2487 14.8589C45.2487 14.978 45.2487 15.097 45.2487 15.2161C45.3634 15.4543 45.9368 15.6924 46.6249 15.6924C47.4277 15.6924 47.8864 15.5733 48.0011 15.2161C48.0011 15.2161 48.0011 15.2161 48.0011 15.0971C48.0011 14.8589 47.8865 14.5017 47.7718 14.2635C47.5424 13.9063 47.4278 13.549 47.5425 13.1918C47.5425 13.0727 47.5424 13.0728 47.6571 12.9537C47.7718 12.8347 47.7718 12.7155 47.8864 12.5964C46.5102 10.4531 44.7899 8.54791 42.8402 6.88086C42.7255 9.02421 41.5787 9.26236 41.1199 9.26236Z" fill="white"/>
<path d="M49.0335 14.8587C49.0335 15.0969 49.1482 15.335 49.0335 15.5732C49.0335 15.6923 49.0335 15.8114 48.9188 15.9305C48.5747 16.6449 47.772 17.0021 46.5104 17.0021C45.2488 17.0021 44.446 16.6449 44.102 15.9305C43.8726 15.5732 43.9872 15.0969 43.9872 14.7397C44.1019 14.3825 44.3313 14.0252 44.4459 13.787C44.4459 13.787 44.2165 13.668 43.9872 13.668C42.7256 13.668 41.4641 13.9061 40.3172 14.2634C40.776 15.5732 41.0053 17.0021 41.0053 18.4311C41.0053 19.1455 40.5466 19.9791 39.7438 19.9791C39.5144 19.9791 39.1704 19.86 38.941 19.6219C38.8263 19.5028 38.4821 19.3837 38.2528 19.3837C37.794 19.3837 37.6793 20.2172 37.6793 20.9317C37.6793 21.7652 37.7941 22.1225 37.9088 22.2416C38.0235 22.3607 38.1381 22.4797 38.2528 22.4797C38.4821 22.4797 38.8263 22.2416 38.941 22.2416C39.0557 22.1225 39.1703 22.1225 39.285 22.0034C39.285 22.0034 39.285 22.0034 39.3996 22.0034C39.3996 22.0034 39.3998 22.0034 39.5144 22.0034C39.8585 21.8843 40.2025 22.0034 40.5465 22.2416C40.8906 22.5988 41.0053 23.0751 41.0053 23.5514C41.0053 24.9803 40.776 26.4093 40.3172 27.7191C41.4641 28.1954 42.7256 28.3145 43.9872 28.3145C44.2165 28.3145 44.4459 28.1955 44.4459 28.1955C44.4459 28.1955 44.4459 28.1954 44.4459 28.0763C44.1019 27.7191 43.6432 26.7665 44.102 25.933C44.446 25.2185 45.2488 24.8613 46.5104 24.8613C47.772 24.8613 48.5747 25.2185 48.9188 25.933C49.2629 26.7665 48.8041 27.7191 48.5747 28.0763C48.5747 28.1954 48.46 28.1955 48.46 28.1955C48.46 28.1955 48.6894 28.3145 48.9188 28.3145C49.8363 28.3145 50.8685 28.1955 51.786 27.9573C51.786 27.481 51.786 27.0047 51.786 26.5283C51.786 22.1225 50.7538 18.1929 49.0335 14.8587Z" fill="white"/>
<path d="M40.0879 23.1937C40.0879 22.9556 39.9731 22.8365 39.9731 22.7174C39.9731 22.7174 39.9731 22.7174 39.8584 22.7174C39.5144 22.9555 39.0557 23.3128 38.4822 23.3128C38.0235 23.3128 37.5648 23.0746 37.2207 22.5983C36.8766 22.122 36.7619 21.5267 36.7619 20.5741C36.7619 19.7405 36.8766 19.0261 37.2207 18.5498C37.4501 18.1926 37.9088 17.9544 38.3676 17.9544H38.4822C39.0557 17.9544 39.6291 18.1926 39.8584 18.5498H39.9731C39.9731 18.5498 40.0879 18.3117 40.0879 18.0735C40.0879 16.7637 39.8585 15.4538 39.5145 14.3822C38.2529 14.8585 36.8766 15.0967 35.5004 15.0967C35.0416 15.0967 34.3534 14.8585 34.124 14.2631C34.0094 14.025 34.0094 13.7868 34.124 13.4296C34.124 13.3105 34.2388 13.0724 34.3535 12.9533C34.4682 12.8343 34.5828 12.5961 34.5828 12.358C34.5828 12.2389 34.5828 12.1197 34.5828 12.0007C34.4681 11.7625 33.8948 11.5244 33.2066 11.5244C32.4038 11.5244 31.945 11.6434 31.8303 12.0007C31.8303 12.0007 31.8303 12.0007 31.8303 12.1198C31.8303 12.3579 31.9451 12.7152 32.0598 12.9533C32.2891 13.3105 32.4038 13.6677 32.2891 14.025C32.2891 14.144 32.2891 14.144 32.1744 14.2631C31.945 14.8585 31.2568 15.0967 30.7981 15.0967C29.4218 15.0967 28.0456 14.8585 26.784 14.3822C26.4399 15.5729 26.2106 16.7637 26.2106 18.1926C26.2106 18.4307 26.3254 18.6689 26.3254 18.6689C26.3254 18.6689 26.3253 18.6689 26.44 18.6689C26.7841 18.4307 27.2428 18.0735 27.8162 18.0735C28.275 18.0735 29.5365 18.3117 29.5365 20.6932C29.5365 23.0747 28.3897 23.3128 27.8162 23.3128C27.2428 23.3128 26.6694 23.0746 26.44 22.7174C26.3253 22.7174 26.3254 22.5983 26.3254 22.5983C26.3254 22.5983 26.2106 22.8365 26.2106 23.0747C26.2106 24.3845 26.4399 25.6943 26.784 26.885C28.0456 26.4087 29.4218 26.1706 30.7981 26.1706C31.2568 26.1706 31.945 26.4087 32.1744 27.0041C32.4038 27.3613 32.289 27.8376 31.945 28.1949C31.7156 28.433 31.6009 28.9093 31.7156 29.1475C31.8303 29.3856 32.4037 29.6238 33.0918 29.6238C33.8946 29.6238 34.3535 29.5047 34.4682 29.1475C34.5829 28.9093 34.3534 28.433 34.2387 28.1949C33.8946 27.8376 33.8947 27.3613 34.0094 27.0041C34.2388 26.4087 34.9268 26.1706 35.3856 26.1706C36.7618 26.1706 38.1381 26.4087 39.3997 26.885C39.8584 25.8133 40.0879 24.5035 40.0879 23.1937Z" fill="white"/>
<path d="M25.0638 64.2749C25.2932 64.2749 25.6374 64.0367 25.752 64.0367C25.9814 63.7986 26.2107 63.6795 26.5548 63.6795C27.3576 63.6795 27.8163 64.513 27.8163 65.2275C27.8163 66.6564 27.587 68.0853 27.1282 69.3951C28.2751 69.8714 29.5366 69.9905 30.7982 69.9905C31.0276 69.9905 31.1423 69.8714 31.257 69.8714C31.0276 69.5142 30.5688 68.7997 30.7982 67.9662C30.7982 67.8471 30.7983 67.728 30.913 67.609C31.257 66.8945 32.0598 66.5373 33.3214 66.5373C34.5829 66.5373 35.3857 66.8945 35.7298 67.609C35.9592 67.9662 35.8444 68.4425 35.8444 68.7997C35.7298 69.157 35.5004 69.5142 35.3857 69.7523C35.3857 69.7523 35.6151 69.8714 35.8444 69.8714C36.8766 69.8714 37.7941 69.7524 38.8263 69.5142V61.5362C38.8263 61.1789 38.8263 60.8217 38.8263 60.3454C38.8263 60.2263 38.8263 60.1072 38.8263 60.1072C38.8263 58.6783 39.0558 57.2494 39.5145 55.9396C38.3677 55.4633 37.106 55.3442 35.8444 55.3442C35.6151 55.3442 35.3857 55.4633 35.3857 55.4633C35.3857 55.4633 35.3857 55.4633 35.3857 55.5824C35.7297 55.9396 36.1885 56.8922 35.7298 57.7257C35.3857 58.4402 34.5829 58.7974 33.3214 58.7974C32.0598 58.7974 31.257 58.4402 30.913 57.7257C30.5689 56.8922 31.0276 55.9396 31.257 55.5824C31.257 55.4633 31.3716 55.4633 31.3716 55.4633C31.3716 55.4633 31.1423 55.3442 30.913 55.3442C29.6514 55.3442 28.3898 55.5824 27.2429 55.9396C27.7016 57.2494 27.931 58.6783 27.931 60.1072C27.931 60.8217 27.4723 61.6552 26.6695 61.6552C26.4401 61.6552 26.0961 61.5362 25.8667 61.298C25.752 61.1789 25.408 61.0598 25.1786 61.0598C24.7199 61.0598 24.6052 61.8933 24.6052 62.6078C24.3758 63.4413 24.4904 64.2749 25.0638 64.2749Z" fill="white"/>
<path d="M36.9912 78.2071C36.8765 77.8499 36.7619 77.3736 36.7619 76.7782C36.7619 75.9447 36.8766 75.2302 37.2207 74.7539C37.4501 74.3967 37.9088 74.1585 38.3676 74.1585V70.8244C37.4501 71.0626 36.4179 71.1816 35.5004 71.1816C35.0416 71.1816 34.3534 70.9435 34.124 70.3481C34.0093 70.11 34.0093 69.8719 34.124 69.5146C34.124 69.3956 34.2388 69.1574 34.3535 69.0383C34.4682 68.9192 34.5828 68.6811 34.5828 68.4429C34.5828 68.3238 34.5828 68.2048 34.5828 68.0857C34.4681 67.8476 33.8947 67.6094 33.2066 67.6094C32.4038 67.6094 31.945 67.7285 31.8303 68.0857C31.8303 68.0857 31.8303 68.0857 31.8303 68.2048C31.8303 68.4429 31.9451 68.8001 32.0597 69.0383C32.2891 69.3955 32.4037 69.7528 32.2891 70.11C32.2891 70.2291 32.2891 70.229 32.1744 70.3481C31.945 70.9435 31.2568 71.1816 30.7981 71.1816C29.4218 71.1816 28.0456 70.9435 26.784 70.4672C26.4399 71.658 26.2106 72.8488 26.2106 74.2777C26.2106 74.5158 26.3254 74.7539 26.3254 74.7539C26.3254 74.7539 26.3253 74.7539 26.44 74.7539C26.7841 74.5158 27.2428 74.1585 27.8162 74.1585C28.275 74.1585 29.5365 74.3967 29.5365 76.7782C29.5365 79.1597 28.3897 79.3979 27.8162 79.3979C27.2428 79.3979 26.6694 79.1598 26.44 78.8025C26.3253 78.8025 26.3254 78.6834 26.3254 78.6834C26.3254 78.6834 26.2106 78.9216 26.2106 79.1597C26.2106 79.3979 26.2106 79.636 26.2106 79.7551H33.4359C34.6975 79.8742 36.0737 79.2788 36.9912 78.2071Z" fill="white"/>
<path d="M26.8988 77.9685C27.0134 78.0876 27.3575 78.2067 27.5868 78.2067C28.0456 78.2067 28.1603 77.3731 28.1603 76.6587C28.1603 75.9442 28.0456 75.1106 27.5868 75.1106C27.3575 75.1106 27.0134 75.3488 26.8988 75.3488C26.6694 75.587 26.4399 75.706 26.0959 75.706C25.7518 75.706 25.4078 75.4679 25.1785 75.1106C25.0638 74.8725 24.949 74.5153 24.949 74.1581C24.949 72.7291 25.1783 71.3002 25.6371 69.9904C24.4902 69.5141 23.2287 69.395 21.9672 69.395C21.7378 69.395 21.6231 69.5141 21.5084 69.5141C21.7378 69.8714 22.1966 70.5858 21.9672 71.4193C21.9672 71.5384 21.9672 71.6575 21.8525 71.7765C21.5085 72.491 20.7057 72.8482 19.4441 72.8482C18.1826 72.8482 17.3797 72.491 17.0356 71.7765C16.8062 71.4193 16.9209 70.943 16.9209 70.5858C17.0356 70.2286 17.265 69.8713 17.3797 69.6332C17.3797 69.6332 17.1503 69.5141 16.9209 69.5141C15.6594 69.5141 14.5125 69.7523 13.4803 70.1095V70.5858C13.8244 71.7765 14.0538 72.9673 14.0538 74.2772C14.0538 74.7535 13.9391 75.2298 13.595 75.4679C14.0538 78.0876 16.2328 79.9928 18.6412 79.9928H24.8343C24.8343 79.7546 24.8343 79.5165 24.8343 79.2783C24.8343 78.5638 25.2931 77.7303 26.0959 77.7303C26.4399 77.7303 26.6694 77.8494 26.8988 77.9685Z" fill="white"/>
<path d="M14.2832 60.1072C14.8567 60.1072 16.0035 60.3454 16.0035 62.7269C16.0035 65.1084 14.8567 65.3466 14.2832 65.3466C14.1686 65.3466 13.9392 65.3465 13.8245 65.2275V68.7997C14.9713 68.4425 16.1182 68.2044 17.3797 68.2044C17.8385 68.2044 18.5267 68.4425 18.8707 69.0379C18.9854 69.276 18.9854 69.5142 18.9854 69.7523C18.9854 69.9905 18.8706 70.2286 18.7559 70.3477C18.6412 70.4668 18.5266 70.7049 18.5266 70.9431C18.5266 71.0621 18.5266 71.1813 18.5266 71.3004C18.6413 71.5385 19.2147 71.7766 19.9028 71.7766C20.7056 71.7766 21.1644 71.6576 21.2791 71.3004C21.2791 71.3004 21.2791 71.3003 21.2791 71.1812C21.2791 70.9431 21.1643 70.5858 21.0497 70.3477C20.8203 69.9905 20.7057 69.6333 20.8203 69.2761C20.8203 69.157 20.8203 69.157 20.935 69.0379C21.1644 68.4425 21.8526 68.2044 22.3113 68.2044C23.6876 68.2044 25.0638 68.4425 26.3254 68.9188C26.7841 67.7281 26.8988 66.5373 26.8988 65.1084C26.8988 64.8703 26.784 64.6321 26.784 64.6321C26.784 64.6321 26.784 64.6321 26.6693 64.6321C26.3253 64.8702 25.8666 65.2275 25.2932 65.2275C24.8344 65.2275 24.3757 64.9893 24.0316 64.513C23.6876 64.0367 23.5729 63.4414 23.5729 62.4888C23.5729 60.1072 24.7197 59.8691 25.2932 59.8691C25.8666 59.8691 26.44 60.1072 26.6693 60.4645C26.784 60.4645 26.784 60.5836 26.784 60.5836C26.784 60.5836 26.8988 60.3454 26.8988 60.1072C26.8988 58.7974 26.6694 57.4876 26.3254 56.2968C25.0638 56.7731 23.6876 57.0113 22.3113 57.0113C21.8526 57.0113 21.1644 56.7732 20.8203 56.1778C20.591 55.8206 20.7056 55.3442 21.0497 54.987C21.279 54.7489 21.3938 54.2726 21.2791 54.0344C21.1644 53.7963 20.5909 53.5581 19.9028 53.5581C19.1 53.5581 18.6413 53.6772 18.5266 54.0344C18.4119 54.2726 18.6412 54.7489 18.7559 54.987C19.1 55.3442 19.1001 55.8206 18.9854 56.1778C18.756 56.7732 18.0678 57.0113 17.609 57.0113C16.2328 57.0113 14.8566 56.7731 13.595 56.2968C13.4803 56.4159 13.4803 56.654 13.4803 56.8922C13.8244 57.9639 13.9391 59.0356 14.0538 60.1072C13.8244 60.2263 14.0539 60.1072 14.2832 60.1072Z" fill="white"/>
<path d="M84.5865 2.59375V80.8262" stroke="white" stroke-width="2" stroke-miterlimit="10"/>
</svg>
