<svg width="382" height="89" viewBox="0 0 382 89" fill="none" xmlns="http://www.w3.org/2000/svg">
<path d="M346.694 76.8946C346.694 76.8946 347.956 76.4182 349.905 74.6321C351.855 72.846 352.084 70.5836 353.805 68.3212C355.754 65.8206 359.768 61.8911 359.768 61.8911C359.768 61.8911 358.507 67.2495 357.36 69.7501C355.64 73.4414 353.805 74.5131 353.805 74.5131C353.805 74.5131 354.722 75.2275 355.984 74.6321C357.245 74.0367 358.622 73.3223 360.571 73.5605C362.521 73.7986 364.929 73.7986 367.223 72.3697C369.632 70.9409 371.811 69.5119 371.811 69.5119C371.811 69.5119 370.32 74.2749 364.356 77.0136C360.457 78.6807 355.984 78.6807 354.493 77.8472C353.117 77.0136 351.396 76.6564 350.135 77.0136C348.873 77.3708 346.694 76.8946 346.694 76.8946Z" fill="white"/>
<path d="M366.076 51.4126C366.076 51.4126 366.076 56.0565 366.42 57.6045C366.65 59.2716 366.42 61.1768 365.732 62.7247C365.044 64.2727 364.012 66.5351 364.815 66.8924C365.617 67.3687 365.847 65.5825 367.567 64.2727C369.287 62.9629 372.384 61.4149 373.99 60.3432C376.742 58.6762 378.807 55.4612 378.807 55.4612C378.807 55.4612 377.66 62.7247 371.811 66.8924C367.911 69.6311 360.342 70.3456 360.342 70.3456C360.342 70.3456 361.145 69.6311 361.603 67.7259C362.062 65.8207 362.177 61.7721 362.98 59.1525C363.553 56.6519 366.076 51.4126 366.076 51.4126Z" fill="white"/>
<path d="M369.173 40.9336C369.173 40.9336 371.352 46.6493 371.696 48.3163C371.925 49.9834 371.581 54.7464 371.581 54.7464C371.581 54.7464 373.416 53.0794 375.137 50.1025C376.513 47.84 378.577 47.0064 379.724 45.2203C380.871 43.4342 381.33 42.6007 381.33 42.6007C381.33 42.6007 380.183 47.7209 378.921 50.6978C376.857 55.699 368.714 60.9384 368.714 60.9384C368.714 60.9384 369.173 59.5095 369.402 56.6516C369.631 53.7938 368.943 50.4597 368.714 48.3163C368.37 46.173 369.173 40.9336 369.173 40.9336Z" fill="white"/>
<path d="M369.058 29.1455C369.058 29.1455 369.746 29.9791 371.008 32.1225C372.384 34.2658 374.104 36.6474 374.219 37.9572C374.334 39.2671 374.907 40.9342 375.366 40.8151C375.825 40.696 375.825 39.2671 376.398 37.0046C377.086 34.7422 378.921 32.4797 379.265 30.8126C379.495 29.5028 380.068 27.4785 380.068 27.4785C380.068 27.4785 381.1 33.3133 379.839 37.9572C378.577 42.7203 375.939 44.9828 375.481 45.5782C375.022 46.1736 374.219 47.007 374.219 47.007C374.219 47.007 374.678 47.4834 373.416 44.5065C372.155 41.5295 371.237 39.7434 370.09 37.6C369.287 35.8139 369.058 29.1455 369.058 29.1455Z" fill="white"/>
<path d="M366.191 19.3814C366.191 19.3814 369.288 21.2866 370.664 22.8346C372.269 24.6207 373.99 27.9549 374.563 27.8358C375.137 27.7167 374.563 24.8589 374.678 23.7872C374.793 22.7155 375.251 17.7144 375.022 16.4045C374.793 15.0947 374.449 13.1895 374.449 13.1895C374.449 13.1895 378.004 18.5479 377.889 22.3583C377.775 26.1687 378.004 27.0022 376.284 29.9791C375.366 31.5271 374.907 33.6705 374.907 33.6705C374.907 33.6705 374.449 32.5988 373.187 31.0508C372.04 29.5029 369.402 26.8832 368.485 24.5017C367.567 22.1201 366.191 19.3814 366.191 19.3814Z" fill="white"/>
<path d="M361.604 9.97426C361.604 9.97426 362.521 10.8078 363.897 11.8795C365.274 12.9511 367.108 13.6657 368.141 14.6183C369.173 15.6899 370.32 16.8807 370.893 16.5235C371.352 16.2853 370.778 15.3327 369.976 13.0702C369.173 10.8078 369.173 8.6644 368.599 7.71179C368.026 6.75918 367.338 4.854 367.338 4.854C367.338 4.854 371.237 7.94997 371.925 10.5696C372.613 13.1893 372.499 21.2865 372.499 21.2865C372.499 21.2865 371.811 20.2148 370.434 19.2622C369.058 18.1905 365.732 15.6899 364.585 14.7373C362.406 13.0702 361.604 9.97426 361.604 9.97426Z" fill="white"/>
<path d="M358.392 1.40186C358.392 1.40186 361.489 2.2354 363.553 4.02152C365.503 5.80765 367.109 10.6897 367.109 10.6897C367.109 10.6897 363.783 9.02265 362.521 7.71282C361.145 6.28392 358.392 1.40186 358.392 1.40186Z" fill="white"/>
<path d="M298.181 79.5147C298.181 79.5147 301.737 81.4199 304.489 81.1817C307.242 80.9436 309.879 79.991 314.352 78.8002C318.94 77.6094 322.38 77.2522 324.445 77.7286C326.509 78.0858 330.065 78.562 330.065 78.562C330.065 78.562 334.767 77.8476 338.322 77.6094C340.157 77.4904 342.565 78.0858 345.318 78.9193C347.956 79.7528 352.773 81.4199 355.41 81.4199C359.31 81.4199 362.292 79.8719 362.292 79.8719C362.292 79.8719 361.948 82.8488 352.429 83.8014C346.809 84.3968 344.515 83.9205 341.992 82.2534C339.469 80.5864 336.831 79.2765 335.569 79.1574C334.308 79.0383 332.473 79.2765 332.473 79.2765C332.473 79.2765 335.914 80.5864 337.519 81.8962C339.24 83.3251 343.598 87.0165 343.598 87.0165L342.565 88.3263C342.565 88.3263 340.845 85.8257 338.093 83.6824C335.34 81.6581 331.441 79.5147 329.95 79.5147C328.459 79.5147 323.757 81.7771 320.775 84.635C317.908 87.4928 317.564 88.2072 317.564 88.2072L316.417 87.0165C316.417 87.0165 318.596 84.754 321.578 82.7297C324.56 80.7054 327.656 79.1574 327.656 79.1574C327.656 79.1574 327.541 78.8002 325.706 79.0384C323.871 79.1574 322.495 79.3956 319.399 81.4199C316.302 83.4442 315.155 83.9205 312.517 84.1586C309.88 84.5159 304.719 83.9205 301.622 82.6106C298.87 81.1817 298.181 79.5147 298.181 79.5147Z" fill="white"/>
<path d="M288.662 69.0357C288.662 69.0357 291.529 71.4172 292.906 72.1317C295.888 73.9178 298.525 73.0843 300.36 73.3224C302.31 73.5606 303.916 74.0368 304.489 74.3941C305.062 74.6322 306.783 74.8704 306.897 74.5132C307.127 74.156 305.407 73.4415 304.03 71.06C302.195 67.6068 301.048 62.0103 301.048 62.0103C301.048 62.0103 303.916 64.0346 306.439 67.6068C308.962 71.1791 308.618 72.8461 310.453 74.3941C312.288 76.0611 314.123 76.8947 314.123 76.8947C314.123 76.8947 311.829 76.6565 310.109 76.7756C308.388 76.8947 305.521 78.0854 302.998 78.0854C300.475 78.0854 295.658 77.8473 291.759 73.2033C289.006 70.1073 288.662 69.0357 288.662 69.0357Z" fill="white"/>
<path d="M281.552 55.8181C281.552 55.8181 283.272 58.1996 285.68 60.2239C288.089 62.2482 291.873 63.558 293.135 64.9869C294.397 66.5349 294.97 67.7256 295.658 67.3684C296.346 67.0112 295.199 65.7014 294.741 63.7962C294.282 61.7719 293.823 56.5326 294.282 54.5083C294.511 53.4367 294.396 51.8887 294.396 51.8887C294.396 51.8887 295.543 53.9129 296.92 57.0089C298.181 59.8667 298.067 64.8678 298.64 67.0112C299.213 69.2736 300.36 70.8215 300.36 70.8215C300.36 70.8215 296.576 70.5834 294.626 69.8689C292.676 69.1545 287.401 67.1302 285.451 63.677C283.387 60.2239 281.552 55.8181 281.552 55.8181Z" fill="white"/>
<path d="M279.143 42.6009C279.143 42.6009 279.946 44.6251 281.093 45.8159C282.354 47.0067 283.042 47.602 284.533 49.3882C285.566 50.5789 287.974 55.342 288.662 55.2229C289.236 55.1039 288.318 52.7223 288.548 50.2217C289.006 46.1731 291.415 41.291 291.415 41.291C291.415 41.291 291.988 46.2922 291.874 49.2691C291.759 52.246 290.727 55.5802 291.071 57.3663C291.415 59.0334 291.644 61.1768 291.644 61.1768C291.644 61.1768 287.859 58.5571 285.222 56.0565C282.584 53.5559 280.175 48.0783 279.717 46.4113C279.372 44.8633 279.143 42.6009 279.143 42.6009Z" fill="white"/>
<path d="M280.175 27.7168C280.175 27.7168 279.716 35.0994 280.634 38.4335C282.01 43.911 286.024 47.3641 286.024 47.3641C286.024 47.3641 286.368 45.4589 287.286 43.5537C288.203 41.6485 289.58 39.7433 290.153 38.1954C291.185 35.0994 291.529 29.741 291.529 29.741C291.529 29.741 290.612 31.289 289.694 32.4798C288.777 33.6705 287.745 35.2185 286.942 37.2428C286.139 39.2671 286.024 41.1722 285.107 41.2913C283.845 41.4104 284.877 39.5051 283.845 36.8855C282.813 34.2659 281.207 31.6462 281.093 30.3364C280.749 29.0266 280.175 27.7168 280.175 27.7168Z" fill="white"/>
<path d="M285.795 13.4272C285.795 13.4272 282.928 17.4758 282.584 21.048C282.125 24.7394 282.469 27.7163 283.845 30.0978C284.763 31.7648 285.107 34.1463 285.107 34.1463C285.107 34.1463 285.566 32.8365 286.713 31.5266C287.859 30.2168 289.924 28.3116 291.415 25.692C292.906 23.1914 294.167 19.7382 294.167 19.7382C294.167 19.7382 291.874 21.0481 290.612 22.3579C287.401 25.4538 285.795 28.3117 285.795 28.3117C285.795 28.3117 284.877 27.4781 285.222 26.2874C285.566 25.0966 285.68 23.1914 285.566 21.7625C285.451 20.3336 284.992 19.6191 285.336 17.833C285.336 16.285 285.795 13.4272 285.795 13.4272Z" fill="white"/>
<path d="M293.479 5.21094C293.479 5.21094 289.694 7.59246 288.662 10.5694C287.859 12.8318 288.203 15.2134 287.859 17.5949C287.515 19.9764 287.974 21.6434 287.974 21.6434C287.974 21.6434 288.318 21.048 289.58 19.6191C290.956 18.0711 293.02 17.2376 294.511 16.166C297.723 13.9035 299.099 10.2122 299.099 10.2122C299.099 10.2122 297.264 11.9982 296.346 12.4746C295.429 12.9509 293.708 13.9035 292.447 14.8561C291.529 15.5705 290.727 17.5949 290.727 17.5949C290.727 17.5949 289.58 16.4041 289.924 15.2134C290.383 13.9035 290.956 12.9509 291.185 11.6411C291.415 10.3312 291.759 8.54507 292.332 7.59246C292.791 6.52078 293.479 5.21094 293.479 5.21094Z" fill="white"/>
<path d="M296.232 4.97283C297.723 3.42487 302.081 1.75781 302.081 1.75781C302.081 1.75781 300.246 4.97281 298.181 7.11615C295.888 9.61671 292.906 11.0457 292.906 11.0457C292.906 11.0457 293.594 7.59246 296.232 4.97283Z" fill="white"/>
<path d="M316.302 10.2124C320.316 10.2124 328.229 14.6182 328.229 20.572C328.229 24.2633 325.477 26.7639 325.477 26.7639C325.477 26.7639 325.592 28.7882 325.362 29.5027C324.789 30.6934 324.33 30.3362 323.642 31.4078C322.954 32.4795 322.61 34.1466 319.743 34.1466C316.875 34.1466 316.875 33.194 315.499 33.194C314.123 33.194 313.205 34.6229 313.205 34.6229V45.3397C313.205 45.3397 313.549 46.6495 316.073 48.1975C318.71 49.6264 320.66 50.579 321.463 50.579C322.266 50.579 322.266 49.6264 323.298 49.6264C324.33 49.6264 328.229 49.6264 328.229 51.5317C328.229 53.4369 326.28 54.7466 319.054 54.7466C311.944 54.7466 309.65 54.1513 308.847 54.1513C308.044 54.1513 307.93 54.3895 307.93 55.4611C307.93 56.6519 307.93 58.1999 307.93 58.1999C307.93 58.1999 309.077 60.2241 310.568 60.9386C312.059 61.7721 312.861 62.1293 314.467 62.1293C316.072 62.1293 318.481 61.5339 320.431 60.7004C322.38 59.7478 324.33 59.2716 326.509 59.2716C328.803 59.2716 332.702 58.6762 332.702 56.2947C332.702 53.9132 331.785 53.0796 331.785 51.1744C331.785 49.2692 332.014 47.7212 331.211 46.7686C330.409 45.9351 326.509 42.9582 326.509 41.4102C326.509 39.7432 327.885 39.0287 328.115 38.1952C328.229 37.2426 328.115 36.7662 328.803 36.5281C329.376 36.409 329.835 36.0518 329.835 36.0518L330.064 34.5038C330.064 34.5038 330.867 34.1466 331.211 33.7894C331.555 33.4321 331.899 33.194 331.899 33.194C331.899 33.194 331.555 32.0033 332.243 31.2888C332.932 30.5743 333.734 30.6934 334.423 30.6934C335.111 30.6934 337.06 30.4553 337.06 30.4553C337.06 30.4553 337.634 29.2645 338.437 28.6691C339.583 27.7165 342.795 27.2402 343.597 26.6448C344.4 25.9304 345.318 24.3824 347.382 24.3824C356.098 24.3824 362.062 32.5986 362.062 37.0044C362.062 44.6252 357.245 53.9132 350.593 53.9132C345.318 53.9132 345.662 55.5802 345.662 57.3663C345.662 61.534 349.561 62.3675 349.561 62.3675C349.561 62.3675 341.304 68.7976 331.67 68.7976C322.61 68.7976 313.549 65.3444 307.012 57.8426C302.539 52.7224 299.099 45.9351 299.099 36.5281C299.099 32.8367 299.099 32.2414 299.099 32.2414C299.099 32.2414 301.507 30.3362 302.883 29.5027C304.374 28.7882 307.586 26.7639 307.586 25.2159C307.586 23.6679 307.012 22.9534 307.012 19.6193C307.012 18.0713 307.356 15.2135 308.733 13.3083C310.568 11.5222 313.32 10.2124 316.302 10.2124Z" fill="white"/>
<path d="M330.523 0.448242C311.256 0.448242 295.658 16.6425 295.658 36.6472C295.658 56.6519 311.256 72.8461 330.523 72.8461C349.791 72.8461 365.388 56.6519 365.388 36.6472C365.388 16.6425 349.791 0.448242 330.523 0.448242ZM356.557 14.1419C358.392 16.4043 359.195 17.9523 359.195 17.9523C359.195 17.9523 357.933 19.2622 356.557 19.9766C355.181 20.6911 352.543 21.6436 352.543 21.6436C352.543 21.6436 351.626 18.5477 350.823 16.8806C350.02 15.2136 349.217 13.3084 349.217 13.3084C349.217 13.3084 350.02 12.713 351.167 11.8795C352.314 11.0459 353.117 10.3315 353.117 10.3315C353.117 10.3315 355.066 12.2367 356.557 14.1419ZM345.088 4.85405C345.088 4.85405 347.497 5.92568 348.988 7.11644C350.593 8.30719 352.428 9.85523 352.428 9.85523C352.428 9.85523 352.199 10.3315 351.282 11.046C350.364 11.7604 349.103 12.3558 349.103 12.3558C349.103 12.3558 347.956 10.6887 346.923 9.3789C345.891 8.06907 344.056 5.92568 344.056 5.92568C344.056 5.92568 344.515 5.44941 344.744 5.21126C344.974 4.85403 345.088 4.85405 345.088 4.85405ZM340.501 12.3558C340.157 10.6887 339.239 9.14073 339.239 9.14073C339.239 9.14073 340.73 8.42626 341.648 7.71181C342.565 7.11644 343.368 6.40201 343.368 6.40201C343.368 6.40201 344.974 8.06905 346.235 9.73611C347.382 11.2841 348.3 12.8321 348.3 12.8321C348.3 12.8321 346.809 13.5465 344.974 14.3801C343.253 15.2136 340.96 15.5708 340.96 15.5708C340.96 15.5708 340.845 14.0228 340.501 12.3558ZM341.418 24.7397C341.418 24.7397 340.616 24.9778 337.863 25.0969C335.111 25.2159 332.702 25.0969 332.702 25.0969V17.1188C332.702 17.1188 334.767 17.2378 336.372 17.2378C337.863 17.2378 340.501 16.7616 340.501 16.7616C340.501 16.7616 340.616 18.0714 340.96 20.0957C341.304 22.0009 341.418 24.7397 341.418 24.7397ZM342.221 3.54417C343.139 3.78232 344.286 4.49683 344.286 4.49683L343.253 5.3303C343.253 5.3303 342.565 4.61588 341.877 4.0205C341.189 3.30605 339.698 2.82975 339.698 2.82975C339.698 2.82975 341.304 3.30602 342.221 3.54417ZM339.469 3.30608C341.189 4.25868 342.565 5.92568 342.565 5.92568C342.565 5.92568 341.877 6.40198 340.96 7.11644C340.042 7.83089 338.781 8.0691 338.781 8.0691C338.781 8.0691 337.978 6.04477 337.404 4.97309C336.831 3.90141 335.111 1.87716 335.111 1.87716C335.111 1.87716 337.748 2.35348 339.469 3.30608ZM332.587 1.639C332.587 1.639 334.537 1.16272 336.257 4.49683C337.175 6.28297 337.978 8.30719 337.978 8.30719C337.978 8.30719 336.602 8.78349 335.225 8.90257C333.849 9.02164 332.587 8.78352 332.587 8.78352V1.639ZM332.587 9.85523C332.587 9.85523 333.849 9.9743 335.455 9.85523C336.946 9.73615 338.437 9.3789 338.437 9.3789C338.437 9.3789 339.01 9.9743 339.469 12.2367C339.927 14.261 340.157 15.809 340.157 15.809C340.157 15.809 338.551 16.2853 336.257 16.4044C333.964 16.5234 332.702 16.2853 332.702 16.2853V9.85523H332.587ZM331.555 1.639L331.67 8.90257C331.67 8.90257 330.179 9.02166 328.459 8.54535C326.853 8.06905 326.05 7.59277 326.05 7.59277C326.05 7.59277 326.968 5.80661 328.115 4.13955C330.638 0.567289 331.555 1.639 331.555 1.639ZM329.376 1.40083C329.376 1.40083 327.771 2.94881 327.082 4.37772C326.394 5.80662 325.362 7.23555 325.362 7.23555C325.362 7.23555 324.101 6.64018 323.298 6.0448C322.495 5.44942 322.036 4.97309 322.036 4.97309C322.036 4.97309 323.412 3.30602 325.936 2.35342C328.229 1.51989 329.376 1.40083 329.376 1.40083ZM322.839 2.35342C324.101 1.99619 325.133 1.99621 325.133 1.99621C325.133 1.99621 323.642 2.71067 322.839 3.42513C322.036 4.0205 321.348 4.49683 321.348 4.49683C321.348 4.49683 321.004 4.25868 320.775 3.90146C320.545 3.54423 320.545 3.18696 320.545 3.18696C320.545 3.18696 321.578 2.59157 322.839 2.35342ZM330.638 71.7744C313.549 71.7744 296.69 57.6044 296.69 36.7662C296.69 10.5697 319.628 3.42513 319.628 3.42513L321.004 4.73493C321.004 4.73493 319.743 5.5685 318.825 6.64018C317.793 7.71186 317.219 8.66447 317.219 8.66447L317.793 9.25985C317.793 9.25985 318.481 8.18813 319.284 7.3546C320.087 6.52107 321.233 5.56847 321.233 5.56847C321.233 5.56847 322.38 6.87833 323.183 7.23555C323.986 7.71186 325.018 8.18814 325.018 8.18814C325.018 8.18814 324.903 8.78349 324.559 9.49794C324.215 10.2124 323.986 11.165 323.986 11.165L324.674 11.6414C324.674 11.6414 325.133 10.2124 325.477 9.61706C325.706 9.02168 325.936 8.54535 325.936 8.54535C325.936 8.54535 327.656 9.25984 329.147 9.61706C330.638 9.97429 331.67 9.85523 331.67 9.85523V16.0471H329.491V17.1188H331.785V24.9777H329.835V25.8113H331.67V28.6691H332.587V25.9304C332.587 25.9304 333.734 25.9304 336.946 25.8113C340.042 25.6922 342.107 25.335 342.107 25.335C342.107 25.335 341.992 22.3581 341.762 20.2147C341.533 18.0714 341.074 16.4044 341.074 16.4044C341.074 16.4044 342.909 16.1662 344.859 15.3327C346.809 14.4991 348.529 13.6656 348.529 13.6656C348.529 13.6656 349.561 15.2136 350.364 17.476C351.167 19.7384 351.97 22.0009 351.97 22.0009L350.593 22.5962L350.823 23.3107L352.428 22.8344L352.887 23.787L353.461 23.5489L353.002 22.5962C353.002 22.5962 354.837 22.0009 356.672 21.0483C358.507 19.9766 359.883 19.024 359.883 19.024C359.883 19.024 364.471 26.2876 364.471 36.6472C364.471 52.4842 352.543 71.7744 330.638 71.7744Z" fill="white"/>
<path d="M33.9412 83.0866V74.9894L33.7119 74.7513C30.0419 81.3004 25.5691 84.6345 17.1969 84.6345C9.51287 84.6345 0.223145 80.705 0.223145 67.3686V27.3594H8.93949V64.2726C8.93949 73.4414 13.2975 76.5374 19.0319 76.5374C30.0419 76.5374 33.3678 66.1779 33.3678 58.0808V27.4785H42.084V83.0866H33.9412Z" fill="white"/>
<path d="M97.7075 83.0864H88.9913V48.9117C88.9913 39.2666 86.3535 34.3845 77.8666 34.3845C72.9351 34.3845 64.1042 37.8377 64.1042 52.8412V83.0864H55.3879V27.4781H63.6454V35.3371H63.8747C65.8244 32.3602 70.6413 25.9302 79.5869 25.9302C87.6151 25.9302 97.8223 29.3834 97.8223 45.3395V83.0864" fill="white"/>
<path d="M110.896 17.357V6.75928H119.613V17.357H110.896ZM119.613 83.0869H110.896V27.4785H119.613V83.0869Z" fill="white"/>
<path d="M165.258 46.1734C164.112 38.7908 160.327 34.2659 152.872 34.2659C141.977 34.2659 138.536 45.3399 138.536 55.2231C138.536 64.7492 140.715 76.5377 152.758 76.5377C158.607 76.5377 163.768 71.8937 165.258 63.3203H173.745C172.828 72.1318 167.782 84.6348 152.528 84.6348C137.848 84.6348 129.247 72.8463 129.247 56.7711C129.247 39.5052 137.045 25.8115 154.248 25.8115C167.896 25.8115 173.057 36.4093 173.745 46.1734H165.258Z" fill="white"/>
<path d="M226.731 65.5827C226.387 68.2024 224.093 76.0613 217.441 80.8243C215.033 82.4914 211.707 84.6348 203.335 84.6348C188.655 84.6348 180.053 72.8463 180.053 56.7711C180.053 39.5052 187.852 25.8115 205.055 25.8115C220.079 25.8115 227.419 38.5526 227.419 58.2H189.343C189.343 69.7503 194.389 76.5377 204.482 76.5377C212.739 76.5377 217.671 69.7504 217.9 65.5827H226.731ZM218.359 50.8173C217.9 42.2439 214.459 34.2659 203.793 34.2659C195.765 34.2659 189.343 42.2439 189.343 50.8173H218.359Z" fill="white"/>
<path d="M248.751 35.2183V83.0867H240.035V35.2183H232.924V27.4783H240.035V17.9523C240.035 9.49791 244.966 5.6875 253.568 5.6875C254.829 5.6875 256.206 5.80652 257.582 5.92559V14.38C256.435 14.2609 255.059 14.1418 254.027 14.1418C250.242 14.1418 248.866 16.1662 248.866 20.572V27.4783H257.582V35.2183H248.751Z" fill="white"/>
</svg>
