<svg width="30" height="27" viewBox="0 0 30 27" fill="none" xmlns="http://www.w3.org/2000/svg">
<path d="M11.8597 0H9.804L8.42037 3.96321L6.97745 0H4.83777C5.26768 0.933817 5.71242 1.87499 6.14233 2.81248C6.79461 4.22056 7.19981 5.28305 7.38265 6.00731V10.0955H9.41362V6.00731L11.8597 0ZM17.2904 7.65803V5.02202C17.2904 4.21688 17.1026 3.63233 16.7221 3.24998C16.2132 2.73527 15.5016 2.47792 14.5874 2.47792C13.6732 2.47792 12.9616 2.73527 12.4527 3.24998C12.0623 3.63233 11.8794 4.21688 11.8794 5.02202V7.65803C11.8794 8.4595 12.0623 9.0514 12.4527 9.4264C12.9616 9.9411 13.6732 10.1948 14.5874 10.1948C15.5065 10.1948 16.2181 9.93743 16.7221 9.4264C17.1026 9.0514 17.2904 8.4595 17.2904 7.65803ZM15.4571 7.91538C15.4571 8.61023 15.1754 8.95949 14.5825 8.95949C13.9895 8.95949 13.7078 8.61023 13.7078 7.91538V4.74996C13.7078 4.05512 13.9895 3.70586 14.5825 3.70586C15.1754 3.70586 15.4571 4.05144 15.4571 4.74996V7.91538ZM24.0652 10.0955V2.57351H22.2319V8.32347C21.8267 8.74993 21.4413 8.96317 21.0756 8.96317C20.8285 8.96317 20.6852 8.85655 20.6457 8.64332C20.621 8.5992 20.621 8.43376 20.621 8.11391V2.57351H18.7926V8.522C18.7926 9.0514 18.8569 9.41169 18.9557 9.63963C19.1385 10.022 19.5437 10.1985 20.1367 10.1985C20.8038 10.1985 21.5006 9.89699 22.2319 9.27199V10.0918H24.0652V10.0955Z" fill="white"/>
<path d="M18.3181 17.731C18.0216 17.731 17.7153 17.8376 17.4138 18.0582V22.5949C17.7153 22.8192 18.0216 22.9258 18.3181 22.9258C18.8419 22.9258 19.1088 22.5949 19.1088 21.9221V18.7457C19.1088 18.0765 18.8419 17.731 18.3181 17.731Z" fill="white"/>
<path d="M25.0486 17.731C24.4408 17.731 24.1394 18.0765 24.1394 18.764V19.4515H25.9529V18.764C25.948 18.0765 25.6466 17.731 25.0486 17.731Z" fill="white"/>
<path d="M29.4762 13.9487C29.1105 12.7612 27.806 11.8862 26.2346 11.7576C22.5136 11.4487 18.7481 11.4487 15.0025 11.4487C11.2519 11.4487 7.48641 11.4487 3.77038 11.7576C2.19898 11.8862 0.894416 12.7649 0.528743 13.9487C0.0049414 15.6399 0 17.4855 0 19.2244C0 20.9634 -1.17815e-06 22.8089 0.5238 24.5001C0.889473 25.6876 2.19403 26.5626 3.76544 26.6913C7.48641 27.0001 11.2519 27.0001 14.9975 27.0001C18.7432 27.0001 22.5136 27.0001 26.2296 26.6913C27.801 26.5589 29.1056 25.6839 29.4713 24.5001C29.9951 22.8089 30 20.9634 30 19.2244C30 17.4818 30 15.6399 29.4762 13.9487ZM8.55872 15.4708H6.38445V24.0553H4.36831V15.4708H2.23357V14.0627H8.55378V15.4708H8.55872ZM14.0339 24.0516H12.2204V23.2391C11.4989 23.853 10.817 24.1545 10.1499 24.1545C9.56679 24.1545 9.16159 23.978 8.98369 23.5994C8.88486 23.3714 8.82556 23.0185 8.82556 22.4928V16.6068H10.6391V22.0884C10.6391 22.4045 10.6391 22.57 10.6539 22.6141C10.6984 22.8236 10.8368 22.9303 11.0789 22.9303C11.4446 22.9303 11.8251 22.7207 12.2253 22.3016V16.6068H14.0389V24.0516H14.0339ZM20.9224 21.82C20.9224 22.5075 20.8582 23.0038 20.7396 23.32C20.4974 23.8751 20.0132 24.1545 19.2917 24.1545C18.6444 24.1545 18.0267 23.8861 17.4189 23.331V24.0516H15.6053V14.0627H17.4189V17.3274C18.0069 16.7906 18.6246 16.5185 19.2917 16.5185C20.0132 16.5185 20.4974 16.8016 20.7396 17.3568C20.8582 17.6582 20.9224 18.1509 20.9224 18.8531V21.82ZM27.7664 20.5773H24.1394V21.8972C24.1394 22.5884 24.4408 22.9303 25.0634 22.9303C25.5082 22.9303 25.7701 22.7501 25.8738 22.3898C25.8886 22.3163 25.9134 22.0185 25.9134 21.4781H27.7664V21.6729C27.7664 22.1067 27.7417 22.4082 27.7269 22.5442C27.6676 22.842 27.5243 23.1141 27.3069 23.3531C26.8028 23.8935 26.0616 24.1582 25.1128 24.1582C24.1641 24.1582 23.4426 23.9045 22.9188 23.3935C22.5334 23.0222 22.3357 22.4339 22.3357 21.6435V19.0369C22.3357 18.2391 22.5086 17.6582 22.8941 17.2832C23.4179 16.7722 24.1393 16.5185 25.0634 16.5185C25.9727 16.5185 26.6941 16.7722 27.2031 17.2832C27.5836 17.6582 27.7664 18.2391 27.7664 19.0369V20.5773Z" fill="white"/>
</svg>
